<svg width="80" height="80" viewBox="0 0 80 80" fill="none" xmlns="http://www.w3.org/2000/svg">
<path d="M24.6167 45.4228L28.4467 42.882C28.6646 42.7373 28.9434 42.7198 29.1775 42.8365L34.2715 45.3711L36.9606 42.14L29.577 28.259C29.5789 28.2378 29.5834 28.2173 29.5834 28.1956V21.731H39.4139L35.0581 17.3967C34.92 17.2595 34.8425 17.0726 34.8425 16.8778C34.8425 16.6829 34.92 16.4962 35.0581 16.3589L39.4145 12.0228H29.5836V11.4371C29.5836 11.0328 29.2557 10.705 28.8515 10.705C28.4473 10.705 28.1193 11.0328 28.1193 11.4371V28.1956C28.1193 28.2578 28.1293 28.3171 28.144 28.3746L20.7178 43.1571L24.6167 45.4228Z" fill="url(#paint0_linear_407_4782)"/>
<path d="M48.0911 51.2606C48.3486 51.0898 48.6861 51.0992 48.9339 51.2839L54.0147 55.0768L59.4388 49.1181L51.303 36.4656L42.4793 50.1867C42.4785 50.1876 42.4782 50.1889 42.4772 50.19L41.5166 51.6842L44.3116 53.7693L48.0911 51.2606Z" fill="url(#paint1_linear_407_4782)"/>
<path d="M41.0133 49.7589L37.7033 43.5364L35.0264 46.7528C34.8836 46.9245 34.6755 47.0165 34.4635 47.0165C34.353 47.0165 34.2416 46.9917 34.1377 46.94L28.9038 44.3359L25.0469 46.8945C24.8146 47.0486 24.5152 47.0573 24.2744 46.9175L20.0593 44.4681L7.58691 69.295H28.4516L29.0499 68.3647L39.9152 51.4668L41.0133 49.7589ZM28.8513 60.2506H26.0489V57.4612H28.8513V60.2506ZM28.8513 56.0611H26.0489V53.272H28.8513V56.0611ZM28.8513 51.8708H26.0489V49.0817H28.8513V51.8708Z" fill="url(#paint2_linear_407_4782)"/>
<path d="M60.2583 50.3929L54.6504 56.554C54.5066 56.7119 54.3085 56.7933 54.1086 56.7933C53.9557 56.7933 53.8019 56.7454 53.671 56.6478L48.4711 52.7658L44.6918 55.2744C44.4343 55.4453 44.0968 55.4361 43.8489 55.2514L40.7224 52.919L30.1924 69.2951H72.4122L60.2583 50.3929ZM52.7041 65.8365H49.9016V63.0475H52.7041V65.8365ZM52.7041 61.6475H49.9016V58.8581H52.7041V61.6475Z" fill="url(#paint3_linear_407_4782)"/>
<defs>
<linearGradient id="paint0_linear_407_4782" x1="30.0661" y1="8.62189" x2="30.0661" y2="45.4228" gradientUnits="userSpaceOnUse">
<stop stop-color="#FF2E00"/>
<stop offset="1" stop-color="#FF9C85"/>
</linearGradient>
<linearGradient id="paint1_linear_407_4782" x1="50.4777" y1="35.3489" x2="50.4777" y2="55.0768" gradientUnits="userSpaceOnUse">
<stop stop-color="#FF2E00"/>
<stop offset="1" stop-color="#FF9C85"/>
</linearGradient>
<linearGradient id="paint2_linear_407_4782" x1="24.3001" y1="41.9909" x2="24.3001" y2="69.295" gradientUnits="userSpaceOnUse">
<stop stop-color="#FF2E00"/>
<stop offset="1" stop-color="#FF9C85"/>
</linearGradient>
<linearGradient id="paint3_linear_407_4782" x1="51.3023" y1="49.2588" x2="51.3023" y2="69.2951" gradientUnits="userSpaceOnUse">
<stop stop-color="#FF2E00"/>
<stop offset="1" stop-color="#FF9C85"/>
</linearGradient>
</defs>
</svg>
