<svg width="18" height="20" viewBox="0 0 18 20" fill="none" xmlns="http://www.w3.org/2000/svg">
<path d="M16 1.99996H11.82C11.6152 1.4154 11.2339 0.908915 10.7287 0.550577C10.2235 0.192239 9.61939 -0.000244141 9 -0.000244141C8.38061 -0.000244141 7.77653 0.192239 7.27133 0.550577C6.76612 0.908915 6.38476 1.4154 6.18 1.99996H2C1.47005 2.00154 0.962265 2.21276 0.587535 2.58749C0.212805 2.96222 0.00158273 3.47001 0 3.99996V18C0.00158273 18.5299 0.212805 19.0377 0.587535 19.4124C0.962265 19.7872 1.47005 19.9984 2 20H16C16.5299 19.9984 17.0377 19.7872 17.4125 19.4124C17.7872 19.0377 17.9984 18.5299 18 18V3.99996C17.9984 3.47001 17.7872 2.96222 17.4125 2.58749C17.0377 2.21276 16.5299 2.00154 16 1.99996ZM9 1.99996C9.19778 1.99996 9.39112 2.05861 9.55557 2.16849C9.72002 2.27837 9.84819 2.43455 9.92388 2.61727C9.99957 2.8 10.0194 3.00107 9.98079 3.19505C9.9422 3.38903 9.84696 3.56721 9.70711 3.70706C9.56725 3.84692 9.38907 3.94216 9.19509 3.98074C9.00111 4.01933 8.80004 3.99953 8.61732 3.92384C8.43459 3.84815 8.27841 3.71998 8.16853 3.55553C8.05865 3.39108 8 3.19774 8 2.99996C8.00079 2.73499 8.1064 2.48109 8.29377 2.29373C8.48113 2.10636 8.73503 2.00075 9 1.99996ZM7 6.99996L9.79 9.79396L12.31 7.27396L11 5.99996H15V9.99996L13.724 8.68896L9.792 12.624L7 9.82996L4.414 12.414L3 11L7 6.99996ZM16 17H2V15H16V17Z" fill="#FF5029"/>
</svg>
