<svg width="19" height="20" viewBox="0 0 19 20" fill="none" xmlns="http://www.w3.org/2000/svg">
<path d="M13.75 0H10.5C4.977 0 0.5 4.477 0.5 10C0.5 15.523 4.977 20 10.5 20H13.75V15H10.5C9.17392 15 7.90215 14.4732 6.96447 13.5355C6.02678 12.5979 5.5 11.3261 5.5 10C5.5 8.67392 6.02678 7.40215 6.96447 6.46447C7.90215 5.52678 9.17392 5 10.5 5H13.75V0ZM15.25 5H17C17.3978 5 17.7794 4.84196 18.0607 4.56066C18.342 4.27936 18.5 3.89782 18.5 3.5V1.5C18.5 1.10218 18.342 0.720644 18.0607 0.43934C17.7794 0.158035 17.3978 0 17 0H15.25V5ZM15.25 15V20H17C17.3978 20 17.7794 19.842 18.0607 19.5607C18.342 19.2794 18.5 18.8978 18.5 18.5V16.5C18.5 16.1022 18.342 15.7206 18.0607 15.4393C17.7794 15.158 17.3978 15 17 15H15.25Z" fill="#FF5029"/>
</svg>
