<svg width="19" height="18" viewBox="0 0 19 18" fill="none" xmlns="http://www.w3.org/2000/svg">
<path fill-rule="evenodd" clip-rule="evenodd" d="M12.53 6.68403H16.495C16.817 6.68403 17.135 6.76403 17.42 6.91603C17.705 7.06803 17.952 7.29003 18.137 7.56103C18.3216 7.83416 18.4397 8.14677 18.4817 8.47377C18.5238 8.80077 18.4886 9.13308 18.379 9.44403L16.019 16.645C15.731 17.459 15.539 18 14.135 18C12.063 18 9.859 17.323 7.978 16.744C7.506 16.599 7.054 16.46 6.63 16.34H6.515V6.47802C8.17285 4.84219 9.59877 2.98694 10.753 0.964025C10.9471 0.590526 11.2659 0.29684 11.654 0.134026C12.0386 -0.0263353 12.4679 -0.0433675 12.864 0.0860254C13.26 0.216025 13.6 0.483025 13.824 0.843025C14.049 1.20303 14.144 1.63103 14.093 2.05403L12.53 6.68403ZM1.677 7.00003H4.5V15C4.5 15.5305 4.28929 16.0392 3.91421 16.4142C3.53914 16.7893 3.03043 17 2.5 17C1.96957 17 1.46086 16.7893 1.08579 16.4142C0.710714 16.0392 0.5 15.5305 0.5 15V8.17703C0.5 7.52703 1.028 7.00003 1.677 7.00003Z" fill="#FF5029"/>
</svg>
