<svg width="32" height="38" viewBox="0 0 32 38" fill="none" xmlns="http://www.w3.org/2000/svg">
<path fill-rule="evenodd" clip-rule="evenodd" d="M0.91877 14.2745C1.22372 10.589 2.90285 7.15286 5.62304 4.64764C8.34323 2.14242 11.9057 0.751204 15.6038 0.75H16.3958C20.0938 0.751204 23.6563 2.14242 26.3765 4.64764C29.0967 7.15286 30.7758 10.589 31.0808 14.2745C31.4192 18.3892 30.1488 22.4749 27.5369 25.6723L18.7498 36.4193C18.4167 36.827 17.9972 37.1555 17.5216 37.3811C17.046 37.6066 16.5262 37.7237 15.9998 37.7237C15.4734 37.7237 14.9536 37.6066 14.4779 37.3811C14.0023 37.1555 13.5828 36.827 13.2498 36.4193L4.46444 25.6723C1.85187 22.4752 0.58088 18.3895 0.91877 14.2745ZM15.9998 7.625C13.6902 7.625 11.4752 8.54248 9.84205 10.1756C8.20892 11.8087 7.29144 14.0237 7.29144 16.3333C7.29144 18.6429 8.20892 20.8579 9.84205 22.4911C11.4752 24.1242 13.6902 25.0417 15.9998 25.0417C18.3094 25.0417 20.5244 24.1242 22.1575 22.4911C23.7906 20.8579 24.7081 18.6429 24.7081 16.3333C24.7081 14.0237 23.7906 11.8087 22.1575 10.1756C20.5244 8.54248 18.3094 7.625 15.9998 7.625Z" fill="#FF5029"/>
</svg>
