<svg width="34" height="34" viewBox="0 0 34 34" fill="none" xmlns="http://www.w3.org/2000/svg">
<path d="M17.0007 0.333374C7.83398 0.333374 0.333984 7.83337 0.333984 17C0.333984 26.1667 7.83398 33.6667 17.0007 33.6667C26.1673 33.6667 33.6673 26.1667 33.6673 17C33.6673 7.83337 26.1673 0.333374 17.0007 0.333374ZM22.834 20.3334C22.334 21.1667 21.334 21.3334 20.5007 21L16.1673 18.5C15.6673 18.1667 15.334 17.6667 15.334 17V8.66671C15.334 7.66671 16.0007 7.00004 17.0007 7.00004C18.0007 7.00004 18.6673 7.66671 18.6673 8.66671V16L22.1673 18C23.0007 18.5 23.1673 19.5 22.834 20.3334Z" fill="#FF5029"/>
</svg>
