<svg width="119" height="100" viewBox="0 0 119 100" fill="none" xmlns="http://www.w3.org/2000/svg">
<path d="M99.1262 50.0249C99.1262 72.0698 81.221 89.975 59.2259 89.9251C37.2309 89.9251 19.3756 72.0199 19.3257 50.0249C19.3257 27.98 37.2309 10.0747 59.2259 10.1246C81.2708 10.1745 99.1262 28.0299 99.1262 50.0249Z" fill="#1A4B89"/>
<path d="M20.3232 50.0248C20.3232 28.5286 37.7796 11.1221 59.2759 11.1221C80.7721 11.1221 98.1786 28.5784 98.1786 50.0747C98.1786 71.5709 80.7223 88.9774 59.226 88.9774C37.7297 88.9276 20.3232 71.5211 20.3232 50.0248Z" fill="white"/>
<path d="M59.2258 23.1422C74.0887 23.1422 86.1585 35.2121 86.1585 50.0749C86.1585 64.9378 73.9889 77.0574 59.1759 77.0076C44.3131 76.9577 32.2432 64.8879 32.2931 50.025C32.343 35.1622 44.4128 23.0924 59.2258 23.1422Z" fill="#1A4B89"/>
<path d="M63.0166 17.0076C62.867 17.5064 62.6675 18.0051 62.5678 18.5039C62.468 18.853 62.3184 18.9029 62.0191 18.9029C61.67 18.9029 61.67 18.7034 61.6201 18.454C61.5204 17.8056 61.4206 17.2071 61.2211 16.5089C61.1713 17.1573 61.0715 17.7558 61.0216 18.4041C61.0216 18.6036 61.0216 18.8031 60.6725 18.8031C60.3234 18.8031 60.2236 18.7034 60.2236 18.3044C60.3234 17.3568 60.3733 16.459 60.473 15.5114C60.473 15.262 60.473 15.0126 60.8221 15.1124C61.1214 15.2121 61.6201 14.9129 61.7199 15.5114C61.8196 16.3094 61.9194 17.0575 62.1688 17.8555C62.4181 17.1573 62.6675 16.459 62.8171 15.7109C62.9668 15.0625 63.4156 15.3617 63.7648 15.3617C64.2137 15.3617 64.1139 15.661 64.064 15.9104C64.0142 16.8081 63.9144 17.7059 63.8645 18.6535C63.8645 18.9528 63.7648 19.0525 63.4655 19.0525C63.1663 19.0525 63.0665 18.9528 63.1164 18.6535C63.1663 18.4041 63.1164 18.1049 63.1663 17.8555C63.266 17.5064 63.1663 17.2071 63.2162 16.858C63.2162 16.8081 63.2161 16.7582 63.266 16.7084C63.266 16.6585 63.3159 16.6585 63.3159 16.6086C63.266 16.6086 63.266 16.6585 63.266 16.7084C63.1663 16.7582 63.1663 16.9079 63.0166 17.0076Z" fill="#085491"/>
<path d="M56.882 83.5908C56.882 83.3414 56.882 83.092 56.882 82.8426C56.9319 81.4461 56.9319 81.496 58.3284 81.5459C59.0765 81.5957 59.7249 81.6955 60.0242 82.4935C60.3733 83.4411 60.3234 84.3389 59.7249 85.1369C59.4257 85.5359 58.9269 85.5858 58.4282 85.5858C56.8322 85.5858 56.8321 85.5858 56.882 84.0396C56.882 83.89 56.882 83.7404 56.882 83.5908Z" fill="#0A5592"/>
<path d="M69.2012 81.0972C69.2012 80.2992 69.5503 79.7506 70.2984 79.4513C70.9967 79.1521 71.6949 79.2518 72.1438 79.7007C72.2436 79.8503 72.4929 80 72.3433 80.1496C72.1937 80.2992 71.8446 80.5486 71.6451 80.2992C71.2461 79.9002 70.8471 79.9002 70.3982 80.1995C69.9493 80.5486 69.9992 81.0473 70.0989 81.4962C70.1987 81.8453 70.3483 82.1446 70.5977 82.4438C70.8969 82.7431 71.2461 82.8429 71.5952 82.6932C71.9443 82.5935 72.1937 82.3441 72.1937 81.8952C72.1937 81.7456 72.1438 81.596 72.3433 81.5461C72.5428 81.4962 72.7423 81.3466 72.8421 81.3965C73.0416 81.4463 72.9917 81.6957 72.9917 81.8952C72.9917 82.5935 72.5428 83.0423 71.9443 83.2917C71.2959 83.591 70.6475 83.5411 70.0989 83.0423C69.5503 82.6433 69.2012 81.8453 69.2012 81.0972Z" fill="#0A5592"/>
<path d="M38.9268 75.4112C38.9767 74.6631 38.3283 74.1643 37.6799 74.4636C37.1313 74.713 36.7323 75.1618 36.5328 75.7105C36.3832 76.1095 36.4829 76.4586 36.7822 76.708C37.0814 76.9573 37.3807 77.107 37.7298 76.8576C38.1288 76.6082 38.3283 76.9573 38.4779 77.1568C38.6276 77.4062 38.2784 77.506 38.0789 77.6057C37.4306 77.905 36.832 77.7055 36.2834 77.2566C35.7348 76.8077 35.5353 76.1593 35.7348 75.4611C35.9842 74.6631 36.5328 74.0646 37.3308 73.7155C38.4779 73.2666 39.8744 74.314 39.7248 75.511C39.6749 75.7603 39.6749 76.1593 39.3757 76.1095C39.0764 76.1095 38.6774 75.8601 38.9268 75.4112Z" fill="#085491"/>
<path d="M54.2384 82.4438C54.2883 82.1944 54.3381 81.945 54.388 81.6458C54.4379 81.3465 54.4878 81.1969 54.8369 81.2468C55.186 81.2966 55.2359 81.4463 55.186 81.7455C54.9865 82.7929 54.8369 83.8902 54.6374 84.9375C54.5875 85.0872 54.6374 85.3365 54.388 85.2867C53.8893 85.137 53.3905 85.2368 52.8918 85.137C52.2933 85.0373 52.0439 84.5884 51.994 84.0398C51.8943 83.3415 52.0938 82.6433 52.7421 82.2443C53.2409 81.8951 53.7396 81.9949 54.1386 82.4438C54.1386 82.3939 54.1885 82.3939 54.2384 82.4438Z" fill="#0A5592"/>
<path d="M92.1437 47.3315C92.4928 47.3315 92.842 47.3315 93.1911 47.3315C93.4405 47.3315 93.5901 47.4812 93.4904 47.6807C93.1911 48.2792 93.8894 48.9276 93.2908 49.5261C93.1911 49.6258 93.3906 49.7754 93.4405 49.8752C93.7896 50.5734 93.4904 51.1719 92.6923 51.2218C92.1936 51.2717 91.6948 51.2717 91.1961 51.2717C90.8968 51.2717 90.7971 51.1719 90.7971 50.8727C90.7971 50.5734 90.9467 50.5236 91.1961 50.5236C91.645 50.5236 92.044 50.5236 92.4928 50.5236C92.7422 50.5236 92.9417 50.4238 92.9417 50.1246C92.9417 49.8253 92.7422 49.6757 92.443 49.6757C92.044 49.6757 91.5951 49.6757 91.1961 49.6757C90.9467 49.6757 90.6973 49.7256 90.6973 49.3266C90.6973 48.9276 90.9467 48.9774 91.1961 48.9774C91.5951 48.9774 91.9941 48.9774 92.3931 48.9276C92.6425 48.9276 92.842 48.8777 92.842 48.5784C92.842 48.2792 92.6923 48.0797 92.3931 48.0797C91.9941 48.0797 91.5951 48.0797 91.1961 48.0797C90.9467 48.0797 90.6475 48.2293 90.6475 47.7305C90.6475 47.2318 90.9966 47.4313 91.1961 47.3814C91.4455 47.3814 91.7447 47.3814 91.9941 47.3814C92.1437 47.3814 92.1437 47.3315 92.1437 47.3315Z" fill="#0A5592"/>
<path d="M81.52 25.0873C81.4701 24.8878 81.4203 24.7381 81.2208 24.6883C81.0213 24.5885 80.8716 24.6384 80.722 24.788C80.4228 25.1371 80.1235 25.4863 79.8242 25.8354C79.6247 26.0848 79.525 26.0349 79.2756 25.8853C79.0262 25.7356 79.0761 25.586 79.2257 25.3865C79.525 25.0374 79.8242 24.6883 80.0736 24.3391C80.2233 24.1396 80.2731 23.9401 80.0736 23.7406C79.8741 23.5411 79.6247 23.5411 79.4751 23.7406C79.1759 24.0897 78.8267 24.4389 78.5774 24.8379C78.4277 25.0374 78.2781 25.0374 78.0786 24.8878C77.8791 24.7381 77.7794 24.6384 77.9789 24.389C78.4277 23.8902 78.8766 23.3416 79.2756 22.793C79.4751 22.5436 79.6746 22.5436 79.8242 22.793C80.0736 23.3915 81.0213 23.2917 81.0711 24.1396C81.0711 24.2892 81.3205 24.1895 81.4701 24.2394C82.1684 24.389 82.4676 25.0873 82.0188 25.6359C81.7195 26.0349 81.3704 26.4339 81.0213 26.8329C80.8218 27.0823 80.6721 27.0324 80.4726 26.8828C80.2233 26.6833 80.323 26.5835 80.4726 26.384C80.722 26.0848 81.0213 25.7356 81.2706 25.4364C81.3704 25.2868 81.4701 25.187 81.52 25.0873Z" fill="#0A5592"/>
<path d="M29.1512 35.2119C29.7995 35.3615 30.4479 35.7107 31.0963 36.0099C31.3457 36.1097 31.0963 36.3092 31.0464 36.5087C30.9965 36.7082 30.8469 36.7082 30.6973 36.6084C30.2983 36.4089 29.8494 36.2593 29.4504 36.0598C29.201 35.96 28.9516 35.9102 28.802 36.2094C28.6524 36.5087 28.802 36.7082 29.1013 36.8578C29.5003 37.0573 29.8993 37.2069 30.2983 37.3566C30.5477 37.4563 30.5975 37.6059 30.4978 37.8054C30.398 38.0548 30.2484 38.1047 29.999 38.0049C29.6 37.8054 29.201 37.6558 28.802 37.5062C28.5526 37.4064 28.3033 37.3566 28.1536 37.6558C28.0539 37.9551 28.1536 38.1546 28.403 38.2543C28.802 38.4538 29.201 38.6034 29.6 38.7531C29.8494 38.8528 29.9492 39.0024 29.7995 39.2518C29.6998 39.5012 29.5502 39.5012 29.3506 39.4014C28.7521 39.1022 28.1536 38.8528 27.5053 38.6034C27.3556 38.5536 27.0564 38.4039 27.2559 38.2543C27.6549 37.9052 27.4554 37.3566 27.7546 37.0573C28.1038 36.6583 28.3033 36.3092 28.3033 35.7605C28.3531 35.5112 28.7023 35.2119 29.1512 35.2119Z" fill="#0A5592"/>
<path d="M40.9717 21.546C40.7223 21.7455 40.5727 21.9949 40.1238 21.7954C39.7248 21.5959 39.3756 21.945 39.1761 22.2941C39.0764 22.4437 39.1263 22.5934 39.226 22.6931C39.3756 22.8427 39.5253 22.8926 39.6749 22.7929C40.024 22.6432 40.423 22.4936 40.7722 22.344C41.1712 22.1944 41.5702 22.1944 41.8694 22.5435C42.1687 22.8926 42.2684 23.2916 42.1188 23.6906C41.8694 24.4886 40.6225 25.137 39.9243 24.7879C39.7746 24.6881 39.4754 24.5884 39.5751 24.3889C39.6749 24.1894 39.8744 23.94 40.2235 24.1395C40.6724 24.3889 41.0215 24.0896 41.3208 23.7904C41.4704 23.6408 41.5702 23.4413 41.4205 23.2417C41.2709 22.9924 41.0714 22.9425 40.822 23.0422C40.4729 23.1919 40.1736 23.3415 39.8245 23.4413C39.3756 23.6408 38.9268 23.6408 38.6275 23.142C38.2784 22.6432 38.3283 22.1944 38.7273 21.7954C39.4754 20.9475 40.3732 20.8477 40.9717 21.546Z" fill="#0A5592"/>
<path d="M90.9465 34.9626C90.9465 35.212 90.9465 35.4115 90.747 35.611C90.6472 35.7606 90.4976 36.0599 90.2981 35.8604C90.1485 35.7107 89.8991 35.5112 90.1485 35.212C90.4477 34.813 90.2482 34.4638 89.9988 34.1646C89.8991 34.015 89.6996 33.9651 89.5001 34.0648C89.3006 34.1646 89.3006 34.3142 89.3006 34.4638C89.3505 34.813 89.4502 35.1621 89.55 35.5112C89.6497 36.0599 89.5998 36.5586 89.0013 36.808C88.5026 37.0574 87.954 36.9077 87.5549 36.409C87.0063 35.7107 86.8567 34.9626 87.2557 34.4638C87.3555 34.3142 87.5051 34.015 87.7046 34.2145C87.8542 34.3142 88.1036 34.5636 87.8542 34.8628C87.5051 35.3117 87.7545 35.7107 88.0537 36.0599C88.2033 36.2095 88.353 36.3092 88.6023 36.2095C88.8018 36.1097 88.9016 35.9102 88.8517 35.7107C88.752 35.3616 88.6522 35.0125 88.5525 34.6135C88.4527 34.1147 88.5525 33.7656 89.0013 33.5162C89.4502 33.2668 89.8991 33.3167 90.2482 33.6658C90.6971 33.9152 90.8966 34.414 90.9465 34.9626Z" fill="#0A5592"/>
<path d="M72.5426 21.9951C72.792 22.0948 73.0913 22.1447 73.191 22.4938C73.2908 22.7432 73.4903 22.8928 73.7895 22.8928C74.1386 22.8928 74.2384 22.6933 74.3381 22.3941C73.4903 22.3442 73.0414 22.0449 72.9915 21.3966C72.9416 20.6983 73.5401 19.7507 74.1885 19.6509C74.4379 19.601 74.6873 19.601 74.8868 19.7507C75.186 19.9502 75.3356 20.3492 75.8344 20.2993C76.0339 20.2494 76.0838 20.4988 75.984 20.6983C75.585 21.4464 75.2359 22.1946 74.787 22.9427C74.4878 23.4913 73.989 23.4913 73.4404 23.3417C72.7421 23.0424 72.4429 22.5936 72.5426 21.9951Z" fill="#0A5592"/>
<path d="M61.8693 82.4438C62.6673 82.4438 62.8669 82.6932 62.9666 83.4414C63.0165 83.99 63.0664 84.5885 63.1661 85.1371C63.216 85.4862 62.7172 85.4364 62.6175 85.3865C62.3182 85.2369 62.1187 85.3865 61.8693 85.4862C61.3207 85.7855 60.7721 85.586 60.5726 85.0872C60.3731 84.5386 60.5726 84.0399 61.221 83.8404C61.3706 83.7905 61.5202 83.7406 61.7197 83.6907C61.9192 83.6409 62.1187 83.6409 62.2185 83.3915C62.2683 83.2418 62.1686 83.1421 62.0688 83.0922C61.8195 83.0424 61.5202 82.9925 61.3706 83.2418C61.221 83.4413 61.0713 83.5411 60.822 83.5411C60.5227 83.5411 60.4728 83.4414 60.5726 83.192C60.6723 82.6932 61.1212 82.4438 61.8693 82.4438Z" fill="#0A5592"/>
<path d="M68.2036 84.4386C67.655 84.6381 67.0565 84.5383 66.5577 84.9373C66.2086 85.1867 65.7098 85.0371 65.4605 84.5383C65.261 84.0895 65.3108 83.6406 65.7597 83.3413C65.9592 83.2416 66.1587 83.1418 66.3582 83.0421C66.5577 82.9423 66.7572 82.9423 66.8071 82.693C66.8071 82.5433 66.7073 82.4436 66.6076 82.4436C66.3582 82.3937 66.059 82.4436 65.9592 82.693C65.8595 82.8925 65.7098 83.0421 65.4605 83.092C65.1612 83.1418 65.1113 83.0421 65.1113 82.7927C65.2111 82.2441 65.7098 81.8949 66.458 81.8451C67.0565 81.7952 67.4056 82.0446 67.5552 82.6431C67.655 83.1917 67.8046 83.7403 67.9542 84.289C68.0041 84.2391 68.1039 84.289 68.2036 84.4386Z" fill="#0A5592"/>
<path d="M75.7844 80.5486C75.8343 81.2968 75.4852 81.8454 74.8368 82.0449C74.1884 82.2444 73.6398 82.0449 73.2408 81.4464C72.6423 80.4988 72.7919 79.5511 73.6398 79.1521C74.3879 78.803 75.2358 79.1521 75.5849 79.9003C75.6847 80.0998 75.6348 80.1995 75.4353 80.2993C75.0363 80.4988 74.6872 80.6484 74.338 80.8479C74.1884 80.8978 73.9889 80.9476 74.0388 81.1471C74.0887 81.3466 74.2383 81.4963 74.4877 81.4963C74.7869 81.5461 75.0363 81.3965 75.136 81.1471C75.1859 80.7481 75.4852 80.6983 75.7844 80.5486Z" fill="#0A5592"/>
<path d="M41.4207 77.9548C41.4207 78.0047 41.4207 78.1543 41.3708 78.2541C41.1713 79.0022 41.0217 79.102 40.3733 78.6531C40.1738 78.5034 39.9244 78.3538 39.7249 78.2042C39.5753 78.1044 39.4755 77.8551 39.276 78.1044C39.1264 78.304 39.0765 78.5533 39.2262 78.7528C39.3758 79.0022 39.5753 79.102 39.8745 79.0521C40.0242 79.0521 40.2237 79.0022 40.3234 79.1518C40.4232 79.2516 40.6227 79.2516 40.6227 79.4511C40.6227 79.6007 40.4232 79.6506 40.2735 79.7005C39.675 79.8501 39.1763 79.6506 38.7773 79.2017C38.3783 78.7528 38.3783 78.1044 38.7773 77.4561C39.2262 76.8077 39.8745 76.4586 40.4232 76.6581C41.0217 76.7578 41.4207 77.2566 41.4207 77.9548Z" fill="#0A5592"/>
<path d="M51.4952 83.9399C51.0962 84.5384 50.6473 84.6881 49.9989 84.4886C49.4004 84.3389 49.0513 83.8901 49.0014 83.2916C48.9515 81.9449 49.8992 81.097 50.9964 81.496C51.6947 81.7454 52.0438 82.6432 51.7944 83.3414C51.6947 83.5908 51.545 83.4911 51.3954 83.4412C50.9964 83.3414 50.6473 83.1918 50.2483 83.1419C50.0987 83.0921 49.8991 82.8926 49.7994 83.1918C49.7495 83.3913 49.7495 83.5908 49.949 83.7903C50.1485 83.9898 50.3979 84.0896 50.6473 83.9399C50.8967 83.6407 51.146 83.8402 51.4952 83.9399Z" fill="#0A5592"/>
<path d="M83.9142 74.364C84.1636 75.0622 84.014 75.6607 83.4155 76.1096C82.9167 76.4587 82.3182 76.4587 81.8194 76.0597C81.2708 75.6109 80.8718 75.1121 81.0214 74.364C81.1711 73.8154 81.5701 73.4163 82.1187 73.3166C82.6673 73.2168 83.0663 73.4662 83.4653 73.8154C83.6648 73.965 83.5651 74.0647 83.4155 74.2144C83.1162 74.5136 82.817 74.763 82.5177 75.0622C82.418 75.162 82.1686 75.2617 82.3182 75.4612C82.418 75.6607 82.6175 75.7106 82.8668 75.6607C83.1661 75.6109 83.3656 75.4114 83.3656 75.1121C83.3656 74.763 83.615 74.5635 83.9142 74.364Z" fill="#0A5592"/>
<path d="M77.0813 77.3564C77.4803 77.3564 77.6798 77.6058 77.8793 77.8552C78.1786 78.3041 78.4279 78.753 78.7272 79.2018C78.9267 79.4512 78.8768 79.6008 78.6274 79.7505C78.3282 79.95 78.2284 79.8502 78.0788 79.6008C77.8793 79.2517 77.6299 78.9026 77.4304 78.5534C77.2309 78.2542 77.0813 77.9549 76.6324 78.2043C76.2334 78.4537 76.2334 78.8028 76.4828 79.152C76.6823 79.5011 76.8818 79.8502 77.1312 80.1993C77.3307 80.4487 77.2808 80.5983 76.9816 80.748C76.7322 80.8976 76.5826 80.8477 76.4329 80.5983C76.0838 79.95 75.6848 79.3515 75.2858 78.7529C75.0863 78.4038 75.2858 77.9549 75.6349 78.0547C76.0339 78.1544 75.984 77.9549 76.0838 77.7554C76.383 77.5559 76.6823 77.3564 77.0813 77.3564Z" fill="#0A5592"/>
<path d="M72.2935 21.4961C71.7449 21.2966 71.296 20.9974 70.6975 20.9475C70.2985 20.9475 70.099 20.5485 70.1988 20.0996C70.2486 19.7006 70.498 19.4014 70.9469 19.4014C71.1963 19.4014 71.4955 19.5011 71.7449 19.5011C71.9444 19.5011 72.1938 19.6507 72.2436 19.3016C72.2436 19.0522 71.9943 19.0024 71.7948 18.9525C71.7449 18.9525 71.5953 18.9525 71.5454 19.0023C71.2461 19.2517 70.8471 19.1021 70.8471 18.9026C70.7973 18.5535 71.1464 18.4038 71.4955 18.4038C72.5429 18.2542 73.1414 19.0522 72.7923 20.0497C72.5429 20.4487 72.2436 20.8976 72.2935 21.4961Z" fill="#0A5592"/>
<path d="M66.7074 19.5509C66.1089 19.4512 65.66 19.3016 65.1114 19.3514C64.6625 19.4013 64.3633 19.0522 64.4131 18.6033C64.4131 18.1544 64.6126 17.8552 65.1114 17.7554C65.3608 17.7055 65.6101 17.7554 65.8595 17.7554C66.059 17.7554 66.2585 17.7554 66.2585 17.506C66.2585 17.2567 66.0091 17.2567 65.8595 17.2068C65.7099 17.1569 65.6101 17.2068 65.5104 17.3065C65.261 17.5559 64.9119 17.5559 64.8121 17.2567C64.7124 16.9574 65.0615 16.7579 65.3109 16.6582C66.3583 16.3589 67.0565 17.0073 66.9069 18.0547C66.7573 18.5035 66.5578 19.0023 66.7074 19.5509Z" fill="#0A5592"/>
<path d="M32.7424 33.5161C32.5429 34.0148 32.1439 34.3639 32.0441 34.9126C31.9943 35.3116 31.5952 35.561 31.0965 35.4113C30.6476 35.2617 30.3982 34.9625 30.498 34.4637C30.5479 34.2143 30.6476 33.9649 30.6975 33.7654C30.7474 33.5659 30.7972 33.3664 30.5977 33.3166C30.3484 33.2168 30.2486 33.4662 30.1987 33.6158C30.1489 33.7156 30.099 33.8652 30.1489 33.9649C30.2985 34.3141 30.1489 34.6133 29.8995 34.6133C29.6501 34.6133 29.5005 34.2642 29.5005 34.0148C29.5005 33.4662 29.7499 33.0672 30.1489 32.7679C30.5479 32.4687 30.897 32.7181 31.2461 32.9176C31.7449 33.0672 32.1439 33.4163 32.7424 33.5161Z" fill="#0A5592"/>
<path d="M36.0837 28.8278C36.0837 29.5261 35.4353 30.2243 34.7869 30.2243C34.0388 30.2243 33.2408 29.4263 33.1909 28.7281C33.1909 28.0298 33.8393 27.3315 34.5375 27.3315C35.2857 27.3315 36.0338 28.0797 36.0837 28.8278Z" fill="#0A5592"/>
<path d="M44.6621 21.6458C44.7619 22.2942 44.4128 22.6932 43.914 22.9925C43.3654 23.2917 42.8666 23.0922 42.4676 22.6433C41.919 22.0448 41.8691 21.1969 42.2681 20.6982C42.9165 19.9999 43.9639 20.1496 44.4128 20.9974C44.5125 21.1969 44.4128 21.2967 44.2631 21.3466C44.0138 21.4962 43.7145 21.6458 43.4651 21.7955C43.3155 21.8952 43.0163 21.8952 43.0163 22.1945C43.0163 22.3441 43.2158 22.4937 43.3654 22.4937C43.6646 22.5436 43.914 22.4438 43.9639 22.1945C44.0636 21.8952 44.2133 21.7456 44.5125 21.6458C44.5624 21.596 44.6123 21.6458 44.6621 21.6458Z" fill="#0A5592"/>
<path d="M27.4053 41.6955C28.3031 41.6955 28.9016 42.294 28.9016 43.0422C28.9016 43.8402 28.3031 44.4387 27.5549 44.4387C26.6572 44.4387 26.0088 43.8402 26.0088 43.092C26.0088 42.1943 26.5574 41.6456 27.4053 41.6955Z" fill="#0A5593"/>
<path d="M91.3954 46.7828C90.6473 46.4835 90.348 45.9848 90.3979 45.2865C90.4976 44.688 90.9964 44.289 91.7944 44.1893C92.4926 44.1394 92.9914 44.4885 93.1909 45.087C93.4403 45.885 92.8916 46.6332 92.0438 46.7329C91.7944 46.7828 91.7445 46.683 91.7445 46.4835C91.6946 46.1843 91.6448 45.885 91.5949 45.5359C91.545 45.3364 91.6448 45.087 91.3954 44.9873C91.2458 44.9374 91.0961 45.0372 90.9964 45.1868C90.8468 45.4362 90.8468 45.6855 91.0463 45.885C91.3455 46.1344 91.4453 46.3838 91.3954 46.7828Z" fill="#0A5693"/>
<path d="M77.0314 24.0396C76.3831 24.0396 75.8843 23.6406 75.7347 23.092C75.5851 22.5434 75.9841 21.6955 76.5826 21.3464C77.0813 21.0471 77.6299 21.1469 78.0788 21.5459C78.4778 21.9449 78.5776 22.5434 78.2783 23.092C78.1287 23.3414 78.0289 23.4411 77.7796 23.2416C77.5302 23.0421 77.2309 22.8426 76.9317 22.693C76.7821 22.6431 76.6823 22.3439 76.4828 22.5932C76.2833 22.7927 76.3332 23.0421 76.5327 23.2416C76.6823 23.3912 76.8319 23.491 77.0314 23.4411C77.3806 23.3414 77.7297 23.491 77.6798 23.7404C77.6798 24.0396 77.2808 23.9898 77.0314 24.0396Z" fill="#0A5592"/>
<path d="M48.6524 20.748C48.2534 20.748 48.004 20.5485 47.8544 20.1994C47.6549 19.6507 47.4554 19.1021 47.2559 18.5535C47.1561 18.2542 47.3057 18.2044 47.5052 18.1046C47.7047 18.0049 47.8544 18.0547 47.9043 18.3041C48.0539 18.753 48.2035 19.152 48.3531 19.6009C48.4529 19.9001 48.6025 20.0996 48.9516 19.9999C49.3008 19.9001 49.4005 19.6507 49.3008 19.3016C49.1511 18.8527 49.0015 18.4537 48.8519 18.0049C48.7521 17.7555 48.8519 17.6557 49.1013 17.556C49.3506 17.4562 49.4504 17.5061 49.5501 17.7555C49.7496 18.4039 49.999 19.0522 50.1985 19.7006C50.2484 19.8502 50.398 20.0996 50.0988 20.0996C49.6 20.0996 49.2509 20.4487 48.8519 20.6482C48.8519 20.6981 48.7023 20.6981 48.6524 20.748Z" fill="#0A5693"/>
<path d="M83.3656 28.7282C82.7172 29.0275 82.2185 28.7781 81.8195 28.3292C81.4205 27.8804 81.4205 27.3816 81.7696 26.8829C82.1187 26.2844 82.817 25.9352 83.3157 26.035C83.8644 26.1347 84.2135 26.4839 84.3132 27.0325C84.413 27.5811 84.1636 27.9302 83.8644 28.3292C83.7147 28.4789 83.615 28.3791 83.5152 28.2794C83.2659 28.03 83.0664 27.7806 82.817 27.5811C82.6673 27.4814 82.6175 27.1821 82.3182 27.2819C82.1686 27.3816 82.1187 27.5312 82.1187 27.7307C82.1187 27.9801 82.3182 28.1796 82.5177 28.2295C82.9167 28.2295 83.1661 28.3292 83.3656 28.7282Z" fill="#0A5592"/>
<path d="M26.9066 46.6832C27.2059 46.6832 27.5051 46.733 27.8542 46.733C28.0537 46.733 28.2034 46.8328 28.1535 47.0822C28.1036 47.3316 28.0537 47.4812 27.8044 47.4313C27.3555 47.3814 26.9565 47.3814 26.5076 47.3814C26.2083 47.3814 25.959 47.3814 25.9091 47.7306C25.8592 48.1296 26.0088 48.3291 26.4079 48.3789C26.8069 48.4288 27.2557 48.4288 27.6547 48.4787C27.9041 48.4787 28.0537 48.5286 28.0039 48.8278C28.0039 49.1271 27.8542 49.2268 27.555 49.1769C26.9066 49.1271 26.2083 49.0772 25.56 49.0273C25.2108 49.0273 25.161 48.7281 25.2607 48.5784C25.5101 48.2293 25.3106 47.9301 25.2607 47.6308C25.2108 47.0323 25.5101 46.6333 26.1585 46.6333C26.4577 46.6333 26.6572 46.6333 26.9066 46.6832Z" fill="#0A5593"/>
<path d="M57.0315 18.055C57.1812 17.4066 57.2809 16.9078 57.3308 16.4091C57.3807 16.06 57.63 15.9602 57.9293 16.0101C58.2784 16.06 58.0789 16.3592 58.029 16.5088C57.7797 17.4066 57.5303 18.3542 57.2809 19.252C57.1812 19.7009 56.9318 19.9502 56.433 19.9502C56.2834 19.9502 56.1338 19.9502 56.0839 19.7507C56.0839 19.6011 56.034 19.5014 56.2335 19.4515C56.7323 19.3019 56.6325 19.0026 56.4829 18.6535C56.1837 18.0051 55.8844 17.3567 55.635 16.6585C55.5852 16.5088 55.3358 16.3093 55.635 16.2096C55.8345 16.1597 56.1837 16.0101 56.2834 16.4091C56.5827 16.9078 56.7822 17.4066 57.0315 18.055Z" fill="#0A5592"/>
<path d="M86.5577 29.6259C86.5577 30.0249 86.4081 30.2244 86.1587 30.374C85.8096 30.6733 85.4106 30.9725 85.0615 31.2718C84.8121 31.4713 84.6625 31.4713 84.463 31.2219C84.2136 30.9226 84.463 30.8229 84.6126 30.7231C84.9118 30.4738 85.2111 30.2743 85.4605 30.0249C85.7098 29.8254 85.9093 29.6259 85.66 29.2768C85.4106 28.9276 85.1113 28.9775 84.8121 29.2269C84.5128 29.4763 84.2136 29.6758 83.9642 29.9251C83.7647 30.0748 83.6151 30.1745 83.4156 29.9251C83.2161 29.6758 83.266 29.576 83.5153 29.3765C84.0141 28.9775 84.5128 28.5785 85.0116 28.1795C85.1113 28.0798 85.2111 27.8803 85.4106 28.0299C85.5602 28.1296 85.7597 28.2793 85.66 28.4788C85.5103 28.778 85.7098 28.6783 85.8595 28.7281C86.3083 28.9276 86.5577 29.2269 86.5577 29.6259Z" fill="#0A5592"/>
<path d="M89.3506 40.7481C89.3506 40.6983 89.3506 40.5985 89.4005 40.5486C89.4503 40.2494 89.6 39.9501 89.8992 40C90.1486 40.0499 90.2483 40.399 90.0488 40.6983C89.8992 40.8479 89.9491 41.0474 90.0488 41.2469C90.0987 41.3965 90.1486 41.6459 90.398 41.596C90.6473 41.5461 90.5476 41.3466 90.5476 41.197C90.5476 40.9476 90.5476 40.6484 90.5476 40.399C90.5975 39.8005 91.196 39.5013 91.6947 39.8005C92.1935 40.0998 92.4429 41.0474 92.1436 41.5461C92.0439 41.7456 91.8942 41.9451 91.6947 41.8454C91.4952 41.7456 91.3955 41.4464 91.5451 41.2469C91.6947 40.9975 91.6947 40.798 91.595 40.5486C91.5451 40.4489 91.4453 40.399 91.3456 40.399C91.2458 40.399 91.196 40.4988 91.196 40.6484C91.196 40.9476 91.196 41.2469 91.196 41.4963C91.196 41.9451 91.0463 42.2444 90.6473 42.3441C90.2483 42.4439 89.8992 42.2444 89.6997 41.8953C89.4503 41.4963 89.4005 41.1471 89.3506 40.7481Z" fill="#0A5592"/>
<path d="M90.2982 38.3542C90.4977 38.3542 90.6973 38.3542 90.8469 38.3044C91.3456 38.2046 91.595 38.4041 91.595 39.0525C90.4479 39.0525 89.3007 39.0525 88.1536 39.0525C87.7546 39.0525 87.5052 38.8031 87.3556 38.454C87.3057 38.3044 87.206 38.2046 87.4055 38.1049C87.5551 38.055 87.6549 37.9552 87.7546 38.1547C88.0539 38.6535 88.3531 38.4041 88.6524 38.1547C89.3007 37.6061 89.9491 37.0575 90.5975 36.459C90.9466 36.9079 90.9466 37.257 90.4479 37.5562C90.0987 37.7557 89.8494 38.055 89.5501 38.3044C89.8494 38.454 90.0987 38.4041 90.2982 38.3542Z" fill="#0A5592"/>
<path d="M70.0988 18.4041C69.9492 18.9527 69.7497 19.5512 69.5502 20.1996C69.4505 20.4988 69.251 20.2993 69.1013 20.2993C68.9018 20.2495 68.8021 20.1996 68.9018 19.9502C69.0515 19.5013 69.1512 19.1023 69.3008 18.6535C69.4006 18.3542 69.3507 18.1048 69.0016 18.0051C68.7023 17.9053 68.4031 18.0051 68.3033 18.3542C68.2036 18.7532 68.054 19.1023 67.9542 19.5013C67.9043 19.7507 67.8545 19.9502 67.4555 19.8505C67.1562 19.7507 67.1562 19.6011 67.2559 19.3517C67.4554 18.7532 67.655 18.1048 67.8046 17.5063C67.9043 17.1572 68.1537 17.0575 68.3033 17.257C68.6026 17.6061 68.9018 17.4565 69.2011 17.5063C69.7497 17.5063 70.049 17.7557 70.0988 18.4041Z" fill="#0A5592"/>
<path d="M38.6773 26.5835C38.5277 26.6832 38.4279 26.8329 38.2783 26.8828C38.0788 27.0324 38.0289 26.8329 37.9292 26.7331C37.6299 26.4339 37.3307 26.1346 37.0813 25.8354C36.8818 25.586 36.6324 25.4364 36.3332 25.7356C36.0838 25.985 36.0838 26.2842 36.3332 26.5336C36.5825 26.783 36.8319 27.0823 37.0813 27.3316C37.2808 27.5311 37.4304 27.6808 37.1312 27.9301C36.8818 28.1795 36.782 28.0299 36.5825 27.8304C36.1337 27.3815 35.7347 26.8828 35.2359 26.4339C34.8868 26.0847 35.186 25.8354 35.3855 25.7855C35.7347 25.7855 35.7347 25.5361 35.8843 25.3366C36.1835 24.7381 36.8319 24.5885 37.3307 25.0374C37.7297 25.4364 38.1287 25.8354 38.4778 26.2344C38.5277 26.4339 38.5776 26.4837 38.6773 26.5835Z" fill="#0A5592"/>
<path d="M46.9068 19.4511C46.6076 19.6506 46.4081 19.7504 46.059 19.5509C45.7098 19.3514 45.4106 19.5509 45.4106 19.9998C45.4106 20.3988 45.5602 20.7479 45.8595 20.9973C46.1587 21.2965 46.6076 21.1968 46.7073 20.7978C46.7572 20.3988 47.0066 20.299 47.3058 20.2492C47.6051 21.097 47.0066 21.5459 46.458 21.7454C45.8096 21.9449 45.2111 21.5958 44.9118 20.7978C44.6126 20.0497 44.7622 19.4511 45.3607 19.0521C45.9093 18.703 46.4081 18.8028 46.9068 19.4511Z" fill="#0A5693"/>
<path d="M48.403 79.7507C48.3033 79.9502 48.3532 80.1497 48.004 80.1497C47.7048 80.1497 47.5552 80.3492 47.8544 80.5986C48.1537 80.848 48.0539 81.0974 47.7048 81.0974C47.3557 81.0974 47.3557 81.2969 47.2559 81.4964C47.0564 81.9452 46.9068 82.444 46.7073 82.8929C46.6075 83.1422 46.5576 83.3417 46.1586 83.1422C45.8594 82.9926 45.8095 82.8929 45.9591 82.5936C46.1586 82.1447 46.3083 81.6959 46.4579 81.247C46.5576 81.0475 46.807 80.7981 46.408 80.5986C46.2085 80.4989 46.4579 80.1497 46.5078 80.1497C46.9567 80.3492 46.9567 79.9004 47.1063 79.7008C47.3058 79.4016 47.605 79.3517 47.9542 79.4515C48.1537 79.5512 48.3532 79.6011 48.403 79.7507Z" fill="#0A5592"/>
<path d="M79.0266 76.309C78.7273 77.1569 79.5253 77.4561 79.7747 77.9549C79.8246 78.0546 79.9742 78.1544 80.0241 78.1045C80.2734 78.0048 80.4729 78.0048 80.5727 78.304C80.6724 78.5534 80.3732 78.6531 80.2236 78.7529C79.9742 78.9524 79.6749 79.0023 79.4256 78.7529C79.1762 78.5035 78.9767 78.1544 78.7273 77.905C78.4779 77.6556 78.4779 77.0571 77.8794 77.3065C77.7797 77.3564 77.5303 76.0596 77.63 75.91C77.8794 75.7105 78.0789 75.5609 78.2784 75.9599C78.3782 76.1594 78.4779 76.2591 78.7772 76.1095C78.9767 75.9599 78.9767 76.2591 79.0266 76.309Z" fill="#0A5593"/>
<path d="M44.5624 78.2544C44.8617 78.2544 45.1609 78.6534 44.9116 78.9028C44.5126 79.2519 45.1609 79.4015 45.0113 79.7008C44.8617 80.0998 44.4128 79.601 44.3131 80.0499C44.2632 80.399 44.0138 80.6484 43.8642 80.9975C43.7644 81.197 43.5649 81.4464 43.8642 81.6459C44.0637 81.7955 43.8642 81.8953 43.8143 81.995C43.7644 82.1447 43.6148 82.0948 43.5151 82.0948C42.9664 81.9452 42.7669 81.4963 43.0163 80.9975C43.1659 80.6484 43.3654 80.3492 43.5151 80C43.6148 79.7507 44.0138 79.5013 43.5649 79.202V79.1023C43.9141 78.803 44.2133 78.5536 44.5624 78.2544Z" fill="#0A5593"/>
<path d="M64.5625 85.2868C64.1635 85.2868 63.9141 85.0873 63.8642 84.6883C63.8144 84.3392 63.8144 83.9402 63.7146 83.591C63.6648 83.3417 63.8643 82.8928 63.3156 82.8928L63.2657 82.8429C63.166 82.6933 63.565 81.5461 63.7645 81.4963C64.0139 81.4464 64.3131 81.4464 64.2633 81.7955C64.1635 82.2943 64.7121 82.0948 64.8119 82.394C64.9116 82.793 64.3131 82.6434 64.4628 83.0424C64.6124 83.4414 64.6124 83.8404 64.6623 84.2893C64.6623 84.4389 64.7121 84.5885 64.8119 84.5885C65.0613 84.6384 65.2608 84.7382 65.161 84.9875C65.0613 85.3367 64.762 85.2369 64.5625 85.2868Z" fill="#0A5693"/>
<path d="M27.9041 45.935C27.4552 45.8851 27.0562 45.7853 26.6073 45.7355C26.4078 45.6856 26.1086 45.536 26.0088 45.935C25.959 46.0846 25.6597 46.0347 25.6597 45.935C25.6098 45.536 25.2607 45.536 25.0113 45.4362C24.6622 45.2367 24.6622 44.9375 24.7121 44.6382C24.762 44.5385 24.762 44.3888 24.9615 44.3888C25.0612 44.3888 25.2108 44.339 25.3106 44.5883C25.4103 44.9375 25.6098 44.9873 25.8093 44.6382C25.9091 44.4387 26.2083 44.5385 26.2083 44.6382C26.2582 45.137 26.6073 44.9873 26.9066 45.0372C27.2557 45.0871 27.6547 45.137 28.0039 45.1868C28.2532 45.2367 28.4029 45.2866 28.353 45.6357C28.3031 45.935 28.1036 45.9848 27.9041 45.935Z" fill="#0B5794"/>
<path d="M90.0488 43.5908C90.0488 43.2417 90.2483 43.0422 90.5476 42.9923C90.9466 42.8925 91.2957 42.8427 91.6947 42.7429C91.8942 42.693 92.1436 42.7429 92.1935 42.3938C92.1935 42.1943 92.4927 42.1444 92.5925 42.294C92.7421 42.5434 92.9416 42.4935 93.1411 42.4437C93.4404 42.3938 93.4404 42.5933 93.4902 42.7429C93.59 42.9923 93.4902 43.092 93.2907 43.1419C93.0912 43.1918 92.8419 43.1419 92.8917 43.5409C92.8917 43.6407 92.6922 43.7903 92.4927 43.6407C92.0438 43.2915 90.9965 43.491 90.7471 43.9898C90.6473 44.1893 90.4478 44.2392 90.3481 44.1893C90.0488 44.0397 90.0488 43.7903 90.0488 43.5908Z" fill="#0A5693"/>
<path d="M87.6549 31.7703C86.9566 31.3713 86.7073 32.0696 86.2584 32.2691C86.1088 32.3189 85.9093 32.4686 86.009 32.7179C86.1088 32.9174 85.9093 32.9673 85.8095 33.0172C85.61 33.1169 85.5601 32.9174 85.4604 32.8177C85.1611 32.4686 85.1611 32.1194 85.5601 31.8202C85.9093 31.5708 86.2584 31.3713 86.6075 31.1219C86.7571 31.0222 87.0065 30.9723 86.807 30.7229C86.807 30.673 86.807 30.6232 86.807 30.6232C86.9068 30.5234 87.0564 30.3738 87.1063 30.4735C87.4055 30.9723 87.9541 29.875 88.2035 30.6232C88.2534 30.7229 88.3033 30.8227 88.2035 30.8725C87.9541 31.0222 87.7048 31.2217 87.8544 31.5708C87.9043 31.6207 87.7547 31.7204 87.6549 31.7703Z" fill="#0A5693"/>
<path d="M31.3955 31.8704C30.5476 32.1198 30.8469 31.1222 30.3481 31.0724C30.398 31.0225 30.398 30.9726 30.4479 30.9227C30.5476 30.7731 30.797 30.5237 30.797 30.6235C30.9466 31.2719 31.8943 30.1247 31.7447 31.1222C31.7447 31.222 31.7945 31.3217 31.8444 31.3217C32.393 31.4714 32.6424 32.3193 33.3905 31.9701C33.4903 31.9202 33.7895 32.0699 33.6399 32.3691C33.4404 32.818 33.0414 32.9676 32.6424 32.7183C32.2933 32.5188 31.9442 32.2694 31.595 32.02C31.5452 31.9202 31.4454 31.8704 31.3955 31.8704Z" fill="#0A5693"/>
<path d="M26.1085 50.6232C25.6596 50.6232 25.2107 50.6232 24.7619 50.6232C24.4626 50.6232 24.313 50.5733 24.313 50.2242C24.313 49.9249 24.4626 49.8252 24.712 49.875C25.6596 49.875 26.5574 49.875 27.505 49.875C27.7544 49.875 28.0038 49.875 28.0038 50.274C28.0038 50.6232 27.8043 50.673 27.5549 50.673C27.0561 50.5733 26.5574 50.6232 26.1085 50.6232Z" fill="#115A97"/>
<path d="M42.6177 78.5538C42.9169 78.5039 43.0167 78.454 43.1663 78.454C43.3159 78.454 43.5154 78.454 43.6152 78.6036C43.665 78.7533 43.5154 78.9029 43.4157 79.0525C43.3159 79.3019 43.1663 79.2021 43.0167 79.1024C42.6177 78.9029 42.3683 79.0525 42.1189 79.4016C41.9194 79.7009 41.7199 80.05 41.5703 80.3493C41.4206 80.6485 41.3209 80.7483 40.9718 80.5488C40.6226 80.3493 40.7224 80.1996 40.872 79.9503C41.2211 79.3518 41.5703 78.7533 41.9693 78.1548C42.069 77.9553 42.1189 77.7059 42.468 77.9054C42.7174 78.055 42.9668 78.1548 42.6177 78.5538Z" fill="#0A5693"/>
<path d="M80.024 75.561C80.024 75.3615 80.0739 75.2119 80.0739 75.1121C80.0739 74.9126 80.1736 74.7131 80.3731 74.6632C80.5726 74.6134 80.6225 74.8627 80.7721 75.0124C80.9716 75.2119 80.7721 75.3116 80.6724 75.4114C80.3731 75.7106 80.423 76.0597 80.6724 76.359C80.8719 76.6084 81.0714 76.8577 81.3207 77.1071C81.5202 77.3066 81.7696 77.5061 81.3706 77.8054C81.0215 78.1046 80.9217 77.8552 80.7721 77.6557C80.3232 77.157 79.9242 76.6582 79.5252 76.1096C79.4255 75.96 79.1262 75.8104 79.4255 75.561C79.5252 75.3615 79.7247 75.162 80.024 75.561Z" fill="#0A5693"/>
<path d="M55.0366 19.1523C54.6874 19.1523 54.4381 19.0027 54.3882 18.6036C54.3383 18.2046 54.2884 17.8056 54.1887 17.3568C54.1388 17.1573 54.2386 16.9578 53.8894 16.9079C53.6899 16.9079 53.6899 16.6086 53.8396 16.5089C54.0889 16.3593 54.0391 16.1598 54.0391 15.9603C53.9892 15.7109 54.1388 15.661 54.3383 15.6111C54.5378 15.5613 54.6874 15.6111 54.7373 15.8605C54.7872 16.06 54.7373 16.2595 55.0865 16.2595C55.286 16.2595 55.286 16.5089 55.1862 16.6585C54.8371 17.257 54.9368 17.9553 55.4855 18.5039C55.5852 18.6036 55.5852 18.7533 55.5353 18.853C55.3857 19.2022 55.1862 19.1024 55.0366 19.1523Z" fill="#0A5693"/>
<path d="M27.6052 39.7006C27.5054 40.0996 27.7548 40.2991 28.054 40.3989C28.4032 40.4986 28.7024 40.5984 29.0515 40.6981C29.3009 40.748 29.4007 40.8478 29.3009 41.147C29.2012 41.4463 29.1014 41.4961 28.8022 41.3964C28.1538 41.1969 27.5553 40.9974 26.9069 40.7979C26.6077 40.6981 26.5079 40.2493 26.8072 40.0996C27.1064 39.9999 27.1064 39.95 26.9568 39.7006C26.857 39.551 26.857 39.3515 27.0067 39.2518C27.1064 39.2019 27.256 39.3016 27.4057 39.3016C27.7049 39.3515 27.655 39.551 27.6052 39.7006Z" fill="#0B5794"/>
<path d="M51.1461 19.8504C50.8968 19.9003 50.9466 19.6509 50.9466 19.5013C50.7471 18.8529 50.5975 18.2046 50.4479 17.5562C50.398 17.4066 50.2983 17.2569 50.4978 17.2071C50.6474 17.1073 50.9466 17.0076 50.9965 17.1572C51.196 17.4564 51.2459 17.2569 51.3456 17.1073C51.4454 16.9577 51.5452 16.8081 51.7447 16.8579C51.9442 16.9078 51.8943 17.1073 51.9441 17.2569C52.0439 17.5063 51.8444 17.5063 51.6948 17.5562C51.3456 17.6559 51.2958 17.9552 51.3456 18.2544C51.3955 18.6036 51.4953 18.9527 51.595 19.2519C51.7945 19.7507 51.4953 19.8006 51.1461 19.8504Z" fill="#0A5693"/>
<path d="M44.9117 82.5935C44.5625 82.5935 44.363 82.2942 44.5127 81.9451C44.8119 81.2967 45.1112 80.6483 45.4104 79.9501C45.56 79.6508 45.6598 79.6508 45.9591 79.7506C46.2583 79.9002 46.2583 80 46.1087 80.2493C45.8094 80.8977 45.5102 81.596 45.161 82.2942C45.1112 82.394 45.1112 82.5935 44.9117 82.5935Z" fill="#0A5693"/>
<path d="M49.1509 81.1469C49.0512 81.496 48.9015 81.8452 48.8018 82.1444C48.6522 82.5933 48.5025 82.9923 48.3529 83.4412C48.2532 83.6905 48.2033 83.89 47.8542 83.7404C47.5549 83.6407 47.505 83.491 47.6048 83.1918C47.8542 82.4935 48.1035 81.7953 48.3529 81.097C48.4028 80.9474 48.4028 80.7479 48.6522 80.8477C48.8018 80.8975 49.0512 80.8975 49.1509 81.1469Z" fill="#0A5693"/>
<path d="M53.5898 18.9025C53.6896 19.3015 53.4901 19.3514 53.2906 19.4013C53.0911 19.4512 52.9414 19.4013 52.8916 19.1519C52.7419 18.4537 52.6422 17.7554 52.4926 17.107C52.4427 16.8078 52.5923 16.7579 52.7918 16.708C53.0412 16.6581 53.141 16.7579 53.1908 16.9574C53.3405 17.6058 53.4901 18.304 53.5898 18.9025Z" fill="#0B5794"/>
<path d="M34.3881 31.1722C34.3881 31.4216 33.9891 31.6211 33.7896 31.4715C33.241 31.0725 32.6924 30.6236 32.1438 30.2745C31.8944 30.075 31.8944 29.9752 32.044 29.7258C32.1936 29.4765 32.3433 29.5263 32.5428 29.676C33.0914 30.075 33.64 30.474 34.1886 30.9228C34.2385 30.9727 34.3881 31.0226 34.3881 31.1722Z" fill="#0A5693"/>
<path d="M46.3084 79.5012C46.1089 79.4014 45.8096 79.4015 45.7598 79.1521C45.7598 78.9526 45.8096 78.6533 46.059 78.6533C46.2585 78.6533 46.6076 78.7032 46.6076 79.0024C46.6575 79.2019 46.5578 79.4513 46.3084 79.5012Z" fill="#145D98"/>
<path d="M49.0514 80.5983C48.9017 80.4487 48.5526 80.5983 48.6025 80.2492C48.6524 80.0995 48.6025 79.7504 48.9017 79.8502C49.1012 79.9 49.4504 79.8003 49.4005 80.1993C49.4005 80.3988 49.4005 80.6482 49.0514 80.5983Z" fill="#145C97"/>
<path d="M52.6923 15.7109C52.9916 15.661 52.9916 15.8605 53.0414 16.06C53.0913 16.4091 52.8419 16.3593 52.6424 16.4091C52.3432 16.459 52.3432 16.2096 52.3432 16.06C52.2434 15.661 52.5427 15.8106 52.6923 15.7109Z" fill="#145D98"/>
<path d="M31.9441 29.2768C31.8444 29.4763 31.7446 29.7257 31.5451 29.7257C31.3456 29.7257 31.0962 29.576 31.1461 29.3765C31.1461 29.2269 31.2957 28.9775 31.5451 28.9775C31.6947 28.9775 31.8444 29.1272 31.9441 29.2768Z" fill="#185F9A"/>
<path d="M63.0166 17.0076C63.0665 16.858 63.0665 16.7083 63.1164 16.5088C63.2161 16.4589 63.266 16.5088 63.266 16.6086C63.2161 17.0076 63.3159 17.4066 63.1164 17.7557C63.0166 17.5063 63.1662 17.257 63.0166 17.0076Z" fill="#DDE8EF"/>
<path d="M90.2985 38.3541C90.0491 38.4538 89.7499 38.5037 89.5005 38.4039V38.3541C89.5504 38.3541 89.5504 38.3042 89.6002 38.3042C89.8496 38.3042 90.099 38.3541 90.2985 38.3541Z" fill="#C6D7E6"/>
<path d="M59.2757 24.0898C73.5899 24.1397 85.2109 35.7607 85.161 50.0749C85.161 64.3891 73.4403 76.0599 59.1261 75.9602C44.8119 75.9103 33.2408 64.2395 33.2907 49.9751C33.3406 35.6609 44.9615 24.0898 59.2757 24.0898Z" fill="#CDCEC9"/>
<path d="M63.2658 16.6084C63.216 16.5585 63.1661 16.5585 63.1162 16.5087C63.1162 16.359 63.1661 16.2094 63.3157 16.2593C63.4155 16.3092 63.3656 16.5087 63.2658 16.6084Z" fill="#5187B3"/>
<path d="M57.7297 83.5409C57.7297 83.3414 57.6798 83.1419 57.7297 82.9923C57.8294 82.7429 57.4803 82.3439 57.979 82.2442C58.5775 82.1444 59.1262 82.3439 59.2758 82.8427C59.4254 83.3414 59.4254 83.8901 59.2758 84.3888C59.0763 84.8377 58.2783 85.1369 57.8294 84.9374C57.6798 84.8876 57.7297 84.7379 57.7297 84.6382C57.7297 84.1893 57.7297 83.8901 57.7297 83.5409Z" fill="white"/>
<path d="M53.9891 83.3916C53.9891 84.0899 53.64 84.5886 53.241 84.5387C52.7921 84.4889 52.6924 84.1896 52.6924 83.7906C52.6924 83.1921 52.9916 82.6934 53.3906 82.6934C53.9393 82.7432 53.9891 83.0924 53.9891 83.3916Z" fill="#FDFEFF"/>
<path d="M75.0366 20.7979C75.0366 21.3465 74.5378 21.8951 74.1887 21.8453C73.8396 21.7954 73.6899 21.5959 73.6899 21.2468C73.7398 20.748 74.1887 20.1994 74.5378 20.2493C74.9368 20.2493 74.9867 20.5485 75.0366 20.7979Z" fill="#F8FBFE"/>
<path d="M62.3181 84.3891C62.2682 84.7382 62.1186 84.9876 61.6697 84.9876C61.4203 84.9876 61.2707 84.838 61.3206 84.5886C61.3705 84.1397 61.8193 84.2395 62.1186 84.0898C62.3181 84.04 62.3181 84.2395 62.3181 84.3891Z" fill="#F1F4F8"/>
<path d="M66.8071 83.3916C67.0565 83.3417 67.0565 83.4914 67.0565 83.641C67.1064 84.04 66.9069 84.2894 66.5079 84.3393C66.2585 84.3891 66.1089 84.2395 66.1089 83.9901C66.1089 83.5412 66.5578 83.5412 66.8071 83.3916Z" fill="#ECF1F5"/>
<path d="M74.6375 80.05C74.3382 80.1996 74.039 80.3992 73.6898 80.449C73.4903 80.4989 73.5402 80.1996 73.5402 80.05C73.5901 79.7009 73.8395 79.5513 74.1387 79.6011C74.3881 79.651 74.5377 79.8006 74.6375 80.05Z" fill="#F2F5F8"/>
<path d="M40.1735 77.1572C40.5226 77.2071 40.7221 77.4066 40.7221 77.7059C40.7221 77.8555 40.7221 78.1547 40.5226 78.055C40.2233 77.9552 39.8243 77.7557 39.7246 77.4565C39.6248 77.257 39.974 77.1572 40.1735 77.1572Z" fill="#F1F4F8"/>
<path d="M51.0464 82.5935C51.0464 82.7431 50.9467 82.8429 50.7971 82.7431C50.4978 82.6434 50.0988 82.7431 49.9991 82.394C49.9492 82.1446 50.1986 81.9451 50.4978 81.995C50.8469 81.995 51.0464 82.2444 51.0464 82.5935Z" fill="#F3F6F9"/>
<path d="M81.9191 75.0124C81.6199 74.7131 81.5201 74.4139 81.8194 74.1146C82.1186 73.8154 82.4179 73.9151 82.6672 74.1146C82.368 74.4139 82.1685 74.7131 81.9191 75.0124Z" fill="#F4F7FA"/>
<path d="M71.9442 20.0997C71.7945 20.3989 71.6449 20.5984 71.3457 20.5984C71.0963 20.5486 70.8968 20.4488 70.9467 20.1496C70.9965 19.9002 71.196 19.8503 71.3955 19.9002C71.595 19.9002 71.8444 19.9002 71.9442 20.0997Z" fill="#EFF3F7"/>
<path d="M65.7099 18.1543C65.8595 18.2042 66.1089 18.0545 66.059 18.3538C66.0092 18.6032 65.8595 18.8526 65.5603 18.8526C65.3109 18.8526 65.0615 18.8027 65.1114 18.5034C65.1613 18.1044 65.4605 18.2042 65.7099 18.1543Z" fill="#EAF0F4"/>
<path d="M31.196 33.6157C31.595 33.8152 31.8444 34.0147 31.6449 34.4137C31.5451 34.6132 31.3955 34.8127 31.1461 34.6132C30.797 34.314 31.196 33.9648 31.196 33.6157Z" fill="#E9EEF3"/>
<path d="M35.4354 29.0275C35.4354 29.3268 35.2359 29.5263 34.8369 29.5762C34.388 29.5762 33.8394 29.0774 33.8394 28.6285C33.8394 28.2794 34.0389 28.0799 34.4379 28.03C34.8369 27.9801 35.3855 28.5288 35.4354 29.0275Z" fill="#FAFDFD"/>
<path d="M43.565 21.147C43.3655 21.3465 43.0662 21.546 42.767 21.5959C42.5675 21.6457 42.6174 21.3964 42.6174 21.2467C42.6174 20.9475 42.8169 20.7979 43.1161 20.7979C43.3156 20.8477 43.4652 20.8976 43.565 21.147Z" fill="#F7F9FB"/>
<path d="M27.3554 42.3442C27.9041 42.3941 28.3529 42.7432 28.3031 43.1422C28.2532 43.5911 27.9041 43.6909 27.5549 43.6909C27.0063 43.6909 26.5574 43.2919 26.6073 42.9427C26.6073 42.5936 26.9564 42.3442 27.3554 42.3442Z" fill="#FBFEFF"/>
<path d="M92.2434 44.9374C92.5426 44.9873 92.6922 45.1369 92.6922 45.4362C92.6922 45.6855 92.5426 45.9349 92.3431 45.9349C91.994 45.885 92.1436 45.486 92.0439 45.2367C91.994 45.0372 92.0439 44.8875 92.2434 44.9374Z" fill="#F2F5F8"/>
<path d="M77.2809 21.7456C77.5802 21.7955 77.7797 21.9451 77.7797 22.2444C77.7797 22.394 77.7298 22.5935 77.5802 22.5436C77.2809 22.4439 76.9318 22.2942 76.832 21.995C76.832 21.8952 77.0814 21.7456 77.2809 21.7456Z" fill="#F2F5F8"/>
<path d="M83.7646 27.1321C83.7148 27.3316 83.615 27.5809 83.5152 27.5311C83.216 27.3814 82.9666 27.1321 82.8669 26.8328C82.817 26.6832 83.1162 26.6333 83.2659 26.6333C83.5651 26.6333 83.7148 26.8827 83.7646 27.1321Z" fill="#E7ECF2"/>
<path d="M72.7919 55.0621C70.1485 55.0122 67.8044 54.2641 65.9091 52.319C64.762 51.122 64.1635 49.6756 63.964 47.9798C63.7146 45.6357 64.2632 43.5409 65.8093 41.7454C66.9565 40.4487 68.4527 39.7005 70.1485 39.3015C72.9415 38.6531 75.6348 39.0521 78.0787 40.5484C81.0213 42.3439 82.2682 45.6856 81.3704 49.2766C80.6223 52.2691 78.5276 53.8651 75.6847 54.713C74.7869 54.9624 73.7894 55.112 72.7919 55.0621Z" fill="white"/>
<path d="M49.0014 51.5212C49.0014 50.6734 49.0014 49.7756 49.0014 48.9277C49.0014 48.5786 49.1012 48.429 49.4503 48.429C49.5002 48.429 49.5501 48.429 49.6498 48.429C50.7471 48.429 50.7471 48.429 51.1461 49.4763C51.9441 51.621 53.4403 52.9177 55.8344 53.0674C56.8817 53.1671 57.8792 53.1172 58.777 52.4689C59.8244 51.7207 59.8244 50.3242 58.777 49.626C57.979 49.0773 57.0314 48.9277 56.0837 48.7282C54.6872 48.429 53.2907 48.1297 51.9441 47.631C48.4528 46.3841 48.1536 42.9427 50.0488 40.6983C50.8967 39.7008 52.0937 39.202 53.3905 39.1023C55.4852 38.9028 57.3805 39.4015 59.1261 40.4489C59.4753 40.6484 59.5251 40.4988 59.7246 40.2993C59.974 40 60.0239 39.5013 60.6224 39.5013C62.0189 39.5512 61.7196 39.3517 61.7695 40.5985C61.7695 41.9452 61.7695 43.3417 61.7695 44.6883C61.7695 45.0873 61.6698 45.2369 61.2209 45.2369C60.0239 45.2369 60.0239 45.2868 59.575 44.1397C58.5775 41.5462 56.1336 40.2993 53.4403 40.9975C51.994 41.3965 51.2957 42.7432 52.0438 43.7407C52.4927 44.2893 53.191 44.4888 53.8393 44.6883C55.2857 45.0374 56.6822 45.3367 58.1286 45.7357C59.3256 46.0349 60.4728 46.5337 61.4204 47.4315C62.9167 48.9776 63.0164 51.4714 61.4703 53.0175C59.4254 55.1621 56.9316 55.4614 54.1885 54.7132C53.2907 54.4639 52.4428 54.015 51.6448 53.5162C51.2458 53.2669 51.0962 53.3167 50.9466 53.7656C50.797 54.1147 50.8967 54.6634 50.1985 54.7132C49.0014 54.7631 49.0014 54.7631 49.0014 53.5661C49.0014 52.818 49.0014 52.1696 49.0014 51.5212Z" fill="white"/>
<path d="M59.525 29.4761C63.7644 29.4262 67.4053 30.8726 70.5973 33.6656C71.7445 34.6631 72.6921 35.7604 73.5899 36.9574C73.7395 37.1569 73.939 37.3564 73.8392 37.6058C73.6896 37.905 73.2906 37.8552 73.0412 37.5559C72.0936 36.2592 71.0462 35.0621 69.7993 34.0148C69.55 33.8153 69.4003 33.8153 69.1011 33.9649C68.1036 34.6133 68.1036 34.6133 68.8517 35.5609C69.2507 36.1095 69.5998 36.6582 69.949 37.2068C70.0986 37.4562 70.0986 37.6557 69.7495 37.8053C69.4502 37.9549 69.3505 37.905 69.151 37.6058C68.7021 36.8078 68.1534 36.0597 67.5051 35.3614C67.3056 35.112 67.1559 35.0621 66.8567 35.2118C66.2083 35.4612 65.5599 35.7105 64.9614 35.91C64.6622 36.0098 64.6123 36.1594 64.6622 36.4088C64.7619 36.708 64.8118 37.0073 64.8617 37.3065C64.9115 37.506 64.8617 37.7055 64.5624 37.7055C64.3629 37.7055 64.1634 37.7554 64.0637 37.4562C63.9639 37.0572 64.0138 36.5085 63.6647 36.3589C63.3654 36.2093 62.9165 36.4587 62.5175 36.5085C61.6697 36.6083 60.8218 36.7579 59.9739 36.7579C59.6248 36.7579 59.5749 36.9574 59.5749 37.2567C59.5749 37.5559 59.5749 37.8053 59.1759 37.8053C58.7769 37.8053 58.8268 37.5559 58.8268 37.3065C58.8766 36.9075 58.727 36.8078 58.328 36.8078C57.3305 36.8078 56.333 36.6582 55.3854 36.4587C54.8866 36.3589 54.5874 36.4587 54.4876 37.0073C54.4377 37.2068 54.3879 37.4063 54.338 37.6058C54.2382 37.905 53.9889 37.8053 53.7893 37.8053C53.54 37.8053 53.5899 37.6058 53.5899 37.4063C53.5899 37.3564 53.5899 37.3065 53.5899 37.3065C53.6397 36.9574 53.9889 36.5085 53.7395 36.2093C53.54 35.9599 53.0412 35.9599 52.6921 35.8602C52.343 35.7604 51.9938 35.7105 51.6946 35.511C51.0961 35.112 50.7968 35.4113 50.4976 35.8602C50.0986 36.4088 49.6497 36.9574 49.3504 37.6058C49.2008 37.9549 48.9514 37.9549 48.6522 37.8053C48.2532 37.6058 48.5026 37.4063 48.6023 37.2068C48.9514 36.5085 49.4003 35.8602 49.949 35.2616C50.2482 34.9624 50.1485 34.8128 49.8492 34.6133C48.7519 33.915 48.7519 33.8651 47.7544 34.8128C46.8567 35.7105 45.9589 36.5584 45.2607 37.6557C45.0612 37.9549 44.8617 37.9549 44.6123 37.8053C44.2133 37.6058 44.5125 37.3564 44.6123 37.2068C47.5549 33.2666 51.3455 30.6731 56.2332 29.8252C57.4303 29.526 58.4776 29.4262 59.525 29.4761Z" fill="white"/>
<path d="M44.5129 47.0821C44.5129 48.6282 44.5129 50.1744 44.5129 51.6706C44.5129 52.5684 44.8122 52.9175 45.7598 52.9175C45.9095 52.9175 46.109 52.9175 46.2586 52.9175C47.2561 52.9175 47.1563 52.8178 47.1563 53.8153C47.1563 54.6631 47.1563 54.6631 46.3085 54.6631C43.9144 54.6631 41.5204 54.6631 39.1264 54.6631C38.6277 54.6631 38.478 54.5135 38.478 54.0148C38.478 52.9175 38.478 52.9175 39.6252 52.9175C40.8222 52.9175 41.1214 52.6681 41.1214 51.4212C41.1214 48.4786 41.1214 45.536 41.1214 42.5933C41.1214 41.4462 40.5229 40.9474 39.3758 41.1469C38.5778 41.2966 38.5279 41.2467 38.5279 40.4487C38.5279 40.2991 38.5279 40.1494 38.5279 39.9998C38.478 39.5509 38.6775 39.4512 39.0765 39.4512C41.5703 39.4512 44.0641 39.4512 46.5578 39.4512C47.0566 39.4512 47.2062 39.6008 47.1563 40.0497C47.1563 40.0996 47.1563 40.1494 47.1563 40.2492C47.1563 41.2467 47.1563 41.1968 46.1588 41.1469C45.1613 41.0971 44.5129 41.3464 44.5628 42.5434C44.5628 44.0397 44.5129 45.536 44.5129 47.0821Z" fill="white"/>
<path d="M49.1013 60.2991C49.3507 60.0498 49.6001 59.9001 49.8993 59.7505C50.2484 59.6009 50.4479 59.4513 50.0988 59.0523C49.6001 58.4537 49.1512 57.8552 48.8021 57.157C48.6524 56.9076 48.4529 56.6582 48.9018 56.4587C49.3008 56.2592 49.4006 56.4587 49.5502 56.758C49.8993 57.4562 50.3981 58.0547 50.8469 58.7031C51.0963 59.0024 51.3457 59.1021 51.6948 58.9026C52.2933 58.6034 52.9417 58.4039 53.64 58.2542C53.9392 58.2044 54.0888 58.0547 53.9392 57.7056C53.8395 57.4562 53.7896 57.2069 53.7397 57.0074C53.6898 56.758 53.7397 56.6084 54.039 56.5086C54.3382 56.4587 54.3881 56.5086 54.4878 56.8079C54.7871 57.955 54.837 57.955 55.9841 57.7555C56.7821 57.6059 57.5801 57.5061 58.3781 57.5061C58.7771 57.5061 58.9766 57.4064 58.9267 57.0074C58.8769 56.758 58.9267 56.5086 59.3258 56.5086C59.7248 56.5086 59.7248 56.758 59.6749 57.0074C59.625 57.4562 59.8245 57.556 60.2235 57.5061C61.1213 57.4562 62.019 57.6059 62.8669 57.7555C63.9143 57.955 63.7647 58.0547 64.1138 56.8577C64.2135 56.5086 64.3133 56.4089 64.7123 56.4587C64.9118 56.5086 65.0115 56.5585 64.9617 56.758C64.9118 56.8577 64.9617 57.0074 64.9118 57.1071C64.6624 58.0547 64.6624 58.0547 65.61 58.4039C65.9592 58.5036 66.3083 58.6034 66.6075 58.8029C67.206 59.2019 67.5053 58.9026 67.8544 58.5036C68.3033 57.9051 68.8021 57.3565 69.1512 56.6582C69.3008 56.359 69.4504 56.1595 69.8494 56.4089C70.2484 56.6582 69.9991 56.9076 69.8993 57.1071C69.4006 57.955 68.8021 58.7031 68.2036 59.4513C68.2036 59.5011 68.2036 59.551 68.2534 59.551C69.7497 60.4488 69.7996 60.4986 71.246 58.8029C71.8943 58.1046 72.5427 57.4064 73.0415 56.5585C73.1911 56.359 73.2908 56.1096 73.64 56.359C73.9891 56.6084 73.8395 56.758 73.6898 57.0074C72.3432 58.9525 70.6475 60.5984 68.7023 61.8951C68.4031 61.7455 68.3532 61.4463 68.3532 61.1969C68.4031 60.9974 68.5028 60.8976 68.7023 60.9475C68.2534 60.7979 67.9542 60.3989 67.5053 60.349C67.2061 60.2493 66.9068 60.1994 66.6574 60.0498C66.1088 59.5011 65.3607 59.3515 64.6624 59.1021C64.3632 59.0024 64.2135 59.2518 64.1138 59.4513C63.8145 60.0996 63.3158 60.6483 62.8669 61.2468C62.7173 61.4463 62.5676 61.6458 62.2684 61.5959C62.019 61.4463 61.9193 61.1969 61.9193 60.9475C62.0689 60.349 62.5178 59.95 62.817 59.4014C63.1662 58.8029 63.1662 58.753 62.4679 58.6034C61.8195 58.5036 61.1711 58.4537 60.5228 58.354C59.9243 58.3041 59.8744 58.4039 59.8245 59.0024C59.8245 59.4014 59.8744 59.8004 59.4255 59.9999C59.3258 60.0498 59.226 60.0498 59.1262 60.0498C58.6275 59.9001 58.7272 59.5011 58.7272 59.2019C58.6774 58.354 58.6275 58.3041 57.8295 58.4039C57.231 58.5036 56.6325 58.5036 56.034 58.6034C55.4355 58.753 55.4355 58.753 55.7347 59.2518C55.8345 59.4513 55.9841 59.6508 55.9841 59.9001C55.3856 60.2493 54.9367 60.1994 54.6375 59.6009C54.3382 59.0024 53.9392 58.9525 53.4405 59.2019C52.9417 59.4014 52.2933 59.4014 51.9941 59.9999C51.8943 60.1994 51.4953 60.0996 51.2459 60.1495C51.1961 60.1495 51.1462 60.1994 51.0963 60.1994C50.5976 60.2991 50.2484 60.6483 49.7497 60.7979C49.4504 60.748 49.1512 60.6483 49.1013 60.2991Z" fill="white"/>
<path d="M62.0687 61.0473C62.1685 61.2469 62.2682 61.4464 62.368 61.6459C62.6672 61.8454 62.6174 62.1446 62.7171 62.394C62.767 62.5436 62.767 62.6932 62.767 62.8927C62.767 63.1421 62.8667 63.4414 62.8667 63.6907C62.8667 63.99 62.8667 64.2394 62.7171 64.4887C62.6174 65.187 62.6174 65.8853 62.4179 66.5835C62.0687 67.8803 61.171 68.6284 59.9241 68.6284C58.6772 68.6284 57.7296 67.8803 57.4303 66.5336C57.2807 65.9351 57.2308 65.2868 57.1809 64.6384C56.9814 64.4389 57.0313 64.1895 56.9814 63.9401C56.9814 63.4414 57.1311 62.9925 57.1311 62.4937C57.1809 62.1945 57.2807 61.8454 57.4303 61.5461C57.6298 61.1471 57.8293 60.8478 58.1286 60.5486C58.4278 60.2493 58.777 60.0997 59.176 60.0498C59.2757 60.0498 59.3256 60.0498 59.4253 60C60.5725 59.601 61.7196 60.0498 62.0687 61.0473Z" fill="#095490"/>
<path d="M66.7071 59.9998C67.0064 60.0996 67.2558 60.1993 67.555 60.2991C67.954 60.5484 68.4029 60.7479 68.4528 61.2966C68.5525 61.5459 68.6523 61.7953 68.7021 62.0447C68.9016 63.4911 69.0014 64.9873 68.7021 66.4337C68.4528 67.7804 67.5051 68.6282 66.3081 68.6781C65.0114 68.728 64.0637 67.9799 63.7146 66.6332C63.565 66.1345 63.5151 65.6357 63.5151 65.0871C63.5151 64.8377 63.5151 64.5385 63.4652 64.2891C63.2657 64.0896 63.3156 63.8402 63.3156 63.5908C63.3156 63.541 63.3156 63.4412 63.3156 63.3913C63.3655 62.9923 63.4153 62.5933 63.5151 62.1943C63.7645 61.2467 64.1635 60.3988 65.2109 60.0497C65.6597 59.8502 66.2084 59.6507 66.7071 59.9998Z" fill="#095490"/>
<path d="M49.1012 60.2993C49.3007 60.4489 49.5002 60.6484 49.6997 60.798C49.8992 60.8479 49.999 60.9975 50.0987 61.197C50.2484 61.5462 50.4977 61.8953 50.2484 62.2943C50.3481 63.4913 49.7995 64.3392 48.9017 65.0873C48.3531 65.5362 47.8045 65.9851 47.2558 66.4339C47.1561 66.5337 46.9566 66.6833 47.0065 66.833C47.0563 67.0325 47.3057 66.9327 47.4553 66.9327C48.2035 66.9327 48.9017 66.9826 49.6498 66.9327C50.1486 66.8828 50.2982 67.0823 50.2484 67.5811C50.2484 67.6808 50.2484 67.8305 50.2484 67.9302C50.2982 68.3292 50.1486 68.429 49.7496 68.429C48.2533 68.429 46.807 68.429 45.3107 68.429C44.8618 68.429 44.8618 68.2295 44.8618 67.9302C45.0114 66.8828 45.5102 66.0848 46.3082 65.4863C46.9566 64.9876 47.605 64.5886 48.1536 63.9901C48.6025 63.4913 48.802 62.9427 48.6523 62.2943C48.5027 61.6958 48.1536 61.3467 47.5551 61.3467C47.0065 61.3467 46.6075 61.6958 46.5077 62.2943C46.4578 62.5437 46.6074 62.9427 46.3082 63.0424C45.9591 63.1422 45.5601 63.0923 45.2109 63.0923C44.9117 63.0923 44.9616 62.8429 44.9616 62.6933C44.9117 61.1472 45.9092 60.0998 47.4553 60.0998C47.6548 60.0998 47.8543 60.0998 48.0538 60.0998C48.2035 60 48.3032 60.0499 48.4528 60.1497C48.7022 60.1497 48.9017 60.1995 49.1012 60.2993Z" fill="#095490"/>
<path d="M54.9368 63.9898C54.2884 65.137 53.9393 66.3838 53.8396 67.7305C53.7897 68.2791 53.6401 68.4287 53.0914 68.4287C52.1937 68.3788 52.1937 68.4287 52.2934 67.531C52.4929 66.2342 52.8919 64.9873 53.4406 63.7903C53.4406 63.5409 53.5902 63.3414 53.7398 63.0921C53.8894 62.8926 54.0391 62.6931 54.1388 62.4437C54.2386 62.2442 54.4381 62.0946 54.488 61.8452C54.3882 61.5958 54.1388 61.6956 53.9393 61.6956C53.2909 61.6956 52.5927 61.6956 51.9443 61.6956C50.9967 61.6956 50.7473 61.3963 50.9468 60.4985C50.9468 60.3489 50.9967 60.2492 51.0964 60.1494C52.8919 59.8003 54.6874 60.0497 56.5328 60.0497C56.7822 60.1993 56.7822 60.4985 56.7822 60.7479C56.882 61.6457 56.2336 62.1444 55.7847 62.7928C55.6351 63.0422 55.4855 63.2916 55.3358 63.5409C55.2361 63.6906 55.1862 63.9399 54.9368 63.9898Z" fill="#095490"/>
<path d="M73.3409 64.2395C73.3409 65.4365 73.3409 66.6335 73.3409 67.8305C73.3409 68.2295 73.2411 68.3791 72.8421 68.3791C71.5952 68.3292 71.7948 68.5287 71.7948 67.3816C71.7948 66.035 71.7948 64.6385 71.7948 63.2918C71.7948 62.8429 71.695 62.6434 71.1962 62.6933C70.9469 62.7432 70.7474 62.7432 70.498 62.6933C70.2486 62.6434 69.8496 62.8928 69.8496 62.3442C69.8496 61.8454 69.9494 61.6459 70.4481 61.5961C71.1962 61.5462 71.8446 61.2469 72.1938 60.4489C72.3933 59.9502 72.7923 60.1996 73.0915 60.1996C73.4905 60.1996 73.291 60.5487 73.291 60.7482C73.3409 61.8454 73.3409 63.0424 73.3409 64.2395Z" fill="#095490"/>
<path d="M48.5029 60.0499C48.3532 60.0499 48.2535 60 48.1039 60C46.2585 59.8005 45.7098 58.1048 44.6625 57.0075C44.4131 56.7581 44.6126 56.6584 44.862 56.5088C45.1612 56.3093 45.261 56.4589 45.4106 56.6584C46.059 57.7058 46.9068 58.5536 47.8046 59.4015C48.0041 59.601 48.2535 59.8005 48.5029 60.0499Z" fill="white"/>
<path d="M53.8894 63.1419C53.7896 63.3414 53.64 63.5409 53.5402 63.7903C52.443 63.3913 51.3457 62.8426 50.2983 62.294C50.2485 61.895 50.1487 61.5459 49.9492 61.1968C50.3981 61.0471 50.6973 61.496 51.0465 61.5958C51.7946 62.0446 52.5926 62.3938 53.3906 62.7429C53.5901 62.7928 53.8894 62.7928 53.8894 63.1419Z" fill="white"/>
<path d="M54.9365 63.9899C55.0363 63.8403 55.136 63.6906 55.1859 63.4911C55.934 63.3415 56.5824 63.4413 57.1809 63.8901C57.1809 64.1395 57.1809 64.3889 57.1809 64.6383C56.5325 64.5385 55.8842 64.3889 55.2358 64.2891C55.0862 64.2392 54.9864 64.1894 54.9365 63.9899Z" fill="white"/>
<path d="M63.4653 63.5412C63.4653 63.7906 63.4653 64.04 63.4653 64.2894C63.216 64.3891 62.9666 64.439 62.7671 64.5387C62.7671 64.2395 62.7671 63.9402 62.7671 63.6909C62.9666 63.4415 63.1661 63.2919 63.4653 63.5412Z" fill="#FDFEFF"/>
<path d="M67.7048 47.4814C67.7547 45.4864 67.9542 44.04 68.8519 42.7432C70.3981 40.5487 73.9392 40.1996 75.9342 41.9951C77.2809 43.242 77.8794 44.838 77.9791 46.6335C78.0789 48.2794 77.7796 49.8255 76.7821 51.222C75.635 52.8181 74.0888 53.5163 72.1936 53.2669C70.2484 53.0674 68.9018 51.9702 68.2534 50.1248C67.8544 49.1273 67.6549 48.0799 67.7048 47.4814Z" fill="#CDCEC9"/>
<path d="M54.8369 30.8727C57.7297 30.0747 60.5227 30.0249 63.4155 30.6732C61.9192 32.3191 56.7821 32.3191 54.8369 30.8727Z" fill="#CDCEC9"/>
<path d="M60.1236 35.9601C59.8244 36.01 59.7246 35.8604 59.7246 35.4613C59.7246 34.7132 59.7246 33.9152 59.7246 33.1671C59.7246 32.8678 59.8244 32.7681 60.1236 32.7182C61.0214 32.4688 61.6199 32.7681 62.1685 33.4663C62.5675 34.015 63.0164 34.5137 63.3156 35.1621C63.4653 35.4115 63.4653 35.5611 63.1161 35.611C62.1685 35.7606 61.171 35.8105 60.1236 35.9601Z" fill="#CDCEC9"/>
<path d="M58.9763 34.3143C58.9763 34.7133 58.9763 35.1123 58.9763 35.5113C58.9763 35.8604 58.8267 36.0101 58.4776 35.9602C57.53 35.8106 56.5325 35.8106 55.5848 35.6111C55.1858 35.5113 55.2357 35.4116 55.3853 35.1123C55.8841 34.2644 56.4826 33.4664 57.2307 32.7682C57.3803 32.6684 58.7768 32.6684 58.8766 32.7682C58.9763 32.8679 58.9763 33.0176 58.9763 33.1173C58.9763 33.5163 58.9763 33.9153 58.9763 34.3143Z" fill="#CDCEC9"/>
<path d="M56.3334 32.5186C56.2835 32.6184 56.1838 32.6682 56.1339 32.768C55.5354 33.4662 54.9868 34.1645 54.5878 35.0124C54.488 35.2618 54.3384 35.4114 54.0391 35.2618C53.4406 35.0623 52.8421 34.8628 52.1937 34.6633C51.8446 34.5635 51.8446 34.364 52.1439 34.1645C52.9419 33.5161 53.7897 32.9176 54.6376 32.3191C55.2361 31.9201 55.685 32.2692 56.2336 32.369C56.2336 32.369 56.2835 32.4189 56.3334 32.5186Z" fill="#CDCEC9"/>
<path d="M66.6572 34.3638C66.0088 34.8127 65.2607 34.9623 64.5625 35.2117C64.363 35.2615 64.2632 35.2117 64.1635 35.0122C63.6148 34.1144 63.1161 33.2167 62.3679 32.5184C62.3181 32.4685 62.2183 32.3189 62.3181 32.269C62.6173 32.1693 62.8667 31.87 63.2158 32.0197C63.6647 32.269 64.1136 32.4685 64.5625 32.7678C65.3605 33.2167 66.0088 33.7653 66.6572 34.3638Z" fill="#CDCEC9"/>
<path d="M64.0142 31.4213C64.2635 31.0223 64.5129 30.9724 64.862 31.122C66.1089 31.5709 67.3059 32.1694 68.4032 32.9175C68.7523 33.1669 68.7024 33.2667 68.3533 33.4662C67.5054 34.0647 67.5054 34.0647 66.8072 33.3664C66.1588 32.7679 65.4107 32.2193 64.6127 31.7704C64.463 31.6706 64.2137 31.521 64.0142 31.4213Z" fill="#CDCEC9"/>
<path d="M54.338 31.571C53.1909 32.2194 52.1435 32.9675 51.2457 33.9152C51.0462 34.1147 50.8467 34.1147 50.6472 33.965C50.4477 33.8154 50.1984 33.7157 49.9989 33.566C49.6996 33.4164 49.6996 33.2668 49.9989 33.0673C51.0961 32.369 52.2432 31.7207 53.4402 31.2718C53.7894 31.172 54.0388 31.2718 54.338 31.571Z" fill="#CDCEC9"/>
<path d="M56.6324 60.8975C56.6324 60.6481 56.6324 60.3987 56.6324 60.1493C56.4329 59.9997 56.1835 60.1493 55.984 59.9997C55.8344 59.7503 55.7347 59.5508 55.585 59.3014C55.186 58.6531 55.186 58.6032 55.8843 58.5034C56.7322 58.4037 57.58 58.3538 58.4279 58.2541C58.9267 58.2042 59.0763 58.4037 59.0264 58.8526C58.9765 59.1019 59.0264 59.4012 59.0264 59.6506C59.0264 59.8501 59.0763 59.9498 59.2758 59.9997C58.5277 60.2491 58.0289 60.7977 57.6299 61.496C57.0314 61.7453 56.8818 61.2466 56.6324 60.8975Z" fill="#CDCEC9"/>
<path d="M62.0686 61.0472C61.4202 60.1993 60.5225 59.8502 59.4751 59.9998C59.8741 59.7505 59.7743 59.3515 59.7245 59.0522C59.6247 58.4038 59.924 58.2043 60.5225 58.3041C61.3704 58.4038 62.2681 58.4537 63.116 58.6532C63.515 58.7529 63.515 58.9026 63.3155 59.1519C63.0661 59.551 62.7669 59.95 62.5175 60.349C62.3679 60.5485 62.1185 60.748 62.0686 61.0472Z" fill="#CDCEC9"/>
<path d="M66.7073 60C65.0116 59.8503 64.2634 60.399 63.615 62.1446C63.2659 62.2444 62.9168 62.2942 62.5677 62.394C62.5178 62.1446 62.418 61.8952 62.3682 61.596C63.0664 60.9476 63.6151 60.1496 64.0639 59.2518C64.2634 58.9027 64.4131 58.803 64.7622 58.9526C65.2111 59.1521 65.7098 59.3017 66.2086 59.5012C66.4579 59.6508 66.6076 59.8005 66.7073 60Z" fill="#CDCEC9"/>
<path d="M55.9839 60.0001C56.1834 60.05 56.4328 59.9004 56.6323 60.1497C54.7869 60.1497 52.9914 60.1497 51.146 60.1497C51.2457 60.0001 51.3954 60.05 51.545 60.05C51.7445 60.0001 52.1435 60.2495 51.9939 59.7009C51.9939 59.7009 52.1934 59.5512 52.2931 59.5014C52.5924 59.4016 52.8916 59.252 53.2408 59.1522C54.2881 58.8031 54.2881 58.8031 54.8866 59.7009C55.1859 60.1996 55.5849 60.0001 55.9839 60.0001Z" fill="#CCCDC8"/>
<path d="M50.9964 61.6457C50.6473 61.496 50.2981 61.2965 49.949 61.1469C49.8991 61.0472 49.7994 60.8975 49.7495 60.7978C50.1984 60.5484 50.5974 60.1993 51.146 60.1494C51.0463 61.5958 51.0463 61.5958 52.4927 61.5958C53.1909 61.5958 53.8393 61.5958 54.5375 61.5958C54.6872 61.5958 54.8867 61.496 54.8867 61.6955C54.9365 61.8452 54.7869 61.9449 54.6872 62.0447C54.0887 61.7454 53.4902 61.7953 52.8418 61.8452C52.1934 61.8452 51.545 61.9449 50.9964 61.6457Z" fill="#C7CAC7"/>
<path d="M68.4529 61.2965C68.2036 60.8975 67.9043 60.5983 67.5552 60.299C67.9043 60.2491 68.1038 60.5484 68.4031 60.698C68.8021 60.8975 68.8021 61.097 68.4529 61.2965Z" fill="#CACDCA"/>
<path d="M61.0711 64.7383C61.121 65.2869 61.0711 65.8356 60.9215 66.3842C60.7719 66.8829 60.4726 67.1822 59.9739 67.1822C59.4252 67.1822 59.126 66.8331 59.0262 66.3842C58.8766 65.8356 58.8267 65.2869 58.8766 64.7383C59.6247 64.4889 60.323 64.4889 61.0711 64.7383Z" fill="#CDCEC9"/>
<path d="M58.8766 64.0401C58.8766 63.4416 58.8268 62.8431 59.0263 62.2944C59.7245 61.9952 60.3729 62.045 60.9714 62.4441C61.121 62.9428 61.121 63.4416 61.0712 63.9403C60.3729 64.3393 59.6248 64.3393 58.8766 64.0401Z" fill="#CDCEC9"/>
<path d="M57.2309 63.8904C56.5825 63.7408 55.8842 63.6411 55.2358 63.4914C55.3855 63.242 55.4852 62.9927 55.6348 62.7433C56.1835 62.444 56.7321 62.1448 57.3805 62.3942C57.3306 62.8929 57.2807 63.3917 57.2309 63.8904Z" fill="#CDCEC9"/>
<path d="M58.877 64.0397C59.6251 64.0397 60.3732 64.0896 61.1213 63.9399C61.1712 64.2392 61.1712 64.4886 61.1213 64.7878C60.3732 64.7878 59.6251 64.7878 58.877 64.7878C58.877 64.5384 58.877 64.2891 58.877 64.0397Z" fill="white"/>
<path d="M57.3804 62.3937C56.7819 62.4935 56.2333 62.6431 55.6348 62.7429C55.934 62.0945 56.6821 61.6955 56.6323 60.8975C56.9814 61.0471 57.131 61.5458 57.5799 61.496C57.53 61.7952 57.4303 62.0945 57.3804 62.3937Z" fill="#FDFEFF"/>
<path d="M60.9715 62.3941C60.3231 62.2944 59.6747 62.2445 59.0264 62.2445C59.1261 61.6959 59.3755 61.2969 60.0239 61.2969C60.5725 61.2969 60.8718 61.646 60.9715 62.3941Z" fill="#F7F9FB"/>
<path d="M62.5674 62.3939C62.717 62.1944 63.2158 62.0448 63.6148 62.1445C63.5649 62.5435 63.515 62.9425 63.4651 63.3416C63.0661 63.3914 62.7669 63.2418 62.6173 62.8428C62.6173 62.743 62.6173 62.5934 62.5674 62.3939Z" fill="#FAFCFE"/>
<path d="M62.6177 62.8926C62.9169 63.0422 63.1663 63.2417 63.4656 63.3913C63.4656 63.4412 63.4656 63.4911 63.4656 63.541C63.2162 63.5908 62.9668 63.6407 62.7174 63.6407C62.7174 63.3913 62.6676 63.142 62.6177 62.8926Z" fill="#C9CDC9"/>
<path d="M67.2561 62.7432C67.4556 63.9402 67.4057 65.0873 67.2062 66.2344C67.1064 66.7831 66.8072 67.1821 66.2087 67.1821C65.6102 67.1821 65.3109 66.8329 65.2112 66.2843C65.0117 65.2868 64.9618 64.2394 65.1114 63.192C65.3109 63.4414 65.5104 63.4913 65.8097 63.3417C66.2585 63.2419 66.7074 62.8928 67.2561 62.7432Z" fill="#CDCEC9"/>
<path d="M66.2086 61.2969C66.7572 61.2969 67.0066 61.646 67.1063 62.1448C66.5078 62.6435 65.8595 62.9926 65.1113 63.0425C65.1113 62.6435 65.1113 62.2445 65.3108 61.8954C65.6101 61.646 65.9093 61.4465 66.2086 61.2969Z" fill="#CDCEC8"/>
<path d="M65.1115 63.0423C65.7598 62.743 66.4581 62.4438 67.1065 62.1445C67.2561 62.344 67.2062 62.5435 67.2062 62.7929C66.7075 63.3415 66.0092 63.541 65.311 63.7405C64.9618 63.8902 65.1613 63.4413 65.0117 63.2917C65.0616 63.1919 65.1115 63.0922 65.1115 63.0423Z" fill="white"/>
<path d="M66.2083 61.2969C66.0088 61.5961 65.7095 61.8455 65.3105 61.8954C65.4602 61.4964 65.7594 61.247 66.2083 61.2969Z" fill="#EAEFF2"/>
<path d="M50.9966 61.646C51.645 61.646 52.2933 61.646 52.8918 61.646C53.3906 61.8954 53.8893 62.1448 54.2883 62.5438C54.1387 62.7433 54.039 62.9428 53.8893 63.1423C53.1412 62.7931 52.3432 62.444 51.5951 62.045C51.3956 61.9452 51.1462 61.8954 50.9966 61.646Z" fill="#CACCC8"/>
<path d="M54.2881 62.5438C53.7395 62.3941 53.2906 62.045 52.8916 61.646C53.2906 61.646 53.6397 61.646 54.0387 61.646C54.2881 61.646 54.5874 61.6959 54.6372 62.045C54.5375 62.1946 54.3879 62.3941 54.2881 62.5438Z" fill="#F1F4F6"/>
</svg>
