<svg width="981" height="78" viewBox="0 0 981 78" fill="none" xmlns="http://www.w3.org/2000/svg">
<path d="M975 1.5C972.5 1.5 970.5 3.5 970.5 6C970.5 8.5 972.5 10.5 975 10.5C977.5 10.5 979.5 8.5 979.5 6C979.5 3.5 977.5 1.5 975 1.5Z" fill="white"/>
<path d="M9 78L17.6603 63H0.339746L9 78ZM972 6C972 4.32843 973.328 3 975 3V0C971.672 0 969 2.67157 969 6H972ZM975 3C976.672 3 978 4.32843 978 6H981C981 2.67157 978.328 0 975 0V3ZM978 6C978 7.67157 976.672 9 975 9V12C978.328 12 981 9.32843 981 6H978ZM975 9C973.328 9 972 7.67157 972 6H969C969 9.32843 971.672 12 975 12V9ZM973.5 10.5V22H976.5V10.5H973.5ZM955 40.5H29V43.5H955V40.5ZM7.5 62V64.5H10.5V62H7.5ZM29 40.5C17.1259 40.5 7.5 50.1259 7.5 62H10.5C10.5 51.7827 18.7827 43.5 29 43.5V40.5ZM973.5 22C973.5 32.2173 965.217 40.5 955 40.5V43.5C966.874 43.5 976.5 33.8741 976.5 22H973.5Z" fill="url(#paint0_linear_406_4773)"/>
<defs>
<linearGradient id="paint0_linear_406_4773" x1="494.25" y1="-3.09" x2="494.25" y2="78" gradientUnits="userSpaceOnUse">
<stop stop-color="#FF5029"/>
<stop offset="1" stop-color="#FF9C85"/>
</linearGradient>
</defs>
</svg>
