<svg width="64" height="64" viewBox="0 0 64 64" fill="none" xmlns="http://www.w3.org/2000/svg">
<rect width="64" height="64" rx="8" fill="url(#paint0_linear_124_430)"/>
<path d="M26.6964 19.988C27.7927 16.7797 32.2257 16.6825 33.5255 19.6965L33.6355 19.9899L35.115 24.3165C35.4541 25.3088 36.002 26.2168 36.7218 26.9793C37.4416 27.7418 38.3166 28.3411 39.2877 28.7367L39.6855 28.8852L44.0122 30.3629C47.2205 31.4592 47.3177 35.8922 44.3055 37.192L44.0122 37.302L39.6855 38.7815C38.6929 39.1204 37.7846 39.6682 37.0217 40.388C36.2589 41.1078 35.6593 41.9829 35.2635 42.9542L35.115 43.3502L33.6374 47.6787C32.541 50.887 28.108 50.9842 26.81 47.972L26.6964 47.6787L25.2187 43.352C24.8799 42.3594 24.332 41.4511 23.6122 40.6882C22.8924 39.9254 22.0173 39.3258 21.046 38.93L20.65 38.7815L16.3234 37.3039C13.1132 36.2075 13.016 31.7745 16.03 30.4765L16.3234 30.3629L20.65 28.8852C21.6423 28.5461 22.5503 27.9982 23.3128 27.2784C24.0753 26.5586 24.6746 25.6836 25.0702 24.7125L25.2187 24.3165L26.6964 19.988ZM44.8335 13.6667C45.1765 13.6667 45.5126 13.7629 45.8036 13.9444C46.0947 14.1259 46.3289 14.3854 46.4799 14.6934L46.5679 14.9079L47.2095 16.7889L49.0924 17.4305C49.4361 17.5473 49.7374 17.7635 49.9581 18.0517C50.1788 18.3399 50.309 18.6871 50.3322 19.0494C50.3554 19.4117 50.2705 19.7727 50.0883 20.0866C49.906 20.4006 49.6347 20.6534 49.3087 20.813L49.0924 20.901L47.2114 21.5427L46.5697 23.4255C46.4527 23.7691 46.2364 24.0703 45.9481 24.2908C45.6597 24.5114 45.3125 24.6414 44.9502 24.6643C44.5879 24.6873 44.227 24.6022 43.9132 24.4199C43.5993 24.2375 43.3466 23.9661 43.1872 23.64L43.0992 23.4255L42.4575 21.5445L40.5747 20.9029C40.231 20.7861 39.9297 20.5699 39.7089 20.2817C39.4882 19.9935 39.358 19.6463 39.3349 19.284C39.3117 18.9217 39.3966 18.5607 39.5788 18.2467C39.761 17.9328 40.0323 17.68 40.3584 17.5204L40.5747 17.4324L42.4557 16.7907L43.0974 14.9079C43.221 14.5456 43.4549 14.2312 43.7662 14.0086C44.0776 13.786 44.4508 13.6665 44.8335 13.6667Z" fill="white"/>
<defs>
<linearGradient id="paint0_linear_124_430" x1="32" y1="-3.84" x2="32" y2="64" gradientUnits="userSpaceOnUse">
<stop stop-color="#FF5029"/>
<stop offset="1" stop-color="#FF9C85"/>
</linearGradient>
</defs>
</svg>
