<svg width="64" height="64" viewBox="0 0 64 64" fill="none" xmlns="http://www.w3.org/2000/svg">
<rect width="64" height="64" rx="8" fill="url(#paint0_linear_124_433)"/>
<path d="M48.4998 44.8333C48.967 44.8338 49.4165 45.0128 49.7563 45.3335C50.0961 45.6543 50.3005 46.0927 50.3279 46.5592C50.3553 47.0257 50.2035 47.485 49.9036 47.8433C49.6037 48.2017 49.1783 48.432 48.7143 48.4871L48.4998 48.5H15.4998C15.0325 48.4995 14.583 48.3205 14.2433 47.9998C13.9035 47.679 13.699 47.2406 13.6716 46.7741C13.6442 46.3076 13.796 45.8483 14.0959 45.49C14.3958 45.1316 14.8213 44.9013 15.2853 44.8461L15.4998 44.8333H48.4998ZM44.8331 17.3333C45.7581 17.333 46.6491 17.6824 47.3274 18.3114C48.0057 18.9404 48.4212 19.8025 48.4906 20.725L48.4998 21V39.3333C48.5001 40.2584 48.1507 41.1494 47.5217 41.8277C46.8927 42.5059 46.0305 42.9214 45.1081 42.9908L44.8331 43H19.1664C18.2414 43.0003 17.3504 42.6509 16.6721 42.0219C15.9938 41.3929 15.5783 40.5308 15.5089 39.6083L15.4998 39.3333V21C15.4995 20.0749 15.8488 19.1839 16.4778 18.5056C17.1068 17.8273 17.969 17.4119 18.8914 17.3425L19.1664 17.3333H44.8331Z" fill="white"/>
<defs>
<linearGradient id="paint0_linear_124_433" x1="32" y1="-3.84" x2="32" y2="64" gradientUnits="userSpaceOnUse">
<stop stop-color="#FF5029"/>
<stop offset="1" stop-color="#FF9C85"/>
</linearGradient>
</defs>
</svg>
