<svg width="28" height="28" viewBox="0 0 28 28" fill="none" xmlns="http://www.w3.org/2000/svg">
<path d="M21.4664 24.3584C25.0748 24.3584 28 21.4324 28 17.8227C28 14.2142 25.0748 11.2882 21.4664 11.2882C21.4664 11.2882 21.498 8.86052 23.4702 5.36643C23.6893 4.66632 23.2988 3.92077 22.5982 3.70295C22.1012 3.54659 21.5782 3.69857 21.2404 4.05235C16.7054 9.0125 14.9303 14.8503 14.9303 17.8227C14.9303 21.4324 17.8554 24.3584 21.4664 24.3584Z" fill="url(#paint0_linear_305_3678)"/>
<path d="M6.53571 24.3584C10.1442 24.3584 13.0693 21.4323 13.0693 17.8227C13.0693 14.2142 10.1442 11.2882 6.53571 11.2882C6.53571 11.2882 6.56732 8.86052 8.53957 5.36643C8.75865 4.66632 8.36807 3.92077 7.66758 3.70295C7.17052 3.54659 6.64749 3.69857 6.3098 4.05235C1.77478 9.0125 -0.000429153 14.8503 -0.000429153 17.8227C-0.000429153 21.4324 2.92475 24.3584 6.53571 24.3584Z" fill="url(#paint1_linear_305_3678)"/>
<defs>
<linearGradient id="paint0_linear_305_3678" x1="21.4651" y1="24.3584" x2="21.4651" y2="3.64162" gradientUnits="userSpaceOnUse">
<stop stop-color="#FF512F"/>
<stop offset="1" stop-color="#DD2476"/>
</linearGradient>
<linearGradient id="paint1_linear_305_3678" x1="6.53445" y1="24.3584" x2="6.53445" y2="3.64162" gradientUnits="userSpaceOnUse">
<stop stop-color="#FF512F"/>
<stop offset="1" stop-color="#DD2476"/>
</linearGradient>
</defs>
</svg>
