<svg width="120" height="120" viewBox="0 0 120 120" fill="none" xmlns="http://www.w3.org/2000/svg">
<rect x="0.5" y="0.5" width="119" height="119" rx="15.5" fill="white"/>
<rect x="0.5" y="0.5" width="119" height="119" rx="15.5" stroke="#FFE4BB"/>
<g clip-path="url(#clip0_441_7785)">
<path d="M59.9284 19.8848L37.707 27.705L41.2182 56.8189L59.952 67.1153L78.7823 56.6798L82.2923 27.5666L59.9284 19.8848Z" fill="#B3B3B3"/>
<path d="M80.076 29.2492L59.877 22.3608V64.6552L76.8048 55.2866L80.076 29.2492Z" fill="#A6120D"/>
<path d="M40.2002 29.3736L43.2099 55.4114L59.8764 64.6555V22.3604L40.2002 29.3736Z" fill="#DD1B16"/>
<path d="M65.4371 44.8762L59.8769 47.4765H54.0164L51.2613 54.3667L46.1377 54.462L59.8769 23.8965L65.4371 44.8762ZM64.8993 43.5671L59.9137 33.6967L55.8239 43.3972H59.8766L64.8993 43.5671Z" fill="#F2F2F2"/>
<path d="M59.877 23.8965L59.9137 33.6967L64.5543 43.4047H59.8871L59.877 47.4701L66.3303 47.4765L69.3461 54.4627L74.2488 54.5535L59.877 23.8965Z" fill="#B3B3B3"/>
</g>
<path d="M35.9953 97.5H34.3646L38.0287 87.3182H39.8035L43.4676 97.5H41.8369L38.9584 89.1676H38.8788L35.9953 97.5ZM36.2687 93.5128H41.5585V94.8054H36.2687V93.5128ZM46.3051 92.9659V97.5H44.8186V89.8636H46.2455V91.1065H46.3399C46.5156 90.7022 46.7907 90.3774 47.1652 90.1321C47.5431 89.8868 48.0187 89.7642 48.5921 89.7642C49.1124 89.7642 49.5682 89.8736 49.9593 90.0923C50.3503 90.3078 50.6536 90.6293 50.8691 91.0568C51.0845 91.4844 51.1922 92.013 51.1922 92.6428V97.5H49.7057V92.8217C49.7057 92.2682 49.5615 91.8357 49.2732 91.5241C48.9848 91.2093 48.5887 91.0518 48.085 91.0518C47.7403 91.0518 47.4337 91.1264 47.1652 91.2756C46.9001 91.4247 46.6896 91.6435 46.5338 91.9318C46.3814 92.2169 46.3051 92.5616 46.3051 92.9659ZM56.3875 100.523C55.781 100.523 55.259 100.443 54.8215 100.284C54.3873 100.125 54.0326 99.9145 53.7575 99.6527C53.4825 99.3909 53.277 99.1042 53.1411 98.7926L54.4188 98.2656C54.5083 98.4115 54.6276 98.5656 54.7767 98.728C54.9292 98.8937 55.1347 99.0346 55.3932 99.1506C55.655 99.2666 55.9914 99.3246 56.4024 99.3246C56.9659 99.3246 57.4316 99.187 57.7994 98.9119C58.1673 98.6402 58.3513 98.206 58.3513 97.6094V96.108H58.2568C58.1673 96.2704 58.0381 96.451 57.8691 96.6499C57.7033 96.8487 57.4746 97.0211 57.183 97.1669C56.8913 97.3127 56.5118 97.3857 56.0445 97.3857C55.4413 97.3857 54.8977 97.2448 54.4138 96.9631C53.9332 96.678 53.5521 96.2588 53.2703 95.7053C52.9919 95.1484 52.8527 94.464 52.8527 93.652C52.8527 92.84 52.9903 92.1439 53.2654 91.5639C53.5438 90.9839 53.9249 90.5398 54.4088 90.2315C54.8927 89.92 55.4413 89.7642 56.0544 89.7642C56.5284 89.7642 56.9112 89.8438 57.2029 90.0028C57.4945 90.1586 57.7216 90.3409 57.884 90.5497C58.0497 90.7585 58.1773 90.9425 58.2668 91.1016H58.3762V89.8636H59.8328V97.669C59.8328 98.3253 59.6804 98.8639 59.3754 99.2848C59.0705 99.7057 58.6579 100.017 58.1375 100.219C57.6205 100.422 57.0371 100.523 56.3875 100.523ZM56.3726 96.1527C56.8002 96.1527 57.1614 96.0533 57.4564 95.8544C57.7547 95.6522 57.9801 95.3639 58.1325 94.9893C58.2883 94.6115 58.3662 94.1591 58.3662 93.6321C58.3662 93.1184 58.29 92.666 58.1375 92.2749C57.9851 91.8838 57.7613 91.5788 57.4664 91.3601C57.1714 91.138 56.8068 91.027 56.3726 91.027C55.9252 91.027 55.5523 91.143 55.254 91.375C54.9557 91.6037 54.7303 91.9152 54.5779 92.3097C54.4287 92.7041 54.3541 93.1449 54.3541 93.6321C54.3541 94.1326 54.4304 94.5717 54.5828 94.9496C54.7353 95.3274 54.9607 95.6224 55.259 95.8345C55.5606 96.0466 55.9318 96.1527 56.3726 96.1527ZM66.6638 94.3331V89.8636H68.1553V97.5H66.6936V96.1776H66.6141C66.4384 96.5852 66.1567 96.925 65.7689 97.1967C65.3844 97.4652 64.9055 97.5994 64.3321 97.5994C63.8416 97.5994 63.4074 97.4917 63.0296 97.2763C62.655 97.0575 62.3601 96.7344 62.1446 96.3068C61.9325 95.8793 61.8264 95.3506 61.8264 94.7209V89.8636H63.3129V94.5419C63.3129 95.0623 63.4571 95.4766 63.7455 95.7848C64.0338 96.093 64.4084 96.2472 64.8691 96.2472C65.1475 96.2472 65.4242 96.1776 65.6993 96.0384C65.9777 95.8991 66.2081 95.6887 66.3904 95.407C66.576 95.1252 66.6671 94.7673 66.6638 94.3331ZM71.6391 87.3182V97.5H70.1526V87.3182H71.6391ZM75.8612 97.669C75.3773 97.669 74.9398 97.5795 74.5487 97.4006C74.1576 97.2183 73.8477 96.9548 73.6191 96.6101C73.3937 96.2654 73.281 95.8428 73.281 95.3423C73.281 94.9115 73.3638 94.5568 73.5296 94.2784C73.6953 94 73.919 93.7796 74.2007 93.6172C74.4825 93.4548 74.7973 93.3321 75.1453 93.2493C75.4933 93.1664 75.848 93.1035 76.2093 93.0604C76.6666 93.0073 77.0378 92.9643 77.3229 92.9311C77.6079 92.8946 77.8151 92.8366 77.9443 92.7571C78.0736 92.6776 78.1382 92.5483 78.1382 92.3693V92.3345C78.1382 91.9003 78.0156 91.5639 77.7703 91.3253C77.5284 91.0866 77.1671 90.9673 76.6865 90.9673C76.186 90.9673 75.7916 91.0784 75.5033 91.3004C75.2182 91.5192 75.021 91.7628 74.9117 92.0312L73.5146 91.7131C73.6804 91.2491 73.9223 90.8745 74.2405 90.5895C74.562 90.3011 74.9316 90.0923 75.3492 89.9631C75.7668 89.8305 76.2059 89.7642 76.6666 89.7642C76.9716 89.7642 77.2947 89.8007 77.6361 89.8736C77.9808 89.9432 78.3023 90.0724 78.6006 90.2614C78.9022 90.4503 79.1491 90.7204 79.3414 91.0717C79.5336 91.4197 79.6297 91.8722 79.6297 92.429V97.5H78.178V96.456H78.1183C78.0222 96.6482 77.878 96.8371 77.6858 97.0227C77.4936 97.2083 77.2467 97.3625 76.945 97.4851C76.6434 97.6077 76.2822 97.669 75.8612 97.669ZM76.1844 96.4759C76.5954 96.4759 76.9467 96.3946 77.2384 96.2322C77.5334 96.0698 77.7571 95.8577 77.9095 95.5959C78.0653 95.3307 78.1432 95.0473 78.1432 94.7457V93.7614C78.0902 93.8144 77.9874 93.8641 77.835 93.9105C77.6858 93.9536 77.5151 93.9917 77.3229 94.0249C77.1307 94.0547 76.9434 94.0829 76.7611 94.1094C76.5788 94.1326 76.4263 94.1525 76.3037 94.169C76.0154 94.2055 75.7519 94.2668 75.5132 94.353C75.2779 94.4392 75.089 94.5634 74.9465 94.7259C74.8073 94.8849 74.7377 95.0971 74.7377 95.3622C74.7377 95.7301 74.8735 96.0085 75.1453 96.1974C75.4171 96.383 75.7635 96.4759 76.1844 96.4759ZM81.6096 97.5V89.8636H83.0464V91.0767H83.126C83.2652 90.6657 83.5104 90.3426 83.8618 90.1072C84.2164 89.8686 84.6175 89.7493 85.0649 89.7493C85.1577 89.7493 85.2671 89.7526 85.393 89.7592C85.5223 89.7659 85.6234 89.7741 85.6963 89.7841V91.206C85.6366 91.1894 85.5306 91.1712 85.3781 91.1513C85.2256 91.1281 85.0732 91.1165 84.9207 91.1165C84.5694 91.1165 84.2562 91.1911 83.9811 91.3402C83.7093 91.486 83.4939 91.6899 83.3348 91.9517C83.1757 92.2102 83.0961 92.5052 83.0961 92.8366V97.5H81.6096Z" fill="#6A6A6A"/>
<defs>
<clipPath id="clip0_441_7785">
<rect width="48" height="48" fill="white" transform="translate(36 19.5)"/>
</clipPath>
</defs>
</svg>
