<svg width="120" height="120" viewBox="0 0 120 120" fill="none" xmlns="http://www.w3.org/2000/svg">
<rect x="0.5" y="0.5" width="119" height="119" rx="15.5" fill="white"/>
<rect x="0.5" y="0.5" width="119" height="119" rx="15.5" stroke="#FFE4BB"/>
<g clip-path="url(#clip0_441_7864)">
<path d="M53.0625 67.875C57.525 67.875 61.125 64.275 61.125 59.8125V51.75H53.0625C48.6 51.75 45 55.35 45 59.8125C45 64.275 48.6 67.875 53.0625 67.875Z" fill="#0ACF83"/>
<path d="M45 43.6875C45 39.225 48.6 35.625 53.0625 35.625H61.125V51.75H53.0625C48.6 51.75 45 48.15 45 43.6875Z" fill="#A259FF"/>
<path d="M45 27.5625C45 23.1 48.6 19.5 53.0625 19.5H61.125V35.625H53.0625C48.6 35.625 45 32.025 45 27.5625Z" fill="#F24E1E"/>
<path d="M61.125 19.5H69.1875C73.65 19.5 77.25 23.1 77.25 27.5625C77.25 32.025 73.65 35.625 69.1875 35.625H61.125V19.5Z" fill="#FF7262"/>
<path d="M77.25 43.6875C77.25 48.15 73.65 51.75 69.1875 51.75C64.725 51.75 61.125 48.15 61.125 43.6875C61.125 39.225 64.725 35.625 69.1875 35.625C73.65 35.625 77.25 39.225 77.25 43.6875Z" fill="#1ABCFE"/>
</g>
<path d="M40.7817 97.5V87.3182H47.0956V88.6406H42.3179V91.7429H46.6432V93.0604H42.3179V97.5H40.7817ZM48.8655 97.5V89.8636H50.352V97.5H48.8655ZM49.6162 88.6854C49.3577 88.6854 49.1356 88.5992 48.95 88.4268C48.7677 88.2512 48.6766 88.0424 48.6766 87.8004C48.6766 87.5552 48.7677 87.3464 48.95 87.174C49.1356 86.9983 49.3577 86.9105 49.6162 86.9105C49.8747 86.9105 50.0951 86.9983 50.2774 87.174C50.463 87.3464 50.5558 87.5552 50.5558 87.8004C50.5558 88.0424 50.463 88.2512 50.2774 88.4268C50.0951 88.5992 49.8747 88.6854 49.6162 88.6854ZM55.5535 100.523C54.947 100.523 54.425 100.443 53.9875 100.284C53.5533 100.125 53.1987 99.9145 52.9236 99.6527C52.6485 99.3909 52.443 99.1042 52.3071 98.7926L53.5848 98.2656C53.6743 98.4115 53.7936 98.5656 53.9427 98.728C54.0952 98.8937 54.3007 99.0346 54.5592 99.1506C54.8211 99.2666 55.1575 99.3246 55.5684 99.3246C56.1319 99.3246 56.5976 99.187 56.9655 98.9119C57.3334 98.6402 57.5173 98.206 57.5173 97.6094V96.108H57.4229C57.3334 96.2704 57.2041 96.451 57.0351 96.6499C56.8693 96.8487 56.6407 97.0211 56.349 97.1669C56.0573 97.3127 55.6778 97.3857 55.2105 97.3857C54.6073 97.3857 54.0637 97.2448 53.5798 96.9631C53.0992 96.678 52.7181 96.2588 52.4363 95.7053C52.1579 95.1484 52.0187 94.464 52.0187 93.652C52.0187 92.84 52.1563 92.1439 52.4314 91.5639C52.7098 90.9839 53.0909 90.5398 53.5748 90.2315C54.0587 89.92 54.6073 89.7642 55.2204 89.7642C55.6944 89.7642 56.0772 89.8438 56.3689 90.0028C56.6605 90.1586 56.8876 90.3409 57.05 90.5497C57.2157 90.7585 57.3433 90.9425 57.4328 91.1016H57.5422V89.8636H58.9988V97.669C58.9988 98.3253 58.8464 98.8639 58.5415 99.2848C58.2365 99.7057 57.8239 100.017 57.3035 100.219C56.7865 100.422 56.2032 100.523 55.5535 100.523ZM55.5386 96.1527C55.9662 96.1527 56.3274 96.0533 56.6224 95.8544C56.9207 95.6522 57.1461 95.3639 57.2986 94.9893C57.4543 94.6115 57.5322 94.1591 57.5322 93.6321C57.5322 93.1184 57.456 92.666 57.3035 92.2749C57.1511 91.8838 56.9273 91.5788 56.6324 91.3601C56.3374 91.138 55.9728 91.027 55.5386 91.027C55.0912 91.027 54.7183 91.143 54.42 91.375C54.1217 91.6037 53.8963 91.9152 53.7439 92.3097C53.5947 92.7041 53.5202 93.1449 53.5202 93.6321C53.5202 94.1326 53.5964 94.5717 53.7488 94.9496C53.9013 95.3274 54.1267 95.6224 54.425 95.8345C54.7266 96.0466 55.0978 96.1527 55.5386 96.1527ZM60.9925 97.5V89.8636H62.4193V91.1065H62.5138C62.6729 90.6856 62.933 90.3575 63.2943 90.1222C63.6556 89.8835 64.0881 89.7642 64.5919 89.7642C65.1023 89.7642 65.5299 89.8835 65.8746 90.1222C66.2226 90.3608 66.4794 90.6889 66.6452 91.1065H66.7247C66.907 90.6989 67.197 90.3741 67.5947 90.1321C67.9925 89.8868 68.4664 89.7642 69.0166 89.7642C69.7093 89.7642 70.2744 89.9813 70.7119 90.4155C71.1527 90.8497 71.3731 91.5043 71.3731 92.3793V97.5H69.8866V92.5185C69.8866 92.0014 69.7458 91.6269 69.464 91.3949C69.1823 91.1629 68.8459 91.0469 68.4548 91.0469C67.9709 91.0469 67.5947 91.196 67.3263 91.4943C67.0578 91.7893 66.9236 92.1688 66.9236 92.6328V97.5H65.442V92.424C65.442 92.0097 65.3128 91.6766 65.0542 91.4247C64.7957 91.1728 64.4593 91.0469 64.045 91.0469C63.7633 91.0469 63.5031 91.1214 63.2645 91.2706C63.0291 91.4164 62.8386 91.6203 62.6927 91.8821C62.5502 92.1439 62.479 92.4472 62.479 92.7919V97.5H60.9925ZM75.5878 97.669C75.1039 97.669 74.6664 97.5795 74.2753 97.4006C73.8842 97.2183 73.5743 96.9548 73.3456 96.6101C73.1202 96.2654 73.0075 95.8428 73.0075 95.3423C73.0075 94.9115 73.0904 94.5568 73.2561 94.2784C73.4218 94 73.6456 93.7796 73.9273 93.6172C74.209 93.4548 74.5239 93.3321 74.8719 93.2493C75.2199 93.1664 75.5745 93.1035 75.9358 93.0604C76.3932 93.0073 76.7644 92.9643 77.0494 92.9311C77.3345 92.8946 77.5416 92.8366 77.6709 92.7571C77.8002 92.6776 77.8648 92.5483 77.8648 92.3693V92.3345C77.8648 91.9003 77.7422 91.5639 77.4969 91.3253C77.2549 91.0866 76.8937 90.9673 76.4131 90.9673C75.9126 90.9673 75.5182 91.0784 75.2298 91.3004C74.9448 91.5192 74.7476 91.7628 74.6382 92.0312L73.2412 91.7131C73.4069 91.2491 73.6489 90.8745 73.9671 90.5895C74.2886 90.3011 74.6581 90.0923 75.0757 89.9631C75.4933 89.8305 75.9325 89.7642 76.3932 89.7642C76.6981 89.7642 77.0213 89.8007 77.3627 89.8736C77.7074 89.9432 78.0289 90.0724 78.3271 90.2614C78.6288 90.4503 78.8757 90.7204 79.0679 91.0717C79.2602 91.4197 79.3563 91.8722 79.3563 92.429V97.5H77.9046V96.456H77.8449C77.7488 96.6482 77.6046 96.8371 77.4124 97.0227C77.2201 97.2083 76.9732 97.3625 76.6716 97.4851C76.37 97.6077 76.0087 97.669 75.5878 97.669ZM75.911 96.4759C76.3219 96.4759 76.6733 96.3946 76.9649 96.2322C77.2599 96.0698 77.4836 95.8577 77.6361 95.5959C77.7919 95.3307 77.8698 95.0473 77.8698 94.7457V93.7614C77.8167 93.8144 77.714 93.8641 77.5615 93.9105C77.4124 93.9536 77.2417 93.9917 77.0494 94.0249C76.8572 94.0547 76.67 94.0829 76.4877 94.1094C76.3054 94.1326 76.1529 94.1525 76.0303 94.169C75.7419 94.2055 75.4784 94.2668 75.2398 94.353C75.0045 94.4392 74.8155 94.5634 74.673 94.7259C74.5338 94.8849 74.4642 95.0971 74.4642 95.3622C74.4642 95.7301 74.6001 96.0085 74.8719 96.1974C75.1437 96.383 75.49 96.4759 75.911 96.4759Z" fill="#6A6A6A"/>
<defs>
<clipPath id="clip0_441_7864">
<rect width="48" height="48" fill="white" transform="translate(36 19.5)"/>
</clipPath>
</defs>
</svg>
