<svg width="120" height="120" viewBox="0 0 120 120" fill="none" xmlns="http://www.w3.org/2000/svg">
<rect x="0.5" y="0.5" width="119" height="119" rx="15.5" fill="white"/>
<rect x="0.5" y="0.5" width="119" height="119" rx="15.5" stroke="#FFE4BB"/>
<path d="M59.7717 24.0931C58.1884 24.1006 56.6772 24.2352 55.3467 24.4707C51.428 25.1629 50.717 26.6119 50.717 29.2846V32.8137H59.9768V33.9901H47.2415C44.5505 33.9901 42.194 35.6074 41.4567 38.6854C40.6062 42.2123 40.5687 44.4136 41.4567 48.0964C42.1148 50.8381 43.6868 52.7911 46.3782 52.7911H49.5623V48.5603C49.5623 45.5037 52.2065 42.8078 55.3471 42.8078H64.5965C67.1712 42.8078 69.2262 40.6876 69.2262 38.1023V29.2849C69.2262 26.7751 67.109 24.8899 64.5965 24.4711C63.005 24.2063 61.3546 24.0859 59.7717 24.0931ZM54.764 26.9314C55.7202 26.9314 56.5017 27.7253 56.5017 28.7018C56.5017 29.6742 55.7206 30.4606 54.764 30.4606C53.804 30.4606 53.0266 29.6742 53.0266 28.7018C53.0262 27.7253 53.804 26.9314 54.764 26.9314Z" fill="url(#paint0_linear_441_7802)"/>
<path d="M70.3807 33.9901V38.1024C70.3807 41.2899 67.6777 43.973 64.5959 43.973H55.3465C52.813 43.973 50.7168 46.1416 50.7168 48.6789V57.497C50.7168 60.0061 52.8985 61.4825 55.3465 62.2021C58.2775 63.0635 61.0885 63.2195 64.5959 62.2021C66.9269 61.5267 69.2257 60.1685 69.2257 57.497V53.9675H59.9767V52.7907H73.8562C76.5472 52.7907 77.5507 50.9139 78.4867 48.0961C79.4534 45.1955 79.4118 42.4059 78.4867 38.6851C77.8214 36.0057 76.5513 33.9897 73.8562 33.9897L70.3807 33.9901ZM65.1783 56.3202C66.1387 56.3202 66.916 57.1066 66.916 58.0797C66.916 59.0555 66.1383 59.8494 65.1783 59.8494C64.222 59.8494 63.4409 59.0555 63.4409 58.0797C63.4409 57.1066 64.222 56.3202 65.1783 56.3202Z" fill="url(#paint1_linear_441_7802)"/>
<path opacity="0.444" d="M72.4905 64.3488C72.4905 65.6774 66.9345 66.7548 60.0814 66.7548C53.2279 66.7548 47.6719 65.6774 47.6719 64.3488C47.6719 63.0201 53.2275 61.9424 60.0814 61.9424C66.9345 61.9424 72.4905 63.0194 72.4905 64.3488Z" fill="url(#paint2_radial_441_7802)"/>
<path d="M37.5452 100.364V89.8636H38.9969V91.1016H39.1212C39.2074 90.9425 39.3316 90.7585 39.4941 90.5497C39.6565 90.3409 39.8818 90.1586 40.1702 90.0028C40.4585 89.8438 40.8397 89.7642 41.3137 89.7642C41.9301 89.7642 42.4803 89.92 42.9642 90.2315C43.4481 90.5431 43.8276 90.9922 44.1027 91.5788C44.3811 92.1655 44.5203 92.8714 44.5203 93.6967C44.5203 94.522 44.3828 95.2296 44.1077 95.8196C43.8326 96.4062 43.4548 96.8587 42.9742 97.1768C42.4936 97.4917 41.945 97.6491 41.3286 97.6491C40.8646 97.6491 40.4851 97.5713 40.1901 97.4155C39.8984 97.2597 39.6697 97.0774 39.504 96.8686C39.3383 96.6598 39.2107 96.4742 39.1212 96.3118H39.0317V100.364H37.5452ZM39.0019 93.6818C39.0019 94.2187 39.0798 94.6894 39.2355 95.0938C39.3913 95.4981 39.6167 95.8146 39.9117 96.0433C40.2066 96.2687 40.5679 96.3814 40.9955 96.3814C41.4396 96.3814 41.8108 96.2637 42.1091 96.0284C42.4074 95.7898 42.6328 95.4666 42.7852 95.0589C42.941 94.6513 43.0189 94.1922 43.0189 93.6818C43.0189 93.178 42.9427 92.7256 42.7902 92.3246C42.6411 91.9235 42.4157 91.607 42.1141 91.375C41.8158 91.143 41.4429 91.027 40.9955 91.027C40.5646 91.027 40.2 91.138 39.9017 91.3601C39.6067 91.5821 39.383 91.892 39.2306 92.2898C39.0781 92.6875 39.0019 93.1515 39.0019 93.6818ZM46.8657 100.364C46.6436 100.364 46.4414 100.345 46.2591 100.309C46.0769 100.276 45.941 100.239 45.8515 100.2L46.2094 98.9815C46.4812 99.0545 46.7232 99.0859 46.9353 99.076C47.1474 99.0661 47.3347 98.9865 47.4971 98.8374C47.6628 98.6882 47.8086 98.4446 47.9346 98.1065L48.1185 97.5994L45.3245 89.8636H46.9154L48.8493 95.7898H48.9289L50.8628 89.8636H52.4587L49.3117 98.5192C49.1659 98.9169 48.9803 99.2533 48.7549 99.5284C48.5295 99.8068 48.261 100.016 47.9495 100.155C47.6379 100.294 47.2767 100.364 46.8657 100.364ZM57.4204 89.8636V91.0568H53.2492V89.8636H57.4204ZM54.3678 88.0341H55.8543V95.2578C55.8543 95.5462 55.8974 95.7633 55.9836 95.9091C56.0698 96.0516 56.1808 96.1494 56.3167 96.2024C56.4559 96.2521 56.6067 96.277 56.7691 96.277C56.8884 96.277 56.9928 96.2687 57.0823 96.2521C57.1718 96.2356 57.2414 96.2223 57.2911 96.2124L57.5596 97.4403C57.4734 97.4735 57.3508 97.5066 57.1917 97.5398C57.0326 97.5762 56.8337 97.5961 56.5951 97.5994C56.204 97.6061 55.8394 97.5365 55.5013 97.3906C55.1633 97.2448 54.8898 97.0194 54.681 96.7145C54.4722 96.4096 54.3678 96.0268 54.3678 95.5661V88.0341ZM60.7153 92.9659V97.5H59.2288V87.3182H60.6954V91.1065H60.7899C60.9688 90.6955 61.2423 90.3691 61.6102 90.1271C61.9781 89.8852 62.4587 89.7642 63.0519 89.7642C63.5756 89.7642 64.033 89.8719 64.4241 90.0874C64.8185 90.3028 65.1234 90.6243 65.3389 91.0518C65.5576 91.4761 65.667 92.0064 65.667 92.6428V97.5H64.1805V92.8217C64.1805 92.2616 64.0363 91.8274 63.748 91.5192C63.4596 91.2076 63.0586 91.0518 62.5448 91.0518C62.1935 91.0518 61.8786 91.1264 61.6002 91.2756C61.3251 91.4247 61.108 91.6435 60.949 91.9318C60.7932 92.2169 60.7153 92.5616 60.7153 92.9659ZM70.8673 97.6541C70.1514 97.6541 69.5266 97.4901 68.993 97.1619C68.4594 96.8338 68.0451 96.3748 67.7501 95.7848C67.4551 95.1948 67.3076 94.5054 67.3076 93.7166C67.3076 92.9245 67.4551 92.2318 67.7501 91.6385C68.0451 91.0452 68.4594 90.5845 68.993 90.2564C69.5266 89.9283 70.1514 89.7642 70.8673 89.7642C71.5832 89.7642 72.2079 89.9283 72.7416 90.2564C73.2752 90.5845 73.6895 91.0452 73.9845 91.6385C74.2794 92.2318 74.4269 92.9245 74.4269 93.7166C74.4269 94.5054 74.2794 95.1948 73.9845 95.7848C73.6895 96.3748 73.2752 96.8338 72.7416 97.1619C72.2079 97.4901 71.5832 97.6541 70.8673 97.6541ZM70.8722 96.4062C71.3363 96.4062 71.7207 96.2836 72.0257 96.0384C72.3306 95.7931 72.556 95.4666 72.7018 95.0589C72.8509 94.6513 72.9255 94.2022 72.9255 93.7116C72.9255 93.2244 72.8509 92.777 72.7018 92.3693C72.556 91.9583 72.3306 91.6286 72.0257 91.38C71.7207 91.1314 71.3363 91.0071 70.8722 91.0071C70.4049 91.0071 70.0171 91.1314 69.7089 91.38C69.404 91.6286 69.1769 91.9583 69.0278 92.3693C68.882 92.777 68.809 93.2244 68.809 93.7116C68.809 94.2022 68.882 94.6513 69.0278 95.0589C69.1769 95.4666 69.404 95.7931 69.7089 96.0384C70.0171 96.2836 70.4049 96.4062 70.8722 96.4062ZM77.5727 92.9659V97.5H76.0862V89.8636H77.5131V91.1065H77.6075C77.7832 90.7022 78.0583 90.3774 78.4328 90.1321C78.8106 89.8868 79.2863 89.7642 79.8596 89.7642C80.38 89.7642 80.8357 89.8736 81.2268 90.0923C81.6179 90.3078 81.9212 90.6293 82.1366 91.0568C82.3521 91.4844 82.4598 92.013 82.4598 92.6428V97.5H80.9733V92.8217C80.9733 92.2682 80.8291 91.8357 80.5407 91.5241C80.2524 91.2093 79.8563 91.0518 79.3525 91.0518C79.0078 91.0518 78.7013 91.1264 78.4328 91.2756C78.1676 91.4247 77.9572 91.6435 77.8014 91.9318C77.6489 92.2169 77.5727 92.5616 77.5727 92.9659Z" fill="#6A6A6A"/>
<defs>
<linearGradient id="paint0_linear_441_7802" x1="39.8764" y1="25.1966" x2="61.2341" y2="43.4103" gradientUnits="userSpaceOnUse">
<stop stop-color="#5A9FD4"/>
<stop offset="1" stop-color="#306998"/>
</linearGradient>
<linearGradient id="paint1_linear_441_7802" x1="69.2695" y1="54.7323" x2="61.6103" y2="43.9915" gradientUnits="userSpaceOnUse">
<stop stop-color="#FFD43B"/>
<stop offset="1" stop-color="#FFE873"/>
</linearGradient>
<radialGradient id="paint2_radial_441_7802" cx="0" cy="0" r="1" gradientUnits="userSpaceOnUse" gradientTransform="translate(60.0312 64.2799) rotate(-90) scale(2.40687 10.5802)">
<stop stop-color="#B8B8B8" stop-opacity="0.498"/>
<stop offset="1" stop-color="#7F7F7F" stop-opacity="0"/>
</radialGradient>
</defs>
</svg>
