<svg width="120" height="120" viewBox="0 0 120 120" fill="none" xmlns="http://www.w3.org/2000/svg">
<rect x="0.5" y="0.5" width="119" height="119" rx="15.5" fill="white"/>
<rect x="0.5" y="0.5" width="119" height="119" rx="15.5" stroke="#FFE4BB"/>
<path d="M52.9834 38.0847C54.6398 43.1498 55.2671 52.1851 60.1106 52.1851C60.4789 52.1851 60.852 52.1491 61.2259 52.0778C56.8234 51.0515 56.3014 42.1145 53.6145 37.4858C53.4004 37.6815 53.19 37.8812 52.9834 38.0847Z" fill="url(#paint0_linear_441_7808)"/>
<path d="M53.6143 37.4859C56.3011 42.1141 56.8231 51.0511 61.2256 52.0779C61.579 52.0112 61.9266 51.9173 62.2655 51.797C58.3134 49.8605 57.2214 41.1823 54.17 37.0044C53.9853 37.1584 53.8 37.3189 53.6143 37.4859Z" fill="url(#paint1_linear_441_7808)"/>
<path d="M57.485 34.7334C57.1175 34.7334 56.7436 34.7694 56.3686 34.8407C55.3891 35.0255 54.3931 35.4474 53.3896 36.086C53.6634 36.3568 53.9248 36.6662 54.17 37.004C55.1911 36.1569 56.2051 35.531 57.215 35.1545C57.5837 35.0164 57.9638 34.9107 58.3509 34.8388C58.0677 34.768 57.7769 34.7326 57.485 34.7334Z" fill="#14559A"/>
<path d="M65.3509 50.0123C65.772 49.6761 66.1774 49.3207 66.5659 48.9473C64.8829 43.9062 64.2803 34.7412 59.4031 34.7412C59.0543 34.7412 58.7026 34.7738 58.3516 34.8387C62.7942 35.9438 63.3634 45.6095 65.3509 50.0123Z" fill="url(#paint2_linear_441_7808)"/>
<path d="M58.352 34.8392C58.0686 34.7681 57.7775 34.7326 57.4854 34.7334L59.4031 34.7405C59.0547 34.7405 58.703 34.7728 58.352 34.8392Z" fill="#3092C4"/>
<path d="M65.2653 51.0828C65.0709 50.8953 64.8873 50.697 64.7155 50.4888C63.895 51.0696 63.0775 51.5103 62.2656 51.7971C62.5548 51.9381 62.8574 52.0431 63.1791 52.108C63.4281 52.159 63.6865 52.1853 63.9573 52.1853C64.8689 52.1853 65.5896 52.0773 66.2024 51.7833C65.8649 51.6003 65.5551 51.364 65.2653 51.0828Z" fill="#1969BC"/>
<path d="M57.2148 35.1557C61.194 37.237 61.5401 46.6622 64.7152 50.4891C64.9277 50.3391 65.1391 50.1802 65.3493 50.0125C63.3618 45.6096 62.7937 35.9429 58.3518 34.8389C57.9731 34.9094 57.5941 35.015 57.2148 35.1557Z" fill="url(#paint3_linear_441_7808)"/>
<path d="M54.1699 37.004C57.2213 41.1819 58.3133 49.8605 62.2654 51.797C63.0777 51.5101 63.8952 51.0699 64.7153 50.4886C61.5402 46.6618 61.194 37.2369 57.2149 35.1553C56.205 35.531 55.191 36.1569 54.1699 37.004Z" fill="url(#paint4_linear_441_7808)"/>
<path d="M51.0316 37.9629C50.5535 39.044 50.0649 40.4657 49.4746 42.3208C50.6487 40.6659 51.8195 39.2405 52.9835 38.0852C52.8365 37.625 52.6635 37.1735 52.4652 36.7329C51.9653 37.1164 51.4867 37.527 51.0316 37.9629Z" fill="url(#paint5_linear_441_7808)"/>
<path d="M52.8886 36.4204C52.7483 36.5209 52.607 36.6237 52.4648 36.7324C52.6505 37.1374 52.8222 37.5919 52.9823 38.085C53.1894 37.8818 53.3999 37.6821 53.6138 37.4862C53.3997 37.1129 53.1573 36.7566 52.8886 36.4204Z" fill="#2B74B1"/>
<path d="M53.39 36.0859C53.2235 36.1919 53.0564 36.3033 52.8887 36.4201C53.1493 36.7407 53.3885 37.0988 53.6147 37.4866C53.8002 37.3183 53.9854 37.1574 54.1704 37.0039C53.9252 36.6664 53.6642 36.3567 53.39 36.0859Z" fill="#125A9E"/>
<path d="M80.532 34.3476C78.2816 43.0266 73.581 49.9978 69.6405 51.7551H69.6326L69.42 51.8462L69.3941 51.8563L69.3338 51.8796L69.3068 51.8908L69.2081 51.9257L69.1676 51.94L69.1185 51.9561L69.0713 51.9726L69.0293 51.9868L68.9453 52.0123L68.9093 52.0217L68.8526 52.0371L68.814 52.0476L68.7521 52.0637L68.6768 52.0802C68.8549 52.1458 69.0405 52.1792 69.2404 52.1792C72.9773 52.1792 76.7453 45.4825 82.9796 34.3457H80.5316L80.532 34.3476Z" fill="url(#paint6_linear_441_7808)"/>
<path d="M48.6624 35.086L48.6695 35.08L48.6781 35.0743H48.683L48.7434 35.0511L48.7554 35.0451L48.7711 35.0387L48.836 35.0155H48.8394L48.983 34.9652L49.0044 34.9596L49.0659 34.9412L49.094 34.9322L49.1559 34.9138L49.1795 34.9075L49.385 34.8542L49.4131 34.8478L49.4731 34.8362L49.5024 34.8272L49.5628 34.816H49.577L49.7019 34.7927H49.7266L49.7844 34.7826L49.817 34.777L49.8721 34.7687L49.9025 34.7627L50.0368 34.7507C49.9045 34.7381 49.7717 34.7313 49.6389 34.7305C45.4303 34.7305 39.632 42.5387 37.0205 52.651H37.5241C38.3049 51.2552 39.0628 49.8468 39.7974 48.4262C41.627 41.2637 45.3526 36.379 48.6624 35.0848" fill="url(#paint7_linear_441_7808)"/>
<path d="M51.0312 37.9625C51.4868 37.5271 51.9653 37.1164 52.4649 36.7322C52.3632 36.5059 52.2492 36.2855 52.1232 36.0718C51.7385 36.539 51.3868 37.1555 51.0312 37.9625Z" fill="#0D82CA"/>
<path d="M51.3765 35.1451C51.6514 35.3753 51.8977 35.6926 52.1227 36.0724C52.1932 35.9857 52.2657 35.9046 52.3402 35.8291C52.038 35.5433 51.6953 35.3036 51.3232 35.1177L51.3682 35.1391L51.3765 35.1451Z" fill="#0D82CA"/>
<path d="M39.7979 48.4268C43.6352 41.0322 45.4532 36.3522 48.6629 35.0854C45.3535 36.3807 41.6271 41.2651 39.7979 48.4268Z" fill="url(#paint8_linear_441_7808)"/>
<path d="M52.3405 35.8291C52.2659 35.9056 52.1947 35.9855 52.123 36.0725C52.2438 36.2742 52.3559 36.494 52.4654 36.7325C52.6072 36.6237 52.7489 36.5214 52.8888 36.4205C52.7204 36.2105 52.5372 36.0129 52.3405 35.8291Z" fill="#127BCA"/>
<path d="M41.5399 52.6183L41.4702 52.6265H41.457L41.3978 52.6325H41.388L41.247 52.6419H41.2324C45.1159 52.5331 46.8915 50.5888 47.7724 47.768C48.4418 45.6301 48.9919 43.8286 49.4738 42.3174C47.847 44.6071 46.2128 47.3364 44.5699 50.3945C43.7779 51.8683 42.573 52.484 41.5399 52.6153" fill="url(#paint9_linear_441_7808)"/>
<path d="M41.5394 52.6167C42.5726 52.4851 43.7774 51.8701 44.5694 50.3956C46.2123 47.3389 47.8473 44.6089 49.4726 42.3188C50.0639 40.4629 50.5518 39.0424 51.0303 37.9609C47.7907 41.0446 44.5387 46.1719 41.5391 52.6148" fill="url(#paint10_linear_441_7808)"/>
<path d="M39.798 48.4272C39.0634 49.8479 38.3055 51.2563 37.5244 52.652H38.9884C39.1737 51.2291 39.444 49.8186 39.7977 48.428" fill="#05A1E6"/>
<path d="M49.9024 34.766L49.8713 34.772L49.8166 34.7799L49.7843 34.7855L49.7266 34.7956L49.7018 34.8016L49.5769 34.8234H49.5627L49.5019 34.8354L49.4716 34.8436L49.4127 34.8552L49.3849 34.862L49.1791 34.9152L49.1554 34.922L49.0932 34.9404L49.0651 34.9482L49.0039 34.9666L48.9814 34.9726L48.8386 35.0229L48.7737 35.0454L48.7467 35.0566L48.6863 35.0791L48.6661 35.0889C45.4568 36.3552 43.6388 41.0352 39.8014 48.4299C39.4469 49.8203 39.1766 51.2309 38.9922 52.6539H39.1973L40.6054 52.6479H41.2516L41.3922 52.6385H41.4012L41.4604 52.6325H41.4743L41.5441 52.6242C44.5441 46.181 47.7961 41.054 51.0353 37.9704C51.3916 37.1634 51.7429 36.5469 52.1269 36.0804C51.9019 35.7005 51.6559 35.3825 51.3814 35.1519L51.3736 35.1459L51.3278 35.1237L51.2824 35.1009L51.2386 35.0795L51.1864 35.0577L51.1459 35.0401L51.0608 35.0045L51.0244 34.991L50.9611 34.9655L50.9269 34.9542L50.8388 34.9239H50.8317L50.7297 34.895L50.7068 34.8879L50.6209 34.8639L50.6011 34.8582C50.5305 34.84 50.4594 34.8244 50.3877 34.8114L50.3656 34.8054L50.2729 34.7904L50.2546 34.7847L50.1451 34.7701H50.1259L50.0412 34.7607L49.9069 34.7731" fill="url(#paint11_linear_441_7808)"/>
<path d="M71.7418 39.1524C71.003 41.5176 70.4056 43.4687 69.8848 45.0741C71.9109 42.2859 73.9066 38.7789 75.8068 34.7319C73.5894 35.4283 72.4074 37.0221 71.7418 39.1524Z" fill="url(#paint12_linear_441_7808)"/>
<path d="M69.9483 51.6078C69.8451 51.6603 69.7413 51.7102 69.6396 51.7555C73.5801 49.9979 78.2811 43.0267 80.5311 34.3477H80.0751C74.9046 43.5843 73.2419 49.7677 69.9483 51.6078Z" fill="url(#paint13_linear_441_7808)"/>
<path d="M67.376 50.832C68.2336 49.7853 68.9315 48.0063 69.8851 45.0742C68.7852 46.5851 67.6782 47.8837 66.5701 48.9427L66.5645 48.9521C66.8063 49.6762 67.0715 50.3156 67.3737 50.8316" fill="#079AE1"/>
<path d="M67.3755 50.832C67.0838 51.1883 66.7744 51.4594 66.4309 51.6604C66.3559 51.7044 66.2796 51.7453 66.2021 51.783C66.5748 51.9855 66.983 52.1142 67.4044 52.1622L67.6009 52.1794H67.6125L67.707 52.1854H68.0276L68.064 52.1794L68.1349 52.1734H68.1694L68.2463 52.1652H68.2526L68.2763 52.1595L68.3584 52.1468H68.3824L68.4746 52.1314H68.4896L68.6738 52.0924C68.1649 51.9064 67.7393 51.4673 67.3729 50.8422" fill="#1969BC"/>
<path d="M60.1104 52.1856C60.4786 52.1856 60.8514 52.1496 61.2252 52.0776C61.5788 52.012 61.9265 51.9184 62.2651 51.7975C62.5542 51.9385 62.8572 52.0435 63.1782 52.1091C63.4267 52.1601 63.6864 52.1857 63.9571 52.186L60.1104 52.1856ZM63.9571 52.186C64.868 52.186 65.5895 52.0776 66.2019 51.7832C66.5745 51.9858 66.9827 52.1146 67.4041 52.1627L67.6006 52.1796H67.6122L67.7067 52.1856H67.82L63.9571 52.186Z" fill="#1E5CB3"/>
<path d="M67.8203 52.1852H68.0307L68.0671 52.1792L68.1387 52.1732H68.1732L68.2497 52.1649H68.2561L68.2793 52.1589L68.3614 52.1465L68.3866 52.1409L68.4792 52.1259H68.4938L68.6779 52.0869C68.8561 52.1525 69.0417 52.1859 69.2416 52.1859L67.8211 52.1919L67.8203 52.1852Z" fill="#1D60B5"/>
<path d="M66.5667 48.9523V48.9463C66.1782 49.3197 65.7727 49.675 65.3517 50.0113C65.1446 50.1762 64.9329 50.3351 64.7168 50.4879C64.8953 50.7009 65.0764 50.9004 65.2673 51.0823C65.5568 51.3632 65.8662 51.5998 66.204 51.7824C66.2813 51.7444 66.3574 51.7035 66.4324 51.6598C66.7767 51.4588 67.0853 51.1873 67.3774 50.8314C67.0752 50.3154 66.81 49.6757 66.5685 48.9519" fill="#175FAB"/>
<path d="M78.6317 34.3477H76.3363L75.9725 34.3653L75.8034 34.7275C73.9029 38.7749 71.9079 42.2819 69.8818 45.07C68.9293 48.0018 68.2303 49.7812 67.373 50.8274C67.7394 51.4529 68.1658 51.8924 68.6728 52.0788L68.7125 52.0702H68.7208L68.7489 52.0642L68.8127 52.0484L68.8505 52.0375L68.9072 52.0229L68.9424 52.0128L69.0272 51.9873L69.0692 51.973L69.1164 51.9558L69.1652 51.9404L69.2049 51.9254L69.3039 51.8905L69.3313 51.8804L69.392 51.8568L69.4175 51.8474L69.6305 51.7563H69.638C69.7397 51.7117 69.8432 51.661 69.9459 51.6085C73.2403 49.768 74.9034 43.585 80.0739 34.3488H78.6298L78.6317 34.3477Z" fill="url(#paint14_linear_441_7808)"/>
<path d="M50.0371 34.7539L50.0607 34.7599L50.1207 34.7663H50.141L50.2505 34.7805L50.2689 34.7865L50.3611 34.8019L50.3844 34.8075L50.597 34.8548L50.6165 34.8608L50.702 34.8848L50.7256 34.8919L50.8272 34.9208L50.8351 34.9268L50.924 34.9571L50.9577 34.968L51.0215 34.9939L51.0575 35.0066L51.1422 35.0419L51.1835 35.0595L51.2345 35.0816L51.2795 35.103L51.3241 35.1263C51.6912 35.3063 52.0287 35.5466 52.3415 35.838C52.4567 35.7173 52.577 35.608 52.7022 35.5103C52.0186 35.0254 51.2435 34.749 50.3506 34.749C50.2471 34.749 50.1436 34.755 50.0386 34.7629" fill="#7DCBEC"/>
<path d="M52.3398 35.8292C52.5315 36.0073 52.7148 36.2061 52.8881 36.4206C53.0561 36.304 53.2226 36.1915 53.3895 36.0865C53.1768 35.872 52.9461 35.6763 52.6998 35.5015C52.5751 35.599 52.4551 35.7082 52.3398 35.8292Z" fill="#5EC5ED"/>
<path d="M49.9377 34.7782L50.2499 34.7649C51.1434 34.7649 51.9178 35.0413 52.6011 35.5259C53.3224 34.9561 54.1949 34.7574 55.4064 34.7574H49.54L49.9377 34.7782Z" fill="url(#paint15_linear_441_7808)"/>
<path d="M55.4069 34.7574C54.1953 34.7574 53.3247 34.9561 52.6016 35.5259C52.8413 35.695 53.0711 35.89 53.2906 36.1108C54.2958 35.4729 55.2896 35.0488 56.2702 34.8652C56.645 34.7945 57.0166 34.7592 57.3851 34.7592L55.4069 34.7574Z" fill="url(#paint16_linear_441_7808)"/>
<path d="M69.8842 45.0756C70.4058 43.4691 71.0017 41.5187 71.7419 39.1529C72.4083 37.0214 73.5888 35.4276 75.8051 34.7324L75.9761 34.3701C72.3626 34.5865 70.6736 36.4247 69.8242 39.1469C68.3377 43.8992 67.4373 46.9799 66.5703 48.943C67.6773 47.8844 68.7843 46.585 69.8842 45.0756Z" fill="url(#paint17_linear_441_7808)"/>
<path d="M45.9894 97.5945C45.7177 97.5945 45.484 97.4983 45.2884 97.3061C45.0929 97.1106 44.9951 96.8752 44.9951 96.6001C44.9951 96.3284 45.0929 96.0964 45.2884 95.9041C45.484 95.7086 45.7177 95.6108 45.9894 95.6108C46.2612 95.6108 46.4949 95.7086 46.6904 95.9041C46.886 96.0964 46.9838 96.3284 46.9838 96.6001C46.9838 96.7824 46.9374 96.9498 46.8445 97.1023C46.7551 97.2514 46.6357 97.3707 46.4866 97.4602C46.3374 97.5497 46.1717 97.5945 45.9894 97.5945ZM57.3122 87.3182V97.5H55.9003L50.7249 90.0327H50.6304V97.5H49.0942V87.3182H50.5161L55.6965 94.7955H55.7909V87.3182H57.3122ZM59.5532 97.5V87.3182H65.9367V88.6406H61.0894V91.7429H65.6036V93.0604H61.0894V96.1776H65.9964V97.5H59.5532ZM67.4866 88.6406V87.3182H75.3666V88.6406H72.1897V97.5H70.6585V88.6406H67.4866Z" fill="#6A6A6A"/>
<defs>
<linearGradient id="paint0_linear_441_7808" x1="57.1868" y1="34.614" x2="57.1868" y2="56.5689" gradientUnits="userSpaceOnUse">
<stop stop-color="#0994DC"/>
<stop offset="0.35" stop-color="#66CEF5"/>
<stop offset="0.846" stop-color="#127BCA"/>
<stop offset="1" stop-color="#127BCA"/>
</linearGradient>
<linearGradient id="paint1_linear_441_7808" x1="58.0131" y1="34.0859" x2="58.0131" y2="56.5428" gradientUnits="userSpaceOnUse">
<stop stop-color="#0E76BC"/>
<stop offset="0.36" stop-color="#36AEE8"/>
<stop offset="0.846" stop-color="#00ADEF"/>
<stop offset="1" stop-color="#00ADEF"/>
</linearGradient>
<linearGradient id="paint2_linear_441_7808" x1="62.4573" y1="51.652" x2="62.4573" y2="33.7835" gradientUnits="userSpaceOnUse">
<stop stop-color="#1C63B7"/>
<stop offset="0.5" stop-color="#33BDF2"/>
<stop offset="1" stop-color="#33BDF2" stop-opacity="0.42"/>
</linearGradient>
<linearGradient id="paint3_linear_441_7808" x1="61.2493" y1="31.7399" x2="61.2493" y2="55.1156" gradientUnits="userSpaceOnUse">
<stop stop-color="#166AB8"/>
<stop offset="0.4" stop-color="#36AEE8"/>
<stop offset="0.846" stop-color="#0798DD"/>
<stop offset="1" stop-color="#0798DD"/>
</linearGradient>
<linearGradient id="paint4_linear_441_7808" x1="59.5271" y1="31.9219" x2="59.5271" y2="56.779" gradientUnits="userSpaceOnUse">
<stop stop-color="#124379"/>
<stop offset="0.39" stop-color="#1487CB"/>
<stop offset="0.78" stop-color="#165197"/>
<stop offset="1" stop-color="#165197"/>
</linearGradient>
<linearGradient id="paint5_linear_441_7808" x1="49.2861" y1="39.2612" x2="52.7946" y2="39.2612" gradientUnits="userSpaceOnUse">
<stop stop-color="#33BDF2" stop-opacity="0.698"/>
<stop offset="1" stop-color="#1DACD8"/>
</linearGradient>
<linearGradient id="paint6_linear_441_7808" x1="75.8565" y1="51.1437" x2="75.8565" y2="33.7374" gradientUnits="userSpaceOnUse">
<stop stop-color="#136AB4"/>
<stop offset="0.6" stop-color="#59CAF5" stop-opacity="0.549"/>
<stop offset="1" stop-color="#59CAF5" stop-opacity="0.235"/>
</linearGradient>
<linearGradient id="paint7_linear_441_7808" x1="36.834" y1="43.4235" x2="49.849" y2="43.4235" gradientUnits="userSpaceOnUse">
<stop stop-color="#05A1E6" stop-opacity="0.247"/>
<stop offset="1" stop-color="#05A1E6"/>
</linearGradient>
<linearGradient id="paint8_linear_441_7808" x1="44.2999" y1="51.6366" x2="44.2999" y2="33.8138" gradientUnits="userSpaceOnUse">
<stop stop-color="#318ED5"/>
<stop offset="1" stop-color="#38A7E4"/>
</linearGradient>
<linearGradient id="paint9_linear_441_7808" x1="45.2843" y1="51.7509" x2="45.2843" y2="34.3817" gradientUnits="userSpaceOnUse">
<stop stop-color="#05A1E6"/>
<stop offset="1" stop-color="#05A1E6" stop-opacity="0.549"/>
</linearGradient>
<linearGradient id="paint10_linear_441_7808" x1="46.349" y1="52.6395" x2="46.349" y2="37.9624" gradientUnits="userSpaceOnUse">
<stop stop-color="#1959A6"/>
<stop offset="0.5" stop-color="#05A1E6"/>
<stop offset="0.918" stop-color="#7EC5EA"/>
<stop offset="1" stop-color="#7EC5EA"/>
</linearGradient>
<linearGradient id="paint11_linear_441_7808" x1="46.7899" y1="51.6679" x2="43.991" y2="35.7945" gradientUnits="userSpaceOnUse">
<stop stop-color="#165096"/>
<stop offset="1" stop-color="#0D82CA"/>
</linearGradient>
<linearGradient id="paint12_linear_441_7808" x1="72.755" y1="42.6633" x2="72.755" y2="34.3679" gradientUnits="userSpaceOnUse">
<stop stop-color="#05A1E6"/>
<stop offset="0.874" stop-color="#0495D6"/>
<stop offset="1" stop-color="#0495D6"/>
</linearGradient>
<linearGradient id="paint13_linear_441_7808" x1="76.7979" y1="33.6337" x2="73.425" y2="52.7625" gradientUnits="userSpaceOnUse">
<stop stop-color="#38A7E4" stop-opacity="0.329"/>
<stop offset="0.962" stop-color="#0E88D3"/>
<stop offset="1" stop-color="#0E88D3"/>
</linearGradient>
<linearGradient id="paint14_linear_441_7808" x1="73.6146" y1="34.3164" x2="73.6146" y2="52.4136" gradientUnits="userSpaceOnUse">
<stop stop-color="#168CD4"/>
<stop offset="0.5" stop-color="#1C87CC"/>
<stop offset="1" stop-color="#154B8D"/>
</linearGradient>
<linearGradient id="paint15_linear_441_7808" x1="49.1387" y1="32.5506" x2="70.1809" y2="41.2787" gradientUnits="userSpaceOnUse">
<stop stop-color="#97D6EE"/>
<stop offset="0.703" stop-color="#55C1EA"/>
<stop offset="1" stop-color="#55C1EA"/>
</linearGradient>
<linearGradient id="paint16_linear_441_7808" x1="54.8598" y1="37.4902" x2="71.4796" y2="29.9564" gradientUnits="userSpaceOnUse">
<stop stop-color="#7ACCEC"/>
<stop offset="1" stop-color="#3FB7ED"/>
</linearGradient>
<linearGradient id="paint17_linear_441_7808" x1="71.1452" y1="35.3003" x2="71.1452" y2="53.0013" gradientUnits="userSpaceOnUse">
<stop stop-color="#1DA7E7"/>
<stop offset="1" stop-color="#37ABE7" stop-opacity="0"/>
</linearGradient>
</defs>
</svg>
