<svg width="120" height="120" viewBox="0 0 120 120" fill="none" xmlns="http://www.w3.org/2000/svg">
<rect x="0.5" y="0.5" width="119" height="119" rx="15.5" fill="white"/>
<rect x="0.5" y="0.5" width="119" height="119" rx="15.5" stroke="#FFE4BB"/>
<g clip-path="url(#clip0_441_7793)">
<path d="M72.75 19.5H47.25C41.0368 19.5 36 24.5368 36 30.75V56.25C36 62.4632 41.0368 67.5 47.25 67.5H72.75C78.9632 67.5 84 62.4632 84 56.25V30.75C84 24.5368 78.9632 19.5 72.75 19.5Z" fill="#242938"/>
<path d="M60 47.0531C61.932 47.0531 63.498 45.4869 63.498 43.5551C63.498 41.6233 61.932 40.0571 60 40.0571C58.068 40.0571 56.502 41.6233 56.502 43.5551C56.502 45.4869 58.0681 47.0531 60 47.0531Z" fill="#00D8FF"/>
<path d="M60.0004 36.4429C64.6969 36.4429 69.0598 37.1167 72.3495 38.2494C76.3131 39.6139 78.75 41.6822 78.75 43.5551C78.75 45.5068 76.1674 47.7041 71.9109 49.1143C68.6931 50.1804 64.4586 50.7369 60.0004 50.7369C55.4295 50.7369 51.1011 50.2146 47.8468 49.1025C43.7297 47.6953 41.25 45.4697 41.25 43.5551C41.25 41.6974 43.5769 39.645 47.4847 38.2826C50.7866 37.1314 55.2572 36.4429 59.9996 36.4429H60.0004Z" stroke="#00D8FF" stroke-width="1.67081"/>
<path d="M53.8091 40.0196C56.1554 35.9512 58.9186 32.5084 61.5432 30.2246C64.7052 27.4727 67.7146 26.3949 69.3369 27.3304C71.0276 28.3054 71.6409 31.6406 70.7362 36.0322C70.0527 39.3523 68.4189 43.2984 66.1916 47.1606C63.908 51.1202 61.2933 54.6088 58.7045 56.8716C55.4287 59.7351 52.2616 60.7714 50.6032 59.8149C48.9939 58.8876 48.3785 55.8461 49.1506 51.7802C49.8029 48.3446 51.44 44.1279 53.8083 40.0196H53.8091Z" stroke="#00D8FF" stroke-width="1.67081"/>
<path d="M53.8149 47.171C51.4619 43.1071 49.8599 38.993 49.1913 35.5786C48.3864 31.4647 48.9554 28.3194 50.5764 27.3811C52.2656 26.4031 55.4611 27.5375 58.814 30.5146C61.349 32.7654 63.9521 36.151 66.1858 40.0094C68.4759 43.9653 70.1923 47.9731 70.8599 51.3459C71.7048 55.6141 71.021 58.8753 69.3641 59.8344C67.7564 60.7651 64.8144 59.7798 61.6773 57.0802C59.0268 54.7994 56.1911 51.2754 53.8149 47.171Z" stroke="#00D8FF" stroke-width="1.67081"/>
</g>
<path d="M17.3686 97.5V87.3182H20.9979C21.7867 87.3182 22.4413 87.4541 22.9616 87.7259C23.4853 87.9976 23.8764 88.3738 24.1349 88.8544C24.3935 89.3317 24.5227 89.8835 24.5227 90.5099C24.5227 91.133 24.3918 91.6816 24.13 92.1555C23.8714 92.6262 23.4804 92.9924 22.9567 93.2543C22.4363 93.5161 21.7817 93.647 20.9929 93.647H18.2436V92.3246H20.8537C21.3509 92.3246 21.7552 92.2533 22.0668 92.1108C22.3816 91.9683 22.612 91.7611 22.7578 91.4893C22.9036 91.2176 22.9766 90.8911 22.9766 90.5099C22.9766 90.1255 22.902 89.7924 22.7528 89.5107C22.607 89.2289 22.3767 89.0135 22.0618 88.8643C21.7502 88.7119 21.3409 88.6357 20.8338 88.6357H18.9048V97.5H17.3686ZM22.3949 92.9062L24.9105 97.5H23.1605L20.6946 92.9062H22.3949ZM29.4682 97.6541C28.7158 97.6541 28.0679 97.4934 27.5243 97.1719C26.9841 96.8471 26.5665 96.3913 26.2715 95.8047C25.9798 95.2147 25.834 94.5237 25.834 93.7315C25.834 92.9493 25.9798 92.2599 26.2715 91.6634C26.5665 91.0668 26.9775 90.6011 27.5044 90.2663C28.0347 89.9316 28.6545 89.7642 29.3638 89.7642C29.7947 89.7642 30.2123 89.8355 30.6167 89.978C31.021 90.1205 31.3839 90.3442 31.7054 90.6491C32.0269 90.9541 32.2805 91.3501 32.4661 91.8374C32.6517 92.3213 32.7445 92.9096 32.7445 93.6023V94.1293H26.6742V93.0156H31.2878C31.2878 92.6245 31.2083 92.2782 31.0492 91.9766C30.8901 91.6716 30.6664 91.4313 30.378 91.2557C30.093 91.08 29.7582 90.9922 29.3738 90.9922C28.9561 90.9922 28.5916 91.0949 28.28 91.3004C27.9718 91.5026 27.7331 91.7678 27.5641 92.0959C27.3984 92.4207 27.3155 92.7737 27.3155 93.1548V94.0249C27.3155 94.5353 27.405 94.9695 27.584 95.3274C27.7663 95.6854 28.0198 95.9588 28.3446 96.1477C28.6694 96.3333 29.0489 96.4261 29.4831 96.4261C29.7649 96.4261 30.0217 96.3864 30.2537 96.3068C30.4857 96.224 30.6863 96.1013 30.8553 95.9389C31.0243 95.7765 31.1536 95.576 31.2431 95.3374L32.65 95.5909C32.5373 96.0052 32.3352 96.3681 32.0435 96.6797C31.7551 96.9879 31.3922 97.2282 30.9547 97.4006C30.5205 97.5696 30.025 97.6541 29.4682 97.6541ZM36.6161 97.669C36.1322 97.669 35.6947 97.5795 35.3036 97.4006C34.9125 97.2183 34.6026 96.9548 34.3739 96.6101C34.1486 96.2654 34.0359 95.8428 34.0359 95.3423C34.0359 94.9115 34.1187 94.5568 34.2844 94.2784C34.4502 94 34.6739 93.7796 34.9556 93.6172C35.2373 93.4548 35.5522 93.3321 35.9002 93.2493C36.2482 93.1664 36.6029 93.1035 36.9641 93.0604C37.4215 93.0073 37.7927 92.9643 38.0778 92.9311C38.3628 92.8946 38.57 92.8366 38.6992 92.7571C38.8285 92.6776 38.8931 92.5483 38.8931 92.3693V92.3345C38.8931 91.9003 38.7705 91.5639 38.5252 91.3253C38.2833 91.0866 37.922 90.9673 37.4414 90.9673C36.9409 90.9673 36.5465 91.0784 36.2582 91.3004C35.9731 91.5192 35.7759 91.7628 35.6665 92.0312L34.2695 91.7131C34.4353 91.2491 34.6772 90.8745 34.9954 90.5895C35.3169 90.3011 35.6864 90.0923 36.104 89.9631C36.5217 89.8305 36.9608 89.7642 37.4215 89.7642C37.7264 89.7642 38.0496 89.8007 38.391 89.8736C38.7357 89.9432 39.0572 90.0724 39.3555 90.2614C39.6571 90.4503 39.904 90.7204 40.0962 91.0717C40.2885 91.4197 40.3846 91.8722 40.3846 92.429V97.5H38.9329V96.456H38.8732C38.7771 96.6482 38.6329 96.8371 38.4407 97.0227C38.2485 97.2083 38.0015 97.3625 37.6999 97.4851C37.3983 97.6077 37.0371 97.669 36.6161 97.669ZM36.9393 96.4759C37.3503 96.4759 37.7016 96.3946 37.9933 96.2322C38.2882 96.0698 38.512 95.8577 38.6644 95.5959C38.8202 95.3307 38.8981 95.0473 38.8981 94.7457V93.7614C38.8451 93.8144 38.7423 93.8641 38.5898 93.9105C38.4407 93.9536 38.27 93.9917 38.0778 94.0249C37.8855 94.0547 37.6983 94.0829 37.516 94.1094C37.3337 94.1326 37.1812 94.1525 37.0586 94.169C36.7702 94.2055 36.5067 94.2668 36.2681 94.353C36.0328 94.4392 35.8439 94.5634 35.7013 94.7259C35.5621 94.8849 35.4925 95.0971 35.4925 95.3622C35.4925 95.7301 35.6284 96.0085 35.9002 96.1974C36.172 96.383 36.5183 96.4759 36.9393 96.4759ZM45.5811 97.6541C44.842 97.6541 44.2057 97.4867 43.6721 97.152C43.1417 96.8139 42.7341 96.3482 42.449 95.755C42.164 95.1617 42.0215 94.4822 42.0215 93.7166C42.0215 92.9411 42.1673 92.2566 42.459 91.6634C42.7507 91.0668 43.1616 90.6011 43.6919 90.2663C44.2222 89.9316 44.847 89.7642 45.5662 89.7642C46.1462 89.7642 46.6633 89.8719 47.1174 90.0874C47.5714 90.2995 47.9377 90.5978 48.2161 90.9822C48.4978 91.3667 48.6652 91.8158 48.7182 92.3295H47.2715C47.1919 91.9716 47.0096 91.6634 46.7246 91.4048C46.4429 91.1463 46.065 91.017 45.5911 91.017C45.1768 91.017 44.8139 91.1264 44.5023 91.3452C44.1941 91.5606 43.9538 91.8688 43.7814 92.2699C43.6091 92.6676 43.5229 93.1383 43.5229 93.6818C43.5229 94.2386 43.6074 94.7192 43.7765 95.1236C43.9455 95.5279 44.1841 95.8411 44.4924 96.0632C44.8039 96.2853 45.1702 96.3963 45.5911 96.3963C45.8728 96.3963 46.128 96.3449 46.3567 96.2422C46.5887 96.1361 46.7826 95.9853 46.9384 95.7898C47.0975 95.5942 47.2085 95.3589 47.2715 95.0838H48.7182C48.6652 95.5777 48.5044 96.0185 48.236 96.4062C47.9675 96.794 47.6079 97.099 47.1571 97.321C46.7097 97.5431 46.1844 97.6541 45.5811 97.6541ZM53.8725 89.8636V91.0568H49.7013V89.8636H53.8725ZM50.82 88.0341H52.3065V95.2578C52.3065 95.5462 52.3496 95.7633 52.4357 95.9091C52.5219 96.0516 52.6329 96.1494 52.7688 96.2024C52.908 96.2521 53.0588 96.277 53.2212 96.277C53.3406 96.277 53.445 96.2687 53.5344 96.2521C53.6239 96.2356 53.6935 96.2223 53.7433 96.2124L54.0117 97.4403C53.9255 97.4735 53.8029 97.5066 53.6438 97.5398C53.4847 97.5762 53.2859 97.5961 53.0472 97.5994C52.6561 97.6061 52.2915 97.5365 51.9535 97.3906C51.6154 97.2448 51.342 97.0194 51.1332 96.7145C50.9244 96.4096 50.82 96.0268 50.82 95.5661V88.0341ZM59.7564 92.5533V93.8409H55.2422V92.5533H59.7564ZM70.0749 87.3182V97.5H68.663L63.4876 90.0327H63.3931V97.5H61.8569V87.3182H63.2788L68.4592 94.7955H68.5536V87.3182H70.0749ZM74.4189 97.669C73.935 97.669 73.4975 97.5795 73.1064 97.4006C72.7153 97.2183 72.4054 96.9548 72.1767 96.6101C71.9513 96.2654 71.8386 95.8428 71.8386 95.3423C71.8386 94.9115 71.9215 94.5568 72.0872 94.2784C72.2529 94 72.4766 93.7796 72.7583 93.6172C73.0401 93.4548 73.3549 93.3321 73.7029 93.2493C74.051 93.1664 74.4056 93.1035 74.7669 93.0604C75.2243 93.0073 75.5955 92.9643 75.8805 92.9311C76.1655 92.8946 76.3727 92.8366 76.502 92.7571C76.6312 92.6776 76.6958 92.5483 76.6958 92.3693V92.3345C76.6958 91.9003 76.5732 91.5639 76.3279 91.3253C76.086 91.0866 75.7247 90.9673 75.2441 90.9673C74.7437 90.9673 74.3493 91.0784 74.0609 91.3004C73.7759 91.5192 73.5787 91.7628 73.4693 92.0312L72.0723 91.7131C72.238 91.2491 72.4799 90.8745 72.7981 90.5895C73.1196 90.3011 73.4892 90.0923 73.9068 89.9631C74.3244 89.8305 74.7636 89.7642 75.2243 89.7642C75.5292 89.7642 75.8523 89.8007 76.1937 89.8736C76.5384 89.9432 76.8599 90.0724 77.1582 90.2614C77.4598 90.4503 77.7067 90.7204 77.899 91.0717C78.0912 91.4197 78.1873 91.8722 78.1873 92.429V97.5H76.7356V96.456H76.676C76.5798 96.6482 76.4357 96.8371 76.2434 97.0227C76.0512 97.2083 75.8043 97.3625 75.5027 97.4851C75.2011 97.6077 74.8398 97.669 74.4189 97.669ZM74.742 96.4759C75.153 96.4759 75.5043 96.3946 75.796 96.2322C76.091 96.0698 76.3147 95.8577 76.4672 95.5959C76.6229 95.3307 76.7008 95.0473 76.7008 94.7457V93.7614C76.6478 93.8144 76.545 93.8641 76.3926 93.9105C76.2434 93.9536 76.0727 93.9917 75.8805 94.0249C75.6883 94.0547 75.501 94.0829 75.3187 94.1094C75.1364 94.1326 74.984 94.1525 74.8613 94.169C74.573 94.2055 74.3095 94.2668 74.0708 94.353C73.8355 94.4392 73.6466 94.5634 73.5041 94.7259C73.3649 94.8849 73.2953 95.0971 73.2953 95.3622C73.2953 95.7301 73.4312 96.0085 73.7029 96.1974C73.9747 96.383 74.3211 96.4759 74.742 96.4759ZM83.7319 89.8636V91.0568H79.5607V89.8636H83.7319ZM80.6793 88.0341H82.1658V95.2578C82.1658 95.5462 82.2089 95.7633 82.2951 95.9091C82.3813 96.0516 82.4923 96.1494 82.6282 96.2024C82.7674 96.2521 82.9182 96.277 83.0806 96.277C83.1999 96.277 83.3043 96.2687 83.3938 96.2521C83.4833 96.2356 83.5529 96.2223 83.6026 96.2124L83.8711 97.4403C83.7849 97.4735 83.6623 97.5066 83.5032 97.5398C83.3441 97.5762 83.1452 97.5961 82.9066 97.5994C82.5155 97.6061 82.1509 97.5365 81.8129 97.3906C81.4748 97.2448 81.2013 97.0194 80.9925 96.7145C80.7837 96.4096 80.6793 96.0268 80.6793 95.5661V88.0341ZM85.3762 97.5V89.8636H86.8627V97.5H85.3762ZM86.127 88.6854C85.8684 88.6854 85.6464 88.5992 85.4608 88.4268C85.2785 88.2512 85.1873 88.0424 85.1873 87.8004C85.1873 87.5552 85.2785 87.3464 85.4608 87.174C85.6464 86.9983 85.8684 86.9105 86.127 86.9105C86.3855 86.9105 86.6059 86.9983 86.7882 87.174C86.9738 87.3464 87.0666 87.5552 87.0666 87.8004C87.0666 88.0424 86.9738 88.2512 86.7882 88.4268C86.6059 88.5992 86.3855 88.6854 86.127 88.6854ZM95.3952 89.8636L92.6261 97.5H91.0352L88.261 89.8636H89.8569L91.7908 95.7401H91.8704L93.7994 89.8636H95.3952ZM99.8237 97.6541C99.0713 97.6541 98.4234 97.4934 97.8798 97.1719C97.3395 96.8471 96.9219 96.3913 96.627 95.8047C96.3353 95.2147 96.1895 94.5237 96.1895 93.7315C96.1895 92.9493 96.3353 92.2599 96.627 91.6634C96.9219 91.0668 97.3329 90.6011 97.8599 90.2663C98.3902 89.9316 99.01 89.7642 99.7193 89.7642C100.15 89.7642 100.568 89.8355 100.972 89.978C101.376 90.1205 101.739 90.3442 102.061 90.6491C102.382 90.9541 102.636 91.3501 102.822 91.8374C103.007 92.3213 103.1 92.9096 103.1 93.6023V94.1293H97.0297V93.0156H101.643C101.643 92.6245 101.564 92.2782 101.405 91.9766C101.246 91.6716 101.022 91.4313 100.733 91.2557C100.448 91.08 100.114 90.9922 99.7292 90.9922C99.3116 90.9922 98.947 91.0949 98.6355 91.3004C98.3272 91.5026 98.0886 91.7678 97.9196 92.0959C97.7538 92.4207 97.671 92.7737 97.671 93.1548V94.0249C97.671 94.5353 97.7605 94.9695 97.9395 95.3274C98.1217 95.6854 98.3753 95.9588 98.7001 96.1477C99.0249 96.3333 99.4044 96.4261 99.8386 96.4261C100.12 96.4261 100.377 96.3864 100.609 96.3068C100.841 96.224 101.042 96.1013 101.211 95.9389C101.38 95.7765 101.509 95.576 101.599 95.3374L103.006 95.5909C102.893 96.0052 102.691 96.3681 102.399 96.6797C102.111 96.9879 101.748 97.2282 101.31 97.4006C100.876 97.5696 100.381 97.6541 99.8237 97.6541Z" fill="#6A6A6A"/>
<defs>
<clipPath id="clip0_441_7793">
<rect width="48" height="48" fill="white" transform="translate(36 19.5)"/>
</clipPath>
</defs>
</svg>
