<svg width="120" height="120" viewBox="0 0 120 120" fill="none" xmlns="http://www.w3.org/2000/svg">
<rect x="0.5" y="0.5" width="119" height="119" rx="15.5" fill="white"/>
<rect x="0.5" y="0.5" width="119" height="119" rx="15.5" stroke="#FFE4BB"/>
<g clip-path="url(#clip0_441_7872)">
<path d="M78.8671 40.2202C78.8477 40.2202 78.8288 40.2259 78.8127 40.2367L77.9329 40.7505C77.9164 40.7607 77.9028 40.7751 77.8934 40.7922C77.8841 40.8093 77.8794 40.8285 77.8797 40.848V41.8755C77.8797 41.919 77.9003 41.952 77.9329 41.9737L78.8127 42.4867C78.8288 42.4975 78.8477 42.5033 78.8671 42.5033C78.8864 42.5033 78.9054 42.4975 78.9214 42.4867L79.7997 41.9737C79.8164 41.9632 79.8301 41.9487 79.8396 41.9314C79.8491 41.9142 79.8541 41.8948 79.8541 41.8751V40.8487C79.8543 40.8291 79.8494 40.8098 79.8398 40.7927C79.8303 40.7756 79.8165 40.7613 79.7997 40.7512L78.9211 40.2371C78.9051 40.2264 78.8863 40.2203 78.8671 40.2202ZM59.7072 46.3642C59.5471 46.3642 59.3877 46.4032 59.2519 46.4797L54.9211 49.0023C54.7823 49.0839 54.6673 49.2003 54.5874 49.34C54.5076 49.4797 54.4656 49.6379 54.4658 49.7988V54.8325C54.4658 55.1602 54.6391 55.4662 54.9211 55.6305L56.0611 56.2852C56.6146 56.5582 56.8099 56.5575 57.0593 56.5575C57.8731 56.5575 58.3399 56.0553 58.3399 55.1925V50.2256C58.3395 50.191 58.3256 50.158 58.3013 50.1334C58.2769 50.1089 58.244 50.0947 58.2094 50.094H57.6567C57.622 50.0945 57.5889 50.1086 57.5644 50.1332C57.5399 50.1578 57.5259 50.1909 57.5254 50.2256V55.1936C57.5254 55.5757 57.1246 55.9586 56.4844 55.6312L55.3013 54.9431C55.2578 54.9213 55.2357 54.8658 55.2357 54.8223V49.7876C55.2357 49.7441 55.2578 49.6901 55.3013 49.668L59.6307 47.1566C59.6633 47.1348 59.7181 47.1348 59.7616 47.1566L64.0921 49.668C64.1352 49.6901 64.1566 49.7332 64.1566 49.788V54.822C64.1566 54.8763 64.1352 54.921 64.0921 54.9427L59.7616 57.4653C59.7289 57.4871 59.6742 57.4871 59.6307 57.4653L58.5241 56.7982C58.4914 56.7765 58.4479 56.7656 58.4153 56.7873C58.1116 56.9621 58.0583 56.985 57.7651 57.0832C57.6998 57.105 57.5914 57.1481 57.8082 57.2681L59.2519 58.1313C59.3929 58.2075 59.5444 58.251 59.7072 58.251C59.8699 58.251 60.0323 58.2078 60.1624 58.1535L64.4933 55.6308C64.6323 55.5492 64.7475 55.4326 64.8274 55.2925C64.9072 55.1525 64.949 54.994 64.9486 54.8328V49.7988C64.9486 49.4711 64.7753 49.1662 64.4933 49.0023L60.1624 46.4797C60.023 46.4032 59.8663 46.3635 59.7072 46.3642ZM66.4684 48.663C66.2462 48.6639 66.0334 48.753 65.8768 48.9107C65.7202 49.0684 65.6326 49.2818 65.6333 49.5041C65.6327 49.7263 65.7203 49.9396 65.8769 50.0973C66.0335 50.2549 66.2463 50.3439 66.4684 50.3448C66.9248 50.3448 67.3039 49.9627 67.3039 49.5041C67.3028 49.2824 67.2145 49.07 67.0583 48.9127C66.902 48.7555 66.6901 48.6655 66.4684 48.663ZM66.4572 48.8051C66.5496 48.8039 66.6414 48.8212 66.7271 48.8558C66.8128 48.8905 66.8908 48.9418 66.9565 49.0068C67.0222 49.0719 67.0743 49.1493 67.1098 49.2347C67.1453 49.3201 67.1635 49.4116 67.1633 49.5041C67.1633 49.8866 66.8483 50.2143 66.4576 50.2143C66.0781 50.2143 65.7631 49.8971 65.7631 49.5041C65.7631 49.1111 66.0886 48.8051 66.4572 48.8051ZM66.1538 49.0342V49.995H66.3391V49.614H66.5018C66.5671 49.614 66.5884 49.6357 66.5993 49.6901C66.5993 49.7013 66.6316 49.9413 66.6316 49.9848H66.8266C66.8048 49.9413 66.7939 49.8101 66.7831 49.7336C66.7726 49.6136 66.7621 49.5262 66.6316 49.5153C66.6968 49.4932 66.8052 49.4606 66.8052 49.2858C66.8052 49.0346 66.5877 49.0346 66.4797 49.0346L66.1538 49.0342ZM66.3169 49.1872H66.4684C66.5232 49.1872 66.6094 49.1872 66.6094 49.3181C66.6094 49.3616 66.5884 49.4497 66.4684 49.4497H66.3166L66.3169 49.1872ZM60.8907 49.941C59.6532 49.941 58.9152 50.4652 58.9152 51.3498C58.9152 52.3001 59.6532 52.5611 60.8363 52.6815C62.2576 52.8236 62.3663 53.0313 62.3663 53.3152C62.3663 53.8065 61.9748 54.0142 61.0632 54.0142C59.9127 54.0142 59.6633 53.73 59.5763 53.1513C59.5763 53.0857 59.5231 53.0426 59.4578 53.0426H58.8934C58.859 53.043 58.826 53.0569 58.8017 53.0814C58.7775 53.1059 58.7638 53.139 58.7637 53.1735C58.7637 53.916 59.1541 54.7897 61.0538 54.7897C62.4207 54.7897 63.2131 54.243 63.2131 53.2822C63.2131 52.3428 62.5831 52.092 61.2488 51.9172C59.9026 51.7425 59.7619 51.6442 59.7619 51.3277C59.7619 51.0656 59.8812 50.7165 60.8794 50.7165C61.7693 50.7165 62.1053 50.9133 62.2358 51.5137C62.2424 51.5408 62.2576 51.565 62.2792 51.5826C62.3008 51.6002 62.3276 51.6103 62.3554 51.6112H62.9303C62.9633 51.6112 62.9959 51.5898 63.0181 51.5681C63.0378 51.5389 63.0488 51.5047 63.0499 51.4695C62.9633 50.4213 62.2801 49.941 60.8907 49.941Z" fill="#5FA04E"/>
<path d="M68.277 28.7491C68.2309 28.7484 68.1853 28.7599 68.145 28.7824C68.1031 28.807 68.0682 28.8419 68.0436 28.8838C68.019 28.9257 68.0055 28.9731 68.0044 29.0217V36.1201C68.0044 36.1853 67.9706 36.2513 67.9058 36.2948C67.8758 36.3109 67.8423 36.3193 67.8083 36.3193C67.7742 36.3193 67.7408 36.3109 67.7108 36.2948L66.561 35.6292C66.4766 35.581 66.3811 35.5556 66.2839 35.5556C66.1867 35.5556 66.0912 35.581 66.0068 35.6292L61.4063 38.3048C61.3211 38.3528 61.2502 38.4224 61.2006 38.5067C61.151 38.5909 61.1246 38.6867 61.1239 38.7844V44.1244C61.1239 44.3209 61.2326 44.5069 61.4063 44.6052L66.0075 47.2808C66.0919 47.3289 66.1873 47.3543 66.2845 47.3543C66.3816 47.3543 66.477 47.3289 66.5614 47.2808L71.1623 44.6052C71.3359 44.5069 71.4446 44.3209 71.4446 44.1244V30.8131C71.4446 30.6057 71.3359 30.4193 71.1623 30.3214L68.4173 28.7824C68.3738 28.7607 68.3256 28.7492 68.277 28.7491ZM41.1326 35.4113C41.046 35.4113 40.9594 35.4428 40.8836 35.4863L36.2824 38.1522C36.1959 38.2014 36.1242 38.2728 36.0745 38.359C36.0249 38.4453 35.9992 38.5432 36 38.6427L36.0113 45.8059C36.0113 45.9046 36.0649 46.0028 36.1519 46.0467C36.1922 46.0731 36.2394 46.0872 36.2876 46.0872C36.3359 46.0872 36.3831 46.0731 36.4234 46.0467L39.1586 44.4743C39.3323 44.3761 39.4399 44.1901 39.4399 43.9936V40.6411C39.4399 40.4446 39.5486 40.2586 39.7226 40.1603L40.8836 39.4834C40.9703 39.4287 41.0685 39.4069 41.166 39.4069C41.2635 39.4069 41.3614 39.4287 41.4375 39.4834L42.5985 40.1603C42.7721 40.2586 42.8809 40.4446 42.8809 40.6411V43.9936C42.8809 44.1901 42.9889 44.3761 43.1621 44.4743L45.8756 46.0467C45.9178 46.0736 45.9668 46.0879 46.0168 46.0879C46.0669 46.0879 46.1158 46.0736 46.158 46.0467C46.2012 46.0232 46.2372 45.9884 46.262 45.9459C46.2869 45.9035 46.2997 45.8551 46.299 45.8059V38.6427C46.299 38.4462 46.1903 38.2602 46.0163 38.1616L41.4263 35.4863C41.3489 35.4453 41.2644 35.4197 41.1773 35.4109L41.1326 35.4113ZM78.8828 35.4901C78.7879 35.4901 78.6938 35.5148 78.6068 35.5643L74.0048 38.2384C73.8311 38.3367 73.7235 38.5227 73.7235 38.7196V44.0596C73.7235 44.2561 73.8311 44.4421 74.0048 44.5403L78.5738 47.1604C78.656 47.2087 78.7497 47.2341 78.8451 47.2341C78.9405 47.2341 79.0341 47.2087 79.1164 47.1604L81.8839 45.6105C81.927 45.587 81.9629 45.5522 81.9877 45.5097C82.0125 45.4673 82.0252 45.4189 82.0245 45.3698C82.0251 45.3208 82.0123 45.2726 81.9875 45.2303C81.9627 45.188 81.9269 45.1533 81.8839 45.1298L77.2613 42.4538C77.2192 42.4291 77.1842 42.394 77.1596 42.352C77.135 42.3099 77.1216 42.2622 77.1206 42.2134V40.5424C77.1201 40.4934 77.1329 40.4452 77.1577 40.4029C77.1824 40.3606 77.2183 40.3259 77.2613 40.3024L78.705 39.4722C78.7472 39.4453 78.7962 39.431 78.8462 39.431C78.8962 39.431 78.9452 39.4453 78.9874 39.4722L80.4296 40.3021C80.4719 40.3266 80.5071 40.3616 80.532 40.4037C80.5568 40.4458 80.5704 40.4936 80.5714 40.5424V41.8531C80.5714 41.9517 80.6254 42.0499 80.712 42.0934C80.7542 42.1204 80.8033 42.1347 80.8534 42.1348C80.9035 42.1347 80.9526 42.1204 80.9948 42.0934L83.7289 40.4884C83.8127 40.4395 83.8821 40.3692 83.9298 40.2846C83.9775 40.2001 84.0019 40.1044 84.0004 40.0073V38.7079C84.0004 38.5114 83.8916 38.3266 83.7289 38.2279L79.1599 35.5639C79.0756 35.5157 78.9803 35.4901 78.8831 35.4897L78.8828 35.4901ZM66.2839 39.4778C66.3083 39.4778 66.333 39.4834 66.3551 39.4947L67.9279 40.4119C67.9714 40.4337 67.9935 40.4877 67.9935 40.5316V42.3661C67.9935 42.4208 67.9714 42.4651 67.9279 42.4868L66.3548 43.4041C66.3327 43.4148 66.3085 43.4205 66.2839 43.4205C66.2593 43.4205 66.2351 43.4148 66.213 43.4041L64.6399 42.4868C64.5964 42.4651 64.5743 42.4099 64.5743 42.3661V40.5316C64.5743 40.4768 64.5968 40.4337 64.6399 40.4116L66.213 39.4947C66.235 39.4833 66.2591 39.4775 66.2839 39.4778Z" fill="#333333"/>
<path d="M53.9937 35.5847C53.9095 35.5362 53.814 35.5107 53.7169 35.5107C53.6198 35.5107 53.5244 35.5362 53.4402 35.5847L48.8712 38.2385C48.7874 38.2874 48.7182 38.3576 48.6705 38.442C48.6228 38.5264 48.5983 38.622 48.5997 38.7189V44.0368C48.5997 44.2337 48.7084 44.4193 48.8712 44.5175L53.4402 47.171C53.5244 47.2195 53.6198 47.245 53.7169 47.245C53.814 47.245 53.9095 47.2195 53.9937 47.171L58.5623 44.5175C58.7359 44.4193 58.8338 44.2337 58.8338 44.0368V38.7189C58.8338 38.5224 58.725 38.3364 58.5623 38.2385L53.9937 35.5847Z" fill="url(#paint0_linear_441_7872)"/>
<path d="M58.5729 38.2385L53.9825 35.5846C53.9375 35.5618 53.8902 35.5436 53.8415 35.5303L48.6973 44.3863C48.7408 44.441 48.7948 44.4845 48.8491 44.5175L53.4399 47.171C53.57 47.2475 53.7219 47.2693 53.8629 47.2254L58.6925 38.3368C58.6608 38.2952 58.6198 38.2616 58.5729 38.2385Z" fill="url(#paint1_linear_441_7872)"/>
<path d="M58.5731 44.5173C58.7036 44.4408 58.8011 44.3099 58.8446 44.1678L53.8196 35.5192C53.6898 35.4974 53.5485 35.5083 53.4292 35.5848L48.8711 38.2274L53.7873 47.2473C53.8522 47.2364 53.9283 47.2147 53.9936 47.1817L58.5731 44.5173Z" fill="url(#paint2_linear_441_7872)"/>
</g>
<path d="M51.3991 87.3182V97.5H49.9872L44.8118 90.0327H44.7173V97.5H43.1811V87.3182H44.603L49.7834 94.7955H49.8778V87.3182H51.3991ZM56.7374 97.6541C56.0215 97.6541 55.3967 97.4901 54.8631 97.1619C54.3295 96.8338 53.9152 96.3748 53.6202 95.7848C53.3252 95.1948 53.1777 94.5054 53.1777 93.7166C53.1777 92.9245 53.3252 92.2318 53.6202 91.6385C53.9152 91.0452 54.3295 90.5845 54.8631 90.2564C55.3967 89.9283 56.0215 89.7642 56.7374 89.7642C57.4533 89.7642 58.0781 89.9283 58.6117 90.2564C59.1453 90.5845 59.5596 91.0452 59.8546 91.6385C60.1496 92.2318 60.2971 92.9245 60.2971 93.7166C60.2971 94.5054 60.1496 95.1948 59.8546 95.7848C59.5596 96.3748 59.1453 96.8338 58.6117 97.1619C58.0781 97.4901 57.4533 97.6541 56.7374 97.6541ZM56.7424 96.4062C57.2064 96.4062 57.5909 96.2836 57.8958 96.0384C58.2007 95.7931 58.4261 95.4666 58.5719 95.0589C58.7211 94.6513 58.7956 94.2022 58.7956 93.7116C58.7956 93.2244 58.7211 92.777 58.5719 92.3693C58.4261 91.9583 58.2007 91.6286 57.8958 91.38C57.5909 91.1314 57.2064 91.0071 56.7424 91.0071C56.275 91.0071 55.8873 91.1314 55.579 91.38C55.2741 91.6286 55.0471 91.9583 54.8979 92.3693C54.7521 92.777 54.6792 93.2244 54.6792 93.7116C54.6792 94.2022 54.7521 94.6513 54.8979 95.0589C55.0471 95.4666 55.2741 95.7931 55.579 96.0384C55.8873 96.2836 56.275 96.4062 56.7424 96.4062ZM64.815 97.6491C64.1985 97.6491 63.6483 97.4917 63.1644 97.1768C62.6838 96.8587 62.306 96.4062 62.0309 95.8196C61.7591 95.2296 61.6232 94.522 61.6232 93.6967C61.6232 92.8714 61.7608 92.1655 62.0359 91.5788C62.3143 90.9922 62.6954 90.5431 63.1793 90.2315C63.6632 89.92 64.2118 89.7642 64.8249 89.7642C65.2989 89.7642 65.68 89.8438 65.9684 90.0028C66.2601 90.1586 66.4854 90.3409 66.6445 90.5497C66.8069 90.7585 66.9329 90.9425 67.0224 91.1016H67.1119V87.3182H68.5984V97.5H67.1467V96.3118H67.0224C66.9329 96.4742 66.8036 96.6598 66.6346 96.8686C66.4689 97.0774 66.2402 97.2597 65.9485 97.4155C65.6568 97.5713 65.279 97.6491 64.815 97.6491ZM65.1431 96.3814C65.5707 96.3814 65.9319 96.2687 66.2269 96.0433C66.5252 95.8146 66.7506 95.4981 66.9031 95.0938C67.0588 94.6894 67.1367 94.2187 67.1367 93.6818C67.1367 93.1515 67.0605 92.6875 66.908 92.2898C66.7556 91.892 66.5318 91.5821 66.2369 91.3601C65.9419 91.138 65.5773 91.027 65.1431 91.027C64.6957 91.027 64.3228 91.143 64.0245 91.375C63.7262 91.607 63.5008 91.9235 63.3484 92.3246C63.1992 92.7256 63.1246 93.178 63.1246 93.6818C63.1246 94.1922 63.2009 94.6513 63.3533 95.0589C63.5058 95.4666 63.7312 95.7898 64.0295 96.0284C64.3311 96.2637 64.7023 96.3814 65.1431 96.3814ZM74.0112 97.6541C73.2588 97.6541 72.6109 97.4934 72.0673 97.1719C71.527 96.8471 71.1094 96.3913 70.8145 95.8047C70.5228 95.2147 70.377 94.5237 70.377 93.7315C70.377 92.9493 70.5228 92.2599 70.8145 91.6634C71.1094 91.0668 71.5204 90.6011 72.0474 90.2663C72.5777 89.9316 73.1975 89.7642 73.9068 89.7642C74.3377 89.7642 74.7553 89.8355 75.1596 89.978C75.564 90.1205 75.9269 90.3442 76.2484 90.6491C76.5699 90.9541 76.8234 91.3501 77.0091 91.8374C77.1947 92.3213 77.2875 92.9096 77.2875 93.6023V94.1293H71.2172V93.0156H75.8308C75.8308 92.6245 75.7512 92.2782 75.5922 91.9766C75.4331 91.6716 75.2093 91.4313 74.921 91.2557C74.6359 91.08 74.3012 90.9922 73.9167 90.9922C73.4991 90.9922 73.1345 91.0949 72.823 91.3004C72.5147 91.5026 72.2761 91.7678 72.1071 92.0959C71.9413 92.4207 71.8585 92.7737 71.8585 93.1548V94.0249C71.8585 94.5353 71.948 94.9695 72.127 95.3274C72.3092 95.6854 72.5628 95.9588 72.8876 96.1477C73.2124 96.3333 73.5919 96.4261 74.0261 96.4261C74.3078 96.4261 74.5647 96.3864 74.7967 96.3068C75.0287 96.224 75.2292 96.1013 75.3983 95.9389C75.5673 95.7765 75.6966 95.576 75.786 95.3374L77.193 95.5909C77.0803 96.0052 76.8781 96.3681 76.5865 96.6797C76.2981 96.9879 75.9352 97.2282 75.4977 97.4006C75.0635 97.5696 74.568 97.6541 74.0112 97.6541Z" fill="#6A6A6A"/>
<defs>
<linearGradient id="paint0_linear_441_7872" x1="55.5774" y1="37.5608" x2="51.4048" y2="46.02" gradientUnits="userSpaceOnUse">
<stop stop-color="#3F873F"/>
<stop offset="0.33" stop-color="#3F8B3D"/>
<stop offset="0.637" stop-color="#3E9638"/>
<stop offset="0.934" stop-color="#3DA92E"/>
<stop offset="1" stop-color="#3DAE2B"/>
</linearGradient>
<linearGradient id="paint1_linear_441_7872" x1="53.0223" y1="41.9988" x2="64.6643" y2="33.45" gradientUnits="userSpaceOnUse">
<stop offset="0.138" stop-color="#3F873F"/>
<stop offset="0.402" stop-color="#52A044"/>
<stop offset="0.713" stop-color="#64B749"/>
<stop offset="0.908" stop-color="#6ABF4B"/>
</linearGradient>
<linearGradient id="paint2_linear_441_7872" x1="48.4325" y1="41.3762" x2="59.0046" y2="41.3762" gradientUnits="userSpaceOnUse">
<stop offset="0.092" stop-color="#6ABF4B"/>
<stop offset="0.287" stop-color="#64B749"/>
<stop offset="0.598" stop-color="#52A044"/>
<stop offset="0.862" stop-color="#3F873F"/>
</linearGradient>
<clipPath id="clip0_441_7872">
<rect width="48" height="48" fill="white" transform="translate(36 19.5)"/>
</clipPath>
</defs>
</svg>
