<svg width="120" height="120" viewBox="0 0 120 120" fill="none" xmlns="http://www.w3.org/2000/svg">
<rect x="0.5" y="0.5" width="119" height="119" rx="15.5" fill="white"/>
<rect x="0.5" y="0.5" width="119" height="119" rx="15.5" stroke="#FFE4BB"/>
<g clip-path="url(#clip0_441_7856)">
<path d="M72.75 19.5H47.25C41.0368 19.5 36 24.5368 36 30.75V56.25C36 62.4632 41.0368 67.5 47.25 67.5H72.75C78.9632 67.5 84 62.4632 84 56.25V30.75C84 24.5368 78.9632 19.5 72.75 19.5Z" fill="#242938"/>
<path d="M51.8893 40.4927C51.8893 40.9491 51.9386 41.319 52.0249 41.5905C52.1344 41.8959 52.2664 42.1928 52.4198 42.4787C52.4815 42.5773 52.506 42.6759 52.506 42.7624C52.506 42.8858 52.432 43.0091 52.2716 43.1323L51.4945 43.6506C51.3835 43.7244 51.2725 43.7616 51.1738 43.7616C51.0505 43.7616 50.9271 43.6999 50.8037 43.5889C50.6376 43.4102 50.4889 43.2161 50.3597 43.0091C50.2218 42.7721 50.0942 42.5292 49.9772 42.2812C49.0151 43.4163 47.8062 43.9837 46.3506 43.9836C45.3145 43.9836 44.488 43.6875 43.8835 43.0954C43.2791 42.5033 42.9707 41.7139 42.9707 40.7271C42.9707 39.6784 43.3408 38.8273 44.0933 38.1859C44.8457 37.5444 45.8449 37.2236 47.1154 37.2236C47.5348 37.2236 47.9666 37.2608 48.423 37.3224C48.8794 37.3841 49.3481 37.4827 49.8416 37.5938V36.6932C49.8416 35.7557 49.6442 35.1019 49.2619 34.7196C48.867 34.3371 48.201 34.1522 47.2511 34.1522C46.8193 34.1522 46.3753 34.2015 45.919 34.3125C45.4626 34.4235 45.0184 34.5592 44.5866 34.7319C44.4463 34.7946 44.3021 34.8482 44.155 34.8923C44.0687 34.917 44.0068 34.9294 43.9575 34.9294C43.785 34.9294 43.6984 34.806 43.6984 34.5469V33.9424C43.6984 33.7451 43.7231 33.597 43.7848 33.5107C43.8465 33.4245 43.9575 33.3381 44.1302 33.2516C44.562 33.0296 45.0801 32.8446 45.6846 32.6966C46.2889 32.5361 46.9303 32.4623 47.6089 32.4623C49.0768 32.4623 50.1499 32.7952 50.8408 33.4612C51.5192 34.1274 51.8646 35.139 51.8646 36.4959V40.4927H51.8893ZM46.8812 42.3677C47.2881 42.3677 47.7075 42.2936 48.1517 42.1455C48.5957 41.9976 48.9904 41.7261 49.3236 41.3561C49.5208 41.1217 49.669 40.8626 49.7428 40.5666C49.8167 40.2705 49.8662 39.9128 49.8662 39.4935V38.9752C49.4922 38.8842 49.1133 38.8143 48.7315 38.7656C48.3468 38.717 47.9595 38.6922 47.5718 38.6916C46.7453 38.6916 46.141 38.8521 45.7339 39.1851C45.3268 39.5181 45.1294 39.9868 45.1294 40.6037C45.1294 41.1834 45.2775 41.6151 45.5858 41.9111C45.882 42.2196 46.3138 42.3677 46.8812 42.3677ZM56.7863 43.6999C56.5643 43.6999 56.4161 43.6628 56.3175 43.5765C56.2189 43.5024 56.1325 43.3298 56.0586 43.0954L53.1598 33.5601C53.0856 33.3133 53.0486 33.153 53.0486 33.0666C53.0486 32.8693 53.1473 32.7581 53.3447 32.7581H54.5535C54.7879 32.7581 54.9484 32.7952 55.0346 32.8815C55.1333 32.9556 55.2073 33.1282 55.2814 33.3626L57.3536 41.5288L59.2781 33.3626C59.3398 33.1159 59.4137 32.9557 59.5125 32.8815C59.6111 32.8076 59.7838 32.7583 60.0058 32.7583H60.9926C61.227 32.7583 61.3875 32.7952 61.4861 32.8815C61.5848 32.9556 61.6712 33.1282 61.7205 33.3626L63.6696 41.6274L65.8035 33.3626C65.8776 33.1159 65.964 32.9557 66.0503 32.8815C66.1489 32.8076 66.3094 32.7583 66.5314 32.7583H67.6785C67.876 32.7583 67.987 32.8569 67.987 33.0666C67.987 33.1284 67.9746 33.1899 67.9622 33.264C67.95 33.3381 67.9253 33.4365 67.876 33.5724L64.9031 43.1077C64.829 43.3545 64.7426 43.5149 64.644 43.5889C64.5454 43.6628 64.3849 43.7123 64.1753 43.7123H63.1144C62.88 43.7123 62.7197 43.6751 62.6211 43.5889C62.5223 43.5024 62.436 43.3421 62.3867 43.0954L60.4746 35.139L58.575 43.083C58.5133 43.3298 58.4393 43.4901 58.3406 43.5765C58.2418 43.6628 58.0691 43.6999 57.8471 43.6999H56.7863ZM72.6375 44.0329C71.9961 44.0329 71.3546 43.9588 70.7378 43.8109C70.1211 43.6628 69.64 43.5024 69.3191 43.3174C69.1219 43.2064 68.9861 43.083 68.9368 42.972C68.8888 42.8631 68.8636 42.7456 68.8628 42.6266V41.9976C68.8628 41.7384 68.9614 41.6151 69.1465 41.6151C69.2206 41.6151 69.2946 41.6274 69.3685 41.6522C69.4425 41.6767 69.5535 41.7261 69.6769 41.7756C70.1126 41.9671 70.5675 42.1118 71.0338 42.2072C71.517 42.3053 72.0087 42.3549 72.5018 42.3553C73.279 42.3553 73.8833 42.2196 74.3027 41.9482C74.7221 41.6768 74.9441 41.2821 74.9441 40.7764C74.9441 40.431 74.8331 40.1471 74.6111 39.9127C74.3891 39.6784 73.9697 39.4687 73.3652 39.2713L71.5766 38.7163C70.6761 38.4326 70.0099 38.0132 69.6028 37.4582C69.1958 36.9154 68.9861 36.3107 68.9861 35.6694C68.9861 35.1514 69.0971 34.695 69.3191 34.3001C69.5411 33.9054 69.8372 33.5601 70.2073 33.2888C70.5775 33.0049 70.9969 32.7952 71.4902 32.6471C71.9837 32.499 72.5018 32.4375 73.0446 32.4375C73.3159 32.4375 73.5996 32.4499 73.8711 32.4868C74.1548 32.5238 74.4137 32.5731 74.6728 32.6226C74.9196 32.6842 75.154 32.7459 75.376 32.82C75.598 32.8939 75.7706 32.9679 75.894 33.042C76.0667 33.1406 76.1901 33.2392 76.2641 33.3502C76.3381 33.449 76.3751 33.5848 76.3751 33.7575V34.3373C76.3751 34.5962 76.2765 34.7319 76.0915 34.7319C75.9926 34.7319 75.8323 34.6826 75.6227 34.5838C74.9196 34.2632 74.1301 34.1029 73.2542 34.1029C72.5511 34.1029 71.9961 34.2139 71.6136 34.4482C71.2311 34.6826 71.0338 35.0404 71.0338 35.5461C71.0338 35.8914 71.1572 36.1875 71.404 36.4219C71.6507 36.6562 72.1071 36.8906 72.7609 37.1002L74.5125 37.6553C75.4005 37.9391 76.0421 38.3338 76.4245 38.8397C76.8068 39.3456 76.9918 39.9251 76.9918 40.5666C76.9918 41.097 76.8808 41.5781 76.6712 41.9976C76.4492 42.417 76.1531 42.7869 75.7706 43.083C75.3883 43.3914 74.9318 43.6134 74.4015 43.7739C73.8463 43.9466 73.2666 44.0329 72.6375 44.0329Z" fill="white"/>
<path fill-rule="evenodd" clip-rule="evenodd" d="M74.9695 50.0278C70.9111 53.0254 65.0148 54.6167 59.9448 54.6167C52.8397 54.6167 46.4373 51.9891 41.6018 47.6224C41.2193 47.277 41.5649 46.8082 42.0213 47.0796C47.2516 50.1141 53.7031 51.9521 60.3766 51.9521C64.879 51.9521 69.8257 51.0146 74.3774 49.0903C75.0558 48.7819 75.6355 49.5343 74.9695 50.0278Z" fill="#FF9900"/>
<path fill-rule="evenodd" clip-rule="evenodd" d="M76.6591 48.1036C76.141 47.4374 73.2299 47.7828 71.9099 47.9431C71.5152 47.9926 71.4535 47.6471 71.8112 47.3881C74.1302 45.7599 77.9419 46.2286 78.3861 46.7712C78.8301 47.3264 78.2627 51.1381 76.0917 52.9638C75.7585 53.2475 75.4379 53.0994 75.5858 52.7294C76.0793 51.5082 77.1771 48.7572 76.6591 48.1036Z" fill="#FF9900"/>
</g>
<path d="M49.7069 97.669C49.223 97.669 48.7855 97.5795 48.3944 97.4006C48.0033 97.2183 47.6934 96.9548 47.4648 96.6101C47.2394 96.2654 47.1267 95.8428 47.1267 95.3423C47.1267 94.9115 47.2095 94.5568 47.3753 94.2784C47.541 94 47.7647 93.7796 48.0464 93.6172C48.3282 93.4548 48.643 93.3321 48.991 93.2493C49.339 93.1664 49.6937 93.1035 50.055 93.0604C50.5123 93.0073 50.8836 92.9643 51.1686 92.9311C51.4536 92.8946 51.6608 92.8366 51.79 92.7571C51.9193 92.6776 51.9839 92.5483 51.9839 92.3693V92.3345C51.9839 91.9003 51.8613 91.5639 51.616 91.3253C51.3741 91.0866 51.0128 90.9673 50.5322 90.9673C50.0318 90.9673 49.6373 91.0784 49.349 91.3004C49.064 91.5192 48.8667 91.7628 48.7574 92.0312L47.3604 91.7131C47.5261 91.2491 47.768 90.8745 48.0862 90.5895C48.4077 90.3011 48.7773 90.0923 49.1949 89.9631C49.6125 89.8305 50.0516 89.7642 50.5123 89.7642C50.8173 89.7642 51.1404 89.8007 51.4818 89.8736C51.8265 89.9432 52.148 90.0724 52.4463 90.2614C52.7479 90.4503 52.9948 90.7204 53.1871 91.0717C53.3793 91.4197 53.4754 91.8722 53.4754 92.429V97.5H52.0237V96.456H51.964C51.8679 96.6482 51.7238 96.8371 51.5315 97.0227C51.3393 97.2083 51.0924 97.3625 50.7907 97.4851C50.4891 97.6077 50.1279 97.669 49.7069 97.669ZM50.0301 96.4759C50.4411 96.4759 50.7924 96.3946 51.0841 96.2322C51.3791 96.0698 51.6028 95.8577 51.7552 95.5959C51.911 95.3307 51.9889 95.0473 51.9889 94.7457V93.7614C51.9359 93.8144 51.8331 93.8641 51.6807 93.9105C51.5315 93.9536 51.3608 93.9917 51.1686 94.0249C50.9764 94.0547 50.7891 94.0829 50.6068 94.1094C50.4245 94.1326 50.272 94.1525 50.1494 94.169C49.8611 94.2055 49.5976 94.2668 49.3589 94.353C49.1236 94.4392 48.9347 94.5634 48.7922 94.7259C48.653 94.8849 48.5834 95.0971 48.5834 95.3622C48.5834 95.7301 48.7193 96.0085 48.991 96.1974C49.2628 96.383 49.6092 96.4759 50.0301 96.4759ZM57.1109 97.5L54.8637 89.8636H56.3999L57.8964 95.4716H57.971L59.4724 89.8636H61.0086L62.5001 95.4467H62.5747L64.0612 89.8636H65.5974L63.3552 97.5H61.8389L60.2877 91.9865H60.1734L58.6222 97.5H57.1109ZM72.7304 91.728L71.3831 91.9666C71.3267 91.7943 71.2372 91.6302 71.1146 91.4744C70.9953 91.3187 70.8329 91.1911 70.6274 91.0916C70.4219 90.9922 70.165 90.9425 69.8568 90.9425C69.4359 90.9425 69.0845 91.0369 68.8028 91.2259C68.5211 91.4115 68.3802 91.6518 68.3802 91.9467C68.3802 92.2019 68.4747 92.4074 68.6636 92.5632C68.8525 92.719 69.1575 92.8466 69.5784 92.946L70.7915 93.2244C71.4941 93.3868 72.0178 93.6371 72.3625 93.9751C72.7072 94.3132 72.8795 94.7524 72.8795 95.2926C72.8795 95.75 72.747 96.1577 72.4818 96.5156C72.22 96.8703 71.8537 97.1487 71.3831 97.3509C70.9157 97.553 70.3738 97.6541 69.7574 97.6541C68.9023 97.6541 68.2046 97.4718 67.6643 97.1072C67.1241 96.7393 66.7926 96.2173 66.67 95.5412L68.1068 95.3224C68.1963 95.697 68.3802 95.9804 68.6586 96.1726C68.9371 96.3615 69.3 96.456 69.7474 96.456C70.2346 96.456 70.6241 96.3549 70.9157 96.1527C71.2074 95.9472 71.3532 95.697 71.3532 95.402C71.3532 95.1634 71.2638 94.9628 71.0848 94.8004C70.9091 94.638 70.639 94.5154 70.2744 94.4325L68.9818 94.1491C68.2692 93.9867 67.7422 93.7282 67.4008 93.3736C67.0628 93.0189 66.8937 92.5698 66.8937 92.0263C66.8937 91.5755 67.0197 91.1811 67.2716 90.843C67.5235 90.505 67.8715 90.2415 68.3156 90.0526C68.7597 89.8603 69.2685 89.7642 69.8419 89.7642C70.6672 89.7642 71.3168 89.9432 71.7907 90.3011C72.2647 90.6558 72.5779 91.1314 72.7304 91.728Z" fill="#6A6A6A"/>
<defs>
<clipPath id="clip0_441_7856">
<rect width="48" height="48" fill="white" transform="translate(36 19.5)"/>
</clipPath>
</defs>
</svg>
