<svg width="360" height="360" viewBox="0 0 360 360" fill="none" xmlns="http://www.w3.org/2000/svg">
<path d="M297.21 185.17C232.053 147.552 126.757 147.553 62.0234 185.171C-2.71393 222.793 -2.37121 283.784 62.7859 321.402C127.947 359.023 233.243 359.022 297.98 321.401C362.715 283.783 362.371 222.791 297.21 185.17Z" fill="#FFF6E9"/>
<path d="M84.5078 309.701C80.6464 307.472 74.4062 307.472 70.5693 309.701C66.7324 311.931 66.7533 315.545 70.6147 317.775C74.4767 320.005 80.717 320.005 84.5539 317.775C88.39 315.545 88.3691 311.931 84.5078 309.701Z" fill="#FFEDD2"/>
<path d="M219.542 175.304L209.765 169.668C206.707 167.905 202.941 167.907 199.884 169.672L145.645 201.106L140.86 198.351L101.596 221.324L106.128 223.934L41.9229 261.003C39.7262 262.272 39.7262 265.442 41.9229 266.71L51.8035 272.414C54.8642 274.181 58.6349 274.18 61.6941 272.411L125.861 235.3L133.36 239.62C139.474 243.141 147.001 243.138 153.111 239.61L176.177 226.292C179.108 224.6 179.105 220.369 176.172 218.681L165.36 212.456L174.466 207.171L177.623 205.34L219.546 181.011C221.741 179.742 221.739 176.571 219.542 175.304Z" fill="#FFEDD2"/>
<path d="M148.339 269.685C137.069 263.178 118.857 263.178 107.66 269.685C96.4627 276.192 96.5225 286.741 107.792 293.248C119.063 299.755 137.275 299.755 148.472 293.248C159.669 286.741 159.61 276.192 148.339 269.685Z" fill="#FFEDD2"/>
<path d="M243.415 309.663C233.202 303.767 216.699 303.767 206.553 309.663C196.407 315.559 196.46 325.118 206.673 331.014C216.886 336.91 233.389 336.91 243.535 331.014C253.681 325.119 253.627 315.559 243.415 309.663Z" fill="#FFEDD2"/>
<path d="M255.64 223.183C245.115 217.106 228.105 217.106 217.649 223.183C207.191 229.26 207.247 239.112 217.772 245.189C228.298 251.266 245.307 251.266 255.764 245.189C266.221 239.112 266.165 229.26 255.64 223.183Z" fill="#FFEDD2"/>
<path d="M304.335 218.614C300.206 216.23 293.533 216.23 289.43 218.614C285.327 220.998 285.349 224.864 289.478 227.248C293.608 229.632 300.281 229.632 304.384 227.248C308.486 224.864 308.464 220.998 304.335 218.614Z" fill="#FFEDD2"/>
<path d="M84.2073 52.8588L82.0566 51.6096L82.1826 128.308L84.3333 129.558L84.2073 52.8588Z" fill="#FEF3E2"/>
<path d="M84.3336 129.558L82.183 128.308L57.4258 142.519L59.5764 143.769L84.3336 129.558Z" fill="#FFF6E9"/>
<path d="M86.8183 130.972L57.1125 148.041L56.9707 65.6561L86.6765 48.5878L86.8183 130.972ZM59.5793 143.769L84.3365 129.558L84.2105 52.8595L59.4525 67.0702L59.5793 143.769Z" fill="#FFEDD2"/>
<path d="M86.6728 48.5877L84.5222 47.3378L54.8164 64.4062L56.967 65.6561L86.6728 48.5877Z" fill="#FFF6E9"/>
<path d="M56.967 65.656L54.8164 64.4061L54.9583 146.791L57.1089 148.041L56.967 65.656Z" fill="#FEF3E2"/>
<path d="M84.3359 76.7469L82.186 75.497L59.457 88.57V91.0569L84.3359 76.7469Z" fill="#FFF6E9"/>
<path d="M84.3366 76.7469H84.3359H84.3366L59.457 91.0569V93.8973L84.341 79.6003L84.3366 76.7469Z" fill="#FFEDD2"/>
<path d="M56.9807 68.513L54.8301 67.2631L54.9561 143.961L57.1067 145.211L56.9807 68.513Z" fill="#FEF3E2"/>
<path d="M57.1071 145.211L54.9564 143.961L30.1992 158.172L32.3499 159.422L57.1071 145.211Z" fill="#FFF6E9"/>
<path d="M59.5925 146.626L29.8867 163.694L29.7441 81.3096L59.4499 64.2413L59.5925 146.626ZM32.3527 159.422L57.1106 145.211L56.9839 68.513L32.2267 82.7244L32.3527 159.422Z" fill="#FFEDD2"/>
<path d="M59.4502 64.2413L57.2995 62.9913L27.5938 80.0597L29.7444 81.3096L59.4502 64.2413Z" fill="#FFF6E9"/>
<path d="M29.7444 81.3096L27.5938 80.0596L27.7356 162.444L29.8862 163.694L29.7444 81.3096Z" fill="#FEF3E2"/>
<path d="M57.0996 92.4004L54.9497 91.1505L32.2207 104.224V106.71L57.0996 92.4004Z" fill="#FFF6E9"/>
<path d="M57.1003 92.4005H57.0996H57.1003L32.2207 106.71V109.551L57.1046 95.2538L57.1003 92.4005Z" fill="#FFEDD2"/>
<path d="M150.635 14.6059L148.484 13.3567L148.61 90.0547L150.761 91.3046L150.635 14.6059Z" fill="#FEF3E2"/>
<path d="M150.758 91.3046L148.608 90.0547L123.85 104.266L126 105.516L150.758 91.3046Z" fill="#FFF6E9"/>
<path d="M153.243 92.7187L123.537 109.787L123.395 27.4032L153.1 10.3349L153.243 92.7187ZM126.002 105.516L150.76 91.3047L150.634 14.6067L125.877 28.818L126.002 105.516Z" fill="#FFEDD2"/>
<path d="M153.101 10.3349L150.95 9.08496L121.244 26.1533L123.395 27.4032L153.101 10.3349Z" fill="#FFF6E9"/>
<path d="M123.395 27.4032L121.244 26.1533L121.386 108.538L123.537 109.787L123.395 27.4032Z" fill="#FEF3E2"/>
<path d="M150.758 38.4941L148.608 37.2441L125.879 50.3172V52.8041L150.758 38.4941Z" fill="#FFF6E9"/>
<path d="M150.758 38.4941H150.758H150.758L125.879 52.8041V55.6445L150.763 41.3474L150.758 38.4941Z" fill="#FFEDD2"/>
<path d="M123.393 30.2602L121.242 29.0103L121.368 105.708L123.519 106.958L123.393 30.2602Z" fill="#FEF3E2"/>
<path d="M123.519 106.958L121.369 105.708L96.6113 119.92L98.762 121.17L123.519 106.958Z" fill="#FFF6E9"/>
<path d="M125.999 108.373L96.2929 125.441L96.1504 43.0567L125.856 25.9884L125.999 108.373ZM98.7597 121.17L123.518 106.958L123.392 30.2602L98.6344 44.4715L98.7597 121.17Z" fill="#FFEDD2"/>
<path d="M125.858 25.9884L123.708 24.7385L94.002 41.8068L96.1526 43.0567L125.858 25.9884Z" fill="#FFF6E9"/>
<path d="M96.1526 43.0567L94.002 41.8068L94.1438 124.191L96.2944 125.441L96.1526 43.0567Z" fill="#FEF3E2"/>
<path d="M123.516 54.1476L121.366 52.8976L98.6367 65.9707V68.4576L123.516 54.1476Z" fill="#FFF6E9"/>
<path d="M123.516 54.1476H123.516H123.516L98.6367 68.4576V71.298L123.521 57.0009L123.516 54.1476Z" fill="#FFEDD2"/>
<path d="M283.024 96.4872L282.973 114.475L280.793 115.741L280.851 95.2322L283.024 96.4872Z" fill="#FEF3E2"/>
<path d="M306.508 128.063L306.501 130.584L280.793 115.741L282.973 114.475L306.508 128.063Z" fill="#FFF6E9"/>
<path d="M278.148 117.248L309.125 135.132L309.201 108.574L278.224 90.689L278.148 117.248ZM280.791 115.741L280.849 95.2322L283.022 96.4865L306.557 110.074L306.506 128.062L306.499 130.583L280.791 115.741Z" fill="#FFEDD2"/>
<path d="M278.225 90.689L280.405 89.4218L311.381 107.307L309.202 108.573L278.225 90.689Z" fill="#FFF6E9"/>
<path d="M311.38 107.307L311.305 133.865L309.125 135.132L309.201 108.573L311.38 107.307Z" fill="#FEF3E2"/>
<path d="M290.505 103.316L284.087 108.37L284.072 113.307L305.42 125.633L305.434 120.696L301.366 112.615L297.713 115.451L299.004 119.464L297.129 115.901L290.505 103.316Z" fill="#FFEDD2"/>
<path d="M297.513 105.805C296.508 105.225 295.69 105.69 295.688 106.845C295.684 108 296.497 109.406 297.501 109.986C298.506 110.567 299.324 110.101 299.326 108.946C299.329 107.792 298.518 106.385 297.513 105.805Z" fill="#FFEDD2"/>
<path d="M283.024 56.2111L282.973 74.1982L280.793 75.4654L280.851 54.9562L283.024 56.2111Z" fill="#FEF3E2"/>
<path d="M306.508 87.7867L306.501 90.3074L280.793 75.4653L282.973 74.1981L306.508 87.7867Z" fill="#FFF6E9"/>
<path d="M278.148 76.9716L309.125 94.8564L309.2 68.2978L278.223 50.413L278.148 76.9716ZM280.791 75.4654L280.849 54.9562L283.022 56.2111L306.557 69.799L306.506 87.7867L306.499 90.3082L280.791 75.4654Z" fill="#FFEDD2"/>
<path d="M278.225 50.4129L280.405 49.1458L311.381 67.0306L309.201 68.297L278.225 50.4129Z" fill="#FFF6E9"/>
<path d="M311.38 67.0306L311.305 93.5892L309.125 94.8557L309.2 68.2971L311.38 67.0306Z" fill="#FEF3E2"/>
<path d="M290.505 63.0403L284.086 68.094L284.072 73.031L305.42 85.356L305.434 80.4189L301.365 72.3384L297.713 75.1744L299.004 79.1877L297.129 75.6244L290.505 63.0403Z" fill="#FFEDD2"/>
<path d="M297.513 65.5286C296.508 64.9483 295.69 65.4141 295.688 66.569C295.685 67.7231 296.497 69.13 297.501 69.7103C298.506 70.2907 299.323 69.8248 299.326 68.6699C299.329 67.5151 298.517 66.1089 297.513 65.5286Z" fill="#FFEDD2"/>
<path d="M168.193 220.31L149.387 231.07C143.885 234.218 137.124 234.207 131.631 231.042L117.677 222.999C116.022 222.046 115.002 220.283 114.999 218.372L114.986 208.853L112.076 210.536V218.81C112.076 221.041 113.267 223.102 115.2 224.217L131.768 233.765C137.176 236.882 143.833 236.893 149.25 233.793L168.193 222.954C171.021 221.336 172.17 218.257 171.648 215.442C171.288 217.381 170.143 219.194 168.193 220.31Z" fill="url(#paint0_linear_371_11556)"/>
<path opacity="0.1" d="M168.193 220.31L149.387 231.07C143.885 234.218 137.124 234.207 131.631 231.042L117.677 222.999C116.022 222.046 115.002 220.283 114.999 218.372L114.986 208.853L112.076 210.536V218.81C112.076 221.041 113.267 223.102 115.2 224.217L131.768 233.765C137.176 236.882 143.833 236.893 149.25 233.793L168.193 222.954C171.021 221.336 172.17 218.257 171.648 215.442C171.288 217.381 170.143 219.194 168.193 220.31Z" fill="black"/>
<path d="M117.677 223L131.631 231.042C137.124 234.208 143.885 234.218 149.387 231.07L168.193 220.31C170.143 219.195 171.287 217.382 171.647 215.442C171.296 213.55 170.198 211.776 168.32 210.65L152.891 201.396C151.012 200.268 149.861 198.237 149.861 196.044V193.4V188.695L114.986 208.855L114.999 218.374C115.001 220.283 116.022 222.046 117.677 223Z" fill="url(#paint1_linear_371_11556)"/>
<path opacity="0.4" d="M117.677 223C116.022 222.047 115.002 220.283 114.999 218.373L114.986 208.854L112.076 210.537V218.811C112.076 221.042 113.267 223.103 115.2 224.217L121.078 227.605V224.96L117.677 223Z" fill="black"/>
<path opacity="0.3" d="M117.676 223L121.076 224.96L157.485 204.152L152.89 201.396C151.01 200.268 149.859 198.237 149.859 196.044V193.4V188.695L114.984 208.855L114.997 218.374C115 220.283 116.021 222.046 117.676 223Z" fill="black"/>
<path d="M56.0325 246.696V246.691C56.0195 246.684 56.0051 246.68 55.9922 246.673L56.0325 246.696Z" fill="#FFA8A7"/>
<path d="M54.3781 243.22L54.1095 123.949C54.1001 120.565 56.4805 116.436 59.431 114.733L207.686 29.3566C209.151 28.5113 210.48 28.4256 211.447 28.9678L205.865 25.7328L205.866 25.7378C204.889 25.1186 203.514 25.1698 201.988 26.051L53.7329 111.427C50.7824 113.131 48.4021 117.259 48.4121 120.643L48.68 239.913C48.6843 241.51 49.2243 242.652 50.0991 243.24L50.0984 243.241L50.1049 243.245C50.2006 243.309 50.3 243.366 50.4037 243.417L55.9088 246.623C54.967 246.059 54.3831 244.885 54.3781 243.22Z" fill="url(#paint2_linear_371_11556)"/>
<path opacity="0.3" d="M205.867 25.7328L205.868 25.7378C204.891 25.1186 203.516 25.1698 201.99 26.051L53.7348 111.427C52.0954 112.374 50.6331 114.07 49.6582 115.971L55.3613 119.268C56.3362 117.371 57.7964 115.678 59.4329 114.733L207.688 29.3566C209.153 28.5113 210.482 28.4256 211.449 28.9678L205.867 25.7328Z" fill="white"/>
<path opacity="0.2" d="M48.4121 120.643L48.68 239.913C48.6843 241.51 49.2243 242.652 50.0991 243.241L50.0984 243.241L50.1048 243.245C50.2006 243.309 50.3 243.367 50.4036 243.417L55.9088 246.623C54.967 246.059 54.3824 244.884 54.378 243.22L54.1095 123.949C54.1052 122.443 54.5768 120.79 55.3587 119.268L49.6556 115.971C48.8772 117.49 48.4085 119.14 48.4121 120.643Z" fill="black"/>
<path d="M211.512 29.0045L211.484 28.9886C211.494 28.9937 211.501 29.0009 211.51 29.0066L211.512 29.0045Z" fill="#FFA8A7"/>
<path d="M213.041 32.4087C213.036 30.7433 212.451 29.5697 211.509 29.0059C211.5 29.0002 211.492 28.9937 211.483 28.9879C211.47 28.9815 211.459 28.9743 211.447 28.9678C210.48 28.4256 209.151 28.5113 207.686 29.3566L59.4309 114.733C56.4804 116.436 54.1 120.565 54.1094 123.949L54.378 243.22C54.383 244.885 54.9669 246.059 55.9087 246.623C55.9368 246.64 55.9641 246.656 55.9922 246.672C56.0052 246.679 56.0196 246.684 56.0325 246.691C56.9944 247.197 58.2969 247.101 59.734 246.272L207.989 160.896C210.934 159.195 213.319 155.064 213.309 151.679L213.041 32.4087ZM205.355 156.334L59.6383 240.244L59.3784 123.934C59.374 122.435 60.755 120.051 62.0647 119.295L207.782 35.3844L208.042 151.694C208.046 153.192 206.665 155.577 205.355 156.334Z" fill="url(#paint3_linear_371_11556)"/>
<path d="M207.782 35.3844L204.01 37.5595L204.262 149.854C204.266 151.351 202.885 153.736 201.575 154.493L59.6289 236.228L59.6375 240.245L205.355 156.334C206.665 155.577 208.046 153.192 208.042 151.695L207.782 35.3844Z" fill="url(#paint4_linear_371_11556)"/>
<path opacity="0.3" d="M207.782 35.3844L204.01 37.5595L204.262 149.854C204.266 151.351 202.885 153.736 201.575 154.493L59.6289 236.228L59.6375 240.245L205.355 156.334C206.665 155.577 208.046 153.192 208.042 151.695L207.782 35.3844Z" fill="black"/>
<path d="M204.262 149.854L204.011 37.5595L62.0652 119.295C60.7556 120.052 59.3746 122.436 59.3789 123.934L59.6295 236.228L201.575 154.493C202.886 153.736 204.267 151.351 204.262 149.854Z" fill="#455A64"/>
<path d="M76.8449 249.247L76.5914 136.516C76.5821 133.317 78.8321 129.414 81.6206 127.804L221.748 47.1089C223.132 46.3097 224.388 46.2283 225.303 46.7417L220.027 43.6838V43.6881C219.104 43.1028 217.804 43.1517 216.361 43.9841L76.2343 124.68C73.4457 126.29 71.1957 130.193 71.2051 133.392L71.4585 246.123C71.4629 247.633 71.9733 248.712 72.7999 249.268L72.8049 249.272C72.8957 249.332 72.9893 249.387 73.0872 249.435L78.2906 252.465C77.4014 251.932 76.8492 250.822 76.8449 249.247Z" fill="url(#paint5_linear_371_11556)"/>
<path opacity="0.4" d="M220.027 43.6838V43.6881C219.104 43.1028 217.804 43.1517 216.361 43.9841L76.2343 124.68C74.6849 125.575 73.3025 127.179 72.3809 128.975L77.7715 132.091C78.6931 130.298 80.0726 128.699 81.6199 127.805L221.748 47.1089C223.132 46.3097 224.388 46.2283 225.303 46.7417L220.027 43.6838Z" fill="white"/>
<path opacity="0.3" d="M71.2031 133.392L71.4566 246.123C71.4609 247.633 71.9714 248.712 72.7979 249.268L72.803 249.272C72.8937 249.332 72.9873 249.387 73.0852 249.435L78.2887 252.465C77.3987 251.932 76.8465 250.822 76.8415 249.248L76.588 136.516C76.5837 135.092 77.0294 133.53 77.7688 132.091L72.3782 128.975C71.6431 130.411 71.1995 131.97 71.2031 133.392Z" fill="white"/>
<path d="M76.6016 143.051L76.8406 249.247C76.8449 250.821 77.3972 251.932 78.2878 252.464C78.3137 252.48 78.3396 252.495 78.367 252.51C78.3792 252.517 78.3929 252.522 78.4052 252.528C79.3145 253.007 80.5457 252.917 81.9036 252.132L222.031 171.436C224.815 169.829 227.069 165.924 227.06 162.725L226.821 56.3515L76.6016 143.051Z" fill="url(#paint6_linear_371_11556)"/>
<path opacity="0.5" d="M76.6016 143.051L76.8406 249.247C76.8449 250.821 77.3972 251.932 78.2878 252.464C78.3137 252.48 78.3396 252.495 78.367 252.51C78.3792 252.517 78.3929 252.522 78.4052 252.528C79.3145 253.007 80.5457 252.917 81.9036 252.132L222.031 171.436C224.815 169.829 227.069 165.924 227.06 162.725L226.821 56.3515L76.6016 143.051Z" fill="white"/>
<path d="M221.014 63.4204C222.312 62.6709 223.372 63.2714 223.376 64.7668C223.38 66.2623 222.327 68.0824 221.029 68.8319L100.911 138.269C99.613 139.018 98.5532 138.418 98.5488 136.922C98.5445 135.427 99.5979 133.607 100.896 132.857L221.014 63.4204Z" fill="url(#paint7_linear_371_11556)"/>
<g opacity="0.8">
<path d="M221.014 63.4204C222.312 62.6709 223.372 63.2714 223.376 64.7668C223.38 66.2623 222.327 68.0824 221.029 68.8319L100.911 138.269C99.613 139.018 98.5532 138.418 98.5488 136.922C98.5445 135.427 99.5979 133.607 100.896 132.857L221.014 63.4204Z" fill="white"/>
</g>
<path d="M83.2544 144.265C83.3113 144.232 83.3682 144.222 83.4135 144.244C83.51 144.289 83.5179 144.458 83.4286 144.621L82.6698 146.015L85.2315 144.536C85.3618 144.461 85.4684 144.522 85.4691 144.672C85.4698 144.821 85.3633 145.005 85.233 145.081L82.6712 146.56L83.4358 147.075C83.5258 147.134 83.5186 147.311 83.4229 147.468C83.3775 147.542 83.3206 147.599 83.2645 147.632C83.199 147.669 83.1349 147.677 83.0895 147.645L81.9591 146.884C81.9375 146.866 81.9231 146.849 81.9138 146.825C81.9022 146.794 81.8965 146.768 81.8965 146.736C81.8965 146.704 81.9015 146.671 81.9102 146.637C81.9231 146.592 81.9368 146.557 81.9555 146.524L83.0809 144.454C83.127 144.368 83.1903 144.302 83.2544 144.265Z" fill="url(#paint8_linear_371_11556)"/>
<path d="M89.7203 140.531C89.7843 140.494 89.8484 140.486 89.8952 140.517L91.0256 141.278C91.0458 141.296 91.0602 141.314 91.071 141.337C91.0811 141.368 91.0868 141.394 91.0868 141.427C91.0868 141.459 91.0811 141.492 91.0731 141.526C91.0602 141.571 91.0465 141.605 91.0292 141.638L89.9046 143.708C89.8578 143.793 89.7944 143.86 89.7303 143.896C89.6735 143.929 89.6151 143.938 89.5698 143.917C89.4747 143.871 89.4668 143.703 89.5547 143.541L90.315 142.145L87.7532 143.624C87.6229 143.7 87.5156 143.639 87.5156 143.489C87.5149 143.339 87.6215 143.155 87.7518 143.08L90.3135 141.601L89.5475 141.086C89.4589 141.026 89.4661 140.849 89.5604 140.693C89.6058 140.62 89.6627 140.564 89.7203 140.531Z" fill="url(#paint9_linear_371_11556)"/>
<path d="M94.4518 137.798C94.7341 137.634 95.0055 137.571 95.2381 137.608C95.2525 137.466 95.3504 137.308 95.4706 137.238C95.4742 137.236 95.4778 137.234 95.4814 137.232C95.6118 137.163 95.7133 137.231 95.7075 137.384L95.6881 137.989C95.683 138.135 95.5851 138.303 95.462 138.38L94.9457 138.704L94.9357 138.709C94.8097 138.782 94.706 138.73 94.6995 138.586C94.6938 138.457 94.7715 138.298 94.8788 138.207C94.7463 138.211 94.603 138.255 94.4533 138.341C93.9054 138.658 93.4618 139.425 93.4633 140.054C93.4654 140.683 93.9118 140.936 94.459 140.62C94.8219 140.41 95.156 139.989 95.3295 139.521C95.372 139.405 95.4533 139.307 95.5369 139.259C95.575 139.236 95.6139 139.225 95.6499 139.227C95.7651 139.233 95.8076 139.373 95.7457 139.54C95.4894 140.232 94.9976 140.854 94.4605 141.164C93.6519 141.63 92.9931 141.253 92.9902 140.327C92.9888 139.4 93.6433 138.265 94.4518 137.798Z" fill="url(#paint10_linear_371_11556)"/>
<g opacity="0.7">
<path d="M83.2544 144.265C83.3113 144.232 83.3682 144.222 83.4135 144.244C83.51 144.289 83.5179 144.458 83.4286 144.621L82.6698 146.015L85.2315 144.536C85.3618 144.461 85.4684 144.522 85.4691 144.672C85.4698 144.821 85.3633 145.005 85.233 145.081L82.6712 146.56L83.4358 147.075C83.5258 147.134 83.5186 147.311 83.4229 147.468C83.3775 147.542 83.3206 147.599 83.2645 147.632C83.199 147.669 83.1349 147.677 83.0895 147.645L81.9591 146.884C81.9375 146.866 81.9231 146.849 81.9138 146.825C81.9022 146.794 81.8965 146.768 81.8965 146.736C81.8965 146.704 81.9015 146.671 81.9102 146.637C81.9231 146.592 81.9368 146.557 81.9555 146.524L83.0809 144.454C83.127 144.368 83.1903 144.302 83.2544 144.265Z" fill="white"/>
<path d="M89.7203 140.531C89.7843 140.494 89.8484 140.486 89.8952 140.517L91.0256 141.278C91.0458 141.296 91.0602 141.314 91.071 141.337C91.0811 141.368 91.0868 141.394 91.0868 141.427C91.0868 141.459 91.0811 141.492 91.0731 141.526C91.0602 141.571 91.0465 141.605 91.0292 141.638L89.9046 143.708C89.8578 143.793 89.7944 143.86 89.7303 143.896C89.6735 143.929 89.6151 143.938 89.5698 143.917C89.4747 143.871 89.4668 143.703 89.5547 143.541L90.315 142.145L87.7532 143.624C87.6229 143.7 87.5156 143.639 87.5156 143.489C87.5149 143.339 87.6215 143.155 87.7518 143.08L90.3135 141.601L89.5475 141.086C89.4589 141.026 89.4661 140.849 89.5604 140.693C89.6058 140.62 89.6627 140.564 89.7203 140.531Z" fill="white"/>
<path d="M94.4518 137.798C94.7341 137.634 95.0055 137.571 95.2381 137.608C95.2525 137.466 95.3504 137.308 95.4706 137.238C95.4742 137.236 95.4778 137.234 95.4814 137.232C95.6118 137.163 95.7133 137.231 95.7075 137.384L95.6881 137.989C95.683 138.135 95.5851 138.303 95.462 138.38L94.9457 138.704L94.9357 138.709C94.8097 138.782 94.706 138.73 94.6995 138.586C94.6938 138.457 94.7715 138.298 94.8788 138.207C94.7463 138.211 94.603 138.255 94.4533 138.341C93.9054 138.658 93.4618 139.425 93.4633 140.054C93.4654 140.683 93.9118 140.936 94.459 140.62C94.8219 140.41 95.156 139.989 95.3295 139.521C95.372 139.405 95.4533 139.307 95.5369 139.259C95.575 139.236 95.6139 139.225 95.6499 139.227C95.7651 139.233 95.8076 139.373 95.7457 139.54C95.4894 140.232 94.9976 140.854 94.4605 141.164C93.6519 141.63 92.9931 141.253 92.9902 140.327C92.9888 139.4 93.6433 138.265 94.4518 137.798Z" fill="white"/>
</g>
<g opacity="0.5">
<path d="M85.3566 207.927C84.9411 207.927 84.5545 207.829 84.2096 207.631C83.3953 207.162 82.9446 206.205 82.941 204.936L82.8164 161.128C82.8092 158.658 84.5516 155.64 86.7008 154.4L139.254 124.058C140.366 123.417 141.429 123.324 142.248 123.794C143.062 124.262 143.513 125.22 143.517 126.49L143.641 170.298C143.649 172.767 141.906 175.785 139.757 177.026L87.2034 207.367C86.559 207.739 85.9304 207.927 85.3566 207.927ZM141.1 124.206C140.65 124.206 140.142 124.362 139.608 124.671L87.0543 155.012C85.1017 156.14 83.5177 158.882 83.5235 161.126L83.648 204.934C83.6509 205.939 83.9756 206.679 84.5624 207.017C85.1536 207.357 85.9657 207.264 86.8492 206.754L139.403 176.413C141.355 175.285 142.939 172.542 142.934 170.299L142.809 126.491C142.806 125.484 142.482 124.744 141.895 124.406C141.661 124.272 141.393 124.206 141.1 124.206Z" fill="white"/>
</g>
<path d="M186.803 178.065C186.627 178.065 186.461 178.023 186.315 177.939C185.98 177.746 185.787 177.353 185.786 176.861L185.574 102.097C185.572 101.208 186.174 100.163 186.945 99.7185L216.477 82.6682C216.904 82.422 217.344 82.3903 217.679 82.584C218.015 82.7769 218.207 83.17 218.209 83.6618L218.421 158.426C218.423 159.314 217.821 160.359 217.05 160.805L187.518 177.855C187.276 177.995 187.03 178.065 186.803 178.065ZM216.653 82.9742L216.83 83.2809L187.298 100.331C186.746 100.649 186.279 101.457 186.281 102.095L186.494 176.859C186.494 177.092 186.558 177.262 186.669 177.326C186.781 177.389 186.965 177.358 187.165 177.242L216.697 160.191C217.25 159.872 217.716 159.064 217.714 158.427L217.501 83.664C217.5 83.4307 217.437 83.2608 217.326 83.1974C217.217 83.134 217.03 83.1657 216.829 83.2816L216.653 82.9742Z" fill="white"/>
<path d="M112.774 196.634C113.869 196.002 114.758 196.509 114.761 197.766L114.827 221.092C114.83 222.348 113.947 223.879 112.853 224.511L84.8699 240.667C83.7755 241.299 82.8863 240.79 82.8827 239.535L82.8164 216.209C82.8128 214.951 83.6955 213.422 84.7907 212.79L112.774 196.634Z" fill="url(#paint11_linear_371_11556)"/>
<g opacity="0.2">
<path d="M112.774 196.634C113.869 196.002 114.758 196.509 114.761 197.766L114.827 221.092C114.83 222.348 113.947 223.879 112.853 224.511L84.8699 240.667C83.7755 241.299 82.8863 240.79 82.8827 239.535L82.8164 216.209C82.8128 214.951 83.6955 213.422 84.7907 212.79L112.774 196.634Z" fill="white"/>
</g>
<path d="M112.985 198.169C113.046 198.134 113.106 198.132 113.144 198.17C113.211 198.234 113.191 198.387 113.104 198.513L99.1569 218.459L113.171 222.261C113.259 222.284 113.278 222.417 113.213 222.555C113.174 222.639 113.115 222.704 113.054 222.739C113.013 222.762 112.972 222.772 112.937 222.764L98.8242 218.934L84.7792 239.02C84.7439 239.069 84.7029 239.107 84.6618 239.131C84.6014 239.166 84.5409 239.17 84.5013 239.131C84.4365 239.068 84.4545 238.915 84.543 238.789L98.4902 218.844L84.4761 215.042C84.3868 215.017 84.3688 214.886 84.4322 214.747C84.471 214.664 84.5315 214.597 84.5927 214.562C84.6338 214.538 84.6748 214.529 84.7101 214.539L98.8228 218.369L112.868 198.283C112.903 198.231 112.944 198.192 112.985 198.169Z" fill="white"/>
<path d="M147.116 177.295C148.211 176.663 149.099 177.17 149.103 178.427L149.169 201.753C149.173 203.009 148.289 204.54 147.195 205.173L119.213 221.328C118.118 221.96 117.229 221.451 117.226 220.195L117.16 196.87C117.157 195.612 118.039 194.082 119.134 193.45L147.116 177.295Z" fill="url(#paint12_linear_371_11556)"/>
<g opacity="0.2">
<path d="M147.116 177.295C148.211 176.663 149.099 177.17 149.103 178.427L149.169 201.753C149.173 203.009 148.289 204.54 147.195 205.173L119.213 221.328C118.118 221.96 117.229 221.451 117.226 220.195L117.16 196.87C117.157 195.612 118.039 194.082 119.134 193.45L147.116 177.295Z" fill="white"/>
</g>
<path d="M147.327 178.829C147.387 178.794 147.448 178.792 147.486 178.829C147.552 178.893 147.533 179.046 147.446 179.173L133.499 199.118L147.513 202.92C147.601 202.943 147.62 203.076 147.555 203.214C147.516 203.298 147.457 203.363 147.396 203.398C147.355 203.422 147.314 203.431 147.279 203.423L133.166 199.593L119.121 219.679C119.086 219.728 119.045 219.766 119.004 219.79C118.943 219.825 118.883 219.83 118.843 219.791C118.778 219.727 118.796 219.574 118.885 219.449L132.832 199.503L118.818 195.701C118.729 195.677 118.711 195.545 118.774 195.406C118.814 195.323 118.873 195.256 118.935 195.221C118.976 195.197 119.017 195.188 119.052 195.198L133.165 199.028L147.21 178.942C147.245 178.891 147.286 178.853 147.327 178.829Z" fill="white"/>
<path d="M181.02 157.778C182.115 157.146 183.003 157.653 183.007 158.91L183.073 182.236C183.077 183.492 182.193 185.023 181.099 185.656L153.116 201.812C152.022 202.444 151.132 201.935 151.129 200.679L151.063 177.353C151.059 176.095 151.942 174.566 153.037 173.934L181.02 157.778Z" fill="url(#paint13_linear_371_11556)"/>
<g opacity="0.2">
<path d="M181.02 157.778C182.115 157.146 183.003 157.653 183.007 158.91L183.073 182.236C183.077 183.492 182.193 185.023 181.099 185.656L153.116 201.812C152.022 202.444 151.132 201.935 151.129 200.679L151.063 177.353C151.059 176.095 151.942 174.566 153.037 173.934L181.02 157.778Z" fill="white"/>
</g>
<path d="M181.235 159.312C181.296 159.277 181.356 159.275 181.394 159.312C181.461 159.376 181.441 159.529 181.354 159.656L167.407 179.602L181.421 183.404C181.509 183.427 181.528 183.56 181.463 183.698C181.424 183.782 181.365 183.847 181.304 183.881C181.263 183.905 181.222 183.915 181.187 183.907L167.074 180.077L153.029 200.163C152.994 200.212 152.953 200.25 152.912 200.274C152.851 200.309 152.791 200.313 152.751 200.274C152.686 200.211 152.704 200.058 152.793 199.932L166.74 179.987L152.726 176.184C152.637 176.159 152.619 176.028 152.682 175.889C152.722 175.806 152.782 175.739 152.843 175.704C152.884 175.68 152.925 175.671 152.96 175.681L167.073 179.511L181.118 159.425C181.153 159.374 181.194 159.336 181.235 159.312Z" fill="white"/>
<path d="M178.306 105.863C180.131 104.809 181.617 105.656 181.623 107.753C181.629 109.85 180.154 112.403 178.328 113.456L150.798 129.35C148.973 130.404 147.491 129.56 147.484 127.462C147.479 125.365 148.95 122.811 150.776 121.757L178.306 105.863Z" fill="url(#paint14_linear_371_11556)"/>
<g opacity="0.2">
<path d="M178.306 105.863C180.131 104.809 181.617 105.656 181.623 107.753C181.629 109.85 180.154 112.403 178.328 113.456L150.798 129.35C148.973 130.404 147.491 129.56 147.484 127.462C147.479 125.365 148.95 122.811 150.776 121.757L178.306 105.863Z" fill="white"/>
</g>
<path d="M178.306 116.52C180.131 115.466 181.617 116.312 181.623 118.41C181.629 120.507 180.154 123.06 178.328 124.113L150.798 140.007C148.973 141.061 147.491 140.216 147.484 138.119C147.479 136.022 148.95 133.468 150.776 132.414L178.306 116.52Z" fill="url(#paint15_linear_371_11556)"/>
<g opacity="0.2">
<path d="M178.306 116.52C180.131 115.466 181.617 116.312 181.623 118.41C181.629 120.507 180.154 123.06 178.328 124.113L150.798 140.007C148.973 141.061 147.491 140.216 147.484 138.119C147.479 136.022 148.95 133.468 150.776 132.414L178.306 116.52Z" fill="white"/>
</g>
<path d="M178.306 127.176C180.131 126.122 181.617 126.969 181.623 129.066C181.629 131.164 180.154 133.716 178.328 134.77L150.798 150.664C148.973 151.718 147.491 150.873 147.484 148.776C147.479 146.678 148.95 144.125 150.776 143.07L178.306 127.176Z" fill="url(#paint16_linear_371_11556)"/>
<g opacity="0.2">
<path d="M178.306 127.176C180.131 126.122 181.617 126.969 181.623 129.066C181.629 131.164 180.154 133.716 178.328 134.77L150.798 150.664C148.973 151.718 147.491 150.873 147.484 148.776C147.479 146.678 148.95 144.125 150.776 143.07L178.306 127.176Z" fill="white"/>
</g>
<path d="M226.805 49.9939C226.8 48.42 226.247 47.3105 225.356 46.7777C225.347 46.7726 225.34 46.7661 225.332 46.7611C225.32 46.7546 225.309 46.7481 225.298 46.7417C224.383 46.229 223.126 46.3104 221.742 47.1089L81.6152 127.805C78.8266 129.415 76.5766 133.317 76.586 136.516L76.6004 143.052L226.819 56.3522L226.805 49.9939Z" fill="url(#paint17_linear_371_11556)"/>
<path opacity="0.3" d="M226.805 49.9939C226.8 48.42 226.247 47.3105 225.356 46.7777C225.347 46.7726 225.34 46.7661 225.332 46.7611C225.32 46.7546 225.309 46.7481 225.298 46.7417C224.383 46.229 223.126 46.3104 221.742 47.1089L81.6152 127.805C78.8266 129.415 76.5766 133.317 76.586 136.516L76.6004 143.052L226.819 56.3522L226.805 49.9939Z" fill="black"/>
<g opacity="0.5">
<path d="M83.2622 132.373C84.0218 131.935 84.6403 132.287 84.6425 133.16C84.6446 134.034 84.0312 135.097 83.2709 135.536C82.5113 135.974 81.8928 135.622 81.8906 134.749C81.8885 133.876 82.5026 132.813 83.2622 132.373Z" fill="white"/>
<path d="M87.02 130.204C87.7796 129.766 88.3981 130.118 88.4003 130.99C88.4024 131.864 87.7883 132.927 87.0287 133.366C86.2691 133.804 85.6506 133.452 85.6484 132.579C85.6463 131.706 86.2604 130.643 87.02 130.204Z" fill="white"/>
<path d="M90.7779 128.034C91.5375 127.596 92.1559 127.948 92.1581 128.821C92.1603 129.694 91.5461 130.758 90.7865 131.196C90.0269 131.635 89.4084 131.283 89.4063 130.409C89.4034 129.537 90.0175 128.472 90.7779 128.034Z" fill="white"/>
</g>
<path d="M83.2622 132.373C84.0218 131.935 84.6403 132.287 84.6425 133.16C84.6446 134.034 84.0312 135.097 83.2709 135.536C82.5113 135.974 81.8928 135.622 81.8906 134.749C81.8885 133.876 82.5026 132.813 83.2622 132.373Z" fill="url(#paint18_linear_371_11556)"/>
<path d="M87.02 130.204C87.7796 129.766 88.3981 130.118 88.4003 130.99C88.4024 131.864 87.7883 132.927 87.0287 133.366C86.2691 133.804 85.6506 133.452 85.6484 132.579C85.6463 131.706 86.2604 130.643 87.02 130.204Z" fill="url(#paint19_linear_371_11556)"/>
<path d="M90.7779 128.034C91.5375 127.596 92.1559 127.948 92.1581 128.821C92.1603 129.694 91.5461 130.758 90.7865 131.196C90.0269 131.635 89.4084 131.283 89.4063 130.409C89.4034 129.537 90.0175 128.472 90.7779 128.034Z" fill="url(#paint20_linear_371_11556)"/>
<path d="M86.9137 296.873L77.5645 297.145L68.2153 296.873C67.8128 303.186 69.0455 309.621 70.7447 312.764L70.7512 312.763C71.0557 313.453 71.667 314.106 72.6016 314.646C75.3606 316.239 79.8181 316.239 82.5592 314.646C83.5096 314.094 84.1208 313.422 84.4088 312.715C86.0958 309.554 87.3148 303.155 86.9137 296.873Z" fill="white"/>
<path d="M84.1515 293.043C87.8148 295.158 87.8343 298.587 84.1947 300.702C80.5551 302.817 74.636 302.817 70.9726 300.702C67.31 298.587 67.2905 295.158 70.9294 293.043C74.569 290.928 80.4881 290.928 84.1515 293.043Z" fill="#FFE4BB"/>
<path d="M82.7043 293.885C85.562 295.535 85.5771 298.21 82.7382 299.86C79.8992 301.51 75.2804 301.51 72.4227 299.86C69.565 298.21 69.5499 295.535 72.3889 293.885C75.2286 292.235 79.8466 292.235 82.7043 293.885Z" fill="#FFEDD2"/>
<g opacity="0.15">
<path d="M82.7043 293.885C85.562 295.535 85.5771 298.21 82.7382 299.86C79.8992 301.51 75.2804 301.51 72.4227 299.86C69.565 298.21 69.5499 295.535 72.3889 293.885C75.2286 292.235 79.8466 292.235 82.7043 293.885Z" fill="black"/>
</g>
<path d="M72.7952 277.739C71.2746 275.849 69.5084 274.155 68.1145 272.17C67.1634 270.816 66.3678 269.158 66.7681 267.551C67.1389 266.061 68.5321 264.953 70.0412 264.671C71.5511 264.388 73.1308 264.839 74.4347 265.651C75.7386 266.462 76.7984 267.61 77.7553 268.811C82.9868 275.376 85.5349 284.018 84.7033 292.371C84.6083 293.329 84.4477 294.336 83.8357 295.078C83.1798 295.875 82.0307 296.226 81.0407 295.933C78.494 295.177 78.8317 291.737 78.4156 289.712C77.8446 286.938 76.8546 284.251 75.4902 281.77C74.7104 280.351 73.809 279 72.7952 277.739Z" fill="url(#paint21_linear_371_11556)"/>
<path opacity="0.2" d="M72.7952 277.739C71.2746 275.849 69.5084 274.155 68.1145 272.17C67.1634 270.816 66.3678 269.158 66.7681 267.551C67.1389 266.061 68.5321 264.953 70.0412 264.671C71.5511 264.388 73.1308 264.839 74.4347 265.651C75.7386 266.462 76.7984 267.61 77.7553 268.811C82.9868 275.376 85.5349 284.018 84.7033 292.371C84.6083 293.329 84.4477 294.336 83.8357 295.078C83.1798 295.875 82.0307 296.226 81.0407 295.933C78.494 295.177 78.8317 291.737 78.4156 289.712C77.8446 286.938 76.8546 284.251 75.4902 281.77C74.7104 280.351 73.809 279 72.7952 277.739Z" fill="white"/>
<path d="M81.2004 293.368C81.1018 293.349 81.0254 293.264 81.0204 293.159C80.8418 289.071 79.5134 275.116 69.8957 267.198C69.8006 267.121 69.787 266.98 69.8654 266.885C69.9439 266.789 70.0836 266.777 70.1794 266.854C79.939 274.889 81.2854 289.005 81.4661 293.14C81.4711 293.263 81.3754 293.367 81.253 293.373C81.235 293.373 81.2177 293.372 81.2004 293.368Z" fill="#FEF3E2"/>
<path d="M82.6047 293.811C82.3138 295.416 80.935 297.402 79.4821 298.141C78.0414 298.874 76.3688 299.071 74.7567 298.932C73.1151 298.791 71.521 298.32 69.9601 297.794C69.189 297.534 68.3322 297.184 68.2501 296.229C68.2069 295.725 68.433 295.237 68.7951 294.884C68.947 294.736 69.1148 294.592 69.2926 294.455C69.6555 294.178 69.4849 293.602 69.0298 293.57C68.5712 293.538 68.1147 293.487 67.6626 293.401C66.6186 293.201 65.5911 292.803 64.7919 292.103C64.1922 291.576 63.7378 290.89 63.4664 290.139C63.2338 289.497 63.169 288.691 63.6558 288.212C63.9351 287.937 64.3362 287.832 64.7192 287.749C65.0612 287.675 65.4039 287.613 65.7474 287.559C66.2038 287.488 66.2794 286.865 65.8532 286.687L64.4031 286.083C63.9999 285.916 63.5809 285.736 63.3022 285.4C62.858 284.864 62.8897 284.085 63.0229 283.402C63.2 282.494 63.5139 281.619 63.7278 280.719C63.9416 279.819 64.0539 278.868 63.8235 277.973C66.5322 277.698 69.3142 277.827 71.9487 278.515C72.7357 278.72 73.5313 278.978 74.1663 279.486C75.0706 280.21 75.3061 281.295 75.2103 282.473C75.1923 282.696 75.499 282.78 75.6056 282.583L76.5322 280.874C76.8116 280.359 77.443 280.165 77.9737 280.414C78.7736 280.789 79.4871 281.39 80.0934 282.081C80.7464 282.825 81.0805 283.806 81.0006 284.794C80.8926 286.129 80.6593 287.481 80.3252 288.776C80.2374 289.115 80.6175 289.371 80.9019 289.166L80.9458 289.135C81.1993 288.952 81.5096 288.842 81.8199 288.881C82.6393 288.982 82.8481 289.812 82.9028 290.519C82.9791 291.539 82.7984 292.745 82.6047 293.811Z" fill="url(#paint22_linear_371_11556)"/>
<path opacity="0.2" d="M82.6047 293.811C82.3138 295.416 80.935 297.402 79.4821 298.141C78.0414 298.874 76.3688 299.071 74.7567 298.932C73.1151 298.791 71.521 298.32 69.9601 297.794C69.189 297.534 68.3322 297.184 68.2501 296.229C68.2069 295.725 68.433 295.237 68.7951 294.884C68.947 294.736 69.1148 294.592 69.2926 294.455C69.6555 294.178 69.4849 293.602 69.0298 293.57C68.5712 293.538 68.1147 293.487 67.6626 293.401C66.6186 293.201 65.5911 292.803 64.7919 292.103C64.1922 291.576 63.7378 290.89 63.4664 290.139C63.2338 289.497 63.169 288.691 63.6558 288.212C63.9351 287.937 64.3362 287.832 64.7192 287.749C65.0612 287.675 65.4039 287.613 65.7474 287.559C66.2038 287.488 66.2794 286.865 65.8532 286.687L64.4031 286.083C63.9999 285.916 63.5809 285.736 63.3022 285.4C62.858 284.864 62.8897 284.085 63.0229 283.402C63.2 282.494 63.5139 281.619 63.7278 280.719C63.9416 279.819 64.0539 278.868 63.8235 277.973C66.5322 277.698 69.3142 277.827 71.9487 278.515C72.7357 278.72 73.5313 278.978 74.1663 279.486C75.0706 280.21 75.3061 281.295 75.2103 282.473C75.1923 282.696 75.499 282.78 75.6056 282.583L76.5322 280.874C76.8116 280.359 77.443 280.165 77.9737 280.414C78.7736 280.789 79.4871 281.39 80.0934 282.081C80.7464 282.825 81.0805 283.806 81.0006 284.794C80.8926 286.129 80.6593 287.481 80.3252 288.776C80.2374 289.115 80.6175 289.371 80.9019 289.166L80.9458 289.135C81.1993 288.952 81.5096 288.842 81.8199 288.881C82.6393 288.982 82.8481 289.812 82.9028 290.519C82.9791 291.539 82.7984 292.745 82.6047 293.811Z" fill="black"/>
<path opacity="0.2" d="M82.6047 293.811C82.3138 295.416 80.935 297.402 79.4821 298.141C78.0414 298.874 76.3688 299.071 74.7567 298.932C73.1151 298.791 71.521 298.32 69.9601 297.794C69.189 297.534 68.3322 297.184 68.2501 296.229C68.2069 295.725 68.433 295.237 68.7951 294.884C68.947 294.736 69.1148 294.592 69.2926 294.455C69.6555 294.178 69.4849 293.602 69.0298 293.57C68.5712 293.538 68.1147 293.487 67.6626 293.401C66.6186 293.201 65.5911 292.803 64.7919 292.103C64.1922 291.576 63.7378 290.89 63.4664 290.139C63.2338 289.497 63.169 288.691 63.6558 288.212C63.9351 287.937 64.3362 287.832 64.7192 287.749C65.0612 287.675 65.4039 287.613 65.7474 287.559C66.2038 287.488 66.2794 286.865 65.8532 286.687L64.4031 286.083C63.9999 285.916 63.5809 285.736 63.3022 285.4C62.858 284.864 62.8897 284.085 63.0229 283.402C63.2 282.494 63.5139 281.619 63.7278 280.719C63.9416 279.819 64.0539 278.868 63.8235 277.973C66.5322 277.698 69.3142 277.827 71.9487 278.515C72.7357 278.72 73.5313 278.978 74.1663 279.486C75.0706 280.21 75.3061 281.295 75.2103 282.473C75.1923 282.696 75.499 282.78 75.6056 282.583L76.5322 280.874C76.8116 280.359 77.443 280.165 77.9737 280.414C78.7736 280.789 79.4871 281.39 80.0934 282.081C80.7464 282.825 81.0805 283.806 81.0006 284.794C80.8926 286.129 80.6593 287.481 80.3252 288.776C80.2374 289.115 80.6175 289.371 80.9019 289.166L80.9458 289.135C81.1993 288.952 81.5096 288.842 81.8199 288.881C82.6393 288.982 82.8481 289.812 82.9028 290.519C82.9791 291.539 82.7984 292.745 82.6047 293.811Z" fill="white"/>
<path d="M78.295 297.918C78.2835 297.861 77.7226 295.142 76.1098 291.585C76.1098 291.521 76.0824 291.461 76.0327 291.419C75.9823 291.308 75.9327 291.199 75.8801 291.087C76.3431 286.834 78.0279 283.866 78.0444 283.836C78.1056 283.73 78.0689 283.594 77.9623 283.532C77.8558 283.472 77.7197 283.507 77.6585 283.614C77.6419 283.643 76.0918 286.372 75.5244 290.354C73.6747 286.645 70.7242 282.306 66.1687 279.136C66.0672 279.066 65.929 279.091 65.8584 279.192C65.7879 279.292 65.8131 279.431 65.9139 279.502C70.6126 282.771 73.5775 287.304 75.3797 291.066C71.7084 289.279 67.8082 289.985 67.6347 290.017C67.5137 290.04 67.4345 290.156 67.4575 290.278C67.4748 290.37 67.5468 290.438 67.6332 290.455C67.6606 290.46 67.6894 290.461 67.7182 290.455C67.7607 290.447 72.013 289.674 75.6893 291.73C77.2899 295.251 77.8464 297.947 77.8579 298.004C77.8759 298.095 77.9479 298.162 78.0336 298.179C78.061 298.185 78.0905 298.185 78.1193 298.179C78.2403 298.156 78.3187 298.038 78.295 297.918Z" fill="#FEF3E2"/>
<path d="M306.904 204.896L296.906 205.188L286.908 204.896C286.478 211.648 287.796 218.529 289.613 221.89L289.62 221.889C289.946 222.626 290.6 223.326 291.6 223.903C294.55 225.606 299.317 225.606 302.248 223.903C303.264 223.312 303.917 222.594 304.226 221.837C306.028 218.457 307.332 211.614 306.904 204.896Z" fill="white"/>
<path d="M303.953 200.802C307.87 203.063 307.89 206.729 303.999 208.992C300.107 211.253 293.777 211.253 289.859 208.992C285.943 206.73 285.922 203.064 289.813 200.802C293.706 198.54 300.036 198.54 303.953 200.802Z" fill="#FFE4BB"/>
<path d="M302.404 201.702C305.461 203.466 305.477 206.327 302.44 208.091C299.404 209.856 294.466 209.856 291.41 208.091C288.354 206.326 288.338 203.466 291.374 201.702C294.41 199.937 299.349 199.937 302.404 201.702Z" fill="#FFEDD2"/>
<g opacity="0.15">
<path d="M302.404 201.702C305.461 203.466 305.477 206.327 302.44 208.091C299.404 209.856 294.466 209.856 291.41 208.091C288.354 206.326 288.338 203.466 291.374 201.702C294.41 199.937 299.349 199.937 302.404 201.702Z" fill="black"/>
</g>
<path d="M313.344 162.234C290.814 169.611 290.609 184.684 295.689 195.417C296.97 197.59 300.846 198.757 304.221 185.408L298.303 186.167L305.199 182.671L306.991 177.317L301.241 177.744L308.54 174.673C311.228 166.54 313.344 162.234 313.344 162.234Z" fill="url(#paint23_linear_371_11556)"/>
<path opacity="0.2" d="M313.344 162.234C290.814 169.611 290.609 184.684 295.689 195.417C296.97 197.59 300.846 198.757 304.221 185.408L298.303 186.167L305.199 182.671L306.991 177.317L301.241 177.744L308.54 174.673C311.228 166.54 313.344 162.234 313.344 162.234Z" fill="black"/>
<path opacity="0.2" d="M313.344 162.234C290.814 169.611 290.609 184.684 295.689 195.417C296.97 197.59 300.846 198.757 304.221 185.408L298.303 186.167L305.199 182.671L306.991 177.317L301.241 177.744L308.54 174.673C311.228 166.54 313.344 162.234 313.344 162.234Z" fill="white"/>
<path d="M306.971 166.003C295.09 175.021 294.017 185.359 297.373 196.153C296.187 186.649 294.903 177.039 306.971 166.003Z" fill="white"/>
<path d="M275.18 177.545C297.388 180.672 300.082 194.676 297.135 205.515C296.304 207.752 292.887 209.483 287.526 197.611L293.164 197.335L286.16 195.225L283.602 190.536L289.028 189.978L281.721 188.333C277.866 181.203 275.18 177.545 275.18 177.545Z" fill="url(#paint24_linear_371_11556)"/>
<path opacity="0.2" d="M275.18 177.545C297.388 180.672 300.082 194.676 297.135 205.515C296.304 207.752 292.887 209.483 287.526 197.611L293.164 197.335L286.16 195.225L283.602 190.536L289.028 189.978L281.721 188.333C277.866 181.203 275.18 177.545 275.18 177.545Z" fill="white"/>
<path opacity="0.1" d="M275.18 177.545C297.388 180.672 300.082 194.676 297.135 205.515C296.304 207.752 292.887 209.483 287.526 197.611L293.164 197.335L286.16 195.225L283.602 190.536L289.028 189.978L281.721 188.333C277.866 181.203 275.18 177.545 275.18 177.545Z" fill="black"/>
<path d="M281.742 179.996C294.305 186.42 297.022 195.871 295.689 206.48C295.216 197.432 294.815 188.27 281.742 179.996Z" fill="white"/>
<path d="M319.842 182.793C299.475 183.126 295.479 195.446 296.922 205.546C297.422 207.655 300.307 209.597 306.467 199.498L301.417 198.617L307.965 197.5L310.796 193.56L305.967 192.45L312.737 191.784C317.011 185.79 319.842 182.793 319.842 182.793Z" fill="url(#paint25_linear_371_11556)"/>
<path d="M313.655 184.268C301.612 188.652 298.106 196.865 298.119 206.577C299.558 198.475 300.946 190.261 313.655 184.268Z" fill="white"/>
<path opacity="0.2" d="M319.842 182.793C299.475 183.126 295.479 195.446 296.922 205.546C297.422 207.655 300.307 209.597 306.467 199.498L301.417 198.617L307.965 197.5L310.796 193.56L305.967 192.45L312.737 191.784C317.011 185.79 319.842 182.793 319.842 182.793Z" fill="white"/>
<path d="M241.337 103.686L241.32 110.367L242.515 120.846L244.251 131.047L250.223 131.743L247.78 120.846L243.155 102.811L241.337 103.686Z" fill="#FFA8A7"/>
<path d="M243.707 129.797C247.825 128.259 250.519 130.421 250.519 130.421L251.193 147.894L243.844 143.689L243.707 129.797Z" fill="url(#paint26_linear_371_11556)"/>
<path d="M243.707 129.797C247.825 128.259 250.519 130.421 250.519 130.421L251.193 147.894L243.844 143.689L243.707 129.797Z" fill="url(#paint27_linear_371_11556)"/>
<path opacity="0.3" d="M243.707 129.797C247.825 128.259 250.519 130.421 250.519 130.421L251.193 147.894L243.844 143.689L243.707 129.797Z" fill="black"/>
<path opacity="0.3" d="M243.707 129.797C247.825 128.259 250.519 130.421 250.519 130.421L251.193 147.894L243.844 143.689L243.707 129.797Z" fill="white"/>
<path d="M240.046 79.5564C240.722 79.1654 241.274 79.4801 241.275 80.2605L241.492 156.776C241.494 157.557 240.946 158.506 240.27 158.896L210.047 176.346C209.37 176.737 208.819 176.422 208.816 175.642L208.6 99.126C208.597 98.3455 209.145 97.3966 209.821 97.0063L240.046 79.5564Z" fill="url(#paint28_linear_371_11556)"/>
<g opacity="0.2">
<path d="M240.046 79.5564C240.722 79.1654 241.274 79.4801 241.275 80.2605L241.492 156.776C241.494 157.557 240.946 158.506 240.27 158.896L210.047 176.346C209.37 176.737 208.819 176.422 208.816 175.642L208.6 99.126C208.597 98.3455 209.145 97.3966 209.821 97.0063L240.046 79.5564Z" fill="black"/>
</g>
<g opacity="0.1">
<path d="M240.046 79.5564C240.722 79.1654 241.274 79.4801 241.275 80.2605L241.492 156.776C241.494 157.557 240.946 158.506 240.27 158.896L210.047 176.346C209.37 176.737 208.819 176.422 208.816 175.642L208.6 99.126C208.597 98.3455 209.145 97.3966 209.821 97.0063L240.046 79.5564Z" fill="white"/>
</g>
<path d="M239.634 82.1937C239.917 82.1455 239.984 82.3169 239.916 82.5314L225.387 127.756L240.124 156.081C240.193 156.218 240.127 156.467 239.973 156.638C239.731 156.81 239.62 156.798 239.567 156.698L225.049 128.799L210.74 173.341C210.688 173.501 210.578 173.641 210.461 173.708C210.179 173.756 210.113 173.585 210.181 173.367L224.71 128.146L209.973 99.8186C209.903 99.684 209.969 99.4363 210.124 99.2642C210.368 99.0907 210.479 99.1037 210.53 99.2045L225.044 127.104L239.356 82.5617C239.407 82.4025 239.518 82.2614 239.634 82.1937Z" fill="white"/>
<path d="M222.161 139.686L215.673 137.523L211.4 121.388C211.3 120.916 211.342 120.425 211.521 119.976L211.971 118.851C212.208 118.258 212.319 117.623 212.298 116.984L212.218 114.517C212.205 114.111 211.871 113.79 211.465 113.79C211.101 113.79 210.789 114.05 210.724 114.409L210.338 116.55L209.433 117.59L208.614 114.661V110.94L206.769 113.617C206.272 114.338 206.075 115.222 206.217 116.086L206.99 120.771L209.068 138.908C209.375 141.584 211.142 143.868 213.655 144.838L220.472 147.469L222.161 139.686Z" fill="#FFA8A7"/>
<path d="M236.064 237.849C235.713 238.956 234.499 239.59 233.34 239.682C232.183 239.774 231.038 239.449 229.895 239.241C227.335 238.778 224.868 239.237 222.316 239.177C221.478 239.158 220.633 239.119 219.823 238.907C219.013 238.694 218.23 238.293 217.692 237.651C217.374 237.272 217.155 236.801 217.078 236.315C216.953 237.045 217.211 237.827 217.692 238.399C218.23 239.041 219.013 239.442 219.823 239.655C220.634 239.868 221.478 239.906 222.316 239.926C224.868 239.985 227.335 239.526 229.895 239.99C231.038 240.197 232.182 240.522 233.34 240.43C234.498 240.338 235.713 239.704 236.064 238.597C236.185 238.216 236.193 237.817 236.153 237.418C236.136 237.563 236.109 237.708 236.064 237.849Z" fill="#455A64"/>
<path d="M235.999 235.728C235.842 234.952 235.685 234.178 235.528 233.402C235.445 232.993 235.358 232.572 235.134 232.219C234.91 231.865 234.516 231.589 234.099 231.627C232.697 231.44 230.726 230.933 229.562 231.735C227.739 232.99 225.506 233.638 223.294 233.555C222.136 233.511 220.977 233.274 219.826 233.415C218.677 233.556 217.479 234.197 217.138 235.304C217.036 235.631 217.025 235.976 217.078 236.313C217.156 236.8 217.373 237.27 217.692 237.65C218.23 238.291 219.013 238.693 219.823 238.905C220.634 239.118 221.478 239.157 222.315 239.176C224.868 239.236 227.335 238.776 229.895 239.24C231.038 239.447 232.182 239.773 233.34 239.681C234.498 239.589 235.712 238.955 236.064 237.848C236.108 237.706 236.135 237.562 236.152 237.416C236.22 236.863 236.111 236.284 235.999 235.728Z" fill="#37474F"/>
<path d="M229.222 229.301L229.122 232.33C229.1 232.973 229.591 233.525 230.234 233.568C231.275 233.637 232.288 233.633 233.287 233.538C234.137 233.459 234.803 232.769 234.848 231.916L234.968 229.679L229.222 229.301Z" fill="#FFA8A7"/>
<path d="M248.998 227.689C248.966 228.139 248.859 228.582 248.592 228.94C248.258 229.389 247.713 229.642 247.162 229.745C245.833 229.994 244.383 229.397 243.614 228.284C243.233 227.732 243.017 227.084 242.656 226.519C242.155 225.734 241.404 225.15 240.666 224.584C239.928 224.018 239.174 223.44 238.662 222.663C238.167 221.912 237.939 220.928 238.279 220.1C238.208 220.202 238.144 220.308 238.091 220.423C237.692 221.293 237.928 222.351 238.45 223.152C238.972 223.952 239.743 224.549 240.496 225.132C241.249 225.715 242.015 226.318 242.526 227.126C242.893 227.709 243.114 228.378 243.503 228.946C244.288 230.093 245.768 230.708 247.124 230.451C247.686 230.345 248.242 230.085 248.583 229.622C248.943 229.134 249.018 228.49 249.007 227.882C249.006 227.817 249 227.753 248.998 227.689Z" fill="#455A64"/>
<path d="M248.08 223.886C247.159 222.272 245.26 221.098 243.795 219.955C242.964 219.306 242.007 218.753 240.956 218.665C239.905 218.578 238.754 219.06 238.312 220.017C238.299 220.044 238.292 220.073 238.281 220.101C237.942 220.928 238.168 221.913 238.664 222.664C239.176 223.44 239.93 224.019 240.668 224.585C241.406 225.15 242.157 225.735 242.658 226.519C243.018 227.084 243.235 227.733 243.616 228.285C244.385 229.397 245.835 229.994 247.164 229.746C247.714 229.643 248.259 229.39 248.594 228.941C248.86 228.583 248.968 228.139 248.999 227.689C249.009 227.543 249.012 227.397 249.009 227.252C248.985 226.076 248.662 224.907 248.08 223.886Z" fill="#37474F"/>
<path d="M244.088 222.486V225.24C246.6 226.289 248.372 225.05 248.372 225.05L248.63 222.573L244.088 222.486Z" fill="#FFA8A7"/>
<path d="M249.354 172.537C250.18 175.015 249.165 186.784 248.683 198.071C250.473 202.339 249.991 214.451 248.958 223.055C248.958 223.055 247.169 224.155 243.934 223.055L239.874 199.31L239.31 185.89C239.31 185.89 238.29 197.796 237.12 205.436C238.221 211.286 237.946 212.387 235.227 230.382C235.227 230.382 232.44 232.003 229.136 230.382C227.599 205.101 228.164 182.062 228.455 173.777L249.354 172.537Z" fill="#455A64"/>
<path opacity="0.3" d="M239.653 194.062L239.193 183.116C242.022 183.116 244.647 181.001 246.643 178.997C244.725 182.413 241.008 183.928 241.008 183.928L239.653 194.062Z" fill="black"/>
<path d="M228.025 174.447C240.647 179.735 248.826 174.958 249.936 172.472C249.355 163.747 251.417 153.54 251.258 149.204C251.1 144.868 250.568 139.982 243.845 140.962L236.694 141.66L233.067 142.541L228.716 151.577L228.025 174.447Z" fill="url(#paint29_linear_371_11556)"/>
<path opacity="0.2" d="M228.025 174.447C240.647 179.735 248.826 174.958 249.936 172.472C249.355 163.747 251.417 153.54 251.258 149.204C251.1 144.868 250.568 139.982 243.845 140.962L236.694 141.66L233.067 142.541L228.716 151.577L228.025 174.447Z" fill="black"/>
<path opacity="0.3" d="M228.025 174.447C240.647 179.735 248.826 174.958 249.936 172.472C249.355 163.747 251.417 153.54 251.258 149.204C251.1 144.868 250.568 139.982 243.845 140.962L236.694 141.66L233.067 142.541L228.716 151.577L228.025 174.447Z" fill="white"/>
<path d="M243.843 137.534C244.27 137.591 244.947 137.378 245.24 137.062C245.533 136.746 245.66 136.284 245.571 135.863C245.995 135.786 246.37 135.482 246.532 135.083C246.695 134.685 246.557 134.127 246.308 133.777C246.921 133.622 247.456 133.185 247.73 132.615C248.004 132.046 248.055 131.309 247.793 130.734C248.467 130.563 249.031 130.014 249.222 129.346C249.413 128.678 249.297 127.809 248.817 127.308C249.405 126.542 249.532 125.449 249.137 124.569C248.742 123.689 247.748 123.051 246.785 122.982C246.934 122.055 246.572 121.063 245.862 120.448C245.152 119.833 244.159 119.66 243.262 119.94C242.955 119.156 242.21 118.561 241.377 118.435C240.544 118.309 239.625 118.567 239.099 119.226C238.69 118.755 238.033 118.513 237.415 118.605C236.798 118.697 236.145 119.039 235.891 119.609C235.097 119.254 234.124 119.336 233.401 119.817C232.677 120.299 232.26 121.185 232.281 122.054C231.641 122.227 231.166 122.881 231.201 123.543C231.235 124.206 231.791 124.872 232.446 124.978C233.066 128.37 234.222 131.735 235.799 134.801C236.507 136.179 237.376 137.578 238.751 138.293C240.238 139.067 242.571 138.624 243.843 137.534Z" fill="#455A64"/>
<path d="M243.843 137.534C244.27 137.591 244.947 137.378 245.24 137.062C245.533 136.746 245.66 136.284 245.571 135.863C245.995 135.786 246.37 135.482 246.532 135.083C246.695 134.685 246.557 134.127 246.308 133.777C246.921 133.622 247.456 133.185 247.73 132.615C248.004 132.046 248.055 131.309 247.793 130.734C248.467 130.563 249.031 130.014 249.222 129.346C249.413 128.678 249.297 127.809 248.817 127.308C249.405 126.542 249.532 125.449 249.137 124.569C248.742 123.689 247.748 123.051 246.785 122.982C246.934 122.055 246.572 121.063 245.862 120.448C245.152 119.833 244.159 119.66 243.262 119.94C242.955 119.156 242.21 118.561 241.377 118.435C240.544 118.309 239.625 118.567 239.099 119.226C238.69 118.755 238.033 118.513 237.415 118.605C236.798 118.697 236.145 119.039 235.891 119.609C235.097 119.254 234.124 119.336 233.401 119.817C232.677 120.299 232.26 121.185 232.281 122.054C231.641 122.227 231.166 122.881 231.201 123.543C231.235 124.206 231.791 124.872 232.446 124.978C233.066 128.37 234.222 131.735 235.799 134.801C236.507 136.179 237.376 137.578 238.751 138.293C240.238 139.067 242.571 138.624 243.843 137.534Z" fill="url(#paint30_linear_371_11556)"/>
<path opacity="0.7" d="M243.843 137.534C244.27 137.591 244.947 137.378 245.24 137.062C245.533 136.746 245.66 136.284 245.571 135.863C245.995 135.786 246.37 135.482 246.532 135.083C246.695 134.685 246.557 134.127 246.308 133.777C246.921 133.622 247.456 133.185 247.73 132.615C248.004 132.046 248.055 131.309 247.793 130.734C248.467 130.563 249.031 130.014 249.222 129.346C249.413 128.678 249.297 127.809 248.817 127.308C249.405 126.542 249.532 125.449 249.137 124.569C248.742 123.689 247.748 123.051 246.785 122.982C246.934 122.055 246.572 121.063 245.862 120.448C245.152 119.833 244.159 119.66 243.262 119.94C242.955 119.156 242.21 118.561 241.377 118.435C240.544 118.309 239.625 118.567 239.099 119.226C238.69 118.755 238.033 118.513 237.415 118.605C236.798 118.697 236.145 119.039 235.891 119.609C235.097 119.254 234.124 119.336 233.401 119.817C232.677 120.299 232.26 121.185 232.281 122.054C231.641 122.227 231.166 122.881 231.201 123.543C231.235 124.206 231.791 124.872 232.446 124.978C233.066 128.37 234.222 131.735 235.799 134.801C236.507 136.179 237.376 137.578 238.751 138.293C240.238 139.067 242.571 138.624 243.843 137.534Z" fill="black"/>
<path d="M231.937 129.461L230.457 132.034L232.078 132.634L231.937 129.461Z" fill="#F28F8F"/>
<path d="M232.448 124.978C231.466 128.526 231.316 132.303 232.023 135.917C232.143 136.532 232.299 137.168 232.703 137.647C233.159 138.19 233.878 138.457 234.584 138.513C235.29 138.57 235.996 138.439 236.693 138.31V141.659C239.236 142.258 241.851 142.496 243.844 140.962V137.534C242.415 137.954 240.86 138.128 239.405 137.812C237.649 136.864 237.296 133.656 237.543 132.81C237.802 133.236 238.429 133.403 238.916 133.292C239.403 133.181 239.806 132.819 240.056 132.387C240.306 131.955 240.418 131.457 240.481 130.962C240.558 130.358 240.556 129.703 240.221 129.195C239.809 128.572 238.954 128.333 238.232 128.525C237.51 128.717 236.925 129.274 236.558 129.925C236.442 130.131 236.346 130.345 236.264 130.566C236.115 130.967 235.532 130.893 235.493 130.467C235.405 129.51 235.575 128.528 235.997 127.665C235.432 127.673 234.901 127.238 234.562 126.786C234.224 126.333 234.118 125.716 234.285 125.176C233.436 125.274 232.448 124.978 232.448 124.978Z" fill="#FFA8A7"/>
<path d="M241.338 103.686L240.17 100.885L239.579 98.226C239.503 97.8855 239.697 97.5435 240.028 97.4333C240.382 97.3152 240.765 97.5046 240.886 97.8581L241.382 99.3017V95.2294L243.081 98.2692C243.336 98.7271 243.45 99.2506 243.407 99.7733L243.156 102.81L241.338 103.686Z" fill="#FFA8A7"/>
<path d="M233.083 142.533C229.061 141.201 221.899 139.04 221.899 139.04C218.685 142.281 218.957 147.514 218.957 147.514L228.716 151.577C238.027 154.526 239.385 144.618 233.083 142.533Z" fill="url(#paint31_linear_371_11556)"/>
<path opacity="0.3" d="M233.083 142.533C229.061 141.201 221.899 139.04 221.899 139.04C218.685 142.281 218.957 147.514 218.957 147.514L228.716 151.577C238.027 154.526 239.385 144.618 233.083 142.533Z" fill="black"/>
<path opacity="0.3" d="M233.083 142.533C229.061 141.201 221.899 139.04 221.899 139.04C218.685 142.281 218.957 147.514 218.957 147.514L228.716 151.577C238.027 154.526 239.385 144.618 233.083 142.533Z" fill="white"/>
<path d="M236.77 228.666L223.18 218.629L217.953 202.911C217.933 201.738 217.907 200.549 217.883 199.368C217.868 198.644 217.465 197.973 216.812 197.661C215.824 197.189 214.759 196.87 213.675 196.772C213.448 196.014 213.139 195.296 212.661 194.691C212.412 194.376 211.969 194.286 211.61 194.464C211.605 194.466 211.601 194.469 211.596 194.471C211.145 194.695 210.983 195.258 211.249 195.685C212.331 197.422 213.165 199.333 213.413 201.354C212.679 200.964 212.046 200.49 211.509 199.905C210.954 199.301 209.967 199.444 209.597 200.175L209.59 200.19C210.495 202.103 212.26 203.733 214.171 204.64L216.632 220.752C216.869 222.301 217.635 223.72 218.801 224.767L228.846 233.791L236.77 228.666Z" fill="#FFA8A7"/>
<path d="M223.181 218.629L220.623 210.939C218.241 214.124 216.933 218.11 216.986 222.088C217.365 223.108 217.982 224.031 218.803 224.767L228.848 233.791L236.772 228.667L223.181 218.629Z" fill="#F28F8F"/>
<path d="M226.709 325.227C226.374 325.93 225.31 326.581 224.146 326.773C222.982 326.965 221.797 326.712 220.629 326.55C218.891 326.308 217.127 326.262 215.379 326.416C214.291 326.511 213.205 326.684 212.113 326.649C211.021 326.614 209.899 326.354 209.042 325.676C208.434 325.195 207.997 324.472 207.889 323.716C207.747 324.702 208.252 325.733 209.042 326.359C209.899 327.037 211.021 327.298 212.113 327.332C213.205 327.366 214.291 327.193 215.379 327.098C217.127 326.945 218.891 326.99 220.629 327.232C221.797 327.396 223.065 327.73 224.229 327.538C225.394 327.346 226.458 326.697 226.793 325.992L226.709 325.227Z" fill="#263238"/>
<path d="M213.965 323.15C214.945 323.15 214.584 321.701 215.516 320.73C215.137 320.751 214.757 320.759 214.376 320.757C213.538 321.964 213.303 323.15 213.965 323.15Z" fill="white"/>
<path d="M215.998 323.075C216.983 323.075 216.725 321.347 217.693 320.339C217.472 320.414 217.249 320.481 217.022 320.532C216.829 320.575 216.635 320.608 216.44 320.637C215.576 321.859 215.328 323.075 215.998 323.075Z" fill="white"/>
<path d="M225.694 319.763C225.628 319.443 225.446 319.16 225.184 318.965L219.891 318.833C219.349 319.556 218.554 320.044 217.693 320.34C216.725 321.348 216.984 323.076 215.999 323.076C215.329 323.076 215.577 321.86 216.44 320.638C216.133 320.684 215.825 320.713 215.515 320.731C214.582 321.702 214.943 323.151 213.963 323.151C213.301 323.151 213.536 321.965 214.374 320.758C214.127 320.757 213.88 320.754 213.633 320.751C213.409 320.747 213.182 320.732 212.956 320.713C211.01 322.253 210.843 323.923 211.095 326.544C211.43 326.604 211.771 326.64 212.109 326.65C213.201 326.684 214.287 326.511 215.376 326.416C217.123 326.263 218.888 326.308 220.625 326.55C221.794 326.713 222.978 326.966 224.142 326.774C225.307 326.581 226.371 325.931 226.706 325.228L225.694 319.763Z" fill="#455A64"/>
<path d="M212.957 320.713C212.067 320.64 211.166 320.503 210.31 320.712C209.237 320.974 208.209 321.716 207.929 322.785C207.848 323.092 207.843 323.407 207.887 323.716C207.995 324.472 208.432 325.195 209.04 325.676C209.631 326.144 210.349 326.409 211.096 326.542C210.845 323.922 211.01 322.252 212.957 320.713Z" fill="white"/>
<path d="M219.738 317.324V319.874C219.738 320.453 220.208 320.922 220.787 320.922H223.456C224.383 320.922 225.144 320.186 225.174 319.259L225.238 317.323H219.738V317.324Z" fill="#FFA8A7"/>
<path d="M237.378 316.19C237.06 316.827 236.482 317.257 235.772 317.315C235.077 317.371 234.329 317.189 233.74 316.815C232.821 316.232 232.463 315.315 231.837 314.488C231.213 313.664 230.412 312.99 229.623 312.326C228.79 311.625 227.954 310.867 227.508 309.874C227.381 309.591 227.299 309.285 227.257 308.974C227.176 309.55 227.269 310.167 227.508 310.7C227.954 311.694 228.79 312.452 229.623 313.153C230.412 313.817 231.212 314.49 231.837 315.315C232.464 316.141 232.822 317.059 233.74 317.642C234.328 318.016 235.077 318.198 235.772 318.141C236.482 318.085 237.06 317.655 237.378 317.017C237.488 316.797 237.493 316.148 237.475 315.595C237.463 315.858 237.434 316.079 237.378 316.19Z" fill="#263238"/>
<path d="M231.362 310.592C231.286 310.725 231.202 310.879 231.233 311.029C231.264 311.178 231.378 311.308 231.523 311.358C231.725 311.428 231.954 311.342 232.118 311.204C232.282 311.065 232.399 310.881 232.531 310.712C232.882 310.264 233.359 309.915 233.893 309.718C234.154 309.622 234.429 309.562 234.707 309.538C234.487 309.337 234.266 309.136 234.045 308.934C233.629 308.96 233.217 309.054 232.839 309.23C232.222 309.519 231.699 310.002 231.362 310.592Z" fill="white"/>
<path d="M231.504 308.488C230.888 308.776 230.365 309.259 230.028 309.849C229.952 309.982 229.868 310.136 229.899 310.285C229.93 310.435 230.044 310.565 230.189 310.615C230.391 310.685 230.62 310.599 230.784 310.46C230.948 310.322 231.065 310.138 231.197 309.969C231.549 309.522 232.025 309.173 232.56 308.976C232.985 308.818 233.445 308.761 233.897 308.799C233.679 308.601 233.461 308.401 233.243 308.203C232.65 308.143 232.043 308.236 231.504 308.488Z" fill="white"/>
<path d="M232.823 307.825C232.193 307.264 231.528 306.735 230.745 306.437C229.797 306.077 228.62 306.128 227.889 306.832C227.326 307.372 227.15 308.189 227.256 308.974C227.297 309.285 227.38 309.591 227.506 309.873C227.676 310.251 227.902 310.594 228.163 310.913C228.416 308.633 230.396 307.566 232.823 307.825Z" fill="white"/>
<path d="M237.429 313.954C237.37 313.137 237.326 312.431 236.91 311.725L235.624 310.375C235.318 310.097 235.012 309.817 234.706 309.539C234.428 309.563 234.153 309.622 233.891 309.719C233.358 309.916 232.88 310.265 232.529 310.712C232.397 310.881 232.28 311.066 232.117 311.204C231.952 311.342 231.724 311.428 231.521 311.358C231.376 311.308 231.263 311.178 231.232 311.029C231.201 310.879 231.285 310.725 231.361 310.593C231.698 310.003 232.221 309.52 232.837 309.232C233.215 309.055 233.626 308.961 234.043 308.936C233.994 308.891 233.944 308.845 233.894 308.8C233.442 308.762 232.982 308.819 232.556 308.977C232.023 309.174 231.546 309.522 231.194 309.97C231.062 310.139 230.945 310.324 230.781 310.461C230.617 310.599 230.389 310.686 230.186 310.615C230.042 310.565 229.928 310.435 229.896 310.286C229.865 310.136 229.949 309.982 230.025 309.85C230.362 309.259 230.885 308.777 231.501 308.489C232.04 308.237 232.646 308.144 233.239 308.203C233.231 308.196 233.223 308.189 233.215 308.181C233.084 308.062 232.953 307.944 232.821 307.827C230.394 307.567 228.414 308.635 228.16 310.915C228.586 311.435 229.103 311.893 229.619 312.327C230.407 312.991 231.208 313.664 231.833 314.49C232.459 315.316 232.817 316.234 233.735 316.817C234.324 317.191 235.072 317.372 235.768 317.316C236.478 317.259 237.056 316.83 237.374 316.192C237.429 316.081 237.458 315.86 237.47 315.596C237.5 314.998 237.445 314.186 237.429 313.954Z" fill="#455A64"/>
<path d="M232.785 309.923L232.936 312.659C234.664 313.656 236.48 313.113 237.086 312.483L237.199 309.923H232.785Z" fill="#FFA8A7"/>
<path d="M236.452 251.191C236.35 251.057 236.267 250.912 236.192 250.762C230.783 253.613 224.292 254.359 218.381 252.787C217.119 262.177 216.035 278.078 216.701 288.568C217.254 300.78 219.501 318.072 219.501 318.072C222.433 318.951 224.631 318.414 225.461 317.778C226.438 305.664 228.587 297.361 226.926 289.35C228.033 283.749 228.75 276.715 228.75 276.715L229.597 289.089L232.462 310.843C235.263 312.276 237.607 310.582 237.607 310.582C239.692 298.143 240.473 289.714 238.649 283.54C241.432 263.126 241.574 257.904 236.452 251.191Z" fill="url(#paint32_linear_371_11556)"/>
<path opacity="0.4" d="M236.452 251.191C236.35 251.057 236.267 250.912 236.192 250.762C230.783 253.613 224.292 254.359 218.381 252.787C217.119 262.177 216.035 278.078 216.701 288.568C217.254 300.78 219.501 318.072 219.501 318.072C222.433 318.951 224.631 318.414 225.461 317.778C226.438 305.664 228.587 297.361 226.926 289.35C228.033 283.749 228.75 276.715 228.75 276.715L229.597 289.089L232.462 310.843C235.263 312.276 237.607 310.582 237.607 310.582C239.692 298.143 240.473 289.714 238.649 283.54C241.432 263.126 241.574 257.904 236.452 251.191Z" fill="black"/>
<path opacity="0.1" d="M236.452 251.191C236.35 251.057 236.267 250.912 236.192 250.762C230.783 253.613 224.292 254.359 218.381 252.787C217.119 262.177 216.035 278.078 216.701 288.568C217.254 300.78 219.501 318.072 219.501 318.072C222.433 318.951 224.631 318.414 225.461 317.778C226.438 305.664 228.587 297.361 226.926 289.35C228.033 283.749 228.75 276.715 228.75 276.715L229.597 289.089L232.462 310.843C235.263 312.276 237.607 310.582 237.607 310.582C239.692 298.143 240.473 289.714 238.649 283.54C241.432 263.126 241.574 257.904 236.452 251.191Z" fill="white"/>
<path opacity="0.2" d="M229.981 274.269L231.516 267.825C233.307 267.532 236.108 266.36 237.58 263.902C235.474 265.534 232.812 266.522 230.148 266.522L228.748 276.715L229.046 281.071L229.166 279.487C229.3 277.728 229.572 275.984 229.981 274.269Z" fill="black"/>
<path d="M225.349 229.071L220.87 229.952C219.88 231.764 218.871 233.465 217.881 235.277C217.135 236.641 216.368 238.092 216.425 239.646C216.485 241.3 217.578 242.873 219.108 243.505L216.97 258.832C225.271 263.902 238.723 260.333 239.96 255.84C238.759 252.741 237.486 251.618 236.704 247.959C236.13 245.272 237.478 241.488 237.712 240.402C238.073 238.737 238.435 237.059 238.471 235.356C238.505 233.652 238.191 231.901 237.288 230.456C237.279 230.442 237.27 230.427 237.261 230.413C236.1 228.591 233.897 227.714 231.763 228.053L225.349 229.071Z" fill="url(#paint33_linear_371_11556)"/>
<path d="M231.044 225.487C232.332 224.996 233.367 223.921 233.751 222.662C234.163 221.316 233.873 219.878 234.267 218.529C234.462 217.861 234.812 217.301 234.966 216.609C235.131 215.87 235.21 215.112 235.143 214.357C234.924 211.917 233.138 209.74 230.84 208.604C228.541 207.468 224.794 206.884 222.245 207.343C221.075 207.553 219.865 207.932 219.097 208.791C218.328 209.65 218.319 211.21 219.238 211.924C218.667 212.333 218.29 212.975 218.224 213.648C218.158 214.321 218.728 215.402 219.656 215.646C220.493 223.662 224.15 225.276 226.055 225.968C227.96 226.659 229.292 227.173 231.044 225.487Z" fill="#263238"/>
<path d="M219.186 218.337L217.803 220.741L219.318 221.301L219.186 218.337Z" fill="#FFA8A7"/>
<path d="M219.031 217.266C219.253 215.157 219.87 213.169 221.243 212.161C221.016 213.484 221.27 215.362 222.605 216.372C222.442 217.706 222.377 218.195 222.824 219.707C222.958 219.012 223.323 218.375 223.846 217.899C224.369 217.423 225.16 217.202 225.811 217.48C226.27 217.676 226.612 218.093 226.799 218.557C227.164 219.46 226.954 220.568 226.285 221.276C225.615 221.984 224.52 222.255 223.598 221.94C223.909 223.823 225.516 225.357 227.379 225.77C228.599 226.041 229.876 225.946 231.045 225.489L231.617 228.263C229.303 230.731 225.35 229.073 225.35 229.073L224.83 226.277C220.279 226.547 219.854 226.47 219.353 223.963C219.078 222.584 218.76 219.835 219.031 217.266Z" fill="#FFA8A7"/>
<path d="M233.193 212.908L232.743 211.149C232.578 210.864 232.155 210.743 231.85 210.871C231.547 210.998 231.344 211.308 231.285 211.633C231.226 211.958 231.295 212.294 231.413 212.602C231.512 212.86 231.65 213.11 231.861 213.29C232.071 213.469 232.362 213.569 232.63 213.501C232.899 213.432 233.217 213.183 233.193 212.908Z" fill="url(#paint34_linear_371_11556)"/>
<path d="M232.84 212.965C234.173 212.646 235.597 213.479 236.265 214.675C236.934 215.872 236.958 217.336 236.677 218.677C236.253 220.694 235.203 222.513 234.299 224.366C233.395 226.219 232.613 228.23 232.789 230.284C233.022 232.983 235.186 235.112 237.805 235.805C237.106 235.269 236.819 234.489 236.765 233.61C237.448 234.627 238.578 235.333 239.792 235.501C241.006 235.67 242.206 235.302 243.141 234.509C242.075 234.56 241.048 234.109 240.262 233.388C240.948 233.546 241.736 233.384 242.377 233.094C240.184 231.859 239.448 228.987 239.719 226.485C239.989 223.983 241.028 221.63 241.499 219.158C241.97 216.686 241.739 213.829 239.905 212.106C238.477 210.765 236.337 210.402 234.405 210.725C233.77 210.83 233.153 211.002 232.549 211.218C231.631 211.447 232.177 213.097 232.84 212.965Z" fill="#263238"/>
<path d="M191.84 221.995L198.481 241.241L212.212 233.622L205.644 214.588L191.84 221.995Z" fill="url(#paint35_linear_371_11556)"/>
<path opacity="0.3" d="M191.84 221.995L198.481 241.241L212.212 233.622L205.644 214.588L191.84 221.995Z" fill="black"/>
<path opacity="0.2" d="M191.84 221.995L198.481 241.241L212.212 233.622L205.644 214.588L191.84 221.995Z" fill="white"/>
<path d="M210.171 232.841L204.703 216.991L193.885 222.795L199.411 238.811L210.171 232.841Z" fill="white"/>
<path d="M202.794 218.168L196.783 221.322L196.521 220.52L197.689 219.492L200.982 217.837L202.48 217.558L202.794 218.168Z" fill="#455A64"/>
<path d="M200.981 217.837L200.721 217.228L197.506 218.953L197.688 219.492L200.981 217.837Z" fill="#37474F"/>
<path d="M202.59 216.226L195.321 220.126L195.006 219.37L202.342 215.52L202.59 216.226Z" fill="#455A64"/>
<path d="M200.622 216.421C199.988 214.422 196.188 216.304 196.929 218.359L200.622 216.421Z" fill="#37474F"/>
<path d="M217.803 231.724L208.128 244.112L199.32 235.447C198.828 234.963 198.515 234.325 198.427 233.641C198.006 230.353 197.095 228.007 195.925 228.419C195.19 228.678 196.131 231.88 196.131 231.88L195.033 231.252L193.753 227.541H193.174C192.55 227.541 191.995 227.936 191.791 228.525L191.242 230.11C190.574 232.034 191.235 234.168 192.872 235.38L194.805 236.809C195.095 237.024 195.344 237.29 195.542 237.591C199.341 243.355 203.404 248.273 205.873 250.796C206.756 251.698 208.153 251.834 209.206 251.138C212.948 248.665 220.573 241.518 224.488 236.534C226.024 234.579 225.499 231.721 223.365 230.445C221.469 229.312 219.015 229.876 217.803 231.724Z" fill="#FFA8A7"/>
<path d="M151.664 125.11C153.768 123.895 155.477 124.869 155.483 127.287L155.611 172.121C155.617 174.534 153.92 177.478 151.816 178.692L98.0316 209.745C95.9277 210.96 94.2192 209.982 94.2127 207.569L94.086 162.734C94.0788 160.317 95.7765 157.378 97.8804 156.163L151.664 125.11Z" fill="url(#paint36_linear_371_11556)"/>
<g opacity="0.8">
<path d="M151.664 125.11C153.768 123.895 155.477 124.869 155.483 127.287L155.611 172.121C155.617 174.534 153.92 177.478 151.816 178.692L98.0316 209.745C95.9277 210.96 94.2192 209.982 94.2127 207.569L94.086 162.734C94.0788 160.317 95.7765 157.378 97.8804 156.163L151.664 125.11Z" fill="white"/>
</g>
<path d="M152.069 128.06C152.186 127.993 152.302 127.988 152.376 128.061C152.503 128.184 152.467 128.478 152.299 128.72L125.492 167.057L152.428 174.365C152.597 174.41 152.635 174.664 152.509 174.93C152.434 175.092 152.321 175.216 152.204 175.283C152.125 175.329 152.047 175.347 151.978 175.331L124.853 167.97L97.8581 206.577C97.7897 206.672 97.7112 206.745 97.632 206.79C97.5154 206.857 97.3988 206.866 97.3232 206.791C97.1993 206.67 97.2324 206.374 97.4038 206.133L124.211 167.796L97.2742 160.488C97.1021 160.441 97.0676 160.189 97.19 159.921C97.2656 159.762 97.3815 159.633 97.4989 159.566C97.5773 159.52 97.6565 159.502 97.7249 159.522L124.85 166.882L151.845 128.275C151.911 128.179 151.991 128.105 152.069 128.06Z" fill="white"/>
<path d="M152.825 157.287L155.589 163.151L150.68 178.039L139.844 185.073L143.72 194.244L154.79 183.429C156.114 182.135 156.966 180.436 157.21 178.601L159.292 162.95L156.925 154.098L155.56 152.789L155.602 158.399L154.221 156.467C153.964 156.107 153.467 156.019 153.102 156.268C152.771 156.495 152.655 156.926 152.825 157.287Z" fill="#AB6060"/>
<path d="M139.273 183.581L148.123 179.126C153.303 180.438 153.439 185.913 153.439 185.913L144.285 194.245L139.273 183.581Z" fill="#37474F"/>
<path d="M129.932 284.703C129.566 285.857 128.3 286.518 127.093 286.614C125.886 286.71 124.693 286.371 123.501 286.155C120.834 285.672 118.261 286.15 115.6 286.088C114.727 286.067 113.846 286.027 113.002 285.805C112.157 285.584 111.341 285.165 110.78 284.496C110.448 284.102 110.221 283.611 110.14 283.104C110.009 283.866 110.279 284.68 110.78 285.277C111.341 285.946 112.156 286.364 113.002 286.586C113.846 286.808 114.727 286.848 115.6 286.868C118.261 286.931 120.833 286.451 123.501 286.935C124.693 287.151 125.885 287.49 127.093 287.394C128.3 287.299 129.566 286.638 129.932 285.484C130.058 285.086 130.066 284.671 130.025 284.254C130.007 284.405 129.979 284.556 129.932 284.703Z" fill="#263238"/>
<path d="M129.864 282.492C129.7 281.684 129.537 280.876 129.374 280.068C129.287 279.641 129.196 279.202 128.962 278.834C128.729 278.466 128.317 278.178 127.883 278.217C126.422 278.023 124.368 277.494 123.154 278.33C121.253 279.638 118.925 280.314 116.62 280.227C115.413 280.182 114.204 279.934 113.005 280.081C111.806 280.228 110.559 280.896 110.202 282.05C110.097 282.391 110.084 282.75 110.14 283.103C110.221 283.609 110.448 284.1 110.78 284.495C111.341 285.164 112.156 285.582 113.002 285.804C113.846 286.026 114.727 286.066 115.6 286.086C118.26 286.149 120.833 285.669 123.501 286.153C124.693 286.369 125.885 286.708 127.093 286.613C128.3 286.517 129.566 285.856 129.932 284.702C129.979 284.554 130.006 284.404 130.025 284.252C130.094 283.674 129.981 283.072 129.864 282.492Z" fill="url(#paint37_linear_371_11556)"/>
<path d="M122.802 275.791L122.698 278.949C122.676 279.62 123.188 280.196 123.858 280.24C124.942 280.312 125.998 280.307 127.04 280.209C127.927 280.125 128.62 279.406 128.667 278.518L128.793 276.185L122.802 275.791Z" fill="#FFA8A7"/>
<path opacity="0.4" d="M122.802 275.791L122.698 278.949C122.676 279.62 123.188 280.196 123.858 280.24C124.942 280.312 125.998 280.307 127.04 280.209C127.927 280.125 128.62 279.406 128.667 278.518L128.793 276.185L122.802 275.791Z" fill="black"/>
<path d="M143.422 274.111C143.388 274.581 143.277 275.043 142.999 275.416C142.65 275.884 142.082 276.147 141.508 276.255C140.122 276.514 138.611 275.892 137.81 274.732C137.413 274.157 137.187 273.48 136.811 272.891C136.29 272.074 135.507 271.464 134.738 270.875C133.969 270.285 133.182 269.682 132.648 268.872C132.132 268.089 131.895 267.064 132.249 266.201C132.175 266.306 132.107 266.418 132.053 266.537C131.637 267.444 131.884 268.548 132.428 269.382C132.972 270.217 133.775 270.838 134.56 271.446C135.345 272.055 136.144 272.683 136.676 273.525C137.06 274.132 137.29 274.83 137.695 275.422C138.513 276.618 140.056 277.26 141.47 276.992C142.055 276.881 142.635 276.609 142.99 276.127C143.365 275.618 143.445 274.947 143.432 274.313C143.43 274.245 143.424 274.178 143.422 274.111Z" fill="#263238"/>
<path d="M142.464 270.147C141.504 268.464 139.524 267.24 137.997 266.049C137.13 265.372 136.133 264.795 135.037 264.704C133.942 264.614 132.742 265.115 132.28 266.113C132.267 266.142 132.26 266.172 132.248 266.201C131.895 267.064 132.132 268.09 132.648 268.872C133.181 269.682 133.968 270.285 134.737 270.875C135.507 271.464 136.29 272.074 136.811 272.891C137.187 273.48 137.413 274.157 137.81 274.732C138.611 275.892 140.122 276.514 141.508 276.255C142.082 276.147 142.65 275.884 142.999 275.416C143.277 275.043 143.388 274.581 143.421 274.111C143.432 273.959 143.434 273.807 143.431 273.655C143.408 272.43 143.071 271.212 142.464 270.147Z" fill="url(#paint38_linear_371_11556)"/>
<path d="M138.301 268.688V271.558C140.919 272.652 142.767 271.361 142.767 271.361L143.036 268.778L138.301 268.688Z" fill="#FFA8A7"/>
<path opacity="0.4" d="M138.301 268.688V271.558C140.919 272.652 142.767 271.361 142.767 271.361L143.036 268.778L138.301 268.688Z" fill="black"/>
<path d="M143.788 216.618C144.649 219.2 144.384 232.741 143.881 244.507C144.702 250.234 144.675 262.64 143.598 271.608C143.598 271.608 140.605 273.259 136.442 271.751L133.905 244.527L133.317 230.537C133.317 230.537 132.255 242.949 131.035 250.913C131.477 256.758 130.512 267.936 129.651 279.855C129.651 279.855 125.046 282.543 120.474 279.6C118.871 253.246 121.473 226.553 122.003 217.91L143.788 216.618Z" fill="#37474F"/>
<path opacity="0.3" d="M133.676 239.056L133.197 227.647C136.146 227.647 138.882 225.443 140.963 223.353C138.964 226.914 135.089 228.492 135.089 228.492L133.676 239.056Z" fill="black"/>
<path d="M121.553 196.263V218.609C134.71 224.122 143.236 219.141 144.394 216.551C143.788 207.454 145.938 196.815 145.772 192.295C145.606 187.774 145.052 182.681 138.044 183.703L130.59 184.43L126.809 185.349L121.553 196.263Z" fill="#455A64"/>
<path d="M114.571 195.049L112.06 197.664L98.0614 192.142C98.0232 191.04 97.9966 189.284 97.7979 188.311C97.7165 187.911 97.4948 187.564 97.0865 187.564C96.8115 187.564 96.4212 188.011 96.3744 188.735C96.3658 188.874 96.3471 189.667 96.3255 189.909C96.2823 190.393 95.6796 190.588 95.3628 190.22C95 189.797 94.6464 189.361 94.5932 189.211L94.375 188.592C94.2288 188.178 94.1547 187.046 94.1547 186.607C94.1547 186.607 92.3597 187.112 91.9752 189.577C91.8557 190.343 91.6174 191.84 91.8622 192.677C92.292 194.147 93.5816 194.781 95.7984 195.505C100.221 198.587 106.395 202.196 109.719 204.093C111.148 204.909 112.912 204.844 114.281 203.93L119.592 200.381L114.571 195.049Z" fill="#AB6060"/>
<path d="M110.522 200.871C110.522 200.871 110.935 198.833 112.062 197.664L110.863 197.191C110.074 197.866 109.837 199.645 110.522 200.871Z" fill="#873E3E"/>
<path d="M113.951 195.067L121.017 188.117C122.59 186.569 124.633 185.589 126.826 185.331L126.952 185.316C129.945 191.868 125.99 195.067 125.99 195.067L119.42 201.103C115.241 198.884 113.951 195.067 113.951 195.067Z" fill="#37474F"/>
<path d="M137.676 179.613C140.056 177.445 141.741 174.467 142.117 171.27C142.221 170.385 142.229 169.448 141.831 168.652C141.432 167.856 140.415 167.019 139.55 167.231C139.597 166.319 138.839 164.871 138.049 164.413C137.259 163.955 136.315 163.839 135.402 163.853C134.489 163.868 133.579 164.002 132.666 164.004C131.222 164.007 127.949 163.596 126.654 162.957C126.67 163.657 126.894 164.792 127.381 165.295C126.443 165.122 125.604 164.301 124.857 163.709C124.726 164.58 125.619 166.529 126.355 167.015C125.088 166.894 124.854 169.083 127.018 169.083C127.968 178.583 134.533 182.273 137.676 179.613Z" fill="#263238"/>
<path d="M126.164 172.911L124.986 174.956L126.151 175.387C126.113 174.562 126.117 173.736 126.164 172.911Z" fill="#873E3E"/>
<path d="M127.019 169.083C126.664 170.204 126.239 171.624 126.165 172.911C126.118 173.736 126.115 174.562 126.153 175.387C126.206 176.548 126.334 177.705 126.557 178.846C126.677 179.462 126.834 180.099 127.239 180.58C127.696 181.124 128.415 181.391 129.123 181.447C129.831 181.504 130.538 181.373 131.237 181.243V184.599C133.784 185.2 135.894 185.466 137.89 183.928L137.678 179.613C136.609 179.788 135.477 179.644 134.093 179.047C132.333 178.098 131.841 176.581 132.089 175.733C132.349 176.161 132.977 176.328 133.465 176.217C133.952 176.106 134.357 175.743 134.606 175.31C134.857 174.876 134.969 174.378 135.033 173.881C135.11 173.277 135.108 172.621 134.771 172.112C134.359 171.487 133.502 171.248 132.778 171.44C132.055 171.632 131.469 172.19 131.101 172.842C130.984 173.048 130.888 173.264 130.806 173.485C130.657 173.886 130.073 173.813 130.033 173.386C129.945 172.427 130.114 171.444 130.538 170.578C130.224 170.714 129.939 170.808 129.597 170.796C129.255 170.785 128.906 170.647 128.697 170.376C128.487 170.106 128.452 169.694 128.661 169.423C127.684 169.639 127.019 169.083 127.019 169.083Z" fill="#AB6060"/>
<path d="M150.682 178.04C152.243 177.995 153.17 179.15 153.441 179.885C153.328 176.683 151.41 177.198 150.876 177.449L150.682 178.04Z" fill="#873E3E"/>
<defs>
<linearGradient id="paint0_linear_371_11556" x1="141.923" y1="208.853" x2="141.923" y2="236.11" gradientUnits="userSpaceOnUse">
<stop stop-color="#FF4825"/>
<stop offset="1" stop-color="#FF6EAE"/>
</linearGradient>
<linearGradient id="paint1_linear_371_11556" x1="143.317" y1="188.695" x2="143.317" y2="233.424" gradientUnits="userSpaceOnUse">
<stop stop-color="#FF4825"/>
<stop offset="1" stop-color="#FF6EAE"/>
</linearGradient>
<linearGradient id="paint2_linear_371_11556" x1="129.93" y1="25.3234" x2="129.93" y2="246.623" gradientUnits="userSpaceOnUse">
<stop stop-color="#FF4825"/>
<stop offset="1" stop-color="#FF6EAE"/>
</linearGradient>
<linearGradient id="paint3_linear_371_11556" x1="133.709" y1="28.6266" x2="133.709" y2="247.001" gradientUnits="userSpaceOnUse">
<stop stop-color="#FF4825"/>
<stop offset="1" stop-color="#FF6EAE"/>
</linearGradient>
<linearGradient id="paint4_linear_371_11556" x1="133.835" y1="35.3844" x2="133.835" y2="240.245" gradientUnits="userSpaceOnUse">
<stop stop-color="#FF4825"/>
<stop offset="1" stop-color="#FF6EAE"/>
</linearGradient>
<linearGradient id="paint5_linear_371_11556" x1="148.254" y1="43.2966" x2="148.254" y2="252.465" gradientUnits="userSpaceOnUse">
<stop stop-color="#FF4825"/>
<stop offset="1" stop-color="#FF6EAE"/>
</linearGradient>
<linearGradient id="paint6_linear_371_11556" x1="151.831" y1="56.3515" x2="151.831" y2="252.821" gradientUnits="userSpaceOnUse">
<stop stop-color="#FF4825"/>
<stop offset="1" stop-color="#FF6EAE"/>
</linearGradient>
<linearGradient id="paint7_linear_371_11556" x1="160.962" y1="63.0978" x2="160.962" y2="138.591" gradientUnits="userSpaceOnUse">
<stop stop-color="#FF4825"/>
<stop offset="1" stop-color="#FF6EAE"/>
</linearGradient>
<linearGradient id="paint8_linear_371_11556" x1="83.6828" y1="144.232" x2="83.6828" y2="147.665" gradientUnits="userSpaceOnUse">
<stop stop-color="#FF4825"/>
<stop offset="1" stop-color="#FF6EAE"/>
</linearGradient>
<linearGradient id="paint9_linear_371_11556" x1="89.3012" y1="140.498" x2="89.3012" y2="143.928" gradientUnits="userSpaceOnUse">
<stop stop-color="#FF4825"/>
<stop offset="1" stop-color="#FF6EAE"/>
</linearGradient>
<linearGradient id="paint10_linear_371_11556" x1="94.3822" y1="137.205" x2="94.3822" y2="141.364" gradientUnits="userSpaceOnUse">
<stop stop-color="#FF4825"/>
<stop offset="1" stop-color="#FF6EAE"/>
</linearGradient>
<linearGradient id="paint11_linear_371_11556" x1="98.8217" y1="196.362" x2="98.8217" y2="240.939" gradientUnits="userSpaceOnUse">
<stop stop-color="#FF4825"/>
<stop offset="1" stop-color="#FF6EAE"/>
</linearGradient>
<linearGradient id="paint12_linear_371_11556" x1="133.165" y1="177.023" x2="133.165" y2="221.6" gradientUnits="userSpaceOnUse">
<stop stop-color="#FF4825"/>
<stop offset="1" stop-color="#FF6EAE"/>
</linearGradient>
<linearGradient id="paint13_linear_371_11556" x1="167.068" y1="157.506" x2="167.068" y2="202.083" gradientUnits="userSpaceOnUse">
<stop stop-color="#FF4825"/>
<stop offset="1" stop-color="#FF6EAE"/>
</linearGradient>
<linearGradient id="paint14_linear_371_11556" x1="164.554" y1="105.41" x2="164.554" y2="129.804" gradientUnits="userSpaceOnUse">
<stop stop-color="#FF4825"/>
<stop offset="1" stop-color="#FF6EAE"/>
</linearGradient>
<linearGradient id="paint15_linear_371_11556" x1="164.554" y1="116.066" x2="164.554" y2="140.461" gradientUnits="userSpaceOnUse">
<stop stop-color="#FF4825"/>
<stop offset="1" stop-color="#FF6EAE"/>
</linearGradient>
<linearGradient id="paint16_linear_371_11556" x1="164.554" y1="126.723" x2="164.554" y2="151.117" gradientUnits="userSpaceOnUse">
<stop stop-color="#FF4825"/>
<stop offset="1" stop-color="#FF6EAE"/>
</linearGradient>
<linearGradient id="paint17_linear_371_11556" x1="151.702" y1="46.4191" x2="151.702" y2="143.052" gradientUnits="userSpaceOnUse">
<stop stop-color="#FF4825"/>
<stop offset="1" stop-color="#FF6EAE"/>
</linearGradient>
<linearGradient id="paint18_linear_371_11556" x1="83.2666" y1="132.185" x2="83.2666" y2="135.724" gradientUnits="userSpaceOnUse">
<stop stop-color="#FF4825"/>
<stop offset="1" stop-color="#FF6EAE"/>
</linearGradient>
<linearGradient id="paint19_linear_371_11556" x1="87.0244" y1="130.015" x2="87.0244" y2="133.554" gradientUnits="userSpaceOnUse">
<stop stop-color="#FF4825"/>
<stop offset="1" stop-color="#FF6EAE"/>
</linearGradient>
<linearGradient id="paint20_linear_371_11556" x1="90.7822" y1="127.845" x2="90.7822" y2="131.385" gradientUnits="userSpaceOnUse">
<stop stop-color="#FF4825"/>
<stop offset="1" stop-color="#FF6EAE"/>
</linearGradient>
<linearGradient id="paint21_linear_371_11556" x1="75.7601" y1="264.586" x2="75.7601" y2="296.035" gradientUnits="userSpaceOnUse">
<stop stop-color="#FF4825"/>
<stop offset="1" stop-color="#FF6EAE"/>
</linearGradient>
<linearGradient id="paint22_linear_371_11556" x1="72.9281" y1="277.838" x2="72.9281" y2="298.973" gradientUnits="userSpaceOnUse">
<stop stop-color="#FF4825"/>
<stop offset="1" stop-color="#FF6EAE"/>
</linearGradient>
<linearGradient id="paint23_linear_371_11556" x1="303.169" y1="162.234" x2="303.169" y2="196.754" gradientUnits="userSpaceOnUse">
<stop stop-color="#FF4825"/>
<stop offset="1" stop-color="#FF6EAE"/>
</linearGradient>
<linearGradient id="paint24_linear_371_11556" x1="286.648" y1="177.545" x2="286.648" y2="207.127" gradientUnits="userSpaceOnUse">
<stop stop-color="#FF4825"/>
<stop offset="1" stop-color="#FF6EAE"/>
</linearGradient>
<linearGradient id="paint25_linear_371_11556" x1="308.249" y1="182.793" x2="308.249" y2="207.238" gradientUnits="userSpaceOnUse">
<stop stop-color="#FF4825"/>
<stop offset="1" stop-color="#FF6EAE"/>
</linearGradient>
<linearGradient id="paint26_linear_371_11556" x1="247.45" y1="129.245" x2="247.45" y2="147.894" gradientUnits="userSpaceOnUse">
<stop stop-color="#FF4825"/>
<stop offset="1" stop-color="#FF6EAE"/>
</linearGradient>
<linearGradient id="paint27_linear_371_11556" x1="247.45" y1="129.245" x2="247.45" y2="147.894" gradientUnits="userSpaceOnUse">
<stop stop-color="#FF4825"/>
<stop offset="1" stop-color="#FF6EAE"/>
</linearGradient>
<linearGradient id="paint28_linear_371_11556" x1="225.046" y1="79.3884" x2="225.046" y2="176.514" gradientUnits="userSpaceOnUse">
<stop stop-color="#FF4825"/>
<stop offset="1" stop-color="#FF6EAE"/>
</linearGradient>
<linearGradient id="paint29_linear_371_11556" x1="239.646" y1="140.836" x2="239.646" y2="176.838" gradientUnits="userSpaceOnUse">
<stop stop-color="#FF4825"/>
<stop offset="1" stop-color="#FF6EAE"/>
</linearGradient>
<linearGradient id="paint30_linear_371_11556" x1="240.282" y1="118.404" x2="240.282" y2="138.683" gradientUnits="userSpaceOnUse">
<stop stop-color="#FF4825"/>
<stop offset="1" stop-color="#FF6EAE"/>
</linearGradient>
<linearGradient id="paint31_linear_371_11556" x1="227.951" y1="139.04" x2="227.951" y2="152.121" gradientUnits="userSpaceOnUse">
<stop stop-color="#FF4825"/>
<stop offset="1" stop-color="#FF6EAE"/>
</linearGradient>
<linearGradient id="paint32_linear_371_11556" x1="228.532" y1="250.762" x2="228.532" y2="318.533" gradientUnits="userSpaceOnUse">
<stop stop-color="#FF4825"/>
<stop offset="1" stop-color="#FF6EAE"/>
</linearGradient>
<linearGradient id="paint33_linear_371_11556" x1="228.191" y1="227.981" x2="228.191" y2="261.312" gradientUnits="userSpaceOnUse">
<stop stop-color="#FF4825"/>
<stop offset="1" stop-color="#FF6EAE"/>
</linearGradient>
<linearGradient id="paint34_linear_371_11556" x1="232.229" y1="210.82" x2="232.229" y2="213.522" gradientUnits="userSpaceOnUse">
<stop stop-color="#FF4825"/>
<stop offset="1" stop-color="#FF6EAE"/>
</linearGradient>
<linearGradient id="paint35_linear_371_11556" x1="202.026" y1="214.588" x2="202.026" y2="241.241" gradientUnits="userSpaceOnUse">
<stop stop-color="#FF4825"/>
<stop offset="1" stop-color="#FF6EAE"/>
</linearGradient>
<linearGradient id="paint36_linear_371_11556" x1="124.848" y1="124.587" x2="124.848" y2="210.267" gradientUnits="userSpaceOnUse">
<stop stop-color="#FF4825"/>
<stop offset="1" stop-color="#FF6EAE"/>
</linearGradient>
<linearGradient id="paint37_linear_371_11556" x1="120.077" y1="277.873" x2="120.077" y2="286.629" gradientUnits="userSpaceOnUse">
<stop stop-color="#FF4825"/>
<stop offset="1" stop-color="#FF6EAE"/>
</linearGradient>
<linearGradient id="paint38_linear_371_11556" x1="137.756" y1="264.694" x2="137.756" y2="276.313" gradientUnits="userSpaceOnUse">
<stop stop-color="#FF4825"/>
<stop offset="1" stop-color="#FF6EAE"/>
</linearGradient>
</defs>
</svg>
