<svg width="32" height="28" viewBox="0 0 32 28" fill="none" xmlns="http://www.w3.org/2000/svg">
<path d="M29.9907 0.136963H20.1974C19.3082 0.136963 18.5865 0.858595 18.5865 1.74775V11.5413C18.5865 12.4305 19.3082 13.1521 20.1974 13.1521H24.8847C24.8234 15.7165 24.2275 17.7686 23.0998 19.3118C22.2108 20.5296 20.8642 21.5378 19.0633 22.3336C18.2354 22.6976 17.8778 23.677 18.2644 24.4953L19.4241 26.9438C19.7979 27.7297 20.7224 28.0744 21.5214 27.7297C23.6539 26.8083 25.455 25.6422 26.9238 24.2246C28.7151 22.4947 29.9424 20.5424 30.6061 18.3646C31.2698 16.1868 31.6015 13.2165 31.6015 9.44731V1.74775C31.6015 0.858627 30.8798 0.136963 29.9907 0.136963ZM3.60644 27.7232C5.71333 26.8051 7.5045 25.639 8.98317 24.2246C10.7904 22.4947 12.0243 20.5489 12.6879 18.3872C13.3516 16.2255 13.6833 13.2455 13.6833 9.44731V1.74775C13.6833 0.858595 12.9618 0.136963 12.0726 0.136963H2.27914C1.39 0.136963 0.668378 0.858595 0.668378 1.74775V11.5413C0.668378 12.4305 1.39 13.1521 2.27914 13.1521H6.96647C6.90525 15.7165 6.30927 17.7686 5.18173 19.3118C4.29259 20.5296 2.946 21.5378 1.14516 22.3336C0.317231 22.6976 -0.0403574 23.677 0.346227 24.4953L1.50275 26.9373C1.87648 27.7232 2.8075 28.0712 3.60644 27.7232Z" fill="#FF5029"/>
</svg>
