<svg width="68" height="68" viewBox="0 0 68 68" fill="none" xmlns="http://www.w3.org/2000/svg">
<path d="M33.9871 4.25005C33.4006 4.25567 32.9293 4.73612 32.935 5.32293V11.7C32.9029 13.1485 35.0921 13.1485 35.06 11.7V5.32293C35.064 4.728 34.5817 4.24427 33.9871 4.25005ZM48.3682 8.08709C48.3281 8.08626 48.2893 8.08791 48.2499 8.0911C47.9002 8.12283 47.5906 8.32574 47.4198 8.63273L44.2365 14.1548C43.4851 15.3956 45.3868 16.4878 46.0793 15.2132L49.2605 9.69938C49.6848 8.99762 49.1879 8.10012 48.3682 8.08709ZM19.6247 8.0911C18.8175 8.12122 18.3377 9.00625 18.7531 9.69938L21.9365 15.2132C22.6534 16.3971 24.4401 15.3711 23.7792 14.1548L20.5876 8.63274C20.3932 8.28642 20.0215 8.07749 19.6247 8.0911ZM34.0245 13.8249C24.646 13.8249 16.9954 21.5152 16.9954 30.9639C16.9954 35.3783 19.3799 39.5351 21.6376 43.2055C23.8954 46.8759 25.9644 48.8749 25.9644 49.9333C25.9621 50.5441 26.4662 51.0022 27.056 50.9999H40.9951C41.564 51.002 42.0432 50.5233 42.041 49.9333C42.041 48.8749 44.0403 46.9422 46.3802 43.2013C48.6654 39.548 50.9996 35.3783 50.9996 30.9639C50.9996 21.5152 43.4029 13.8249 34.0245 13.8249ZM9.12628 18.5854C8.05982 18.6432 7.70415 20.0282 8.66351 20.59L14.1669 23.7671C15.3378 24.4395 16.4807 22.6797 15.2419 21.9451L9.73846 18.7348C9.55414 18.6242 9.3405 18.5721 9.12628 18.5854ZM58.7068 18.5854C58.5683 18.6022 58.4261 18.6497 58.2877 18.7348L52.7697 21.9202C51.5421 22.6273 52.6003 24.47 53.8281 23.763L59.3543 20.5776C60.5146 19.8621 59.6772 18.4669 58.7068 18.5854ZM31.8746 19.1249H36.1266C36.7142 19.1227 37.1921 19.5978 37.1933 20.1854L37.1954 22.3643C37.3577 22.4269 37.5577 22.5145 37.7163 22.5863L39.2623 21.0465C39.6851 20.6262 40.3461 20.6345 40.7606 21.0465L43.7634 24.0431C44.181 24.4585 44.181 25.1343 43.7634 25.5497L42.2257 27.0916C42.296 27.2493 42.3805 27.451 42.4415 27.6125H44.6267C45.2134 27.6148 45.6873 28.0923 45.685 28.6791V32.9208C45.6839 33.5052 45.211 33.9789 44.6267 33.9812H42.4457C42.3846 34.1428 42.3001 34.3464 42.2298 34.5042L43.7717 36.0564C44.1882 36.4716 44.1816 37.1416 43.7653 37.5568L40.7625 40.5534C40.348 40.9654 39.6787 40.9654 39.2642 40.5534L37.7226 39.0157C37.5641 39.0875 37.3557 39.1689 37.1934 39.2315V41.4083C37.1956 41.9984 36.7168 42.4772 36.1267 42.475H31.8747C31.2879 42.4727 30.8141 41.9951 30.8163 41.4083V39.2273C30.6546 39.1661 30.447 39.0819 30.2892 39.0115L28.7453 40.5534C28.3301 40.9695 27.6559 40.9695 27.2408 40.5534L24.2359 37.5568C23.8197 37.1416 23.8197 36.4675 24.2359 36.0523L25.7819 34.5083C25.71 34.3501 25.6204 34.1433 25.5578 33.9812H23.3809C22.7933 33.9835 22.3154 33.5084 22.3142 32.9208V28.6791C22.312 28.0891 22.7909 27.6102 23.3809 27.6125H25.5619C25.6246 27.4514 25.7063 27.2488 25.7777 27.0916L24.2359 25.5497C23.8183 25.1343 23.8183 24.4585 24.2359 24.0431L27.2407 21.0465C27.6559 20.6304 28.3301 20.6304 28.7453 21.0465L30.2934 22.5863C30.4509 22.5161 30.6549 22.4296 30.8163 22.3684V20.1853C30.8175 19.601 31.2902 19.1273 31.8746 19.1249ZM32.9433 21.252V23.1404C32.9413 23.6185 32.6202 24.0363 32.1589 24.1614C31.6149 24.3108 31.096 24.5282 30.6046 24.8047C30.1884 25.0421 29.6648 24.9716 29.3262 24.6325L27.994 23.2982L26.4957 24.7964L27.8279 26.137C28.1669 26.4755 28.2375 26.9991 28.0002 27.4153C27.7197 27.9045 27.5036 28.4272 27.3506 28.9697C27.2193 29.4245 26.803 29.7375 26.3296 29.7375H24.4391V31.8542H26.3296C26.8059 31.8555 27.2233 32.1735 27.3506 32.6324C27.5038 33.1748 27.7199 33.6954 28.0002 34.1846C28.2375 34.6008 28.1669 35.1244 27.8279 35.4629L26.4957 36.8035L27.994 38.3018L29.3262 36.9695C29.6628 36.6277 30.1865 36.5538 30.6046 36.789C31.096 37.0656 31.6149 37.283 32.1589 37.4323C32.6224 37.5581 32.944 37.9792 32.9433 38.4595V40.35H35.0683V38.4678C35.0693 37.9921 35.3863 37.5751 35.8444 37.4468C36.3883 37.2939 36.9063 37.0774 37.3967 36.7973C37.8111 36.5578 38.3345 36.6249 38.675 36.9612L40.0176 38.3018L41.5159 36.8035L40.1816 35.4712C39.8467 35.1341 39.7764 34.6154 40.0093 34.2012C40.2864 33.7098 40.5033 33.1824 40.6527 32.6386C40.7776 32.1779 41.1943 31.8571 41.6716 31.8542H43.5704V29.7375H41.6716C41.1966 29.7355 40.7808 29.4187 40.6527 28.9613C40.5034 28.4176 40.2864 27.8922 40.0093 27.4008C39.7752 26.9861 39.8455 26.4662 40.1816 26.1287L41.5159 24.7964L40.0176 23.2981L38.675 24.6325C38.3364 24.9715 37.8129 25.0421 37.3967 24.8047C36.9063 24.5245 36.3883 24.306 35.8444 24.1531C35.3871 24.0251 35.0702 23.6091 35.0683 23.1342V21.252L32.9433 21.252ZM34.0016 26.5541C36.3362 26.5541 38.2516 28.4697 38.2516 30.8041C38.2516 33.1385 36.3362 35.0562 34.0016 35.0562C31.6671 35.0562 29.7496 33.1385 29.7496 30.8041C29.7496 28.4697 31.6671 26.5541 34.0016 26.5541ZM34.0016 28.6791C32.8153 28.6791 31.8746 29.6184 31.8746 30.8041C31.8746 31.9899 32.8153 32.9291 34.0016 32.9291C35.1879 32.9291 36.1266 31.9899 36.1266 30.8041C36.1266 29.6184 35.1879 28.6791 34.0016 28.6791ZM5.26227 32.925C3.84527 32.9931 3.94703 35.1202 5.36395 35.0521H11.7389C13.1151 35.0524 13.0737 32.9253 11.7389 32.925H5.36395C5.33182 32.9234 5.296 32.9234 5.26227 32.925ZM56.2042 32.925C54.8885 33.0573 54.9081 34.9988 56.3121 35.0521H62.6871C64.1048 35.0524 64.1048 32.9254 62.6871 32.925H56.3121C56.2759 32.9232 56.2403 32.9232 56.2042 32.925ZM53.2449 44.0563C52.1794 44.116 51.8573 45.5343 52.7925 46.0485L58.3043 49.2402C59.6247 49.9446 60.5274 48.0426 59.3771 47.3974L53.853 44.2037C53.7004 44.1134 53.5277 44.0628 53.3508 44.0563C53.3146 44.0545 53.2803 44.0545 53.2449 44.0563ZM14.5923 44.0688C14.4562 44.0828 14.3153 44.1249 14.1752 44.1995L8.66974 47.3766C7.39562 48.1234 8.43558 49.9305 9.73846 49.2319L15.2585 46.0485C16.2903 45.2306 15.5452 43.971 14.5923 44.0688ZM27.61 53.1249C26.2253 53.1558 26.2253 55.2191 27.61 55.2499H40.358C41.784 55.2182 41.7897 53.1568 40.358 53.1249H27.61ZM28.5854 57.3749C27.2638 57.5562 27.299 59.433 28.6871 59.502H39.3079C40.7253 59.502 40.7253 57.3749 39.3079 57.3749H28.6871C28.6549 57.3733 28.6191 57.3733 28.5854 57.3749ZM30.7934 61.6249C29.4085 61.6554 29.4085 63.7192 30.7934 63.7499H37.1891C38.5741 63.7194 38.5741 61.6556 37.1891 61.6249H30.7934Z" fill="url(#paint0_linear_407_4779)"/>
<path d="M33.9871 4.25005C33.4006 4.25567 32.9293 4.73612 32.935 5.32293V11.7C32.9029 13.1485 35.0921 13.1485 35.06 11.7V5.32293C35.064 4.728 34.5817 4.24427 33.9871 4.25005ZM48.3682 8.08709C48.3281 8.08626 48.2893 8.08791 48.2499 8.0911C47.9002 8.12283 47.5906 8.32574 47.4198 8.63273L44.2365 14.1548C43.4851 15.3956 45.3868 16.4878 46.0793 15.2132L49.2605 9.69938C49.6848 8.99762 49.1879 8.10012 48.3682 8.08709ZM19.6247 8.0911C18.8175 8.12122 18.3377 9.00625 18.7531 9.69938L21.9365 15.2132C22.6534 16.3971 24.4401 15.3711 23.7792 14.1548L20.5876 8.63274C20.3932 8.28642 20.0215 8.07749 19.6247 8.0911ZM34.0245 13.8249C24.646 13.8249 16.9954 21.5152 16.9954 30.9639C16.9954 35.3783 19.3799 39.5351 21.6376 43.2055C23.8954 46.8759 25.9644 48.8749 25.9644 49.9333C25.9621 50.5441 26.4662 51.0022 27.056 50.9999H40.9951C41.564 51.002 42.0432 50.5233 42.041 49.9333C42.041 48.8749 44.0403 46.9422 46.3802 43.2013C48.6654 39.548 50.9996 35.3783 50.9996 30.9639C50.9996 21.5152 43.4029 13.8249 34.0245 13.8249ZM9.12628 18.5854C8.05982 18.6432 7.70415 20.0282 8.66351 20.59L14.1669 23.7671C15.3378 24.4395 16.4807 22.6797 15.2419 21.9451L9.73846 18.7348C9.55414 18.6242 9.3405 18.5721 9.12628 18.5854ZM58.7068 18.5854C58.5683 18.6022 58.4261 18.6497 58.2877 18.7348L52.7697 21.9202C51.5421 22.6273 52.6003 24.47 53.8281 23.763L59.3543 20.5776C60.5146 19.8621 59.6772 18.4669 58.7068 18.5854ZM31.8746 19.1249H36.1266C36.7142 19.1227 37.1921 19.5978 37.1933 20.1854L37.1954 22.3643C37.3577 22.4269 37.5577 22.5145 37.7163 22.5863L39.2623 21.0465C39.6851 20.6262 40.3461 20.6345 40.7606 21.0465L43.7634 24.0431C44.181 24.4585 44.181 25.1343 43.7634 25.5497L42.2257 27.0916C42.296 27.2493 42.3805 27.451 42.4415 27.6125H44.6267C45.2134 27.6148 45.6873 28.0923 45.685 28.6791V32.9208C45.6839 33.5052 45.211 33.9789 44.6267 33.9812H42.4457C42.3846 34.1428 42.3001 34.3464 42.2298 34.5042L43.7717 36.0564C44.1882 36.4716 44.1816 37.1416 43.7653 37.5568L40.7625 40.5534C40.348 40.9654 39.6787 40.9654 39.2642 40.5534L37.7226 39.0157C37.5641 39.0875 37.3557 39.1689 37.1934 39.2315V41.4083C37.1956 41.9984 36.7168 42.4772 36.1267 42.475H31.8747C31.2879 42.4727 30.8141 41.9951 30.8163 41.4083V39.2273C30.6546 39.1661 30.447 39.0819 30.2892 39.0115L28.7453 40.5534C28.3301 40.9695 27.6559 40.9695 27.2408 40.5534L24.2359 37.5568C23.8197 37.1416 23.8197 36.4675 24.2359 36.0523L25.7819 34.5083C25.71 34.3501 25.6204 34.1433 25.5578 33.9812H23.3809C22.7933 33.9835 22.3154 33.5084 22.3142 32.9208V28.6791C22.312 28.0891 22.7909 27.6102 23.3809 27.6125H25.5619C25.6246 27.4514 25.7063 27.2488 25.7777 27.0916L24.2359 25.5497C23.8183 25.1343 23.8183 24.4585 24.2359 24.0431L27.2407 21.0465C27.6559 20.6304 28.3301 20.6304 28.7453 21.0465L30.2934 22.5863C30.4509 22.5161 30.6549 22.4296 30.8163 22.3684V20.1853C30.8175 19.601 31.2902 19.1273 31.8746 19.1249ZM32.9433 21.252V23.1404C32.9413 23.6185 32.6202 24.0363 32.1589 24.1614C31.6149 24.3108 31.096 24.5282 30.6046 24.8047C30.1884 25.0421 29.6648 24.9716 29.3262 24.6325L27.994 23.2982L26.4957 24.7964L27.8279 26.137C28.1669 26.4755 28.2375 26.9991 28.0002 27.4153C27.7197 27.9045 27.5036 28.4272 27.3506 28.9697C27.2193 29.4245 26.803 29.7375 26.3296 29.7375H24.4391V31.8542H26.3296C26.8059 31.8555 27.2233 32.1735 27.3506 32.6324C27.5038 33.1748 27.7199 33.6954 28.0002 34.1846C28.2375 34.6008 28.1669 35.1244 27.8279 35.4629L26.4957 36.8035L27.994 38.3018L29.3262 36.9695C29.6628 36.6277 30.1865 36.5538 30.6046 36.789C31.096 37.0656 31.6149 37.283 32.1589 37.4323C32.6224 37.5581 32.944 37.9792 32.9433 38.4595V40.35H35.0683V38.4678C35.0693 37.9921 35.3863 37.5751 35.8444 37.4468C36.3883 37.2939 36.9063 37.0774 37.3967 36.7973C37.8111 36.5578 38.3345 36.6249 38.675 36.9612L40.0176 38.3018L41.5159 36.8035L40.1816 35.4712C39.8467 35.1341 39.7764 34.6154 40.0093 34.2012C40.2864 33.7098 40.5033 33.1824 40.6527 32.6386C40.7776 32.1779 41.1943 31.8571 41.6716 31.8542H43.5704V29.7375H41.6716C41.1966 29.7355 40.7808 29.4187 40.6527 28.9613C40.5034 28.4176 40.2864 27.8922 40.0093 27.4008C39.7752 26.9861 39.8455 26.4662 40.1816 26.1287L41.5159 24.7964L40.0176 23.2981L38.675 24.6325C38.3364 24.9715 37.8129 25.0421 37.3967 24.8047C36.9063 24.5245 36.3883 24.306 35.8444 24.1531C35.3871 24.0251 35.0702 23.6091 35.0683 23.1342V21.252L32.9433 21.252ZM34.0016 26.5541C36.3362 26.5541 38.2516 28.4697 38.2516 30.8041C38.2516 33.1385 36.3362 35.0562 34.0016 35.0562C31.6671 35.0562 29.7496 33.1385 29.7496 30.8041C29.7496 28.4697 31.6671 26.5541 34.0016 26.5541ZM34.0016 28.6791C32.8153 28.6791 31.8746 29.6184 31.8746 30.8041C31.8746 31.9899 32.8153 32.9291 34.0016 32.9291C35.1879 32.9291 36.1266 31.9899 36.1266 30.8041C36.1266 29.6184 35.1879 28.6791 34.0016 28.6791ZM5.26227 32.925C3.84527 32.9931 3.94703 35.1202 5.36395 35.0521H11.7389C13.1151 35.0524 13.0737 32.9253 11.7389 32.925H5.36395C5.33182 32.9234 5.296 32.9234 5.26227 32.925ZM56.2042 32.925C54.8885 33.0573 54.9081 34.9988 56.3121 35.0521H62.6871C64.1048 35.0524 64.1048 32.9254 62.6871 32.925H56.3121C56.2759 32.9232 56.2403 32.9232 56.2042 32.925ZM53.2449 44.0563C52.1794 44.116 51.8573 45.5343 52.7925 46.0485L58.3043 49.2402C59.6247 49.9446 60.5274 48.0426 59.3771 47.3974L53.853 44.2037C53.7004 44.1134 53.5277 44.0628 53.3508 44.0563C53.3146 44.0545 53.2803 44.0545 53.2449 44.0563ZM14.5923 44.0688C14.4562 44.0828 14.3153 44.1249 14.1752 44.1995L8.66974 47.3766C7.39562 48.1234 8.43558 49.9305 9.73846 49.2319L15.2585 46.0485C16.2903 45.2306 15.5452 43.971 14.5923 44.0688ZM27.61 53.1249C26.2253 53.1558 26.2253 55.2191 27.61 55.2499H40.358C41.784 55.2182 41.7897 53.1568 40.358 53.1249H27.61ZM28.5854 57.3749C27.2638 57.5562 27.299 59.433 28.6871 59.502H39.3079C40.7253 59.502 40.7253 57.3749 39.3079 57.3749H28.6871C28.6549 57.3733 28.6191 57.3733 28.5854 57.3749ZM30.7934 61.6249C29.4085 61.6554 29.4085 63.7192 30.7934 63.7499H37.1891C38.5741 63.7194 38.5741 61.6556 37.1891 61.6249H30.7934Z" fill="url(#paint1_linear_407_4779)"/>
<defs>
<linearGradient id="paint0_linear_407_4779" x1="33.9997" y1="4.25" x2="33.9997" y2="63.7499" gradientUnits="userSpaceOnUse">
<stop stop-color="#FF4825"/>
<stop offset="1" stop-color="#FF6EAE"/>
</linearGradient>
<linearGradient id="paint1_linear_407_4779" x1="33.9997" y1="0.680004" x2="33.9997" y2="63.7499" gradientUnits="userSpaceOnUse">
<stop stop-color="#FF2E00"/>
<stop offset="1" stop-color="#FF9C85"/>
</linearGradient>
</defs>
</svg>
