<svg width="40" height="40" viewBox="0 0 40 40" fill="none" xmlns="http://www.w3.org/2000/svg">
<path d="M36.6673 20C36.6673 17.8113 36.2362 15.6441 35.3986 13.622C34.5611 11.5999 33.3334 9.76257 31.7858 8.21493C30.2381 6.66728 28.4008 5.43963 26.3787 4.60205C24.3566 3.76447 22.1893 3.33337 20.0007 3.33337V6.66671C22.6376 6.66665 25.2154 7.44851 27.408 8.91343C29.6007 10.3783 31.3097 12.4605 32.319 14.8967C32.9892 16.5147 33.3341 18.2488 33.334 20H36.6673ZM3.33398 16.6667V8.33337C3.33398 7.89135 3.50958 7.46742 3.82214 7.15486C4.1347 6.8423 4.55862 6.66671 5.00065 6.66671H13.334C13.776 6.66671 14.1999 6.8423 14.5125 7.15486C14.8251 7.46742 15.0007 7.89135 15.0007 8.33337V15C15.0007 15.4421 14.8251 15.866 14.5125 16.1786C14.1999 16.4911 13.776 16.6667 13.334 16.6667H10.0007C10.0007 20.2029 11.4054 23.5943 13.9059 26.0948C16.4064 28.5953 19.7978 30 23.334 30V26.6667C23.334 26.2247 23.5096 25.8008 23.8221 25.4882C24.1347 25.1756 24.5586 25 25.0007 25H31.6673C32.1093 25 32.5333 25.1756 32.8458 25.4882C33.1584 25.8008 33.334 26.2247 33.334 26.6667V35C33.334 35.4421 33.1584 35.866 32.8458 36.1786C32.5333 36.4911 32.1093 36.6667 31.6673 36.6667H23.334C12.289 36.6667 3.33398 27.7117 3.33398 16.6667Z" fill="#FF5029"/>
<path d="M29.2383 16.1733C29.741 17.3865 29.9998 18.6868 30 20H27C27 18.1435 26.2625 16.363 24.9497 15.0503C23.637 13.7375 21.8565 13 20 13V10C21.9778 10.0001 23.9111 10.5867 25.5555 11.6855C27.1999 12.7843 28.4815 14.3461 29.2383 16.1733Z" fill="#FF5029"/>
</svg>
