<svg width="29" height="31" viewBox="0 0 29 31" fill="none" xmlns="http://www.w3.org/2000/svg">
<path d="M21.2509 30.5H15.7009C14.4468 30.4997 13.2386 30.0281 12.3159 29.1788L0.815939 18.5962C0.547436 18.3508 0.335679 18.0497 0.195421 17.7141C0.0551627 17.3784 -0.0102232 17.0162 0.00381793 16.6527C0.0178591 16.2891 0.11099 15.933 0.276722 15.6092C0.442454 15.2853 0.676802 15.0015 0.963439 14.7775C1.45451 14.4177 2.05652 14.2422 2.66399 14.2818C3.27146 14.3213 3.84565 14.5734 4.28594 14.9937L8.75094 19.0713V3C8.75094 2.33696 9.01433 1.70107 9.48317 1.23223C9.95201 0.763392 10.5879 0.5 11.2509 0.5C11.914 0.5 12.5499 0.763392 13.0187 1.23223C13.4875 1.70107 13.7509 2.33696 13.7509 3V11.75C13.7509 11.087 14.0143 10.4511 14.4832 9.98223C14.952 9.51339 15.5879 9.25 16.2509 9.25C16.914 9.25 17.5499 9.51339 18.0187 9.98223C18.4875 10.4511 18.7509 11.087 18.7509 11.75V13C18.7509 12.337 19.0143 11.7011 19.4832 11.2322C19.952 10.7634 20.5879 10.5 21.2509 10.5C21.914 10.5 22.5499 10.7634 23.0187 11.2322C23.4875 11.7011 23.7509 12.337 23.7509 13V14.25C23.7509 13.587 24.0143 12.9511 24.4832 12.4822C24.952 12.0134 25.5879 11.75 26.2509 11.75C26.914 11.75 27.5499 12.0134 28.0187 12.4822C28.4875 12.9511 28.7509 13.587 28.7509 14.25V23C28.7509 24.9891 27.9608 26.8968 26.5542 28.3033C25.1477 29.7098 23.2401 30.5 21.2509 30.5Z" fill="#FF5029"/>
</svg>
