<svg width="28" height="34" viewBox="0 0 28 34" fill="none" xmlns="http://www.w3.org/2000/svg">
<path d="M15.666 12H24.8327L15.666 2.83333V12ZM3.99935 0.333328H17.3327L27.3327 10.3333V30.3333C27.3327 31.2174 26.9815 32.0652 26.3564 32.6903C25.7313 33.3155 24.8834 33.6667 23.9993 33.6667H3.99935C3.11529 33.6667 2.26745 33.3155 1.64233 32.6903C1.0172 32.0652 0.666016 31.2174 0.666016 30.3333V3.66666C0.666016 1.81666 2.14935 0.333328 3.99935 0.333328ZM17.3327 30.3333V28.6667C17.3327 26.45 12.8827 25.3333 10.666 25.3333C8.44935 25.3333 3.99935 26.45 3.99935 28.6667V30.3333H17.3327ZM10.666 17C9.78196 17 8.93412 17.3512 8.30899 17.9763C7.68387 18.6014 7.33268 19.4493 7.33268 20.3333C7.33268 21.2174 7.68387 22.0652 8.30899 22.6903C8.93412 23.3155 9.78196 23.6667 10.666 23.6667C11.5501 23.6667 12.3979 23.3155 13.023 22.6903C13.6482 22.0652 13.9993 21.2174 13.9993 20.3333C13.9993 19.4493 13.6482 18.6014 13.023 17.9763C12.3979 17.3512 11.5501 17 10.666 17Z" fill="#FF5029"/>
</svg>
