<svg width="40" height="40" viewBox="0 0 40 40" fill="none" xmlns="http://www.w3.org/2000/svg">
<path d="M36.6673 12.5583V28.3333C36.6674 29.6087 36.1801 30.8359 35.3052 31.7638C34.4302 32.6917 33.2338 33.2502 31.9607 33.325L31.6673 33.3333H8.33398C7.05863 33.3334 5.83146 32.8461 4.90355 31.9712C3.97564 31.0963 3.41714 29.8998 3.34232 28.6267L3.33398 28.3333V12.5583L19.0757 23.0533L19.269 23.1633C19.4968 23.2747 19.7471 23.3325 20.0007 23.3325C20.2542 23.3325 20.5045 23.2747 20.7323 23.1633L20.9257 23.0533L36.6673 12.5583Z" fill="#FF5029"/>
<path d="M31.6678 6.66663C33.4678 6.66663 35.0462 7.61663 35.9262 9.04496L20.0012 19.6616L4.07617 9.04496C4.49416 8.36633 5.06832 7.79746 5.75079 7.38578C6.43326 6.97409 7.20426 6.73152 7.9995 6.67829L8.33451 6.66663H31.6678Z" fill="#FF5029"/>
</svg>
