<svg width="79" height="18" viewBox="0 0 79 18" fill="none" xmlns="http://www.w3.org/2000/svg">
<path d="M6 4.5C3.5 4.5 1.5 6.5 1.5 9C1.5 11.5 3.5 13.5 6 13.5C8.5 13.5 10.5 11.5 10.5 9C10.5 6.5 8.5 4.5 6 4.5Z" fill="white"/>
<path d="M79 9L64 0.339746V17.6603L79 9ZM3 9C3 7.32843 4.32843 6 6 6V3C2.67157 3 0 5.67157 0 9H3ZM6 6C7.67157 6 9 7.32843 9 9H12C12 5.67157 9.32843 3 6 3V6ZM9 9C9 10.6716 7.67157 12 6 12V15C9.32843 15 12 12.3284 12 9H9ZM6 12C4.32843 12 3 10.6716 3 9H0C0 12.3284 2.67157 15 6 15V12ZM10.5 10.5H65.5V7.5H10.5V10.5Z" fill="url(#paint0_linear_406_4771)"/>
<defs>
<linearGradient id="paint0_linear_406_4771" x1="40.25" y1="3.96" x2="40.25" y2="13.5" gradientUnits="userSpaceOnUse">
<stop stop-color="#FF5029"/>
<stop offset="1" stop-color="#FF9C85"/>
</linearGradient>
</defs>
</svg>
