<svg width="350" height="210" viewBox="0 0 350 210" fill="none" xmlns="http://www.w3.org/2000/svg">
<path d="M176.859 11.5937L123.922 54.4688C115.117 61.5781 113.422 74.375 120.094 83.5078C127.148 93.2422 140.875 95.1562 150.336 87.7734L204.641 45.5547C208.469 42.6016 213.938 43.2578 216.945 47.0859C219.953 50.9141 219.242 56.3828 215.414 59.3906L203.984 68.25L280 138.25V35H279.617L277.484 33.6328L237.781 8.20312C229.414 2.84375 219.625 0 209.672 0C197.75 0 186.156 4.10156 176.859 11.5937ZM189.328 79.625L161.055 101.609C143.828 115.062 118.836 111.563 105.93 93.8438C93.7891 77.1641 96.8516 53.8672 112.875 40.9062L158.375 4.10156C152.031 1.42188 145.195 0.0546867 138.25 0.0546867C127.969 -8.3528e-07 117.961 3.0625 109.375 8.75L70 35V157.5H85.4219L135.406 203.109C146.125 212.898 162.695 212.133 172.484 201.414C175.492 198.078 177.516 194.195 178.555 190.148L187.852 198.68C198.516 208.469 215.141 207.758 224.93 197.094C227.391 194.414 229.195 191.297 230.344 188.07C240.953 195.18 255.391 193.703 264.305 183.969C274.094 173.305 273.383 156.68 262.719 146.891L189.328 79.625ZM8.75 35C3.9375 35 0 38.9375 0 43.75V157.5C0 167.18 7.82031 175 17.5 175H35C44.6797 175 52.5 167.18 52.5 157.5V35H8.75ZM26.25 140C28.5706 140 30.7962 140.922 32.4372 142.563C34.0781 144.204 35 146.429 35 148.75C35 151.071 34.0781 153.296 32.4372 154.937C30.7962 156.578 28.5706 157.5 26.25 157.5C23.9294 157.5 21.7038 156.578 20.0628 154.937C18.4219 153.296 17.5 151.071 17.5 148.75C17.5 146.429 18.4219 144.204 20.0628 142.563C21.7038 140.922 23.9294 140 26.25 140ZM297.5 35V157.5C297.5 167.18 305.32 175 315 175H332.5C342.18 175 350 167.18 350 157.5V43.75C350 38.9375 346.062 35 341.25 35H297.5ZM315 148.75C315 146.429 315.922 144.204 317.563 142.563C319.204 140.922 321.429 140 323.75 140C326.071 140 328.296 140.922 329.937 142.563C331.578 144.204 332.5 146.429 332.5 148.75C332.5 151.071 331.578 153.296 329.937 154.937C328.296 156.578 326.071 157.5 323.75 157.5C321.429 157.5 319.204 156.578 317.563 154.937C315.922 153.296 315 151.071 315 148.75Z" fill="#FEF3E2"/>
</svg>
