<svg width="52" height="52" viewBox="0 0 52 52" fill="none" xmlns="http://www.w3.org/2000/svg">
<rect width="52" height="52" rx="26" fill="url(#paint0_linear_273_3679)"/>
<path fill-rule="evenodd" clip-rule="evenodd" d="M21.9998 16C22.2171 16 22.4284 16.0709 22.6019 16.2017C22.7753 16.3326 22.9014 16.5164 22.9611 16.7253L24.0451 20.52C24.2785 21.3372 24.7164 22.0815 25.3173 22.6824C25.9183 23.2834 26.6625 23.7213 27.4798 23.9547L31.2744 25.0387C31.4832 25.0985 31.6669 25.2246 31.7976 25.3981C31.9283 25.5715 31.999 25.7828 31.999 26C31.999 26.2172 31.9283 26.4285 31.7976 26.6019C31.6669 26.7754 31.4832 26.9015 31.2744 26.9613L27.4798 28.0453C26.6625 28.2787 25.9183 28.7166 25.3173 29.3176C24.7164 29.9185 24.2785 30.6628 24.0451 31.48L22.9611 35.2747C22.9013 35.4835 22.7751 35.6671 22.6017 35.7978C22.4282 35.9286 22.217 35.9993 21.9998 35.9993C21.7826 35.9993 21.5713 35.9286 21.3978 35.7978C21.2244 35.6671 21.0982 35.4835 21.0384 35.2747L19.9544 31.48C19.721 30.6628 19.2832 29.9185 18.6822 29.3176C18.0812 28.7166 17.337 28.2787 16.5198 28.0453L12.7251 26.9613C12.5163 26.9015 12.3327 26.7754 12.2019 26.6019C12.0712 26.4285 12.0005 26.2172 12.0005 26C12.0005 25.7828 12.0712 25.5715 12.2019 25.3981C12.3327 25.2246 12.5163 25.0985 12.7251 25.0387L16.5198 23.9547C17.337 23.7213 18.0812 23.2834 18.6822 22.6824C19.2832 22.0815 19.721 21.3372 19.9544 20.52L21.0384 16.7253C21.0981 16.5164 21.2242 16.3326 21.3977 16.2017C21.5711 16.0709 21.7825 16 21.9998 16ZM33.9998 12C34.2229 11.9999 34.4396 12.0744 34.6155 12.2116C34.7914 12.3488 34.9163 12.5409 34.9704 12.7573L35.3144 14.1387C35.469 14.7538 35.7874 15.3155 36.2359 15.7639C36.6843 16.2124 37.246 16.5308 37.8611 16.6853L39.2424 17.0293C39.4593 17.083 39.6519 17.2078 39.7895 17.3837C39.9272 17.5597 40.002 17.7766 40.002 18C40.002 18.2234 39.9272 18.4403 39.7895 18.6163C39.6519 18.7922 39.4593 18.917 39.2424 18.9707L37.8611 19.3147C37.246 19.4692 36.6843 19.7876 36.2359 20.2361C35.7874 20.6845 35.469 21.2462 35.3144 21.8613L34.9704 23.2427C34.9167 23.4595 34.792 23.6521 34.616 23.7898C34.4401 23.9274 34.2232 24.0022 33.9998 24.0022C33.7764 24.0022 33.5594 23.9274 33.3835 23.7898C33.2076 23.6521 33.0828 23.4595 33.0291 23.2427L32.6851 21.8613C32.5306 21.2462 32.2121 20.6845 31.7637 20.2361C31.3152 19.7876 30.7535 19.4692 30.1384 19.3147L28.7571 18.9707C28.5403 18.917 28.3477 18.7922 28.21 18.6163C28.0723 18.4403 27.9975 18.2234 27.9975 18C27.9975 17.7766 28.0723 17.5597 28.21 17.3837C28.3477 17.2078 28.5403 17.083 28.7571 17.0293L30.1384 16.6853C30.7535 16.5308 31.3152 16.2124 31.7637 15.7639C32.2121 15.3155 32.5306 14.7538 32.6851 14.1387L33.0291 12.7573C33.0832 12.5409 33.2082 12.3488 33.3841 12.2116C33.56 12.0744 33.7767 11.9999 33.9998 12ZM31.9998 30C32.2098 29.9999 32.4145 30.0659 32.5849 30.1887C32.7553 30.3114 32.8827 30.4847 32.9491 30.684L33.4744 32.2613C33.6744 32.8573 34.1411 33.3267 34.7384 33.5253L36.3158 34.052C36.5144 34.1187 36.687 34.2461 36.8094 34.4162C36.9317 34.5863 36.9975 34.7905 36.9975 35C36.9975 35.2095 36.9317 35.4137 36.8094 35.5838C36.687 35.7539 36.5144 35.8813 36.3158 35.948L34.7384 36.4747C34.4441 36.5729 34.1767 36.7382 33.9574 36.9576C33.738 37.177 33.5727 37.4444 33.4744 37.7387L32.9478 39.316C32.8811 39.5146 32.7537 39.6873 32.5836 39.8096C32.4135 39.9319 32.2093 39.9977 31.9998 39.9977C31.7903 39.9977 31.586 39.9319 31.4159 39.8096C31.2458 39.6873 31.1185 39.5146 31.0518 39.316L30.5251 37.7387C30.4269 37.4444 30.2616 37.177 30.0422 36.9576C29.8228 36.7382 29.5554 36.5729 29.2611 36.4747L27.6838 35.948C27.4851 35.8813 27.3125 35.7539 27.1902 35.5838C27.0678 35.4137 27.002 35.2095 27.002 35C27.002 34.7905 27.0678 34.5863 27.1902 34.4162C27.3125 34.2461 27.4851 34.1187 27.6838 34.052L29.2611 33.5253C29.5554 33.4271 29.8228 33.2618 30.0422 33.0424C30.2616 32.823 30.4269 32.5556 30.5251 32.2613L31.0518 30.684C31.1181 30.485 31.2453 30.3118 31.4154 30.189C31.5855 30.0663 31.79 30.0002 31.9998 30Z" fill="white"/>
<defs>
<linearGradient id="paint0_linear_273_3679" x1="26" y1="-3.12" x2="26" y2="52" gradientUnits="userSpaceOnUse">
<stop stop-color="#FF5029"/>
<stop offset="1" stop-color="#FF9C85"/>
</linearGradient>
</defs>
</svg>
