<svg width="64" height="64" viewBox="0 0 64 64" fill="none" xmlns="http://www.w3.org/2000/svg">
<rect width="64" height="64" rx="8" fill="url(#paint0_linear_124_431)"/>
<path fill-rule="evenodd" clip-rule="evenodd" d="M13.6665 21C13.6665 19.5413 14.246 18.1424 15.2774 17.1109C16.3089 16.0795 17.7078 15.5 19.1665 15.5H44.8332C46.2919 15.5 47.6908 16.0795 48.7223 17.1109C49.7537 18.1424 50.3332 19.5413 50.3332 21V43C50.3332 44.4587 49.7537 45.8576 48.7223 46.8891C47.6908 47.9205 46.2919 48.5 44.8332 48.5H19.1665C17.7078 48.5 16.3089 47.9205 15.2774 46.8891C14.246 45.8576 13.6665 44.4587 13.6665 43V21ZM22.8332 22.8333C22.3469 22.8333 21.8806 23.0265 21.5368 23.3703C21.193 23.7141 20.9998 24.1804 20.9998 24.6667C20.9998 25.1529 21.193 25.6192 21.5368 25.963C21.8806 26.3068 22.3469 26.5 22.8332 26.5H31.9998C32.4861 26.5 32.9524 26.3068 33.2962 25.963C33.64 25.6192 33.8332 25.1529 33.8332 24.6667C33.8332 24.1804 33.64 23.7141 33.2962 23.3703C32.9524 23.0265 32.4861 22.8333 31.9998 22.8333H22.8332ZM37.4998 22.8333C37.0136 22.8333 36.5473 23.0265 36.2035 23.3703C35.8597 23.7141 35.6665 24.1804 35.6665 24.6667C35.6665 25.1529 35.8597 25.6192 36.2035 25.963C36.5473 26.3068 37.0136 26.5 37.4998 26.5H41.1665C41.6527 26.5 42.1191 26.3068 42.4629 25.963C42.8067 25.6192 42.9998 25.1529 42.9998 24.6667C42.9998 24.1804 42.8067 23.7141 42.4629 23.3703C42.1191 23.0265 41.6527 22.8333 41.1665 22.8333H37.4998ZM22.8332 30.1667C22.3469 30.1667 21.8806 30.3598 21.5368 30.7036C21.193 31.0475 20.9998 31.5138 20.9998 32C20.9998 32.4862 21.193 32.9525 21.5368 33.2964C21.8806 33.6402 22.3469 33.8333 22.8332 33.8333H24.6665C25.1527 33.8333 25.6191 33.6402 25.9629 33.2964C26.3067 32.9525 26.4998 32.4862 26.4998 32C26.4998 31.5138 26.3067 31.0475 25.9629 30.7036C25.6191 30.3598 25.1527 30.1667 24.6665 30.1667H22.8332ZM30.1665 30.1667C29.6803 30.1667 29.214 30.3598 28.8701 30.7036C28.5263 31.0475 28.3332 31.5138 28.3332 32C28.3332 32.4862 28.5263 32.9525 28.8701 33.2964C29.214 33.6402 29.6803 33.8333 30.1665 33.8333H41.1665C41.6527 33.8333 42.1191 33.6402 42.4629 33.2964C42.8067 32.9525 42.9998 32.4862 42.9998 32C42.9998 31.5138 42.8067 31.0475 42.4629 30.7036C42.1191 30.3598 41.6527 30.1667 41.1665 30.1667H30.1665ZM22.8332 37.5C22.3469 37.5 21.8806 37.6932 21.5368 38.037C21.193 38.3808 20.9998 38.8471 20.9998 39.3333C20.9998 39.8196 21.193 40.2859 21.5368 40.6297C21.8806 40.9735 22.3469 41.1667 22.8332 41.1667H31.9998C32.4861 41.1667 32.9524 40.9735 33.2962 40.6297C33.64 40.2859 33.8332 39.8196 33.8332 39.3333C33.8332 38.8471 33.64 38.3808 33.2962 38.037C32.9524 37.6932 32.4861 37.5 31.9998 37.5H22.8332ZM37.4998 37.5C37.0136 37.5 36.5473 37.6932 36.2035 38.037C35.8597 38.3808 35.6665 38.8471 35.6665 39.3333C35.6665 39.8196 35.8597 40.2859 36.2035 40.6297C36.5473 40.9735 37.0136 41.1667 37.4998 41.1667H41.1665C41.6527 41.1667 42.1191 40.9735 42.4629 40.6297C42.8067 40.2859 42.9998 39.8196 42.9998 39.3333C42.9998 38.8471 42.8067 38.3808 42.4629 38.037C42.1191 37.6932 41.6527 37.5 41.1665 37.5H37.4998Z" fill="white"/>
<defs>
<linearGradient id="paint0_linear_124_431" x1="32" y1="-3.84" x2="32" y2="64" gradientUnits="userSpaceOnUse">
<stop stop-color="#FF5029"/>
<stop offset="1" stop-color="#FF9C85"/>
</linearGradient>
</defs>
</svg>
