<svg width="28" height="28" viewBox="0 0 28 28" fill="none" xmlns="http://www.w3.org/2000/svg">
<path d="M6.53363 3.64164C2.92518 3.64164 0 6.56764 0 10.1773C0 13.7858 2.92518 16.7118 6.53363 16.7118C6.53363 16.7118 6.50202 19.1395 4.52977 22.6336C4.31069 23.3337 4.70121 24.0792 5.40176 24.2971C5.89881 24.4534 6.42184 24.3014 6.75959 23.9477C11.2946 18.9875 13.0697 13.1497 13.0697 10.1773C13.0697 6.56764 10.1446 3.64164 6.53363 3.64164Z" fill="url(#paint0_linear_305_3672)"/>
<path d="M21.4643 3.64164C17.8558 3.64164 14.9307 6.5677 14.9307 10.1773C14.9307 13.7858 17.8558 16.7118 21.4643 16.7118C21.4643 16.7118 21.4327 19.1395 19.4604 22.6336C19.2414 23.3337 19.6319 24.0792 20.3324 24.2971C20.8295 24.4534 21.3525 24.3014 21.6902 23.9477C26.2252 18.9875 28.0004 13.1497 28.0004 10.1773C28.0004 6.56764 25.0752 3.64164 21.4643 3.64164Z" fill="url(#paint1_linear_305_3672)"/>
<defs>
<linearGradient id="paint0_linear_305_3672" x1="6.53486" y1="3.64164" x2="6.53486" y2="24.3584" gradientUnits="userSpaceOnUse">
<stop stop-color="#FF512F"/>
<stop offset="1" stop-color="#DD2476"/>
</linearGradient>
<linearGradient id="paint1_linear_305_3672" x1="21.4655" y1="3.64164" x2="21.4655" y2="24.3584" gradientUnits="userSpaceOnUse">
<stop stop-color="#FF512F"/>
<stop offset="1" stop-color="#DD2476"/>
</linearGradient>
</defs>
</svg>
