<svg width="120" height="120" viewBox="0 0 120 120" fill="none" xmlns="http://www.w3.org/2000/svg">
<rect x="0.5" y="0.5" width="119" height="119" rx="15.5" fill="white"/>
<rect x="0.5" y="0.5" width="119" height="119" rx="15.5" stroke="#FFE4BB"/>
<path d="M50.2369 22.1001C49.4419 22.1271 48.6844 22.3206 48 22.7151C46.632 23.5048 45.8152 24.9538 45.4481 26.6687C45.0814 28.384 45.12 30.4236 45.4856 32.7062C45.6266 33.5863 45.8329 34.5118 46.0714 35.458C45.1328 35.7242 44.2279 36.0092 43.3954 36.3272C41.2354 37.1522 39.4504 38.1385 38.1484 39.3141C36.8464 40.4897 36 41.9203 36 43.4998C36 45.0793 36.846 46.5111 38.1484 47.6863C39.45 48.8623 41.235 49.8486 43.395 50.6736C44.2275 50.9916 45.1324 51.2758 46.071 51.5425C45.8325 52.4886 45.6263 53.4141 45.4853 54.2938C45.1196 56.5776 45.0817 58.6165 45.4485 60.3313C45.816 62.047 46.6316 63.4956 47.9996 64.2853C49.3676 65.0751 51.0296 65.0578 52.6987 64.5178C54.3675 63.9778 56.115 62.9252 57.9094 61.4668C58.6009 60.9051 59.2995 60.2646 60 59.5843C60.6998 60.2646 61.3987 60.9051 62.0902 61.4668C63.8842 62.9256 65.631 63.9782 67.3001 64.5182C68.9689 65.0582 70.632 65.0751 72 64.2857C73.368 63.4956 74.1847 62.047 74.5519 60.3317C74.9186 58.6165 74.8792 56.5772 74.5136 54.2942C74.3726 53.4141 74.1671 52.4886 73.9286 51.5425C74.8672 51.2762 75.7721 50.9912 76.6046 50.6736C78.7646 49.849 80.5496 48.8623 81.8516 47.6867C83.1536 46.5111 84 45.0793 84 43.4998C84 41.9203 83.154 40.4893 81.8516 39.3141C80.5496 38.1388 78.7646 37.1518 76.6046 36.3272C75.7721 36.0096 74.868 35.7242 73.9294 35.458C74.1679 34.5118 74.3734 33.586 74.5144 32.7062C74.88 30.4236 74.9179 28.384 74.5511 26.6687C74.1844 24.9535 73.3684 23.5048 72 22.7151C70.6316 21.9253 68.97 21.9426 67.3009 22.4826C65.6321 23.0226 63.8846 24.0756 62.0902 25.5336C61.3987 26.0961 60.699 26.7366 59.9989 27.4168C59.2987 26.737 58.6001 26.0957 57.9086 25.5336C56.115 24.0756 54.369 23.0218 52.7003 22.4818C51.8655 22.2118 51.0323 22.0731 50.2365 22.0993L50.2369 22.1001ZM50.3329 24.1795C50.8316 24.1652 51.4031 24.2571 52.0579 24.4682C53.3666 24.892 54.936 25.807 56.5928 27.1532C57.231 27.6715 57.8839 28.2715 58.5416 28.912C57.1676 30.397 55.8049 32.0856 54.4864 33.9497C52.2127 34.1597 50.0689 34.4957 48.0953 34.9435C47.8703 34.0532 47.6768 33.1885 47.5466 32.3758C47.2091 30.2683 47.2016 28.4515 47.4896 27.106C47.7773 25.7608 48.3154 24.9433 49.0436 24.523C49.4078 24.313 49.8341 24.193 50.3329 24.1795ZM69.6675 24.1795C70.1662 24.1933 70.5926 24.3126 70.9567 24.523C71.685 24.943 72.2231 25.7605 72.5107 27.1056C72.7984 28.4507 72.792 30.268 72.4545 32.3758C72.3244 33.1877 72.1312 34.0536 71.9059 34.9431C69.9326 34.4957 67.7884 34.1593 65.514 33.9497C64.1955 32.086 62.832 30.397 61.458 28.9116C62.1157 28.2715 62.7694 27.6711 63.4076 27.1528C65.0644 25.8058 66.6337 24.8923 67.9429 24.4686C68.5972 24.2571 69.1691 24.1656 69.6679 24.1798L69.6675 24.1795ZM60 30.4131C60.9818 31.4846 61.9128 32.6016 62.79 33.7603C61.8735 33.7191 60.9461 33.6913 60 33.6913C59.0543 33.6913 58.1269 33.7187 57.21 33.7603C58.0867 32.6013 59.0178 31.4843 60 30.4131ZM60 35.7786C61.4944 35.7786 62.9513 35.8375 64.3628 35.9436C65.1836 37.1457 65.959 38.3782 66.6874 39.6385C67.4147 40.8996 68.0945 42.1876 68.7251 43.4998C68.0945 44.8118 67.4147 46.0996 66.6874 47.3605C65.9589 48.6212 65.1834 49.854 64.3624 51.0565C62.9513 51.1626 61.4944 51.2218 60.0004 51.2218C58.5441 51.2215 57.0883 51.1665 55.6361 51.0568C54.8155 49.8543 54.0403 48.6213 53.3123 47.3605C52.5849 46.0998 51.9052 44.8123 51.2745 43.5006C51.9054 42.1884 52.5854 40.9004 53.313 39.6392C54.0414 38.3787 54.817 37.1459 55.638 35.9436C57.0895 35.834 58.5443 35.7789 60 35.7786ZM52.9601 36.2147C52.4572 36.9974 51.9721 37.7913 51.5051 38.596C51.0417 39.4025 50.5965 40.2195 50.1701 41.0462C49.605 39.7072 49.1029 38.3425 48.6656 36.9565C50.0119 36.6565 51.4451 36.4052 52.9601 36.2147ZM67.0403 36.2147C68.4826 36.3947 69.9156 36.6422 71.3347 36.9565C70.8975 38.3427 70.3954 39.7077 69.8302 41.047C69.4039 40.2198 68.9587 39.4025 68.4953 38.5956C68.0283 37.7909 67.5432 36.997 67.0403 36.2143V36.2147ZM46.6369 37.4676C47.2361 39.4003 48.0173 41.4253 48.9731 43.4991C48.0169 45.5736 47.2369 47.5993 46.6369 49.5321C45.7537 49.2827 44.9081 49.0168 44.1394 48.7236C42.1448 47.9623 40.5679 47.0593 39.5464 46.1368C38.5252 45.2151 38.0865 44.3406 38.0865 43.4995C38.0865 42.6587 38.5252 41.785 39.5464 40.8632C40.5679 39.9407 42.1451 39.0381 44.1394 38.2768C44.9081 37.9832 45.7537 37.717 46.6369 37.4672V37.4676ZM73.3631 37.4676C74.2466 37.7173 75.0926 37.9836 75.8606 38.2776C77.8556 39.0388 79.4325 39.9411 80.454 40.8632C81.4751 41.7857 81.9139 42.6595 81.9139 43.4998C81.9139 44.341 81.4751 45.2155 80.454 46.1372C79.4325 47.0597 77.8552 47.962 75.861 48.7236C75.0923 49.0168 74.2459 49.2823 73.3628 49.5321C72.7635 47.5997 71.9827 45.5747 71.0276 43.5006C71.9835 41.4261 72.7635 39.4007 73.3631 37.4676ZM60 39.2218C58.8655 39.222 57.7775 39.6728 56.9752 40.4751C56.173 41.2773 55.7222 42.3653 55.722 43.4998C55.7222 44.6344 56.173 45.7225 56.9753 46.5248C57.7777 47.327 58.8658 47.7777 60.0004 47.7778C61.1349 47.7776 62.2229 47.3269 63.0252 46.5246C63.8274 45.7224 64.2782 44.6344 64.2784 43.4998C64.2782 42.3652 63.8273 41.2772 63.025 40.4749C62.2227 39.6727 61.1346 39.2219 60 39.2218ZM69.8302 45.9535C70.3952 47.2927 70.897 48.6577 71.334 50.044C69.9885 50.344 68.5553 50.5956 67.041 50.7865C67.5436 50.0034 68.0283 49.2091 68.4949 48.4041C68.9584 47.5974 69.4038 46.7803 69.8302 45.9535ZM50.1701 45.9542C50.5965 46.7808 51.0417 47.5977 51.5051 48.4041C51.9723 49.2089 52.4574 50.0031 52.9601 50.7861C51.5177 50.6065 50.0846 50.3589 48.6656 50.044C49.1029 48.658 49.605 47.2932 50.1701 45.9542ZM48.0945 52.0573C50.0677 52.5043 52.212 52.84 54.4864 53.0496C55.8049 54.9145 57.1684 56.6035 58.5424 58.0896C57.8846 58.729 57.2318 59.329 56.5935 59.8483C54.9368 61.1946 53.3659 62.1096 52.0568 62.5333C50.748 62.9563 49.7711 62.8982 49.0429 62.4778C48.3146 62.0571 47.7773 61.2403 47.4896 59.8952C47.2016 58.5497 47.2087 56.7328 47.5466 54.6242C47.6768 53.8123 47.8691 52.9468 48.0945 52.0573ZM71.9051 52.0573C72.1301 52.9468 72.3236 53.8123 72.4538 54.6242C72.7912 56.7328 72.7987 58.5497 72.5107 59.8952C72.2231 61.2407 71.685 62.0578 70.9567 62.479C70.2285 62.899 69.252 62.9563 67.9429 62.5326C66.6337 62.1088 65.0644 61.1938 63.4076 59.8476C62.7697 59.329 62.1161 58.729 61.4587 58.0888C62.8328 56.6038 64.1955 54.9141 65.514 53.0496C67.7876 52.84 69.9315 52.5043 71.9051 52.0573ZM57.21 53.2393C58.1395 53.2837 59.0698 53.307 60.0004 53.3091C60.931 53.307 61.8615 53.2837 62.7911 53.2393C61.9142 54.3989 60.9829 55.5164 60.0004 56.5881C59.0181 55.5164 58.0867 54.3989 57.21 53.2393Z" fill="#61DAFB"/>
<path d="M41.9848 97.5V87.3182H45.6141C46.4029 87.3182 47.0575 87.4541 47.5779 87.7259C48.1015 87.9976 48.4926 88.3738 48.7512 88.8544C49.0097 89.3317 49.1389 89.8835 49.1389 90.5099C49.1389 91.133 49.008 91.6816 48.7462 92.1555C48.4877 92.6262 48.0966 92.9924 47.5729 93.2543C47.0525 93.5161 46.3979 93.647 45.6091 93.647H42.8598V92.3246H45.4699C45.9671 92.3246 46.3714 92.2533 46.683 92.1108C46.9978 91.9683 47.2282 91.7611 47.374 91.4893C47.5199 91.2176 47.5928 90.8911 47.5928 90.5099C47.5928 90.1255 47.5182 89.7924 47.3691 89.5107C47.2232 89.2289 46.9929 89.0135 46.678 88.8643C46.3664 88.7119 45.9571 88.6357 45.45 88.6357H43.521V97.5H41.9848ZM47.0111 92.9062L49.5267 97.5H47.7767L45.3108 92.9062H47.0111ZM54.0844 97.6541C53.3321 97.6541 52.6841 97.4934 52.1405 97.1719C51.6003 96.8471 51.1827 96.3913 50.8877 95.8047C50.596 95.2147 50.4502 94.5237 50.4502 93.7315C50.4502 92.9493 50.596 92.2599 50.8877 91.6634C51.1827 91.0668 51.5937 90.6011 52.1206 90.2663C52.651 89.9316 53.2707 89.7642 53.98 89.7642C54.4109 89.7642 54.8285 89.8355 55.2329 89.978C55.6372 90.1205 56.0001 90.3442 56.3216 90.6491C56.6431 90.9541 56.8967 91.3501 57.0823 91.8374C57.2679 92.3213 57.3607 92.9096 57.3607 93.6023V94.1293H51.2904V93.0156H55.904C55.904 92.6245 55.8245 92.2782 55.6654 91.9766C55.5063 91.6716 55.2826 91.4313 54.9942 91.2557C54.7092 91.08 54.3744 90.9922 53.99 90.9922C53.5724 90.9922 53.2078 91.0949 52.8962 91.3004C52.588 91.5026 52.3493 91.7678 52.1803 92.0959C52.0146 92.4207 51.9317 92.7737 51.9317 93.1548V94.0249C51.9317 94.5353 52.0212 94.9695 52.2002 95.3274C52.3825 95.6854 52.636 95.9588 52.9608 96.1477C53.2857 96.3333 53.6652 96.4261 54.0993 96.4261C54.3811 96.4261 54.6379 96.3864 54.8699 96.3068C55.1019 96.224 55.3025 96.1013 55.4715 95.9389C55.6405 95.7765 55.7698 95.576 55.8593 95.3374L57.2662 95.5909C57.1536 96.0052 56.9514 96.3681 56.6597 96.6797C56.3714 96.9879 56.0084 97.2282 55.5709 97.4006C55.1367 97.5696 54.6412 97.6541 54.0844 97.6541ZM61.2323 97.669C60.7484 97.669 60.3109 97.5795 59.9198 97.4006C59.5287 97.2183 59.2188 96.9548 58.9901 96.6101C58.7648 96.2654 58.6521 95.8428 58.6521 95.3423C58.6521 94.9115 58.7349 94.5568 58.9007 94.2784C59.0664 94 59.2901 93.7796 59.5718 93.6172C59.8535 93.4548 60.1684 93.3321 60.5164 93.2493C60.8644 93.1664 61.2191 93.1035 61.5803 93.0604C62.0377 93.0073 62.4089 92.9643 62.694 92.9311C62.979 92.8946 63.1862 92.8366 63.3154 92.7571C63.4447 92.6776 63.5093 92.5483 63.5093 92.3693V92.3345C63.5093 91.9003 63.3867 91.5639 63.1414 91.3253C62.8995 91.0866 62.5382 90.9673 62.0576 90.9673C61.5571 90.9673 61.1627 91.0784 60.8744 91.3004C60.5893 91.5192 60.3921 91.7628 60.2828 92.0312L58.8857 91.7131C59.0515 91.2491 59.2934 90.8745 59.6116 90.5895C59.9331 90.3011 60.3026 90.0923 60.7203 89.9631C61.1379 89.8305 61.577 89.7642 62.0377 89.7642C62.3427 89.7642 62.6658 89.8007 63.0072 89.8736C63.3519 89.9432 63.6734 90.0724 63.9717 90.2614C64.2733 90.4503 64.5202 90.7204 64.7124 91.0717C64.9047 91.4197 65.0008 91.8722 65.0008 92.429V97.5H63.5491V96.456H63.4894C63.3933 96.6482 63.2491 96.8371 63.0569 97.0227C62.8647 97.2083 62.6177 97.3625 62.3161 97.4851C62.0145 97.6077 61.6533 97.669 61.2323 97.669ZM61.5555 96.4759C61.9665 96.4759 62.3178 96.3946 62.6095 96.2322C62.9044 96.0698 63.1282 95.8577 63.2806 95.5959C63.4364 95.3307 63.5143 95.0473 63.5143 94.7457V93.7614C63.4613 93.8144 63.3585 93.8641 63.2061 93.9105C63.0569 93.9536 62.8862 93.9917 62.694 94.0249C62.5017 94.0547 62.3145 94.0829 62.1322 94.1094C61.9499 94.1326 61.7974 94.1525 61.6748 94.169C61.3865 94.2055 61.123 94.2668 60.8843 94.353C60.649 94.4392 60.4601 94.5634 60.3176 94.7259C60.1784 94.8849 60.1088 95.0971 60.1088 95.3622C60.1088 95.7301 60.2446 96.0085 60.5164 96.1974C60.7882 96.383 61.1346 96.4759 61.5555 96.4759ZM70.1974 97.6541C69.4582 97.6541 68.8219 97.4867 68.2883 97.152C67.758 96.8139 67.3503 96.3482 67.0653 95.755C66.7802 95.1617 66.6377 94.4822 66.6377 93.7166C66.6377 92.9411 66.7835 92.2566 67.0752 91.6634C67.3669 91.0668 67.7778 90.6011 68.3081 90.2663C68.8385 89.9316 69.4632 89.7642 70.1824 89.7642C70.7625 89.7642 71.2795 89.8719 71.7336 90.0874C72.1876 90.2995 72.5539 90.5978 72.8323 90.9822C73.114 91.3667 73.2814 91.8158 73.3344 92.3295H71.8877C71.8081 91.9716 71.6259 91.6634 71.3408 91.4048C71.0591 91.1463 70.6813 91.017 70.2073 91.017C69.793 91.017 69.4301 91.1264 69.1185 91.3452C68.8103 91.5606 68.57 91.8688 68.3976 92.2699C68.2253 92.6676 68.1391 93.1383 68.1391 93.6818C68.1391 94.2386 68.2236 94.7192 68.3927 95.1236C68.5617 95.5279 68.8003 95.8411 69.1086 96.0632C69.4201 96.2853 69.7864 96.3963 70.2073 96.3963C70.489 96.3963 70.7442 96.3449 70.9729 96.2422C71.2049 96.1361 71.3988 95.9853 71.5546 95.7898C71.7137 95.5942 71.8247 95.3589 71.8877 95.0838H73.3344C73.2814 95.5777 73.1206 96.0185 72.8522 96.4062C72.5837 96.794 72.2241 97.099 71.7733 97.321C71.3259 97.5431 70.8006 97.6541 70.1974 97.6541ZM78.4887 89.8636V91.0568H74.3176V89.8636H78.4887ZM75.4362 88.0341H76.9227V95.2578C76.9227 95.5462 76.9658 95.7633 77.0519 95.9091C77.1381 96.0516 77.2491 96.1494 77.385 96.2024C77.5242 96.2521 77.675 96.277 77.8374 96.277C77.9568 96.277 78.0612 96.2687 78.1507 96.2521C78.2401 96.2356 78.3097 96.2223 78.3595 96.2124L78.6279 97.4403C78.5418 97.4735 78.4191 97.5066 78.26 97.5398C78.1009 97.5762 77.9021 97.5961 77.6634 97.5994C77.2723 97.6061 76.9078 97.5365 76.5697 97.3906C76.2316 97.2448 75.9582 97.0194 75.7494 96.7145C75.5406 96.4096 75.4362 96.0268 75.4362 95.5661V88.0341Z" fill="#6A6A6A"/>
</svg>
