<svg width="120" height="120" viewBox="0 0 120 120" fill="none" xmlns="http://www.w3.org/2000/svg">
<rect x="0.5" y="0.5" width="119" height="119" rx="15.5" fill="white"/>
<rect x="0.5" y="0.5" width="119" height="119" rx="15.5" stroke="#FFE4BB"/>
<path d="M36 53.7423H37.5907V47.4622L40.053 52.9365C40.3429 53.6002 40.74 53.8331 41.5208 53.8331C42.3015 53.8331 42.6825 53.6002 42.9724 52.9365L45.4346 47.4622V53.742H47.0254V47.4727C47.0254 46.8603 46.7809 46.5645 46.2754 46.4122C45.0667 46.0357 44.2568 46.3608 43.8892 47.1768L41.4739 52.5806L39.1346 47.1768C38.7833 46.3608 37.9571 46.0357 36.75 46.4122C36.2445 46.5645 36 46.8603 36 47.4727V53.7423ZM48.3488 48.63H49.938V52.0901C49.9234 52.2776 49.998 52.7186 50.8695 52.7332H54.3281V48.6123H55.9219C55.9294 48.6123 55.9189 54.2313 55.9189 54.255C55.9275 55.6406 54.2006 55.941 53.4037 55.9646H48.3825V54.8951L53.4128 54.8936C54.4365 54.7867 54.315 54.2767 54.315 54.1068V53.6895H50.9355C49.3624 53.6748 48.3619 52.9878 48.3488 52.1981C48.3472 52.1265 48.3825 48.6652 48.3488 48.63Z" fill="#00618A"/>
<path d="M57.1465 53.7425H61.7196C62.2544 53.7425 62.7745 53.6296 63.1874 53.4365C63.8759 53.1215 64.2111 52.6925 64.2111 52.1315V50.9697C64.2111 50.5111 63.8301 50.0821 63.0801 49.7979C62.683 49.6441 62.1925 49.5635 61.7192 49.5635H59.7914C59.1497 49.5635 58.8437 49.37 58.7676 48.9425C58.753 48.8911 58.753 48.8502 58.753 48.7989V48.0751C58.753 48.0342 58.753 47.993 58.7676 47.942C58.8437 47.6169 59.0121 47.5246 59.5776 47.4732L59.7314 47.4631H64.2722V46.4041H59.8079C59.1662 46.4041 58.8295 46.445 58.5231 46.5361C57.5755 46.832 57.1622 47.3007 57.1622 48.1167V49.0441C57.1622 49.7574 57.9722 50.3697 59.3331 50.5119L59.7917 50.5325H61.444C61.5055 50.5325 61.5655 50.5325 61.6124 50.5426C62.1164 50.5835 62.3301 50.6757 62.4839 50.8591C62.563 50.9322 62.6084 51.0365 62.6054 51.1434V52.0722C62.6054 52.1836 62.5292 52.3272 62.377 52.4487C62.2394 52.5717 62.0095 52.6524 61.7046 52.673L61.5362 52.6831H57.1465V53.7425ZM74.1329 51.8967C74.1329 52.988 74.9444 53.5989 76.579 53.7219L77.0391 53.7425H81.1832V52.682H77.0084C76.0754 52.682 75.7236 52.4476 75.7236 51.8866V46.4019H74.1344V51.8964L74.1329 51.8967ZM65.2266 51.9522V48.1715C65.2266 47.2119 65.902 46.6291 67.2347 46.4457C67.3769 46.4252 67.5204 46.4149 67.6641 46.415H70.6817C70.8355 46.415 70.9731 46.4251 71.1272 46.4457C72.4604 46.6287 73.1342 47.2119 73.1342 48.1715V51.9522C73.1342 52.7315 72.8485 53.1477 72.1881 53.42L73.7556 54.8337H71.9084L70.6412 53.6896L69.3655 53.7702H67.6649C67.3488 53.7692 67.0343 53.7248 66.7304 53.6382C65.7182 53.363 65.2274 52.8312 65.2274 51.9522H65.2266ZM66.9434 51.86C66.9434 51.9114 66.958 51.9624 66.9741 52.0242C67.0664 52.4637 67.4796 52.7082 68.1077 52.7082H69.5522L68.2251 51.5101H70.0724L71.2296 52.556C71.4434 52.4416 71.5825 52.2687 71.6324 52.0449C71.647 51.9935 71.647 51.9425 71.647 51.8911V48.2656C71.647 48.2247 71.647 48.1734 71.6324 48.122C71.5401 47.7132 71.1269 47.4789 70.5134 47.4789H68.1081C67.4035 47.4789 66.9437 47.7849 66.9437 48.2656L66.9434 51.86Z" fill="#E48E00"/>
<path d="M82.5821 44.6424C81.6052 44.6162 80.8579 44.7069 80.2192 44.9766C80.0377 45.0527 79.7475 45.0542 79.7182 45.2814C79.818 45.3868 79.8341 45.5436 79.9132 45.6711C80.0655 45.9186 80.3235 46.2482 80.5534 46.4211L81.3311 46.9776C81.8085 47.2689 82.3432 47.4362 82.8049 47.7276C83.076 47.9004 83.3452 48.1172 83.6104 48.3122C83.7409 48.4074 83.8286 48.5582 84 48.6182V48.5904C83.9107 48.4761 83.8871 48.3193 83.805 48.2008L83.4431 47.8389C83.0902 47.3702 82.6417 46.9584 82.1644 46.6157C81.7834 46.3431 80.934 45.9741 80.7742 45.5316L80.7465 45.5038C81.0161 45.4746 81.3326 45.3763 81.5801 45.3103C81.999 45.1974 82.3725 45.2267 82.8034 45.1153L83.388 44.9469V44.8371C83.1697 44.6128 83.0145 44.3169 82.7756 44.1133C82.1546 43.5846 81.4747 43.0543 80.7746 42.6118C80.3865 42.3673 79.9076 42.2091 79.4959 42.0009C79.3582 41.9308 79.1149 41.8956 79.0226 41.7782C78.8074 41.5029 78.69 41.1542 78.5231 40.8332L77.5226 38.7208C77.3119 38.2389 77.1739 37.7627 76.9102 37.3307C75.6491 35.2551 74.2897 34.0026 72.1845 32.7722C71.7379 32.5101 71.1971 32.4073 70.629 32.2727L69.7106 32.2172C69.5246 32.1381 69.3311 31.9097 69.1556 31.7998C68.4585 31.3588 66.6697 30.4011 66.1526 31.6607C65.8275 32.4561 66.6405 33.2323 66.9319 33.6354C67.1355 33.9182 67.3976 34.2347 67.5427 34.5523C67.6395 34.7604 67.6556 34.9697 67.7377 35.1909C67.9399 35.7358 68.1157 36.3276 68.3779 36.8316C68.5099 37.0866 68.6546 37.3547 68.8219 37.5816C68.9242 37.7207 69.1001 37.7837 69.1279 37.9989C68.9565 38.2393 68.9464 38.6113 68.8496 38.9158C68.4146 40.2853 68.5785 41.9874 69.2115 43.0026C69.405 43.3131 69.8617 43.9809 70.4902 43.7248C71.0396 43.5006 70.9166 42.8079 71.0734 42.1956C71.1101 42.0579 71.088 41.9552 71.157 41.8629V41.8907L71.658 42.8912C72.0285 43.4874 72.6847 44.1099 73.2416 44.5303C73.5315 44.7486 73.7587 45.1266 74.1322 45.2541V45.2248H74.1045C74.0314 45.1134 73.9185 45.0666 73.8262 44.9758C73.608 44.7621 73.3661 44.4969 73.1876 44.2521C72.6806 43.5651 72.2325 42.8121 71.8252 42.0283C71.6302 41.6548 71.4604 41.2416 71.2965 40.8609C71.2335 40.7143 71.235 40.4919 71.103 40.4169C70.923 40.6952 70.6579 40.9209 70.5184 41.2506C70.2956 41.7763 70.2679 42.4194 70.1842 43.0847L70.1287 43.1124C69.7421 43.0187 69.6056 42.6204 69.4624 42.2788C69.0975 41.4144 69.0304 40.0213 69.351 39.0268C69.4331 38.7692 69.8081 37.9573 69.6559 37.7203C69.5842 37.4829 69.3454 37.3453 69.2119 37.1638C69.0373 36.9204 68.8882 36.6598 68.7667 36.3861C68.4694 35.7107 68.3302 34.9551 68.0167 34.2737C67.8675 33.9471 67.614 33.6174 67.4059 33.3276C67.1745 33.0069 66.9165 32.7711 66.738 32.3826C66.675 32.2449 66.5887 32.0237 66.6825 31.8816C66.7117 31.7863 66.7556 31.7469 66.8494 31.7162C67.0106 31.5917 67.4602 31.7571 67.6271 31.8261C68.0737 32.0121 68.4461 32.1879 68.8237 32.4384C69.0037 32.5584 69.1871 32.7913 69.4069 32.8558H69.6574C70.0485 32.9451 70.4865 32.8821 70.8529 32.9934C71.499 33.1896 72.0791 33.4959 72.6034 33.8286C74.2057 34.8392 75.5156 36.2792 76.4119 37.9974C76.557 38.2742 76.6185 38.5378 76.746 38.8311C77.0025 39.4228 77.3246 40.0322 77.5796 40.6108C77.8346 41.1894 78.0821 41.7711 78.441 42.2514C78.63 42.5034 79.3609 42.6381 79.692 42.7787C79.9249 42.8769 80.3059 42.9793 80.5256 43.1128C80.9475 43.3663 81.3547 43.6678 81.7504 43.9464C81.9465 44.0871 82.5532 44.3919 82.584 44.6421L82.5821 44.6424ZM70.1557 34.0517C69.9876 34.049 69.8197 34.0676 69.6562 34.1072V34.1349H69.684C69.7807 34.3356 69.9521 34.4646 70.0721 34.6359L70.3504 35.2191L70.3781 35.1928C70.551 35.0713 70.6286 34.8763 70.6286 34.5804C70.5585 34.5073 70.5495 34.4166 70.4895 34.3299C70.4104 34.2141 70.257 34.1499 70.1557 34.0517Z" fill="#00618A"/>
<path d="M37.0356 87.3182H38.8999L42.1414 95.233H42.2607L45.5022 87.3182H47.3666V97.5H45.9049V90.1321H45.8105L42.8076 97.4851H41.5945L38.5917 90.1271H38.4972V97.5H37.0356V87.3182ZM50.4204 100.364C50.1983 100.364 49.9961 100.345 49.8138 100.309C49.6315 100.276 49.4956 100.239 49.4062 100.2L49.7641 98.9815C50.0359 99.0545 50.2778 99.0859 50.49 99.076C50.7021 99.0661 50.8894 98.9865 51.0518 98.8374C51.2175 98.6882 51.3633 98.4446 51.4893 98.1065L51.6732 97.5994L48.8792 89.8636H50.4701L52.404 95.7898H52.4836L54.4175 89.8636H56.0134L52.8664 98.5192C52.7206 98.9169 52.5349 99.2533 52.3096 99.5284C52.0842 99.8068 51.8157 100.016 51.5042 100.155C51.1926 100.294 50.8314 100.364 50.4204 100.364ZM63.083 89.9929C63.03 89.5223 62.8112 89.1577 62.4268 88.8991C62.0423 88.6373 61.5584 88.5064 60.9751 88.5064C60.5574 88.5064 60.1962 88.5727 59.8912 88.7053C59.5863 88.8345 59.3493 89.0135 59.1803 89.2422C59.0146 89.4676 58.9317 89.7244 58.9317 90.0128C58.9317 90.2547 58.9881 90.4635 59.1008 90.6392C59.2168 90.8149 59.3676 90.9624 59.5532 91.0817C59.7421 91.1977 59.9443 91.2955 60.1597 91.375C60.3751 91.4512 60.5823 91.5142 60.7812 91.5639L61.7755 91.8224C62.1003 91.902 62.4334 92.0097 62.7748 92.1456C63.1162 92.2815 63.4327 92.4605 63.7243 92.6825C64.016 92.9046 64.2513 93.1797 64.4303 93.5078C64.6126 93.8359 64.7037 94.2287 64.7037 94.6861C64.7037 95.2628 64.5546 95.7749 64.2563 96.2223C63.9613 96.6697 63.5321 97.0227 62.9687 97.2812C62.4085 97.5398 61.7307 97.669 60.9353 97.669C60.173 97.669 59.5134 97.5481 58.9566 97.3061C58.3998 97.0642 57.9639 96.7211 57.6491 96.277C57.3342 95.8295 57.1602 95.2992 57.127 94.6861H58.6682C58.6981 95.054 58.8174 95.3606 59.0262 95.6058C59.2383 95.8478 59.5084 96.0284 59.8366 96.1477C60.168 96.2637 60.5309 96.3217 60.9253 96.3217C61.3595 96.3217 61.7457 96.2538 62.0837 96.1179C62.4251 95.9787 62.6936 95.7865 62.8891 95.5412C63.0847 95.2926 63.1824 95.0026 63.1824 94.6712C63.1824 94.3696 63.0963 94.1226 62.9239 93.9304C62.7549 93.7382 62.5245 93.5791 62.2329 93.4531C61.9445 93.3272 61.618 93.2161 61.2535 93.12L60.0503 92.7919C59.235 92.5698 58.5887 92.2434 58.1114 91.8125C57.6375 91.3816 57.4005 90.8116 57.4005 90.1023C57.4005 89.5156 57.5596 89.0036 57.8778 88.5661C58.1959 88.1286 58.6268 87.7888 59.1704 87.5469C59.7139 87.3016 60.3271 87.179 61.0099 87.179C61.6992 87.179 62.3074 87.3 62.8344 87.5419C63.3647 87.7839 63.7823 88.117 64.0873 88.5412C64.3922 88.9621 64.5513 89.446 64.5645 89.9929H63.083ZM70.2831 94.1989H71.7945L72.8584 95.5859L73.3605 96.2024L75.0558 98.4148H73.4848L72.3513 96.9382L71.9635 96.4013L70.2831 94.1989ZM75.384 92.4091C75.384 93.4962 75.1851 94.4309 74.7874 95.2131C74.3896 95.992 73.8444 96.5919 73.1517 97.0128C72.4623 97.4304 71.6785 97.6392 70.8002 97.6392C69.9185 97.6392 69.1314 97.4304 68.4387 97.0128C67.7493 96.5919 67.2057 95.9903 66.808 95.2081C66.4102 94.4259 66.2114 93.4929 66.2114 92.4091C66.2114 91.322 66.4102 90.389 66.808 89.6101C67.2057 88.8279 67.7493 88.228 68.4387 87.8104C69.1314 87.3894 69.9185 87.179 70.8002 87.179C71.6785 87.179 72.4623 87.3894 73.1517 87.8104C73.8444 88.228 74.3896 88.8279 74.7874 89.6101C75.1851 90.389 75.384 91.322 75.384 92.4091ZM73.8627 92.4091C73.8627 91.5805 73.7284 90.8828 73.46 90.3161C73.1948 89.746 72.8302 89.3151 72.3662 89.0234C71.9055 88.7285 71.3835 88.581 70.8002 88.581C70.2135 88.581 69.6898 88.7285 69.2291 89.0234C68.7684 89.3151 68.4039 89.746 68.1354 90.3161C67.8702 90.8828 67.7377 91.5805 67.7377 92.4091C67.7377 93.2377 67.8702 93.937 68.1354 94.5071C68.4039 95.0739 68.7684 95.5047 69.2291 95.7997C69.6898 96.0914 70.2135 96.2372 70.8002 96.2372C71.3835 96.2372 71.9055 96.0914 72.3662 95.7997C72.8302 95.5047 73.1948 95.0739 73.46 94.5071C73.7284 93.937 73.8627 93.2377 73.8627 92.4091ZM77.2993 97.5V87.3182H78.8355V96.1776H83.4491V97.5H77.2993Z" fill="#6A6A6A"/>
</svg>
