<svg width="32" height="32" viewBox="0 0 32 32" fill="none" xmlns="http://www.w3.org/2000/svg">
<path d="M27.0269 11.3133L27.9669 16.7533C28.0221 17.0721 28.0069 17.3992 27.9225 17.7116C27.8381 18.0239 27.6864 18.3141 27.4781 18.5617C27.2699 18.8094 27.01 19.0085 26.7167 19.1452C26.4235 19.282 26.1038 19.353 25.7803 19.3533H18.8723C18.7111 19.3533 18.5518 19.3883 18.4055 19.456C18.2592 19.5238 18.1294 19.6225 18.0251 19.7455C17.9208 19.8684 17.8445 20.0126 17.8015 20.168C17.7586 20.3234 17.7499 20.4862 17.7763 20.6453L18.6603 26.0386C18.8032 26.9148 18.7624 27.8111 18.5403 28.6706C18.3549 29.3813 17.8069 29.9533 17.0843 30.1853L16.8909 30.248C16.4536 30.388 15.9776 30.3546 15.5656 30.1573C15.3441 30.0526 15.1482 29.9007 14.9915 29.7123C14.8349 29.5239 14.7214 29.3035 14.6589 29.0666L14.0243 26.6213C13.8226 25.843 13.5289 25.0915 13.1496 24.3826C12.5963 23.3466 11.7403 22.516 10.8496 21.7493L8.93094 20.096C8.66476 19.8659 8.45687 19.5761 8.32431 19.2503C8.19174 18.9244 8.13827 18.5718 8.16827 18.2213L9.25094 5.69729C9.29865 5.14341 9.55233 4.62756 9.96186 4.2516C10.3714 3.87564 10.907 3.66691 11.4629 3.66663H17.6603C22.3029 3.66663 26.2643 6.90129 27.0269 11.3133Z" fill="#FF2D55"/>
<path fill-rule="evenodd" clip-rule="evenodd" d="M3.95744 20.3534C4.21512 20.3647 4.46718 20.2759 4.66099 20.1057C4.85479 19.9355 4.97533 19.697 4.99744 19.4401L6.29077 4.45872C6.31268 4.23563 6.28888 4.01041 6.22083 3.79682C6.15277 3.58323 6.04189 3.38576 5.89496 3.21646C5.74803 3.04716 5.56813 2.90959 5.36624 2.81215C5.16436 2.71471 4.94473 2.65945 4.72077 2.64974C4.49682 2.64003 4.27323 2.67608 4.06367 2.75568C3.85411 2.83528 3.66298 2.95676 3.50194 3.11271C3.34091 3.26865 3.21336 3.45579 3.12707 3.66269C3.04079 3.86959 2.99759 4.0919 3.0001 4.31605V19.3547C2.99987 19.6127 3.09935 19.8608 3.27775 20.0472C3.45616 20.2335 3.69969 20.3424 3.95744 20.3534Z" fill="#FF2D55"/>
</svg>
