<svg width="500" height="500" viewBox="0 0 500 500" fill="none" xmlns="http://www.w3.org/2000/svg">
<path d="M106.837 292.54C30.5338 336.594 30.5358 408.019 106.841 452.072C183.146 496.125 306.859 496.125 383.161 452.072C459.464 408.018 459.462 336.593 383.157 292.54C306.853 248.487 183.14 248.487 106.837 292.54Z" fill="#FFF6E9"/>
<path d="M65.3432 338.551L53.7982 345.216C53.9522 341.096 54.3112 334.966 53.7422 330.841C50.2562 305.606 40.4252 297.286 35.7502 285.004C30.8282 272.07 36.8312 267.907 44.6292 270.233C51.5832 272.307 61.6462 282.599 64.8162 301.429C66.9242 313.959 66.5512 327.565 65.3432 338.551Z" fill="url(#paint0_linear_241_15027)"/>
<path opacity="0.65" d="M65.3432 338.551L53.7982 345.216C53.9522 341.096 54.3112 334.966 53.7422 330.841C50.2562 305.606 40.4252 297.286 35.7502 285.004C30.8282 272.07 36.8312 267.907 44.6292 270.233C51.5832 272.307 61.6462 282.599 64.8162 301.429C66.9242 313.959 66.5512 327.565 65.3432 338.551Z" fill="white"/>
<path d="M59.223 342.084L58.067 342.75C62.197 313.33 52.138 287.815 42.21 277.277C42.019 277.076 42.028 276.755 42.229 276.564C42.439 276.373 42.756 276.382 42.947 276.583C52.87 287.126 62.924 312.813 59.223 342.084Z" fill="white"/>
<path d="M57.042 343.342L50.545 347.094H50.54C47.086 336.924 43.539 332.85 39.134 326.161C35.121 320.074 30.455 316.303 27.976 312.024C25.781 308.235 24.131 303.476 27.393 300.595C32.586 296.009 39.363 300.861 44.024 306.104C48.051 310.641 56.152 322.703 57.042 343.342Z" fill="url(#paint1_linear_241_15027)"/>
<path opacity="0.3" d="M57.042 343.342L50.545 347.094H50.54C47.086 336.924 43.539 332.85 39.134 326.161C35.121 320.074 30.455 316.303 27.976 312.024C25.781 308.235 24.131 303.476 27.393 300.595C32.586 296.009 39.363 300.861 44.024 306.104C48.051 310.641 56.152 322.703 57.042 343.342Z" fill="white"/>
<path d="M54.376 344.881L53.43 345.431C50.703 329.346 39.778 310.734 32.987 306.339C32.749 306.185 32.679 305.864 32.838 305.621C32.992 305.379 33.309 305.309 33.551 305.467C40.579 310.025 51.481 328.548 54.376 344.881Z" fill="white"/>
<path d="M434.172 338.551L445.717 345.216C445.563 341.096 445.204 334.966 445.773 330.841C449.259 305.606 459.089 297.286 463.765 285.004C468.687 272.07 462.684 267.907 454.886 270.233C447.932 272.307 437.869 282.599 434.699 301.429C432.592 313.959 432.965 327.565 434.172 338.551Z" fill="url(#paint2_linear_241_15027)"/>
<path opacity="0.65" d="M434.172 338.551L445.717 345.216C445.563 341.096 445.204 334.966 445.773 330.841C449.259 305.606 459.089 297.286 463.765 285.004C468.687 272.07 462.684 267.907 454.886 270.233C447.932 272.307 437.869 282.599 434.699 301.429C432.592 313.959 432.965 327.565 434.172 338.551Z" fill="white"/>
<path d="M440.292 342.084L441.448 342.75C437.318 313.33 447.377 287.815 457.305 277.277C457.496 277.076 457.487 276.755 457.286 276.564C457.076 276.373 456.759 276.382 456.568 276.583C446.645 287.126 436.591 312.813 440.292 342.084Z" fill="white"/>
<path d="M442.473 343.342L448.97 347.094H448.975C452.429 336.924 455.976 332.85 460.381 326.161C464.394 320.074 469.06 316.303 471.54 312.024C473.735 308.235 475.385 303.476 472.123 300.595C466.931 296.009 460.153 300.861 455.492 306.104C451.465 310.641 443.364 322.703 442.473 343.342Z" fill="url(#paint3_linear_241_15027)"/>
<path opacity="0.3" d="M442.473 343.342L448.97 347.094H448.975C452.429 336.924 455.976 332.85 460.381 326.161C464.394 320.074 469.06 316.303 471.54 312.024C473.735 308.235 475.385 303.476 472.123 300.595C466.931 296.009 460.153 300.861 455.492 306.104C451.465 310.641 443.364 322.703 442.473 343.342Z" fill="white"/>
<path d="M445.139 344.881L446.085 345.431C448.812 329.346 459.737 310.734 466.528 306.339C466.766 306.185 466.836 305.864 466.677 305.621C466.523 305.379 466.206 305.309 465.964 305.467C458.936 310.025 448.034 328.548 445.139 344.881Z" fill="white"/>
<path d="M356.285 388.546C332.532 374.832 332.534 352.597 356.29 338.884C380.046 325.17 418.558 325.169 442.309 338.881C466.059 352.593 466.057 374.828 442.304 388.544C418.55 402.259 380.038 402.26 356.285 388.546Z" fill="#FFEDD2"/>
<path d="M157.229 422.635C133.476 408.921 133.478 386.686 157.234 372.973C180.99 359.259 219.502 359.257 243.252 372.97C267.002 386.682 267 408.917 243.247 422.632C219.494 436.347 180.982 436.349 157.229 422.635Z" fill="#FFEDD2"/>
<path d="M254.795 423.189C231.042 409.475 231.044 387.24 254.8 373.527C278.556 359.813 317.068 359.811 340.819 373.524C364.569 387.236 364.567 409.471 340.814 423.187C317.06 436.901 278.548 436.902 254.795 423.189Z" fill="#FFEDD2"/>
<path d="M57.0521 388.988C33.2991 375.274 33.3011 353.039 57.0571 339.326C80.8131 325.612 119.325 325.611 143.076 339.323C166.826 353.035 166.824 375.27 143.071 388.986C119.317 402.701 80.8051 402.702 57.0521 388.988Z" fill="#FFEDD2"/>
<path d="M93.8396 327.855C93.8396 325.091 95.6706 312.7 95.6706 312.7L75.4706 312.005C75.4706 312.005 76.7216 325.74 75.7146 329.984C75.0446 332.809 71.5466 337.186 70.5366 338.595C69.5266 340.003 83.1606 340.554 88.1936 339.289C93.2276 338.024 94.4856 335.909 94.6056 333C94.7256 330.092 93.8396 327.855 93.8396 327.855Z" fill="#C8856A"/>
<path d="M47.5577 357.524C47.2397 357.545 46.9747 360.645 48.7977 361.838C50.9007 363.214 56.9367 365.306 64.6187 363.927C72.3017 362.548 76.3477 360.181 79.2857 357.711C82.2247 355.242 86.3417 351.761 89.7977 350.858C93.0067 350.019 96.4507 348.5 97.4297 347.553C98.4087 346.606 97.9887 342.704 97.9887 342.704L47.5577 357.524Z" fill="#263238"/>
<path d="M93.84 327.855C93.84 327.855 94.813 327.802 95.076 328.694C95.391 329.756 95.869 332.873 96.506 334.609C97.39 337.021 98.223 342.029 97.938 344.06C97.653 346.091 92.446 347.828 89.136 349.178C85.755 350.556 81.918 353.193 78.581 355.956C75.128 358.816 67.665 362.044 62.615 362.339C56.64 362.689 49.797 361.435 48.085 359.113C45.967 356.241 44.332 352.85 52.934 348.687C54.562 347.899 60.235 344.469 62.164 343.234C67.383 339.893 71.009 336.902 73.134 331.452C73.383 330.815 73.64 330.11 74.293 329.752C74.793 329.477 75.419 329.471 76.005 329.505C77.493 329.59 83.428 329.917 84.812 330.391C86.035 330.809 87.762 331.276 87.831 332.609C87.855 333.073 87.733 333.534 87.593 333.984C87.506 334.262 87.448 334.629 87.732 334.772C88 334.907 88.328 334.712 88.546 334.516C89.422 333.73 90.036 332.755 90.756 331.856C91.142 331.374 91.567 330.909 92.07 330.516C92.526 330.159 93.127 329.957 93.526 329.559C94.028 329.054 93.858 328.481 93.84 327.855Z" fill="#455A64"/>
<path d="M78.5808 355.956C80.0468 354.742 81.6108 353.559 83.1888 352.49L83.1878 352.483C83.1878 352.483 73.1648 358.695 68.7788 356.456C65.9528 355.013 67.1038 352.962 67.1248 352.329C67.1458 351.696 57.2618 347.881 54.6098 347.778C53.9018 348.18 53.3068 348.506 52.9318 348.687C44.3298 352.85 45.9648 356.241 48.0838 359.113C49.7948 361.434 54.7998 363.007 62.5188 362.506C67.5668 362.178 75.1278 358.816 78.5808 355.956Z" fill="#37474F"/>
<path d="M67.7248 350.449C62.3538 352.732 64.7668 353.478 66.3218 353.571C67.8778 353.663 76.8118 348.328 82.1888 344.051C87.7978 339.589 91.1998 334.888 93.2848 333.248C94.0618 332.637 94.8918 331.893 95.6288 331.201C95.4088 330.15 95.2238 329.193 95.0758 328.693C94.8118 327.801 93.8388 327.854 93.8388 327.854C93.8568 328.48 94.0268 329.053 93.5218 329.556C93.1228 329.954 92.5228 330.156 92.0658 330.513C91.5638 330.906 91.1378 331.371 90.7528 331.853C90.0318 332.752 89.4188 333.727 88.5428 334.513C84.1108 340.163 73.0958 348.166 67.7248 350.449Z" fill="#37474F"/>
<path d="M66.6638 352.838C66.7858 352.83 66.9048 352.787 67.0018 352.708C67.2228 352.527 67.2368 352.225 67.0308 352.033C65.3588 350.47 57.7148 347 53.6908 347.651C53.3928 347.698 53.1928 347.948 53.2438 348.207C53.2938 348.466 53.5458 348.632 53.8738 348.591C57.6318 347.99 64.9048 351.452 66.2288 352.691C66.3448 352.798 66.5058 352.848 66.6638 352.838Z" fill="#263238"/>
<path d="M71.2847 349.941C71.4057 349.933 71.5257 349.89 71.6217 349.811C71.8427 349.63 71.8557 349.327 71.6507 349.136C69.9797 347.574 62.3387 344.106 58.3107 344.756C58.0127 344.803 57.8127 345.053 57.8647 345.312C57.9147 345.571 58.1897 345.743 58.4947 345.696C62.2547 345.099 69.5257 348.556 70.8497 349.794C70.9647 349.902 71.1257 349.951 71.2847 349.941Z" fill="#263238"/>
<path d="M75.916 347.181C76.038 347.173 76.157 347.13 76.254 347.051C76.476 346.87 76.488 346.567 76.283 346.376C74.611 344.813 66.967 341.34 62.943 341.996C62.645 342.043 62.445 342.293 62.497 342.552C62.547 342.811 62.817 342.984 63.127 342.936C66.887 342.335 74.158 345.795 75.482 347.034C75.597 347.142 75.758 347.191 75.916 347.181Z" fill="#263238"/>
<path d="M80.1709 344.096C80.2929 344.088 80.4119 344.045 80.5079 343.966C80.7299 343.785 80.7419 343.482 80.5379 343.291C78.8679 341.728 71.2079 338.26 67.1979 338.911C66.8999 338.958 66.6999 339.208 66.7519 339.467C66.8019 339.726 67.0739 339.897 67.3819 339.851C71.1369 339.253 78.4129 342.71 79.7369 343.949C79.8519 344.056 80.0119 344.106 80.1709 344.096Z" fill="#263238"/>
<path d="M84.3346 341.016C84.4526 341.008 84.5707 340.967 84.6657 340.891C84.8907 340.713 84.9087 340.41 84.7077 340.216C82.4046 337.996 74.4586 335.198 70.4366 335.848C70.1386 335.895 69.9386 336.145 69.9906 336.404C70.0406 336.663 70.3137 336.828 70.6207 336.788C74.2427 336.205 81.8527 338.896 83.8967 340.864C84.0097 340.976 84.1746 341.027 84.3346 341.016Z" fill="#263238"/>
<path d="M139.648 340.654C139.648 340.654 139.885 335.584 140.608 324.681L122.585 325.603L124.971 341.849C124.971 341.849 124.499 347.126 125.894 349.99C127.289 352.854 137.81 353.195 139.512 349.787C141.213 346.378 139.648 340.654 139.648 340.654Z" fill="#C8856A"/>
<path d="M122.61 374.198C122.749 378.827 123.508 381.893 125.421 384.601C127.334 387.309 131.12 388.148 135.025 387.34C138.929 386.531 143.976 384.389 145.252 380.392C146.528 376.394 146.418 373.658 145.719 369.368L122.61 374.198Z" fill="#263238"/>
<path d="M139.648 340.654C141.239 340.75 141.214 346.932 141.874 353.152C142.581 359.82 144.923 362.57 145.575 368.037C146.32 374.283 145.799 377.076 142.94 380.864C140.082 384.652 130.366 388.391 125.88 382.996C122.223 378.598 122.268 373.706 122.879 367.465C123.511 361.013 124.018 356.475 123.897 351.58C123.781 346.902 123.572 342.368 124.979 341.843C125.057 342.53 125.125 343.401 125.21 344.076C125.275 344.594 125.329 347.127 126.221 347.148C126.329 346.55 126.336 345.994 126.312 345.385C126.291 344.856 126.37 344.279 126.812 343.874C127.257 343.466 127.958 343.332 128.609 343.227C130.189 342.97 131.778 342.738 133.377 342.616C134.173 342.555 134.972 342.521 135.769 342.526C136.415 342.53 137.175 342.572 137.78 342.753C138.151 342.865 138.49 343.08 138.617 343.385C138.711 343.61 138.681 343.858 138.671 344.098C138.653 344.53 138.702 344.962 138.817 345.38C138.868 345.564 139.015 345.789 139.245 345.744C139.432 345.707 139.513 345.52 139.521 345.365C139.56 344.611 139.665 341.053 139.648 340.654Z" fill="#455A64"/>
<path d="M145.287 366.261C145.404 367.162 146.097 373.127 144.047 374.21C141.828 375.382 140.834 370.694 140.834 370.694C140.834 370.694 135.797 369.448 128.279 372.102C128.619 373.069 127.343 376.266 125.338 375.599C123.347 374.936 122.836 368.093 122.829 368.004C122.271 373.988 122.33 378.727 125.88 382.997C130.366 388.392 140.082 384.653 142.94 380.865C145.799 377.077 146.32 374.283 145.574 368.038C145.5 367.412 145.401 366.825 145.287 366.261Z" fill="#37474F"/>
<path d="M140.236 371.096C140.174 373.355 142.957 372.583 143.209 369.392C143.462 366.202 141.623 358.64 141.873 353.152C141.214 346.931 141.238 340.75 139.647 340.654C139.65 340.731 139.574 343.896 139.574 343.896C139.574 343.896 139.545 344.878 139.521 345.365C139.369 349.972 139.798 358.874 140.112 363.085C140.427 367.297 140.299 368.837 140.236 371.096Z" fill="#37474F"/>
<path d="M129.141 372.036C128.71 369.819 128.332 368.321 127.953 364.115C127.577 359.941 126.557 351.195 125.658 346.647C125.301 345.877 125.258 344.45 125.21 344.076C125.131 343.447 125.066 342.651 124.995 341.988C124.986 341.941 124.977 341.895 124.971 341.848C123.955 342.242 123.789 344.742 123.818 347.87C123.942 349.677 124.202 351.911 124.592 354.615C125.735 359.985 125.149 367.796 125.92 370.9C126.69 374.005 129.572 374.253 129.141 372.036Z" fill="#37474F"/>
<path d="M128.115 372.285C128.189 372.279 128.262 372.261 128.332 372.233C128.39 372.207 134.28 369.788 140.662 371.157C140.977 371.223 141.306 371.069 141.399 370.814C141.494 370.558 141.316 370.297 141.004 370.229C134.176 368.763 128.077 371.276 127.819 371.384C127.526 371.507 127.4 371.797 127.543 372.032C127.651 372.21 127.882 372.305 128.115 372.285Z" fill="#263238"/>
<path d="M126.988 367.387C127.055 367.381 127.121 367.367 127.186 367.342C127.251 367.318 133.864 364.82 140.991 366.143C141.306 366.197 141.63 366.039 141.716 365.78C141.8 365.522 141.612 365.265 141.296 365.206C133.757 363.811 126.997 366.369 126.711 366.477C126.412 366.594 126.275 366.88 126.406 367.118C126.508 367.305 126.746 367.407 126.988 367.387Z" fill="#263238"/>
<path d="M140.799 361.487C141.023 361.468 141.229 361.346 141.314 361.163C141.428 360.911 141.275 360.639 140.969 360.555C133.9 358.616 126.712 361.588 126.408 361.716C126.113 361.84 125.989 362.129 126.132 362.364C126.275 362.597 126.633 362.681 126.921 362.563C126.989 362.535 133.973 359.654 140.549 361.465C140.631 361.487 140.716 361.493 140.799 361.487Z" fill="#263238"/>
<path d="M140.572 357.096C140.792 357.077 140.995 356.959 141.082 356.78C141.203 356.529 141.055 356.255 140.751 356.168C132.981 353.912 126.185 357.155 125.9 357.294C125.615 357.433 125.514 357.728 125.674 357.953C125.835 358.179 126.202 358.25 126.48 358.111C126.543 358.079 133.081 354.973 140.312 357.071C140.399 357.096 140.487 357.103 140.572 357.096Z" fill="#263238"/>
<path d="M140.293 352.164C140.51 352.146 140.711 352.03 140.8 351.854C140.925 351.605 140.782 351.33 140.48 351.238C133.203 349.026 125.828 352.353 125.518 352.498C125.229 352.63 125.12 352.924 125.274 353.153C125.426 353.382 125.783 353.464 126.074 353.326C126.146 353.294 133.271 350.082 140.027 352.137C140.115 352.162 140.204 352.171 140.293 352.164Z" fill="#263238"/>
<path d="M136.53 169.169C140.428 207.777 140.846 265.859 140.846 265.859C141.186 268.79 143.857 275.021 143.857 291.102C143.857 308.733 141.737 333.514 141.737 333.514C141.737 333.514 131.095 336.784 122.016 334.051C122.016 334.051 115.54 295.942 112.15 273.822C109.488 256.454 104.073 229.287 104.073 229.287L100.395 254.239C100.395 254.239 101.221 265.248 101.023 272.964C100.794 281.938 94.9466 321.788 94.9466 321.788C94.9466 321.788 85.5956 325.697 75.3096 322.449C75.3096 322.449 71.4106 266.052 70.9466 255.268C70.0366 234.117 70.2566 197.262 70.5526 169.929L136.53 169.169Z" fill="#37474F"/>
<path d="M104.07 229.288L99.7404 208.181C99.7404 208.181 88.9214 204.355 82.6084 195.683C82.6084 195.683 84.6174 206.275 97.1754 210.755L101.435 229.395L100.393 254.241L104.07 229.288Z" fill="#263238"/>
<path d="M85.3149 101.116C75.9099 101.116 75.1469 102.527 63.7569 108.458C57.3109 111.814 48.0239 116.83 48.0239 116.83L47.3199 115.559C47.3199 115.559 43.9119 111.359 38.9259 114.397C33.9399 117.435 30.2639 120.52 28.2739 125.28C31.3579 137.615 34.4249 141.587 41.3159 140.616C46.3259 139.909 73.6229 129.77 73.6229 129.77L85.3149 101.116Z" fill="#C8856A"/>
<path d="M86.3578 99.349C79.5578 100.356 78.0468 100.602 65.8738 106.84C53.6998 113.078 51.2288 114.451 51.2288 114.451C51.2288 114.451 48.9408 119.851 51.2288 127.357C53.5168 134.863 57.9108 136.276 57.9108 136.276L82.4428 127.815L86.3578 99.349Z" fill="url(#paint4_linear_241_15027)"/>
<path d="M45.6838 116.456C44.1278 115.784 40.7908 117.9 40.7678 119.229C40.7678 119.229 39.1398 117.531 39.7518 115.919C40.3638 114.307 43.7628 113.294 45.6838 116.456Z" fill="#AF6152"/>
<path d="M45.9396 112.879C45.9396 112.879 35.4916 90.2859 35.2736 88.0039C33.2306 90.7909 29.8406 86.99 26.3176 88.244C23.8806 89.111 22.8176 91.1789 22.6406 93.6449C26.1266 119.766 28.0356 124.407 28.0356 124.407C32.5136 118.9 38.7576 114.024 45.9396 112.879Z" fill="#455A64"/>
<path d="M22.6408 93.645C22.6408 93.645 22.5418 90.127 25.8438 88.619C28.0488 87.612 29.9368 88.273 31.6288 88.777C33.5798 89.358 34.3468 89.103 35.2738 88.004C35.7688 87.416 37.3158 83.137 37.7228 82.262C38.1308 81.387 37.0118 79.401 36.6548 78.79C36.2988 78.179 35.2548 76.988 34.8878 77.003C34.5198 77.018 33.7618 78.297 33.4928 77.384C33.2238 76.471 33.4268 73.766 33.0798 71.933C32.7328 70.1 25.2198 70.394 21.2068 71.482C18.4288 72.235 16.6898 72.636 17.2468 77.029C17.9438 83.609 20.3908 93.201 22.6408 93.645Z" fill="#37474F"/>
<path d="M38.1532 80.816C39.0002 79.682 39.6852 76.902 39.8422 76.244C39.9992 75.587 38.3202 73.612 37.6732 73.742C37.0262 73.872 35.7872 75.691 35.7202 76.863C37.5392 78.266 38.1532 80.816 38.1532 80.816Z" fill="#263238"/>
<path d="M40.0293 75.209C39.3833 74.325 38.8563 73.641 38.0313 73.281C37.5583 73.074 38.8003 70.706 39.6973 69.935C41.0663 68.758 42.2173 69.629 41.5273 70.694C40.6683 72.019 40.8553 74.197 40.0293 75.209Z" fill="#263238"/>
<path d="M29.3129 77.0841C25.4629 80.3541 25.0469 86.1661 25.0469 86.1661C25.0469 86.1661 24.0549 83.5211 25.4629 80.3541C26.8729 77.1871 29.3129 77.0841 29.3129 77.0841Z" fill="#263238"/>
<path d="M31.6411 70.081C30.4021 69.906 29.3191 69.856 29.6641 68.255C30.0091 66.654 30.4581 64.423 30.3561 63.395C30.2541 62.367 30.5801 61.333 31.8041 61.596C33.0271 61.859 33.6511 62.021 33.5311 63.453C33.4111 64.885 33.3371 67.386 33.4591 68.399C33.5821 69.41 33.3181 70.318 31.6411 70.081Z" fill="#263238"/>
<path d="M32.114 61.222C33.024 61.35 33.615 61.602 33.658 60.384C33.701 59.166 33.832 57.936 33.897 56.54C33.962 55.144 33.455 54.684 32.912 54.607C32.369 54.53 31.882 55.038 31.525 56.277C31.167 57.516 31.056 58.947 30.834 59.868C30.612 60.789 30.934 61.055 32.114 61.222Z" fill="#263238"/>
<path d="M31.884 62.5351C31.366 62.4621 31.009 62.4261 30.979 62.2101C30.949 61.9941 31.184 60.653 32.086 60.795C32.988 60.937 32.994 62.177 32.884 62.419C32.774 62.66 32.284 62.5911 31.884 62.5351Z" fill="#FFEDD2"/>
<path d="M22.976 70.377C21.725 70.341 20.644 70.412 20.808 68.783C20.972 67.154 21.177 65.08 21.208 64.048C21.246 62.734 21.436 61.762 22.681 61.887C23.926 62.012 24.074 62.143 24.115 63.579C24.156 65.015 24.361 67.509 24.596 68.502C24.83 69.493 24.67 70.425 22.976 70.377Z" fill="#263238"/>
<path d="M22.7201 61.7721C23.6371 61.8271 24.2461 62.0301 24.1921 60.8121C24.1371 59.5941 24.1801 58.8421 24.1331 57.4451C24.0861 56.0481 23.5431 55.6311 22.9961 55.5981C22.4491 55.5651 22.0041 56.1101 21.7481 57.3741C21.4911 58.6381 21.4831 59.5901 21.3361 60.5261C21.1881 61.4621 21.5301 61.7011 22.7201 61.7721Z" fill="#263238"/>
<path d="M22.6018 62.7591C22.0798 62.7201 21.7208 62.7071 21.6768 62.4931C21.6328 62.2801 21.7808 60.9251 22.6898 61.0091C23.5988 61.0931 23.6858 62.3291 23.5918 62.5771C23.4978 62.8261 23.0038 62.7891 22.6018 62.7591Z" fill="#FFEDD2"/>
<path d="M18.836 71.431C17.638 71.551 17.027 71.333 17.076 70.241C17.164 68.264 17.092 67.377 17.167 66.386C17.297 64.677 17.474 64.438 18.676 64.512C19.878 64.586 19.967 64.915 20.085 66.34C20.182 67.508 20.258 68.744 20.305 69.979C20.343 70.96 19.854 71.329 18.836 71.431Z" fill="#263238"/>
<path d="M18.6618 63.901C19.5458 63.9 19.8908 64.059 20.0188 62.893C20.0648 62.471 20.1528 61.758 20.0538 61.019C19.8758 59.686 19.3808 59.311 18.8528 59.311C18.3258 59.312 17.9308 59.861 17.7578 61.09C17.5858 62.319 17.6448 61.889 17.5588 62.796C17.4728 63.704 17.5138 63.903 18.6618 63.901Z" fill="#263238"/>
<path d="M18.6141 65.0131C18.1131 64.9621 17.7681 64.9401 17.7321 64.7331C17.6951 64.5271 17.8721 63.2281 18.7441 63.3321C19.6161 63.4361 19.6681 64.6281 19.5711 64.8641C19.4751 65.1011 19.0001 65.0531 18.6141 65.0131Z" fill="#FFEDD2"/>
<path d="M27.2679 69.869C26.0199 69.779 24.9359 69.803 25.1709 68.183C25.4049 66.562 25.8069 63.007 25.6349 61.988C25.4629 60.969 25.7179 59.915 26.9559 60.093C28.1949 60.271 28.8269 60.391 28.8059 61.827C28.7849 63.263 28.7759 67.063 28.9669 68.064C29.1579 69.066 28.9579 69.99 27.2679 69.869Z" fill="#263238"/>
<path d="M27.2337 59.7891C28.1337 59.9721 28.7087 60.2581 28.8247 59.0451C28.9407 57.8321 29.1447 56.6121 29.2927 55.2221C29.4417 53.8321 28.9627 53.3431 28.4247 53.2341C27.8867 53.1251 27.3707 53.6031 26.9397 54.8181C26.5087 56.0331 26.3117 57.4561 26.0347 58.3621C25.7597 59.2671 26.0647 59.5521 27.2337 59.7891Z" fill="#263238"/>
<path d="M27.0998 61.025C26.5778 60.988 26.2188 60.976 26.1738 60.763C26.1288 60.55 26.2718 59.195 27.1808 59.275C28.0898 59.355 28.1818 60.591 28.0888 60.84C27.9958 61.089 27.5018 61.054 27.0998 61.025Z" fill="#FFEDD2"/>
<path d="M28.0361 124.406C30.0471 133.58 33.1151 135.745 36.3291 136.086C41.8111 136.667 47.3341 129.402 44.1761 124.661C41.9471 121.315 40.9061 119.774 40.6481 118.827C40.2391 117.326 42.5781 114.587 44.5011 115.625C45.4791 116.153 46.8371 117.613 46.8371 117.613L47.9631 117.05L45.6131 112.132C42.1321 111.991 31.6741 115.815 28.0361 124.406Z" fill="#263238"/>
<path d="M38.7048 117.977C38.6618 118.578 38.1388 119.031 37.5378 118.988C36.9358 118.945 36.4838 118.422 36.5268 117.821C36.5698 117.219 37.0928 116.767 37.6938 116.81C38.2948 116.853 38.7478 117.376 38.7048 117.977Z" fill="#37474F"/>
<path d="M39.8858 131.653C40.8618 130.408 40.2898 128.214 38.3708 125.162C36.5258 122.229 35.8478 120.107 34.2808 120.762C32.7148 121.417 29.7168 124.607 31.4378 128.603C33.1598 132.599 36.5978 135.844 39.8858 131.653Z" fill="#C8856A"/>
<path d="M103.825 190.506C101.704 190.506 99.529 190.436 97.361 190.299C78.52 189.11 71.506 183.938 70.395 183.014C70.538 180.049 71.949 150.719 72.526 136.296C73.495 112.089 84.133 101.855 86.561 99.829L97.752 98.576L114.594 98.537C119.418 99.492 126.986 101.099 133.497 102.725C133.654 102.81 134.14 103.074 134.813 103.451C135.165 105.108 137.376 116.681 136.312 141.284C136.137 145.351 136.107 148.707 136.391 157.841C136.535 162.448 137.164 173.283 138.245 182.952C136.347 184.051 124.322 190.506 103.825 190.506Z" fill="#FAFAFA"/>
<path d="M114.496 99.037C119.396 99.998 126.864 101.585 133.313 103.195C133.488 103.29 133.864 103.495 134.369 103.776C134.824 106.037 136.834 117.605 135.812 141.263C135.636 145.338 135.606 148.701 135.891 157.857C136.033 162.421 136.651 173.082 137.711 182.68C135.148 184.107 123.369 190.005 103.826 190.005C101.715 190.005 99.5508 189.936 97.3918 189.799C79.5398 188.672 72.4228 183.96 70.9058 182.784C71.1028 178.695 72.4608 150.4 73.0248 136.315C73.9718 112.673 84.1748 102.516 86.7668 100.308L97.7528 99.077L114.496 99.037ZM114.592 98.037L97.6958 98.079L86.3568 99.349C81.8518 103.029 72.9158 114.037 72.0258 136.276C71.4128 151.573 69.8828 183.231 69.8828 183.231C69.8828 183.231 76.2238 189.465 97.3288 190.798C99.5808 190.94 101.747 191.005 103.826 191.005C126.548 191.005 138.778 183.216 138.778 183.216C137.687 173.575 137.038 162.541 136.891 157.825C136.601 148.529 136.639 145.301 136.812 141.305C137.977 114.34 135.253 103.123 135.253 103.123C134.313 102.595 133.679 102.253 133.679 102.253C126.344 100.421 118.403 98.783 114.592 98.037Z" fill="#FFEDD2"/>
<path d="M126.098 59.46C124.816 56.858 123.069 55.778 121.96 55.325C121.711 52.674 120.289 50.958 119.925 50.502C118.595 48.833 116.841 47.522 114.964 46.53C112.486 45.22 110.267 43.928 102.708 43.917C100.753 43.914 98.809 44.292 96.873 44.519C94.392 44.81 91.782 44.883 89.499 43.869C89.221 43.745 88.891 43.607 88.628 43.761C88.454 43.863 88.368 44.067 88.308 44.26C87.85 45.727 88.241 47.427 89.294 48.546C88.132 48.192 86.752 48.227 85.843 49.032C84.934 49.837 84.87 51.55 85.928 52.147C84.199 52.292 82.859 53.903 82.54 55.609C82.221 57.315 82.721 59.069 83.397 60.667C83.722 61.435 84.103 62.204 84.717 62.768C86.83 64.71 90.394 64.234 93.009 64.105C95.896 63.962 98.784 63.82 101.672 63.677C102.413 63.64 112.444 63.572 112.535 63.141C112.274 64.386 112.119 65.923 112.262 67.741C112.586 71.876 117.096 76.156 117.096 76.156L116.694 81.896L116.341 90.138C116.341 90.138 118.398 89.635 119.429 87.73C120.461 85.825 122.751 82.852 124.735 75.979C127.815 65.3 127.121 61.535 126.098 59.46Z" fill="#263238"/>
<path d="M124.106 84.4351C119.843 86.4421 117.974 83.0301 117.974 83.0301L117.901 99.8631C109.601 110.705 87.1668 106.538 96.1858 98.4641L96.2698 94.5851C96.2698 94.5851 94.2528 94.5541 92.0698 93.9271C86.9888 92.4681 85.3328 89.3991 84.2878 85.2841C82.7478 79.1961 84.4598 67.6311 85.5718 60.4841C85.8858 58.4681 87.3168 56.1221 89.1408 55.2481C93.6698 53.0791 97.7668 56.3831 103.98 58.9531C106.553 60.0171 112.828 60.5711 114.499 59.8121C112.274 62.2111 112.161 69.9071 115.323 73.0851C115.867 74.1771 116.448 74.8211 116.898 75.2331C118.246 76.4601 119.419 73.3721 120.59 72.1751C121.772 70.9881 126.102 69.9731 127.891 74.0021C129.7 78.1071 128.055 82.5761 124.106 84.4351Z" fill="#C8856A"/>
<path d="M96.2699 94.5851C101.179 94.6381 104.859 94.0711 108.084 92.3671C110.869 90.8961 114.47 87.0431 115.379 83.1271C115.325 86.2901 113.126 92.1351 108.769 94.5311C103.115 97.6411 99.4269 97.1901 96.2139 97.2071L96.2699 94.5851Z" fill="#AF6152"/>
<path d="M103.295 64.634L107.342 66.625C107.866 65.451 107.384 64.054 106.266 63.504C105.148 62.955 103.818 63.46 103.295 64.634Z" fill="#263238"/>
<path d="M87.389 66.0851L91.691 64.6261C91.335 63.4001 90.084 62.7331 88.896 63.1361C87.707 63.5391 87.032 64.8591 87.389 66.0851Z" fill="#263238"/>
<path d="M105.576 70.933C105.484 71.953 104.591 72.706 103.582 72.613C102.573 72.521 101.83 71.619 101.922 70.599C102.014 69.578 102.907 68.826 103.916 68.918C104.925 69.012 105.669 69.913 105.576 70.933Z" fill="#263238"/>
<path d="M91.7942 70.1071C91.7022 71.1271 90.8092 71.8791 89.8002 71.7881C88.7912 71.6961 88.0472 70.7941 88.1402 69.7741C88.2322 68.7541 89.1252 68.0011 90.1342 68.0931C91.1432 68.1851 91.8862 69.0871 91.7942 70.1071Z" fill="#263238"/>
<path d="M98.398 67.1681L96.763 78.8831L90.208 76.2361C92.629 72.1991 95.359 69.1761 98.398 67.1681Z" fill="#AF6152"/>
<path d="M102.416 81.562L95.7827 83.382C96.2407 85.298 98.0987 86.445 99.9307 85.942C101.763 85.439 102.875 83.478 102.416 81.562Z" fill="#AF6152"/>
<path d="M101.663 82.711C101.946 82.665 102.223 82.661 102.495 82.677C102.396 84.186 101.404 85.537 99.9307 85.941C99.5607 86.042 99.1937 86.06 98.8337 86.035C98.6487 84.479 99.8867 83.004 101.663 82.711Z" fill="#F28F8F"/>
<path d="M142.872 193.598C144.169 192.301 145.812 191.178 146.412 189.361C146.721 188.425 146.682 187.326 146.103 186.533C145.982 186.367 145.835 186.208 145.795 186.007C145.761 185.84 145.805 185.667 145.845 185.501C146.008 184.809 146.079 184.06 145.809 183.403C145.579 182.847 145.104 182.4 144.539 182.207C144.916 181.202 144.96 180.074 144.662 179.044C144.31 177.826 143.126 176.81 142.256 178.115C141.832 178.752 141.509 179.461 141.226 180.171C140.516 181.945 138.399 183.731 138.119 185.62C137.825 187.598 138.741 193.294 141.78 193.705C142.015 193.737 142.688 193.782 142.872 193.598Z" fill="#AF6152"/>
<path d="M133.568 102.795C146.126 107.58 145.713 107.987 152.25 118.031C158.701 127.944 167.745 141.432 169.706 146.262C172.133 152.241 172.563 155.117 166.051 161.059C162.697 164.12 158.046 167.738 153.297 171.845C149.548 175.087 145.058 178.499 141.418 181.865C140.453 182.757 139.935 183.66 140.182 185.046C140.326 185.853 140.635 186.631 140.686 187.45C140.752 188.503 140.387 189.533 140.288 190.584C140.189 191.635 140.463 192.86 141.39 193.351C141.838 193.588 142.366 193.611 142.872 193.598C141.949 194.192 140.987 194.754 139.929 195.038C138.871 195.322 137.695 195.305 136.733 194.779C135.799 194.269 135.123 193.32 134.12 192.965C133.579 192.774 132.987 192.774 132.441 192.6C131.879 192.421 131.378 192.056 131.034 191.574C130.488 190.81 130.298 189.74 129.499 189.25C129.118 189.016 128.655 188.96 128.25 188.772C127.42 188.389 126.918 187.488 126.774 186.58C126.63 185.671 126.791 184.744 126.969 183.841C127.448 181.415 128.058 179.015 128.795 176.656C129.05 175.841 129.55 175.152 130.062 174.48C130.651 173.708 131.215 172.907 131.846 172.171C136.13 167.176 149.745 150.488 149.745 150.488L132.57 129.695C132.571 129.697 127.162 117.418 133.568 102.795Z" fill="#C8856A"/>
<path d="M142.872 193.598C140.758 195.058 137.683 196.023 135.703 193.856C135.208 193.423 134.668 192.962 133.984 192.766C132.667 192.549 131.396 192.27 130.858 190.906C130.568 190.333 130.342 189.636 129.737 189.166C129.102 188.712 128.396 188.743 127.956 188.331C127.488 187.952 127.181 187.373 127.045 186.767C126.76 183.636 128.151 180.171 128.925 177.12C129.476 175.2 131.01 173.832 132.132 172.228L134.667 169.138C139.578 163.16 144.961 156.518 149.746 150.489C144.735 156.313 139.241 162.876 134.299 168.819L131.747 171.892C130.59 173.51 128.962 174.979 128.428 176.966C127.845 178.89 127.348 180.84 126.935 182.808C126.693 184.105 126.295 185.458 126.597 186.871C126.758 187.558 127.104 188.228 127.682 188.684C128.273 189.174 129.048 189.152 129.496 189.498C129.976 189.845 130.22 190.478 130.527 191.076C130.815 191.693 131.313 192.273 131.947 192.579C132.587 192.915 133.3 192.892 133.904 193.056C135.173 193.407 135.957 194.744 137.256 195.113C139.251 195.736 141.261 194.7 142.872 193.598Z" fill="#AF6152"/>
<path d="M149.746 150.49C153.151 154.188 158.682 154.734 160.73 154.704C153.386 157.323 148.516 151.996 148.516 151.996L149.746 150.49Z" fill="#AF6152"/>
<path d="M156.347 141.499C161.789 137.323 161.604 132.089 161.674 131.984C157.576 125.661 152.935 118.678 149.98 114.108C144.512 105.652 139.631 104.04 133.58 102.258C128.213 107.387 128.756 126.356 132.868 131.409C134.982 134.007 142.068 141.705 145.672 145.913C146.7 145.747 150.905 145.676 156.347 141.499Z" fill="url(#paint5_linear_241_15027)"/>
<path d="M405.479 326.261L404.178 309.455L422.718 311.25C422.718 311.25 422.197 320.338 421.801 325.477C421.567 328.517 425.391 334.28 425.391 334.28C425.391 334.28 416.539 338.86 411.909 337.035C407.279 335.211 404.964 329.134 405.063 327.826C405.163 326.52 405.479 326.261 405.479 326.261Z" fill="#FFBDA7"/>
<path d="M449.523 353.717C449.816 353.721 450.226 356.848 448.619 358.157C446.765 359.668 441.342 362.124 434.222 361.154C427.102 360.184 423.264 358.011 420.435 355.672C417.607 353.333 413.642 350.035 410.425 349.313C407.436 348.641 404.196 347.294 403.247 346.389C402.298 345.484 402.473 341.507 402.473 341.507L449.523 353.717Z" fill="#263238"/>
<path d="M405.476 326.229C405.476 326.229 404.581 326.229 404.387 327.148C404.156 328.242 403.885 331.427 403.394 333.221C402.713 335.715 402.22 340.835 402.591 342.878C402.962 344.921 407.831 346.391 410.939 347.574C414.114 348.782 417.776 351.241 420.985 353.855C424.307 356.561 431.325 359.416 435.972 359.434C441.471 359.455 447.679 357.804 449.124 355.356C450.911 352.327 452.227 348.801 444.114 345.061C442.578 344.353 437.19 341.194 435.355 340.05C430.389 336.955 426.902 334.126 424.659 328.722C424.397 328.091 424.122 327.391 423.505 327.064C423.031 326.813 422.457 326.842 421.922 326.909C420.562 327.078 415.137 327.74 413.893 328.296C412.793 328.788 411.235 329.357 411.244 330.711C411.247 331.182 411.384 331.643 411.537 332.09C411.632 332.367 411.704 332.736 411.453 332.897C411.215 333.049 410.903 332.869 410.692 332.683C409.846 331.935 409.231 330.981 408.521 330.11C408.141 329.644 407.726 329.196 407.244 328.826C406.806 328.49 406.245 328.318 405.857 327.937C405.368 327.455 405.493 326.865 405.476 326.229Z" fill="#455A64"/>
<path d="M420.987 353.855C419.577 352.706 418.079 351.595 416.574 350.599V350.592C416.574 350.592 426.102 356.329 430.002 353.816C432.515 352.197 431.349 350.182 431.296 349.542C431.243 348.902 440.102 344.486 442.528 344.234C443.199 344.602 443.762 344.899 444.116 345.062C452.23 348.802 450.913 352.329 449.125 355.357C447.681 357.804 443.176 359.676 436.07 359.598C431.423 359.547 424.308 356.561 420.987 353.855Z" fill="#37474F"/>
<path d="M430.646 347.671C435.695 349.685 433.522 350.576 432.101 350.757C430.68 350.937 422.198 346.029 417.036 341.993C411.652 337.784 408.277 333.21 406.277 331.664C405.531 331.088 404.73 330.381 404.017 329.72C404.162 328.643 404.28 327.663 404.389 327.148C404.583 326.229 405.478 326.229 405.478 326.229C405.495 326.864 405.37 327.455 405.86 327.937C406.248 328.318 406.809 328.49 407.247 328.826C407.729 329.196 408.144 329.644 408.524 330.11C409.233 330.981 409.849 331.934 410.695 332.683C415.063 338.16 425.597 345.656 430.646 347.671Z" fill="#37474F"/>
<path d="M431.748 350.032C431.636 350.031 431.524 349.994 431.432 349.919C431.219 349.748 431.19 349.442 431.369 349.236C432.818 347.559 439.641 343.617 443.366 344.054C443.642 344.085 443.839 344.327 443.805 344.592C443.773 344.857 443.552 345.04 443.248 345.016C439.77 344.616 433.286 348.529 432.138 349.858C432.038 349.975 431.893 350.034 431.748 350.032Z" fill="#263238"/>
<path d="M427.354 347.354C427.242 347.353 427.13 347.316 427.038 347.241C426.825 347.069 426.797 346.764 426.975 346.558C428.423 344.882 435.244 340.943 438.972 341.377C439.248 341.408 439.445 341.65 439.411 341.915C439.379 342.18 439.136 342.37 438.854 342.339C435.374 341.944 428.892 345.851 427.744 347.18C427.644 347.297 427.499 347.356 427.354 347.354Z" fill="#263238"/>
<path d="M422.957 344.815C422.845 344.814 422.733 344.777 422.641 344.702C422.428 344.531 422.4 344.225 422.577 344.019C424.026 342.342 430.849 338.397 434.574 338.838C434.85 338.869 435.047 339.112 435.013 339.377C434.981 339.642 434.743 339.832 434.456 339.801C430.976 339.401 424.494 343.313 423.346 344.642C423.247 344.758 423.103 344.817 422.957 344.815Z" fill="#263238"/>
<path d="M418.889 341.926C418.777 341.925 418.665 341.888 418.573 341.813C418.36 341.642 418.333 341.336 418.51 341.131C419.958 339.454 426.796 335.514 430.507 335.95C430.783 335.981 430.98 336.223 430.946 336.488C430.914 336.753 430.674 336.942 430.389 336.912C426.913 336.515 420.427 340.424 419.279 341.753C419.179 341.868 419.035 341.927 418.889 341.926Z" fill="#263238"/>
<path d="M414.904 339.037C414.795 339.036 414.685 339 414.594 338.928C414.378 338.76 414.346 338.454 414.52 338.247C416.512 335.869 423.649 332.591 427.373 333.026C427.649 333.057 427.846 333.3 427.812 333.565C427.78 333.831 427.539 334.013 427.255 333.989C423.902 333.599 417.068 336.75 415.299 338.858C415.199 338.978 415.051 339.039 414.904 339.037Z" fill="#263238"/>
<path d="M373.3 337.332L376.71 321.105L357.517 319.179L357.496 334.693C357.496 334.693 355.769 340.331 357.04 342.297C358.311 344.264 371.083 345.824 372.192 344.427C373.299 343.03 373.3 337.332 373.3 337.332Z" fill="#FFBDA7"/>
<path d="M373.221 372.291C372.867 377.278 371.99 380.532 370.021 383.312C368.052 386.093 364.369 386.716 360.652 385.551C356.935 384.386 352.183 381.696 351.146 377.284C350.109 372.872 350.345 369.926 351.223 365.346L373.221 372.291Z" fill="#263238"/>
<path d="M357.495 334.694C355.961 334.679 356.627 341.461 355.696 348.128C354.698 355.274 352.314 358.069 351.425 363.922C350.41 370.61 350.778 373.665 353.347 377.968C355.915 382.272 365.083 387.035 369.655 381.546C373.383 377.071 373.572 371.786 373.283 365.002C372.983 357.989 372.712 353.051 373.062 347.775C373.397 342.733 374.631 338.205 373.302 337.532C373.194 338.268 373.088 339.203 372.974 339.925C372.887 340.479 372.714 343.21 371.855 343.166C371.78 342.513 371.799 341.911 371.851 341.256C371.897 340.686 371.848 340.057 371.443 339.587C371.034 339.113 369.549 338.566 368.928 338.403C367.42 338.007 364.737 337.55 363.204 337.299C362.441 337.174 361.674 337.078 360.908 337.023C360.286 336.979 359.553 336.967 358.963 337.117C358.6 337.21 358.264 337.417 358.128 337.736C358.027 337.972 358.044 338.242 358.042 338.502C358.039 338.97 357.971 339.433 357.84 339.875C357.783 340.07 357.63 340.302 357.41 340.236C357.232 340.182 357.163 339.974 357.163 339.806C357.163 338.989 357.281 338.404 357.329 337.458C357.351 337.021 357.434 336.429 357.443 335.988C357.453 335.557 357.46 335.124 357.495 334.694Z" fill="#455A64"/>
<path d="M351.788 362.025C351.632 362.989 350.681 369.377 352.602 370.7C354.68 372.131 355.86 367.144 355.86 367.144C355.86 367.144 360.766 366.175 367.87 369.603C367.497 370.621 368.572 374.169 370.532 373.598C372.479 373.031 373.297 365.681 373.308 365.586C373.559 372.088 373.277 377.201 369.658 381.546C365.085 387.035 355.918 382.272 353.35 377.968C350.781 373.664 350.413 370.609 351.428 363.922C351.528 363.252 351.652 362.626 351.788 362.025Z" fill="#37474F"/>
<path d="M356.415 367.624C356.367 370.067 353.727 369.025 353.636 365.562C353.545 362.098 355.674 354.072 355.696 348.127C355.81 339.965 355.96 334.678 357.495 334.693C357.489 334.775 357.49 334.858 357.485 334.941L357.259 338.348C357.211 338.842 357.162 339.279 357.162 339.806C357.089 344.792 357.417 354.459 356.915 358.982C356.413 363.507 356.463 365.18 356.415 367.624Z" fill="#37474F"/>
<path d="M367.043 369.468C367.563 367.106 367.999 365.517 368.564 361.005C369.125 356.526 371.34 347.51 372.422 342.668C372.803 341.864 372.912 340.326 372.975 339.926C373.081 339.252 373.181 338.398 373.281 337.688C373.292 337.638 373.303 337.589 373.311 337.539C374.269 338.041 374.103 341.909 373.688 343.927C373.273 345.945 372.754 348.111 372.25 351.001C370.894 356.714 371.086 365.191 370.196 368.484C369.306 371.776 366.523 371.829 367.043 369.468Z" fill="#37474F"/>
<path d="M368.018 369.814C367.947 369.802 367.878 369.777 367.811 369.741C367.756 369.709 362.206 366.656 356.002 367.658C355.696 367.706 355.387 367.515 355.309 367.233C355.23 366.949 355.413 366.681 355.717 366.631C362.355 365.559 368.101 368.728 368.345 368.864C368.621 369.019 368.728 369.341 368.579 369.584C368.468 369.767 368.241 369.852 368.018 369.814Z" fill="#263238"/>
<path d="M369.336 364.609C369.272 364.598 369.209 364.577 369.148 364.546C369.086 364.514 362.845 361.324 355.926 362.219C355.62 362.254 355.317 362.059 355.246 361.773C355.177 361.488 355.371 361.224 355.677 361.185C362.995 360.242 369.376 363.51 369.645 363.648C369.928 363.796 370.045 364.115 369.908 364.363C369.801 364.556 369.568 364.649 369.336 364.609Z" fill="#263238"/>
<path d="M356.334 357.206C356.119 357.169 355.927 357.022 355.854 356.818C355.757 356.537 355.917 356.255 356.215 356.187C363.107 354.622 369.879 358.368 370.166 358.53C370.444 358.685 370.549 359.007 370.4 359.25C370.251 359.491 369.903 359.555 369.631 359.406C369.567 359.371 362.987 355.738 356.575 357.202C356.494 357.219 356.413 357.22 356.334 357.206Z" fill="#263238"/>
<path d="M356.76 352.482C356.549 352.446 356.359 352.302 356.284 352.103C356.179 351.823 356.335 351.538 356.631 351.467C364.212 349.611 370.595 353.622 370.863 353.793C371.13 353.964 371.214 354.29 371.049 354.522C370.884 354.754 370.527 354.803 370.266 354.632C370.207 354.593 364.066 350.751 357.01 352.475C356.927 352.495 356.842 352.496 356.76 352.482Z" fill="#263238"/>
<path d="M357.264 347.178C357.057 347.142 356.868 347.002 356.791 346.805C356.683 346.527 356.833 346.24 357.128 346.163C364.233 344.319 371.169 348.462 371.46 348.643C371.732 348.807 371.822 349.132 371.664 349.368C371.507 349.604 371.159 349.666 370.887 349.495C370.819 349.454 364.119 345.454 357.522 347.167C357.436 347.19 357.349 347.193 357.264 347.178Z" fill="#263238"/>
<path d="M354.892 180.702C353.852 211.369 355.139 263.955 355.139 263.955C354.828 266.916 352.326 276.417 352.384 291.12C352.465 311.802 353.633 341.925 353.633 341.925C359.501 347.487 369.62 347.961 375.483 344.02C375.483 344.02 384.624 298.514 388.865 279.9C393.106 261.286 394.132 250.256 394.132 250.256L396.346 264.025C396.346 264.025 395.253 277.759 395.711 286.426C396.272 297.051 403.394 333.222 403.394 333.222C407.856 337.465 422.459 337.465 426.127 330.254C426.127 330.254 430.624 283.575 431.456 262.108C432.123 244.896 432.338 228.708 431.352 202.6C432.817 195.133 433.208 189.95 433.111 180.089L354.892 180.702Z" fill="#37474F"/>
<path opacity="0.2" d="M394.132 250.256L398.684 213.604C398.684 213.604 408.713 212.249 413.922 207.465C413.922 207.465 410.506 213.854 401.03 216.204L396.394 250.782L396.347 264.025L394.132 250.256Z" fill="black"/>
<path d="M431.64 117.514C439.954 124.085 454.179 133.466 454.179 133.466C454.179 133.466 460.974 125.526 463.468 120.317C464.553 118.051 464.283 115.107 463.665 113.59C462.513 110.764 463.855 107.159 463.53 104.358C463.427 103.469 462.575 101.505 463.61 100.924C464.545 100.4 465.668 101.708 466.165 102.341C466.996 103.4 467.55 104.617 467.85 105.925C467.998 106.571 467.961 107.271 468.229 107.89C468.838 109.299 469.783 106.66 469.945 106.17C470.375 104.87 470.494 103.485 470.5 102.123C470.509 100.084 470.281 98.0341 470.539 96.0121C470.618 95.3941 470.747 94.7691 471.06 94.2301C471.373 93.6911 471.895 93.2461 472.513 93.1571C472.626 92.5121 472.747 91.8481 473.101 91.2971C473.455 90.7461 474.103 90.3491 474.749 90.4571C475.45 90.5751 475.643 91.3751 475.849 92.3181C476.697 91.6511 477.379 91.7721 477.746 92.2661C478.112 92.7601 478.413 93.4381 478.672 93.9951C478.989 94.6761 479.23 95.2151 479.371 95.6151C479.686 95.5771 480.051 95.7731 480.333 95.9991C481.255 96.7381 481.784 97.8891 482.072 98.9981C482.771 101.69 484.49 105.009 483.904 107.832C483.003 112.176 481.9 117.597 479.493 121.326C478.445 122.95 476.707 125.939 475.618 128.26C474.529 130.581 473.334 134.017 470.518 139.952C467.458 146.4 464.985 151.661 463.129 153.481C460.474 156.085 455.074 157.155 449.049 154.216C442.567 151.052 424.256 141.911 424.256 141.911L417.656 110.405C422.144 110.622 428.677 115.172 431.64 117.514Z" fill="#FFBDA7"/>
<path d="M470.517 109.545C472.866 111.897 473.015 116.143 472.179 118.645C475.063 115.765 473.853 111.366 470.517 109.545Z" fill="#F0997A"/>
<path d="M472.512 93.1581C472.232 97.0241 473.291 100.808 473.226 104.675C473.812 100.88 472.751 96.9401 472.512 93.1581Z" fill="#F0997A"/>
<path d="M475.848 92.3201C475.424 92.6561 475.38 93.2551 475.341 93.7531C475.314 95.2991 475.676 96.8231 475.89 98.3361C476.218 100.347 476.24 102.393 476.267 104.432C476.742 101.38 476.357 98.2631 475.723 95.2591C475.616 94.3081 475.236 93.1601 475.848 92.3201Z" fill="#F0997A"/>
<path d="M479.369 95.6182C477.376 95.8622 478.634 99.1032 478.787 100.358C478.969 101.207 479.063 102.066 479.159 102.938C479.259 103.806 479.33 104.676 479.367 105.555C479.507 104.682 479.504 103.795 479.477 102.914C479.454 101.158 478.936 99.4242 478.584 97.7242C478.439 96.9382 478.358 95.8062 479.369 95.6182Z" fill="#F0997A"/>
<path d="M414.741 108.666C423.503 109.544 427.613 113.278 433.933 117.735C439.783 121.86 454.271 132.937 454.271 132.937L460.742 124.901C460.742 124.901 461.351 128.545 465.561 131.195C469.772 133.845 473.802 132.752 473.802 132.752C473.802 132.752 471.966 138.212 469.124 144.67C465.705 152.442 463.005 157.213 460.157 158.542C456.562 160.219 451.282 159.282 444.791 156.096C438.301 152.91 421.8 144.346 421.8 144.346L414.741 108.666Z" fill="url(#paint6_linear_241_15027)"/>
<path d="M454.271 132.937C452.76 134.883 450.5 139.241 451.535 143.703C449.213 138.844 451.158 133.493 452.397 131.597L454.271 132.937Z" fill="#263238"/>
<path d="M368.263 109.961C374.19 108.445 379.937 107.113 381.817 106.722H397.684L414.539 109.142C425.276 117.448 429.328 131.126 428.85 145.895L428.848 145.978L428.872 146.058C433.388 160.731 434.122 175.773 432.723 191.069C432.627 191.12 432.5 191.188 432.345 191.269C431.941 191.479 431.34 191.782 430.553 192.151C428.98 192.889 426.669 193.891 423.722 194.941C417.827 197.042 409.396 199.334 399.257 200.098C386.348 201.072 375.19 199.063 367.26 196.811C363.295 195.685 360.139 194.499 357.976 193.595C356.895 193.143 356.062 192.762 355.502 192.495C355.246 192.373 355.047 192.275 354.907 192.205C354.74 189.184 354.544 186.769 354.37 184.625C353.955 179.506 353.665 175.935 354.193 169.372C354.937 160.106 354.751 152.391 353.932 148.591C352.201 140.56 352.199 131.9 352.633 125.233C352.851 121.903 353.176 119.077 353.448 117.084C353.584 116.087 353.706 115.3 353.794 114.762C353.832 114.526 353.864 114.338 353.888 114.201C356.527 113.097 362.451 111.448 368.263 109.961Z" fill="#FAFAFA" stroke="#FFEDD2"/>
<path d="M392.261 50.4691C385.862 50.1691 381.218 50.8671 376.553 53.6731C372.804 55.9281 370.425 58.6651 369.639 62.2761C367.017 62.7261 364.72 65.4281 363.664 67.7641C362.407 70.5441 362.611 75.1741 363.664 78.9951C364.96 83.6981 366.081 86.1331 369.026 90.0131C369.596 90.7641 375.215 101.449 374.593 101.964C378.784 98.4911 385.154 93.9081 389.344 90.4361C392.813 87.5611 396.282 84.6861 399.751 81.8111C402.222 79.7631 405.026 77.9711 406.811 75.3161C407.596 74.1481 408.611 73.1111 409.327 71.8931C409.652 71.3401 411.182 68.4601 410.641 67.8871C411.377 68.6681 411.895 69.6351 412.128 70.6641C414.1 66.3901 412.369 61.2221 409.068 57.8131C405 53.6101 398.287 50.7521 392.261 50.4691Z" fill="#263238"/>
<path d="M410.002 93.2891C409.167 96.7021 406.757 99.8231 402.353 101.72C399.882 102.784 398.032 102.803 398.032 102.803L398.162 108.097C398.888 110.673 399.333 116.251 397.143 120.667C382.904 116.365 374.587 108.785 374.587 108.785L373.294 90.4451C373.294 90.4451 371.167 93.1731 367.055 91.1301C364.237 89.7181 361.448 85.4581 363.509 81.5841C365.562 77.7251 369.85 77.2371 371.688 79.6311C372.695 80.9421 372.772 82.8891 374.23 82.6241C377.537 82.0221 378.161 78.6841 377.619 76.1081C377.569 75.8701 377.515 75.6161 377.61 75.3901C377.715 75.1421 377.974 74.9921 378.207 74.8451C380.019 73.7101 381.201 71.8031 381.773 69.8001C382.344 67.7971 382.359 65.6901 382.241 63.6201C385.144 65.0551 388.134 66.3731 391.301 67.1451C394.781 67.9931 398.4 68.1641 401.99 68.3301C403.201 68.3861 404.592 68.3841 405.825 68.9441C407.452 69.6821 408.162 71.0901 408.45 72.4771C409.026 75.2501 408.591 76.9961 409.532 80.8871C410.67 85.5901 410.972 89.3251 410.002 93.2891Z" fill="#FFBDA7"/>
<path d="M398.032 102.802C387.409 104.047 383.104 101.04 380.611 99.0001C378.118 96.9591 376.134 91.7251 376.134 91.7251C376.134 91.7251 376.456 97.3121 379.605 100.621C382.15 103.296 385.287 104.7 388.009 105.341C393 106.515 398.096 105.332 398.096 105.332L398.032 102.802Z" fill="#F0997A"/>
<path d="M390.232 78.691C390.248 79.761 389.426 80.638 388.396 80.651C387.366 80.664 386.518 79.806 386.502 78.736C386.486 77.666 387.308 76.789 388.338 76.776C389.368 76.765 390.216 77.622 390.232 78.691Z" fill="#263238"/>
<path d="M388.421 73.596L384.465 75.856C383.86 74.719 384.255 73.291 385.347 72.667C386.44 72.043 387.816 72.459 388.421 73.596Z" fill="#263238"/>
<path d="M405.233 74.214L400.927 72.62C401.326 71.405 402.613 70.777 403.802 71.217C404.991 71.657 405.632 72.998 405.233 74.214Z" fill="#263238"/>
<path d="M405.004 77.6001C405.02 78.6701 404.198 79.5471 403.168 79.5591C402.138 79.5711 401.291 78.7141 401.275 77.6441C401.259 76.5741 402.081 75.6971 403.111 75.6841C404.14 75.6731 404.988 76.5301 405.004 77.6001Z" fill="#263238"/>
<path d="M395.026 75.0811L397.002 87.3981L403.641 84.5471L395.026 75.0811Z" fill="#F0997A"/>
<path d="M390.989 89.8081L397.84 90.9651C397.564 92.9181 395.806 94.2421 393.913 93.9231C392.021 93.6031 390.712 91.7611 390.989 89.8081Z" fill="#B16668"/>
<path d="M392.182 87.933C392.169 87.934 392.154 87.9381 392.138 87.9441C392.112 87.9541 392.095 87.9781 392.079 88.0001C391.289 89.1311 390.375 90.076 389.056 90.587C388.973 90.619 388.875 90.666 388.865 90.754C388.85 90.88 389.016 90.9401 389.142 90.9461C389.844 90.9791 390.498 90.6401 391.034 90.2061C391.341 89.9571 391.623 89.6751 391.86 89.3571C391.984 89.1911 392.074 89.0021 392.157 88.8131C392.212 88.6861 392.24 88.5741 392.256 88.4401C392.262 88.3831 392.363 87.919 392.182 87.933Z" fill="#F0997A"/>
<path d="M391.857 90.878C391.568 90.859 391.289 90.883 391.017 90.926C391.263 92.418 392.391 93.665 393.913 93.922C394.295 93.986 394.666 93.968 395.026 93.907C395.061 92.34 393.672 90.994 391.857 90.878Z" fill="#F28F8F"/>
<path d="M365.632 212.633C362.969 214.559 357.027 214.2 355.517 213.281C354.006 212.362 354.238 208.799 353.93 205.974C353.622 203.149 351.379 198.994 355.035 199.064C358.691 199.135 369.3 203.404 365.632 212.633Z" fill="#F0997A"/>
<path d="M356.609 113.465C349.789 116.723 346.094 119.788 340.081 132.102C334.605 143.316 327.236 156.936 324.292 165.433C322.724 169.958 322.422 173.752 330.407 180.715C337.252 186.683 345.982 194.076 353.553 199.023C354.921 199.917 356.403 200.973 356.734 202.573C356.875 203.258 356.782 203.97 356.849 204.667C357.031 206.587 358.384 208.183 359.818 209.473C360.575 210.154 361.4 210.825 361.808 211.758C362.654 213.694 360.24 213.647 358.609 213.983C360.153 214.585 363.564 215.163 365.205 215.41C367.694 215.784 369.053 211.869 371.293 211.024C371.812 210.828 372.368 210.685 372.802 210.339C374.219 209.212 373.554 206.743 374.755 205.389C375.266 204.813 376.061 204.515 376.48 203.868C376.969 203.114 376.801 202.12 376.543 201.259C375.181 196.725 371.437 192.705 368.098 189.49C362.007 183.626 347.733 168.437 347.733 168.437L359.9 145.3C363.104 140.169 364.367 120.123 356.609 113.465Z" fill="#FFBDA7"/>
<path d="M325.764 150.49C328.367 144.701 333.79 133.209 336.057 128.69C339.757 121.314 344.017 118.899 346.303 117C349.394 114.432 356.545 112.722 356.545 112.722C365.237 120.253 363.698 139.62 361.465 143.713C359.231 147.806 348.593 168.415 348.593 168.415L362.154 182.977C362.154 182.977 361.936 185.9 357.855 189.895C353.774 193.889 348.176 197.117 348.176 197.117C348.176 197.117 335.612 188.643 330.112 184.139C322.74 178.101 318.399 172.416 320.244 164.88C321.448 159.967 324.083 154.23 325.764 150.49Z" fill="url(#paint7_linear_241_15027)"/>
<path d="M348.595 168.417C345.757 165.857 341.441 163.513 339.354 163.272C339.354 163.272 342.855 162.022 349.664 166.344L348.595 168.417Z" fill="#263238"/>
<path d="M232.4 371.065C231.366 357.8 232.964 347.633 231.78 326.92C231.704 323.142 231.575 319.179 231.371 315.382H204.543C206.173 322.153 207.777 328.913 209.129 334.773C212.393 351.736 217.189 363.81 218.018 372.301C218.268 374.328 220.73 394.228 221.747 398.786C222.764 403.344 233.416 403.464 234.099 395.625C234.554 390.408 232.595 373.562 232.4 371.065Z" fill="#FFBDA7"/>
<path d="M169.159 358.314C169.851 364.156 169.557 366.038 167.443 368.349C163.015 373.189 157.3 378.087 151.752 382.306C152.556 384.468 159.228 384.389 162.53 382.743C167.807 380.114 173.044 376.103 174.844 374.745C179.402 371.307 185.228 368.549 185.302 363.317C185.314 362.666 185.488 362.486 185.455 362.383C185.533 359.659 189.098 323.553 190.714 308.357H163.125C164.614 331.236 169.045 357.354 169.159 358.314Z" fill="#FFBDA7"/>
<path d="M142.313 387.835C142.031 387.832 141.572 390.995 143.09 392.358C144.843 393.931 150.007 396.54 156.877 395.711C163.747 394.882 167.484 392.76 170.254 390.45C173.024 388.14 176.905 384.88 180.016 384.217C182.905 383.601 186.05 382.304 186.982 381.407C187.914 380.51 187.828 376.472 187.828 376.472L142.313 387.835Z" fill="#263238"/>
<path d="M185.6 360.907C185.6 360.907 186.117 360.929 186.285 361.866C186.484 362.98 186.679 366.217 187.113 368.047C187.716 370.591 188.083 375.796 187.684 377.86C187.285 379.923 182.57 381.309 179.555 382.441C176.476 383.598 172.902 386.012 169.76 388.594C166.508 391.266 159.698 393.909 155.226 393.927C148.4 393.954 143.999 392.019 142.66 389.506C141.004 386.395 142.09 384.003 149.972 380.386C151.464 379.702 156.268 376.937 158.057 375.817C159.948 374.633 161.762 373.313 163.437 371.827C164.284 371.076 165.096 370.281 165.857 369.439C166.527 368.698 167.469 367.803 167.871 366.877C167.962 366.667 168.026 366.421 168.108 366.203C168.344 365.573 168.507 364.992 168.639 364.336C168.772 363.673 168.862 362.705 169.487 362.314C170.204 361.865 172.191 362.228 172.997 362.298C174.011 362.387 175.028 362.53 176.017 362.767C177.169 363.043 178.503 363.163 179.176 364.275C179.691 365.127 179.761 366.197 179.792 367.177C179.807 367.644 179.792 368.113 179.791 368.58C179.791 368.779 179.703 369.137 179.979 369.057C180.241 368.981 180.539 368.287 180.64 368.051C180.863 367.531 181.008 366.974 181.252 366.462C181.531 365.878 181.844 365.278 182.246 364.781C182.621 364.316 183.03 363.871 183.501 363.506C183.929 363.174 184.473 363.012 184.854 362.634C185.335 362.155 185.554 361.302 185.6 360.907Z" fill="#37474F"/>
<path d="M148.76 380.959C158.635 381.761 161.881 388.65 162.26 392.502C159.802 393.359 157.271 393.919 155.227 393.927C148.401 393.954 143.719 392.019 142.381 389.505C140.818 386.572 141.726 383.592 148.76 380.959Z" fill="#FAFAFA"/>
<path d="M163.772 381.862C163.879 381.863 163.988 381.828 164.079 381.754C164.287 381.585 164.32 381.275 164.154 381.063C162.796 379.332 158.15 376.725 154.555 377.084C154.289 377.11 154.094 377.351 154.121 377.621C154.146 377.891 154.376 378.088 154.648 378.063C158.004 377.738 162.325 380.304 163.401 381.677C163.494 381.797 163.632 381.86 163.772 381.862Z" fill="#F0F0F0"/>
<path d="M167.862 379.112C167.97 379.113 168.078 379.079 168.169 379.004C168.378 378.835 168.411 378.525 168.244 378.313C166.885 376.58 162.238 373.968 158.645 374.335C158.379 374.36 158.184 374.602 158.211 374.872C158.236 375.141 158.461 375.339 158.738 375.314C162.094 374.984 166.415 377.555 167.491 378.928C167.584 379.048 167.722 379.111 167.862 379.112Z" fill="#F0F0F0"/>
<path d="M171.682 376.27C171.79 376.271 171.898 376.236 171.989 376.162C172.197 375.993 172.23 375.683 172.064 375.471C170.707 373.738 166.044 371.13 162.464 371.493C162.198 371.519 162.004 371.76 162.03 372.029C162.055 372.299 162.282 372.495 162.557 372.471C165.909 372.144 170.233 374.712 171.31 376.085C171.404 376.205 171.542 376.269 171.682 376.27Z" fill="#F0F0F0"/>
<path d="M175.73 373.45C175.835 373.451 175.942 373.418 176.031 373.347C176.242 373.181 176.28 372.871 176.117 372.657C174.25 370.201 169.287 368.259 165.696 368.62C165.43 368.646 165.235 368.887 165.262 369.157C165.287 369.427 165.515 369.617 165.789 369.599C169.023 369.277 173.698 371.083 175.355 373.26C175.447 373.383 175.588 373.448 175.73 373.45Z" fill="#F0F0F0"/>
<path d="M218.402 402.339C218.685 406.882 219.443 409.894 221.171 412.558C222.899 415.222 226.16 416.059 229.462 415.279C232.764 414.499 236.994 412.414 237.94 408.495C238.886 404.576 239.438 401.891 238.688 397.678L218.402 402.339Z" fill="#263238"/>
<path d="M232.284 369.443C233.644 369.542 234.046 375.642 234.83 381.749C235.671 388.295 237.766 391.003 238.518 396.37C239.376 402.502 238.288 405.242 235.984 408.949C233.681 412.657 225.524 416.294 221.504 410.984C218.227 406.655 218.092 401.854 218.39 395.731C218.699 389.401 218.229 385.018 217.952 380.214C217.687 375.622 216.597 370.993 217.779 370.482C217.87 371.156 217.959 372.012 218.055 372.674C218.173 373.489 218.177 374.344 218.494 375.122C218.633 375.463 218.936 375.821 219.06 375.266C219.144 374.89 219.104 374.5 219.059 374.124C218.86 372.433 219.774 372.295 220.267 372.164C221.336 371.879 225.559 371.395 226.579 371.33C227.618 371.264 231.207 371.118 231.673 371.67C231.988 372.044 232.034 372.669 232.131 373.443C232.247 374.366 232.476 375.042 232.505 374.752C232.57 374.091 232.433 372.373 232.415 371.958C232.398 371.56 232.329 371.018 232.323 370.618C232.317 370.228 232.313 369.835 232.284 369.443Z" fill="#37474F"/>
<path d="M238.896 399.924C239.131 403.731 238.155 406.34 236.351 409.242C234.047 412.95 225.234 416.599 221.215 411.289C219.215 408.647 218.679 405.523 218.404 402.336C220.813 398.243 235.096 396.44 238.896 399.924Z" fill="#FAFAFA"/>
<path d="M221.372 395.668C221.429 395.662 221.485 395.649 221.539 395.624C221.594 395.6 227.89 393.172 234.018 394.495C234.289 394.549 234.559 394.395 234.623 394.142C234.686 393.889 234.515 393.636 234.244 393.577C227.763 392.182 221.343 394.67 221.103 394.774C220.852 394.888 220.746 395.168 220.865 395.402C220.96 395.587 221.167 395.687 221.372 395.668Z" fill="#F0F0F0"/>
<path d="M233.714 389.925C233.904 389.907 234.076 389.788 234.142 389.609C234.23 389.362 234.09 389.095 233.826 389.011C227.726 387.084 220.956 389.976 220.701 390.101C220.453 390.221 220.358 390.505 220.489 390.736C220.619 390.965 220.928 391.049 221.169 390.934C221.226 390.907 227.824 388.103 233.5 389.903C233.571 389.925 233.643 389.932 233.714 389.925Z" fill="#F0F0F0"/>
<path d="M233.499 385.616C233.686 385.598 233.855 385.482 233.923 385.307C234.017 385.061 233.881 384.792 233.619 384.705C226.91 382.464 220.484 385.624 220.246 385.759C220.008 385.894 219.932 386.183 220.077 386.405C220.222 386.627 220.538 386.699 220.77 386.563C220.823 386.532 227.034 383.506 233.278 385.59C233.352 385.615 233.427 385.622 233.499 385.616Z" fill="#F0F0F0"/>
<path d="M233.165 381.373C233.349 381.356 233.517 381.243 233.587 381.07C233.685 380.827 233.553 380.556 233.292 380.464C227.005 378.269 220.088 381.508 219.828 381.649C219.586 381.777 219.504 382.066 219.643 382.291C219.78 382.517 220.088 382.598 220.331 382.463C220.391 382.431 227.099 379.304 232.937 381.343C233.014 381.371 233.09 381.38 233.165 381.373Z" fill="#EBEBEB"/>
<path d="M222.23 202.825C227.935 213.229 228.89 221.732 229.468 252.668C230.046 283.603 229.951 292.27 230.073 296C230.194 299.73 232.521 306.313 233.253 324.773C233.818 339.027 232.875 357.909 232.875 357.909C232.875 357.909 231.098 360.952 224.072 361.581C217.59 362.162 214.847 359.643 214.847 359.643C214.847 359.643 207 330.995 204.542 319.927C202.084 308.859 194.941 272.468 194.941 272.468L190.702 301.983C190.702 301.983 191.762 314.181 189.785 330.294C187.808 346.407 187 354.231 187 354.231C187 354.231 181.842 356.578 176.297 356.495C170.752 356.412 168.132 354.837 168.132 354.837C168.132 354.837 162.062 326.018 160.99 294.821C160.362 276.568 157.805 235.145 167.07 202.824L222.23 202.825Z" fill="#37474F"/>
<path d="M194.941 272.467L189.154 237.345C189.154 237.345 176.941 236.472 170.153 229.373C172.907 236.915 182.928 242.197 187.332 243.253L192.502 272.072L190.701 301.982L194.941 272.467Z" fill="#263238"/>
<path d="M204.543 246.049C205.875 255.625 207.072 265.214 208.278 274.792C209.517 284.365 210.77 293.93 212.532 303.392C214.341 312.842 216.145 322.368 217.827 331.876C219.538 341.388 221.126 350.922 222.59 360.476C220.382 351.06 218.297 341.626 216.337 332.169C214.348 322.708 212.476 313.265 210.619 303.745C208.882 294.201 207.707 284.585 206.775 274.962C205.821 265.339 205.126 255.699 204.543 246.049Z" fill="#263238"/>
<path d="M172.869 242.945L171.292 268.139C171.06 272.337 170.79 276.531 170.599 280.727C170.407 284.916 170.158 289.128 170.228 293.271C170.314 297.432 170.569 301.646 170.781 305.839L171.416 318.441C171.846 326.843 172.183 335.254 172.417 343.674C171.428 335.309 170.584 326.931 169.9 318.541C169.211 310.142 168.568 301.776 168.283 293.302C168.31 284.787 169.031 276.422 169.784 268.023C170.562 259.636 171.572 251.268 172.869 242.945Z" fill="#263238"/>
<path d="M120.624 240.724C121.534 240.649 122.412 240.258 123.081 239.612C123.355 239.347 123.594 239.043 123.823 238.733C123.865 238.676 123.909 238.617 123.973 238.591C124.047 238.561 124.13 238.582 124.208 238.602C125.426 238.907 126.52 238.492 127.534 237.832C128.802 237.007 130.069 236.183 131.337 235.358C132.041 234.9 132.753 234.435 133.334 233.812C133.915 233.189 134.361 232.381 134.415 231.493C134.446 230.978 134.333 230.429 134.012 230.031C133.808 229.778 133.533 229.601 133.246 229.473C132.364 229.08 131.377 229.128 130.445 229.27C127.751 229.682 125.251 230.954 123.239 232.856C122.49 233.564 121.793 234.334 121.099 235.091C120.476 235.77 120.373 236.871 120.158 237.755C120.031 238.278 119.871 238.825 119.66 239.313C119.529 239.616 119.123 239.963 119.25 240.336C119.338 240.596 119.638 240.687 119.895 240.714C120.137 240.741 120.382 240.744 120.624 240.724Z" fill="#F0997A"/>
<path d="M149.796 224.961C150.895 223.241 152.152 221.932 153.572 220.21C156.907 216.166 161.028 211.236 165.244 205.811C169.023 200.948 170.153 199.202 172.502 192.721C177.51 178.903 182.007 165.921 182.007 165.921L181.944 144.837C174.754 145.974 168.05 146.31 162.672 161.602C159.736 169.95 154.069 189.231 154.069 189.231C154.069 189.231 140.304 217.975 138.603 220.21C136.902 222.445 132.605 224.152 129.117 226.073C127.289 227.08 125.482 228.022 123.575 228.855C122.944 229.13 122.301 229.415 121.797 229.899C121.413 230.268 121.128 230.737 120.847 231.2C120.023 232.56 119.199 233.919 118.375 235.279C117.671 236.441 116.698 237.33 115.937 238.453C115.839 238.598 115.743 238.754 115.717 238.933C115.459 240.708 118.48 239.905 119.129 239.561C119.948 239.127 120.651 238.493 121.346 237.864C122.39 236.913 123.219 235.906 124.078 234.766C124.969 233.583 126.055 232.699 127.476 232.387C128.475 232.168 129.475 231.949 130.474 231.729C130.65 231.69 130.917 231.726 130.911 231.919C130.909 231.988 130.866 232.045 130.824 232.097C129.532 233.718 128.116 235.225 126.593 236.6C126.352 236.817 126.097 237.05 126.011 237.377C125.838 238.033 126.437 238.667 127.041 238.924C129.269 239.87 131.172 237.994 132.82 236.712C135.532 234.602 139.183 234.333 142.315 233.233C144.081 232.613 145.887 231.495 146.984 229.922C148.409 227.883 148.697 226.681 149.796 224.961Z" fill="#FFBDA7"/>
<path d="M181.923 144.161C173.37 145.011 168.901 147.291 165.983 152.945C163.065 158.599 156.407 178.389 156.407 178.389C161.925 183.377 168.758 186.186 175.832 185.494L182.639 166.078L181.923 144.161Z" fill="url(#paint8_linear_241_15027)"/>
<path opacity="0.3" d="M181.923 144.161C173.37 145.011 168.901 147.291 165.983 152.945C163.065 158.599 156.407 178.389 156.407 178.389C161.925 183.377 168.758 186.186 175.832 185.494L182.639 166.078L181.923 144.161Z" fill="white"/>
<path d="M227.675 216.79C224.286 201.18 218.876 197.239 221.618 190.462C221.618 190.462 227.251 176.878 229.361 171.203C233.595 159.82 219.031 139.851 216.988 141.686C214.594 143.836 212.91 144.5 210.387 144.5C205.211 144.5 199.169 143.847 191.39 143.64C188.469 143.671 181.922 144.16 181.922 144.16C179.165 146.079 174.118 152.761 171.043 157.01C164.575 165.947 163.028 170.095 163.707 177.511C164.167 182.534 167.972 186.66 167.972 186.66C168.3 190.248 167.87 196.911 167.87 196.911C167.611 200.875 165.696 204.466 164.049 214.313C174.02 230.848 215.028 230.533 227.675 216.79Z" fill="url(#paint9_linear_241_15027)"/>
<path d="M179.559 117.39C180.696 114.07 177.481 112.206 176.14 109.561C174.971 107.255 174.515 104.613 174.93 102.087C175.575 98.1559 178.31 94.6079 182.039 92.8659C185.003 91.4809 187.797 90.455 191.115 90.177C194.64 89.882 198.205 90.1609 201.709 90.6019C208.957 91.5139 217.378 96.163 218.284 103.397C221.56 104.38 222.845 106.505 223.054 110.112C223.205 112.711 222.545 115.867 222.519 118.454C222.491 121.319 223.105 122.56 224.296 125.153C225.71 128.232 226.188 131.956 224.652 135.375C223.671 137.559 221.116 139.39 218.557 140.578C219.764 138.651 219.665 135.571 219.152 134.037C218.754 135.868 218.183 137.25 216.575 138.844C211.842 143.539 203.553 143.341 197.067 143.106C191.469 142.903 185.177 141.779 180.57 136.766C179.66 135.776 178.675 134.742 178.551 133.438C177.976 135.145 178.018 137.04 178.67 138.73C175.618 137.13 173.544 134.012 173.097 130.716C172.735 128.047 173.4 125.307 174.79 122.996C176.033 120.928 178.764 119.711 179.559 117.39Z" fill="#263238"/>
<path d="M180.595 110.601C180.622 112.527 179.458 114.975 179.124 118.546C177.98 130.776 181.333 135.2 184.293 136.85C186.378 138.013 187.674 138.477 191.149 138.767L190.96 143.636C190.96 143.636 185.829 151.753 187.934 158.406C204.784 151.983 210.277 145.646 210.293 145.623L210.422 128.463C210.527 129.494 213.309 131.174 216.169 129.826C220.968 127.564 221.631 120.944 219.488 117.865C218.284 116.136 215.707 115.606 213.859 116.436C212.946 116.846 212.436 117.257 211.785 118.003C211.199 118.674 210.777 120 209.809 120.033C209.113 120.056 208.423 119.631 208.132 118.998C208.026 118.768 207.969 118.516 207.838 118.3C207.663 118.012 207.374 117.816 207.128 117.586C206.2 116.721 205.877 115.356 205.981 114.092C206.084 112.827 206.557 111.627 207.009 110.441C207.135 110.11 207.26 109.738 207.121 109.413C206.979 109.08 206.612 108.914 206.285 108.758C204.674 107.99 203.299 106.738 202.383 105.207C202.422 106.332 202.752 107.446 203.333 108.411C201.275 108.353 199.208 107.938 197.361 107.028C195.514 106.118 193.895 104.693 192.911 102.885C192.629 104.258 192.545 105.672 192.661 107.069C190.719 106.84 188.876 105.859 187.601 104.377C186.326 102.895 185.632 100.926 185.695 98.9709C184.307 100.574 182.724 102.344 181.739 104.482C180.802 106.52 180.564 108.331 180.595 110.601Z" fill="#FFBDA7"/>
<path d="M192.033 112.027L190.161 123.284L184.294 120.174L192.033 112.027Z" fill="#F0997A"/>
<path d="M193.439 129.381C191.722 129.699 190.073 128.565 189.755 126.848L195.972 125.696C196.29 127.413 195.156 129.063 193.439 129.381Z" fill="#B16668"/>
<path d="M195.657 126.615C195.77 126.621 195.875 126.651 195.986 126.666C195.818 127.994 194.826 129.124 193.439 129.382C192.853 129.49 192.279 129.419 191.759 129.224C192.331 127.629 193.879 126.52 195.657 126.615Z" fill="#F28F8F"/>
<path d="M191.15 138.767C195.505 138.938 204.907 136.828 207.707 131.294C207.707 131.294 207.463 136.084 201.848 138.757C197.421 140.865 191.082 141.019 191.082 141.019L191.15 138.767Z" fill="#F0997A"/>
<path d="M195.76 116.073C195.756 117.136 196.615 118 197.678 118.004C198.741 118.008 199.605 117.149 199.609 116.086C199.613 115.023 198.754 114.159 197.692 114.155C196.628 114.152 195.764 115.01 195.76 116.073Z" fill="#263238"/>
<path d="M182.656 115.384C182.796 116.437 183.764 117.178 184.818 117.037C185.871 116.897 186.611 115.929 186.471 114.875C186.331 113.821 185.363 113.081 184.309 113.222C183.255 113.363 182.515 114.331 182.656 115.384Z" fill="#263238"/>
<path d="M183.581 108.098C184.992 107.534 186.594 108.22 187.159 109.632L182.048 111.677C181.483 110.265 182.17 108.663 183.581 108.098Z" fill="#263238"/>
<path d="M201.312 110.122C202.489 111.083 202.665 112.817 201.704 113.995L197.439 110.514C198.4 109.336 200.134 109.16 201.312 110.122Z" fill="#263238"/>
<path d="M255.079 111.731C255.427 115.685 252.619 122.155 249.064 129.27C236.192 155.028 235.672 154.194 228.965 169.703C221.532 162.369 216.805 151.764 218.025 142.911C218.025 142.911 229.774 122.132 235.867 110.693C236.176 104.711 235.583 79.837 235.166 76.023C234.749 72.209 234.794 69.183 234.558 67.818C233.875 63.869 234.93 60.327 235.231 56.653C235.466 53.789 234.729 52.181 235.396 51.938C236.254 51.624 238.224 51.77 239.285 54.081C239.819 55.244 240.086 59.224 240.569 60.175C241.052 61.126 242.816 56.475 243.694 51.035C244.197 47.916 245.082 45.495 246.832 44.121C247.662 43.469 248.66 43.46 249.065 44.168C249.284 44.551 249.309 45.061 249.309 45.061C249.309 45.061 249.653 43.992 250.995 43.77C252.351 43.546 252.74 44.561 252.72 45.684C252.704 46.605 252.691 47.164 252.691 47.172C252.692 47.129 253.332 47.205 253.841 47.87C254.202 48.341 254.206 48.957 254.238 49.537C254.323 51.077 253.726 54.07 253.342 56.215C253.143 57.327 252.897 58.374 252.698 59.486C253.097 59.407 253.509 57.76 253.766 56.883C253.998 56.093 254.093 55.33 254.413 54.453C254.61 53.915 254.908 53.275 255.323 52.879C256.356 51.89 257.526 53.096 257.324 54.598C257.037 56.726 256.993 57.445 256.681 59.308C256.359 61.235 256.127 63.067 255.427 64.91C254.749 66.694 253.855 68.386 252.959 70.068C251.454 72.918 249.06 76.063 249.48 79.467C249.839 82.375 250.116 82.557 250.723 85.426C251.988 91.411 253.186 97.415 254.084 103.468C254.492 106.214 254.836 108.968 255.079 111.731Z" fill="#FFBDA7"/>
<path d="M242.196 61.4819C244.605 63.8689 243.919 68.8329 242.443 71.8849C245.155 68.6689 246.184 64.5899 242.196 61.4819Z" fill="#F0997A"/>
<path d="M246.751 50.612C246.185 52.861 245.74 54.532 245.392 56.827C245.374 56.945 245.524 56.846 245.545 56.791C246.207 54.946 246.705 53.043 247.187 51.144C247.673 49.23 248.454 46.856 249.17 45.5C249.231 45.384 249.148 45.285 249.046 45.386C248.096 46.326 247.176 48.924 246.751 50.612ZM252.393 47.237C251.628 47.462 251.213 48.001 250.903 48.721C250.491 49.681 250.286 50.747 250.012 51.752C249.405 53.974 248.413 57.545 247.983 59.809C247.945 60.007 247.904 60.39 248.016 60.088C248.742 58.134 249.76 54.653 250.309 52.644C250.575 51.67 250.822 50.689 251.11 49.722C251.358 48.89 251.69 47.987 252.403 47.434C252.449 47.399 252.511 47.203 252.393 47.237Z" fill="#F0997A"/>
<path d="M216.989 141.687C218.541 140.305 220.937 137.202 223.174 133.345C224.765 130.602 228.716 123.786 228.716 123.786C228.545 128.394 239.68 139.444 245.41 136.76C245.41 136.76 240.872 146.831 238.102 152.807C234.4 160.795 233.218 163.153 229.362 171.205C229.362 171.205 224.21 170.134 219.764 162.207C216.327 156.078 214.29 144.092 216.989 141.687Z" fill="url(#paint10_linear_241_15027)"/>
<path opacity="0.3" d="M216.989 141.687C218.541 140.305 220.937 137.202 223.174 133.345C224.765 130.602 228.716 123.786 228.716 123.786C228.545 128.394 239.68 139.444 245.41 136.76C245.41 136.76 240.872 146.831 238.102 152.807C234.4 160.795 233.218 163.153 229.362 171.205C229.362 171.205 224.21 170.134 219.764 162.207C216.327 156.078 214.29 144.092 216.989 141.687Z" fill="white"/>
<path d="M327.054 323.994C326.06 341.953 324.797 361.134 324.753 362.017C324.494 367.292 325.331 370.256 327.433 372.438C331.835 377.007 338.177 379.836 343.664 383.793C342.913 385.879 335.482 386.914 332.23 385.39C327.034 382.954 321.854 379.192 320.073 377.919C315.566 374.696 308.88 373.791 308.725 368.776C308.703 368.151 308.417 366.533 308.448 366.433C308.328 363.8 304.321 336.661 302.44 323.994H327.054Z" fill="#B16668"/>
<path d="M257.044 336.927C256.912 332.674 256.29 328.219 256.455 323.995H284.404C282.88 331.056 281.352 337.875 280.127 342.861C278.021 351.43 275.589 361.66 273.914 371.072C274.181 374.856 270.589 394.593 269.714 399.177C268.839 403.762 258.883 404.046 258.115 396.199C257.604 390.976 259.017 374.177 259.099 371.669C259.433 361.437 257.587 354.382 257.044 336.927Z" fill="#B16668"/>
<path d="M350.457 390.91C350.732 390.913 351.118 393.955 349.608 395.231C347.865 396.704 342.767 399.1 336.074 398.165C329.38 397.23 325.772 395.12 323.112 392.848C320.453 390.576 316.726 387.372 313.7 386.672C310.89 386.022 307.844 384.715 306.952 383.836C306.06 382.957 306.224 379.087 306.224 379.087L350.457 390.91Z" fill="#263238"/>
<path d="M308.174 363.9C308.174 363.9 307.512 364.048 307.33 364.942C307.113 366.006 307.551 369.279 307.09 371.025C306.45 373.452 305.987 378.435 306.336 380.422C306.685 382.409 311.262 383.833 314.185 384.98C317.17 386.152 320.613 388.539 323.63 391.079C326.753 393.707 333.353 396.38 337.721 396.489C344.389 396.654 348.726 394.889 350.084 392.506C351.764 389.557 351.436 386.857 343.808 383.228C342.364 382.541 337.298 379.474 335.573 378.363C333.749 377.189 332.004 375.887 330.397 374.429C329.585 373.691 328.808 372.913 328.081 372.09C327.441 371.366 326.539 370.489 326.165 369.592C326.08 369.389 326.023 369.152 325.947 368.941C325.73 368.333 325.582 367.772 325.466 367.14C325.349 366.502 325.281 365.572 324.678 365.184C323.987 364.738 322.73 364.781 321.942 364.832C320.95 364.897 318.751 365.362 317.788 365.605C316.071 366.039 315.597 366.518 314.918 367.571C314.398 368.378 314.309 369.402 314.259 370.341C314.235 370.788 314.241 371.239 314.232 371.686C314.228 371.877 314.306 372.222 314.039 372.139C313.785 372.061 313.507 371.389 313.413 371.161C313.205 370.658 313.075 370.121 312.847 369.626C312.587 369.06 312.292 368.479 311.91 367.994C311.553 367.541 311.162 367.106 310.71 366.746C310.298 366.419 309.77 366.253 309.406 365.882C308.944 365.411 308.211 364.28 308.174 363.9Z" fill="#37474F"/>
<path d="M345.038 383.825C335.376 384.392 331.326 391.293 330.879 394.979C333.263 395.851 335.724 396.439 337.72 396.489C344.388 396.654 349 394.894 350.357 392.511C351.943 389.729 351.857 386.492 345.038 383.825Z" fill="#FAFAFA"/>
<path d="M329.615 384.746C329.51 384.745 329.405 384.709 329.318 384.637C329.118 384.47 329.092 384.173 329.258 383.973C330.619 382.341 335.465 379.232 338.971 379.65C339.23 379.68 339.416 379.916 339.384 380.173C339.354 380.431 339.126 380.616 338.861 380.586C335.589 380.206 331.061 383.282 329.982 384.577C329.888 384.689 329.752 384.747 329.615 384.746Z" fill="#F0F0F0"/>
<path d="M325.481 382.281C325.376 382.28 325.271 382.245 325.184 382.172C324.984 382.006 324.958 381.708 325.124 381.508C326.486 379.874 331.335 376.761 334.837 377.185C335.096 377.215 335.281 377.451 335.25 377.709C335.22 377.967 334.996 378.152 334.727 378.122C331.455 377.737 326.927 380.818 325.848 382.113C325.754 382.225 325.618 382.282 325.481 382.281Z" fill="#F0F0F0"/>
<path d="M321.656 379.475C321.551 379.474 321.446 379.438 321.358 379.365C321.158 379.199 321.132 378.901 321.298 378.701C322.659 377.067 327.521 373.958 331.011 374.378C331.27 374.408 331.456 374.643 331.424 374.901C331.394 375.159 331.169 375.343 330.9 375.314C327.632 374.932 323.1 378.01 322.021 379.305C321.929 379.418 321.793 379.476 321.656 379.475Z" fill="#F0F0F0"/>
<path d="M317.909 376.669C317.807 376.668 317.703 376.634 317.617 376.564C317.414 376.4 317.383 376.103 317.547 375.901C319.42 373.584 324.563 371.119 328.064 371.538C328.323 371.568 328.509 371.804 328.477 372.061C328.447 372.319 328.22 372.497 327.954 372.474C324.802 372.099 319.942 374.44 318.28 376.493C318.187 376.611 318.048 376.67 317.909 376.669Z" fill="#F0F0F0"/>
<path d="M272.901 402.685C272.711 407.243 272.053 410.273 270.482 412.97C268.91 415.667 265.876 416.556 262.776 415.825C259.676 415.094 255.689 413.069 254.739 409.156C253.79 405.242 253.229 402.559 253.861 398.324L272.901 402.685Z" fill="#263238"/>
<path d="M259.154 369.571C257.884 369.692 257.985 376.166 257.353 382.3C256.675 388.875 254.761 391.621 254.147 397.012C253.446 403.172 254.509 405.901 256.724 409.582C258.938 413.263 266.623 416.783 270.293 411.398C273.284 407.008 272.995 402.206 272.951 396.061C272.906 389.628 273.256 385.286 273.86 380.501C274.556 374.987 275.028 371.563 273.915 371.069C273.841 371.747 273.773 372.606 273.693 373.271C273.596 374.09 273.374 375.703 273.374 375.703C273.25 376.047 272.922 376.44 272.797 375.885C272.712 375.509 272.743 375.118 272.779 374.74C272.937 373.042 272.081 372.918 271.618 372.794C270.614 372.525 265.848 371.778 264.894 371.729C263.921 371.678 260.565 371.588 260.138 372.149C259.849 372.528 259.818 373.156 259.74 373.934C259.647 374.861 259.636 375.44 259.412 375.252C259.147 375.029 259.138 373.279 259.147 372.862C259.156 372.463 259.162 371.557 259.161 371.156C259.16 370.763 259.134 369.965 259.154 369.571Z" fill="#37474F"/>
<path d="M253.704 400.58C253.548 404.4 254.503 406.999 256.237 409.881C258.452 413.562 266.75 417.084 270.42 411.699C272.246 409.02 272.695 405.88 272.9 402.682C270.579 398.616 257.198 397.029 253.704 400.58Z" fill="#FAFAFA"/>
<path d="M270.014 396.044C269.961 396.039 269.908 396.027 269.857 396.003C269.805 395.98 263.88 393.643 258.174 395.063C257.922 395.121 257.666 394.971 257.602 394.718C257.539 394.465 257.694 394.209 257.947 394.146C263.982 392.648 270.025 395.042 270.25 395.143C270.487 395.253 270.591 395.532 270.483 395.769C270.398 395.957 270.206 396.06 270.014 396.044Z" fill="#F0F0F0"/>
<path d="M258.382 390.478C258.204 390.463 258.041 390.346 257.977 390.167C257.891 389.921 258.017 389.651 258.262 389.563C263.932 387.537 270.308 390.332 270.549 390.453C270.782 390.569 270.876 390.852 270.758 391.086C270.64 391.318 270.353 391.407 270.125 391.295C270.071 391.269 263.857 388.56 258.581 390.452C258.516 390.476 258.448 390.483 258.382 390.478Z" fill="#F0F0F0"/>
<path d="M258.512 386.155C258.337 386.14 258.177 386.027 258.11 385.852C258.018 385.607 258.14 385.335 258.384 385.244C264.618 382.894 270.678 385.963 270.902 386.095C271.127 386.227 271.203 386.516 271.071 386.74C270.939 386.965 270.645 387.041 270.426 386.909C270.376 386.879 264.521 383.941 258.718 386.126C258.65 386.152 258.58 386.16 258.512 386.155Z" fill="#F0F0F0"/>
<path d="M258.754 381.897C258.581 381.883 258.423 381.772 258.355 381.6C258.26 381.357 258.378 381.084 258.621 380.988C264.462 378.69 270.981 381.831 271.226 381.969C271.454 382.093 271.536 382.381 271.41 382.609C271.285 382.837 270.999 382.923 270.769 382.793C270.712 382.762 264.391 379.73 258.967 381.865C258.896 381.893 258.824 381.903 258.754 381.897Z" fill="#EBEBEB"/>
<path d="M264.084 197.117C259.386 208.787 256.149 220.932 257.506 246.261C259.165 277.235 258.348 287.092 258.288 290.833C258.228 294.574 255.95 304.839 255.864 323.359C255.791 339.047 257.194 349.71 257.194 349.71C257.194 349.71 260.055 354.141 267.108 354.657C273.615 355.132 278.363 352.64 278.363 352.64C278.363 352.64 285.119 325.948 287.255 314.785C289.725 301.878 295.848 271.87 295.848 271.87L299.39 296.833C299.39 296.833 298.788 306.747 300.389 318.841C302.525 334.975 305.165 347.23 305.165 347.23C305.165 347.23 311.101 348.859 316.658 348.683C322.215 348.507 326.361 346.031 326.361 346.031C326.361 346.031 331.799 312.674 332.115 289.836C332.368 271.528 330.525 226.516 326.046 197.923L264.084 197.117Z" fill="#37474F"/>
<path d="M262.355 305.6C263.765 295.829 264.408 291.37 264.737 266.084C264.957 249.206 265.673 236.397 267.139 225.669C267.123 225.562 267.136 225.458 267.181 225.364C268.552 215.465 270.569 207.336 273.44 199.415L274.379 199.756C271.571 207.505 269.584 215.46 268.224 225.114C271.383 225.259 274.566 224.356 276.426 221.615C277.409 220.165 277.985 218.498 278.46 216.825C278.986 214.974 279.434 213.102 279.942 211.246C280.569 208.955 281.136 206.656 282.007 204.443C282.103 204.199 282.656 203.964 282.603 204.399C282.333 206.589 281.77 208.713 281.252 210.855C280.747 212.948 280.242 215.048 279.668 217.124C278.715 220.573 277.142 223.932 273.642 225.383C271.882 226.112 269.967 226.335 268.074 226.22C266.651 236.82 265.953 249.475 265.737 266.097C265.407 291.449 264.761 295.928 263.345 305.743C261.892 315.821 260.059 340.416 260.436 352.634C260.032 352.367 259.695 352.102 259.415 351.849C259.138 339.328 260.929 315.493 262.355 305.6Z" fill="#263238"/>
<path d="M300.157 233.004L295.849 271.869L299.391 296.832L298.614 271.886L302.081 238.896C306.478 237.765 316.435 232.305 319.071 224.7C312.384 231.927 300.157 233.004 300.157 233.004Z" fill="#263238"/>
<path d="M266.784 110.565C265.15 110.936 263.622 111.98 262.926 113.504C262.061 115.399 262.433 117.957 260.81 119.263C259.586 120.249 257.509 119.845 256.744 118.471C256.111 119.109 255.919 120.144 256.28 120.967C256.642 121.79 257.535 122.347 258.433 122.311C256.325 122.736 254.487 124.314 253.748 126.333C253.008 128.352 253.392 130.744 254.727 132.43C254.997 132.771 255.306 133.092 255.467 133.495C255.845 134.443 255.3 135.48 254.852 136.397C254.088 137.96 253.562 139.709 253.808 141.431C254.054 143.153 255.251 144.936 256.591 145.527C255.979 143.836 256.96 141.858 257.206 141.621C256.701 144.229 258.385 147.039 260.844 148.046C262.677 148.797 265.384 148.866 267.313 148.418C269.242 147.97 271.148 147.315 273.127 147.253C274.22 147.219 275.316 147.367 276.407 147.285C278.574 147.122 280.652 146.005 281.983 144.287C283.129 142.808 283.762 140.826 283.594 138.952C283.408 136.876 284.842 135.405 286.086 133.8C287.567 131.888 288.999 129.523 288.349 127.193C287.778 125.147 285.698 123.656 285.554 121.537C285.468 120.27 286.114 119.165 286.06 117.906C286.012 116.767 285.6 115.623 285.027 114.647C283.954 112.821 282.132 111.401 280.038 110.981C277.616 110.496 275.175 111.224 272.745 110.979C270.763 110.778 268.799 110.108 266.784 110.565Z" fill="#263238"/>
<path d="M372.017 144.78C371.827 141.572 371.736 138.362 371.515 135.158C371.414 133.702 371.695 132.031 370.718 130.81C370.521 130.563 370.071 130.298 369.804 130.386C369.804 130.386 369.706 129.024 369.678 128.401C369.627 127.259 369.316 125.144 367.945 124.829C366.811 124.569 366.131 127.25 366.131 127.25C366.131 127.25 366.67 124.675 366.172 123.509C365.55 122.051 364.269 121.242 363.511 122.211C362.753 123.18 362.44 124.534 362.439 124.536C362.062 124.36 361.427 124.526 360.945 124.849C359.676 125.701 359.269 127.331 358.952 128.726C358.577 130.377 358.372 132.066 358.341 133.758C358.31 135.473 358.454 137.219 358.025 138.88C357.741 139.974 357.152 141.047 356.259 141.761C355.191 142.614 354.622 144.355 355.195 147.021C355.399 147.97 356.154 150.187 353.058 153.38C352.799 153.647 341.381 165.06 341.404 165.087C336.628 159.409 334.229 156.389 326.355 146.895C321.65 141.222 316.346 140.036 309.964 139.87L315.154 162.949C315.154 162.949 323.878 176.109 333.058 184.697C340.288 191.461 344.343 191.2 349.367 185.369C350.003 184.631 350.607 183.839 351.198 183.023C360.341 170.912 364.134 161.603 367.066 156.862C368.054 155.265 369.221 153.52 370.463 151.682C371.727 149.81 372.122 146.556 372.017 144.78Z" fill="#B16668"/>
<path d="M341.403 165.087C339.074 167.228 336.234 170.318 336.368 174.988C335.14 169.813 337.782 165.418 340.218 163.677L341.403 165.087Z" fill="#9A4A4D"/>
<path d="M261.374 202.777C264.211 194.178 264.62 191.451 264.607 184.598C264.596 178.611 264.121 175.733 264.031 171.271C264.031 171.271 272.635 164.217 269.767 143.818L282.857 140.423L300.161 139.685L311.81 139.904C314.466 142.165 320.755 148.265 324.655 153.725C330.283 161.603 330.058 171.531 324.237 177.969C324.17 179.224 324.603 182.498 325.224 187.413C326.084 194.226 326.583 197.922 327.479 203.893C320.525 216.125 275.964 220.154 261.374 202.777Z" fill="url(#paint11_linear_241_15027)"/>
<path opacity="0.3" d="M261.374 202.777C264.211 194.178 264.62 191.451 264.607 184.598C264.596 178.611 264.121 175.733 264.031 171.271C264.031 171.271 272.635 164.217 269.767 143.818L282.857 140.423L300.161 139.685L311.81 139.904C314.466 142.165 320.755 148.265 324.655 153.725C330.283 161.603 330.058 171.531 324.237 177.969C324.17 179.224 324.603 182.498 325.224 187.413C326.084 194.226 326.583 197.922 327.479 203.893C320.525 216.125 275.964 220.154 261.374 202.777Z" fill="white"/>
<path d="M251.107 225.25C251.59 229.764 251.097 233.75 251.472 235.987C251.847 238.224 251.95 239.449 252.436 241.223C252.922 242.996 254.41 244.909 254.41 244.909C254.41 244.909 255.394 247.623 256.466 249.262C257.534 250.895 260.061 252.97 260.067 252.983C260.999 255.102 260.989 255.323 261.389 256.229C261.518 256.522 261.665 256.89 261.94 257.055C262.175 257.196 262.524 257.102 262.741 256.934C263.34 256.469 263.39 255.842 263.444 255.531C263.684 254.138 263.109 252.824 262.715 251.466C262.178 249.615 261.612 247.836 261.381 245.917C261.416 246.208 261.688 246.624 261.818 246.882C262.062 247.368 262.187 247.891 262.415 248.391C263.496 250.766 264.577 253.141 265.658 255.516C265.758 255.735 265.869 255.968 266.075 256.093C266.316 256.24 266.64 256.198 266.877 256.043C267.113 255.888 267.273 255.639 267.384 255.379C267.805 254.397 267.609 253.271 267.362 252.232C267.04 250.874 266.643 249.535 266.174 248.221C265.683 246.847 265.2 245.358 264.921 243.918C264.628 242.405 264.358 241.125 264.339 239.586C264.331 238.973 264.06 236.325 265.429 237.324C265.741 237.551 265.909 237.92 266.073 238.269C266.555 239.297 267.117 240.31 267.939 241.093C268.761 241.876 269.881 242.407 271.011 242.301C271.184 242.284 271.361 242.252 271.506 242.157C271.814 241.955 271.892 241.52 271.798 241.164C271.703 240.808 271.475 240.505 271.272 240.197C271.222 240.122 271.174 240.046 271.127 239.969C269.275 236.943 268.902 233.58 267.267 230.876C266.754 230.027 265.809 228.241 265.206 226.978C264.675 225.865 263.69 224.711 263.352 222.289C263.014 219.866 265.181 193.682 265.181 193.682L271.007 174.422C275.614 159.604 272.765 147.857 269.768 143.816C263.8 144.892 257.546 148.986 255.994 153.921C254.985 157.126 253.484 161.971 251.54 171.756C249.711 180.966 248.651 182.105 247.75 189.61C247.264 193.656 247.262 195.557 248.422 204.788C249.431 212.832 250.624 220.736 251.107 225.25Z" fill="#B16668"/>
<path d="M260.067 252.984C259.152 251.493 257.788 248.134 257.31 246.457C256.875 244.766 256.554 243.038 256.51 241.292C256.841 243.003 257.175 244.701 257.645 246.367C258.08 248.042 259.411 251.37 260.067 252.984Z" fill="#9A4A4D"/>
<path d="M254.409 244.909C253.959 244.15 253.719 243.298 253.504 242.456C253.332 241.602 253.179 240.741 253.196 239.861C253.465 240.697 253.632 241.542 253.842 242.379L254.409 244.909Z" fill="#9A4A4D"/>
<path d="M261.379 245.918C260.602 244.405 259.973 241.625 259.973 241.625C259.973 241.625 259.717 244.881 261.6 247.412L261.379 245.918Z" fill="#9A4A4D"/>
<path d="M272.47 90.961C273.735 89.277 275.796 87.968 277.806 87.435C279.816 86.901 281.053 86.911 282.965 86.081C284.783 85.292 286.341 83.969 288.15 83.16C291.004 81.885 294.313 82.057 297.18 83.195C300.039 84.33 301.837 86.938 304.864 87.618C306.442 87.973 308.077 88.037 309.645 88.433C312.305 89.104 314.741 90.793 316.095 93.179C317.449 95.565 317.626 98.64 316.342 101.064C315.968 101.77 315.469 102.452 315.405 103.248C315.285 104.73 316.659 105.85 317.336 107.173C318.495 109.44 317.426 112.381 315.427 113.957C313.428 115.534 310.75 115.976 308.204 115.924C307.785 119.709 305.676 123.145 302.994 125.848C301.177 127.679 299.096 129.218 296.958 130.65C294.967 131.982 293.131 132.652 290.935 133.544C288.784 134.418 284.906 136.062 282.757 134.356C281.89 133.668 281.361 132.653 280.801 131.698C278.753 128.21 276.007 125.196 273.432 122.077C270.857 118.958 268.4 115.64 267.082 111.816C266.111 108.998 265.814 105.854 266.6 102.953C266.89 101.881 267.353 100.473 267.967 99.538C269.038 97.907 270.451 97.523 271.384 97.542C270.766 94.676 271.663 92.036 272.47 90.961Z" fill="#263238"/>
<path d="M274.444 112.733C276.962 111.851 279.027 112.87 280.258 115.579C281.329 117.935 283.795 117.204 283.349 113.58C289.124 108.345 282.765 104.653 287.555 99.5641C290.543 96.3891 296.632 97.4781 299.007 99.6121C300.162 97.5771 303.229 95.8861 306.049 97.0111C308.592 98.0261 310.169 99.6551 311.271 103.348C312.419 107.194 312.011 107.764 312.54 110.471C312.745 111.519 313.492 113.271 313.818 115.904C315.133 126.525 312.016 131 307.443 133.747C305.892 134.679 301.971 135.254 300.102 135.242L300.422 140.893C300.422 140.893 305.596 146.439 305.866 155.183C297.328 150.588 283.417 145.159 280.791 140.96L280.067 124.146L280.064 123.414C279.441 124.828 275.786 126.444 273.001 123.941C269.478 120.774 270.002 114.289 274.444 112.733Z" fill="#B16668"/>
<path d="M310.432 108.359L306.465 106.272C306.998 105.118 308.319 104.65 309.414 105.227C310.509 105.803 310.965 107.206 310.432 108.359Z" fill="#263238"/>
<path d="M293.502 106.647L290.114 109.603C289.266 108.664 289.337 107.241 290.273 106.424C291.208 105.609 292.655 105.708 293.502 106.647Z" fill="#263238"/>
<path d="M294.716 122.152L301.238 124.055C300.79 125.932 298.782 127.011 296.737 126.331C294.956 125.739 294.268 124.028 294.716 122.152Z" fill="#9A4A4D"/>
<path d="M298.603 126.464C298.335 124.633 296.767 123.263 294.921 123.351C294.809 123.356 294.704 123.385 294.594 123.401C294.648 124.75 295.364 125.874 296.737 126.331C297.38 126.545 298.014 126.568 298.603 126.464Z" fill="#F28F8F"/>
<path d="M300.256 109.417L302.544 120.497L308.332 117.653L300.256 109.417Z" fill="#9A4A4D"/>
<path d="M296.165 111.57C296.262 112.581 295.54 113.48 294.552 113.578C293.564 113.676 292.684 112.936 292.586 111.925C292.489 110.914 293.211 110.015 294.199 109.917C295.187 109.819 296.067 110.559 296.165 111.57Z" fill="#263238"/>
<path d="M309.424 110.348C309.521 111.359 308.799 112.258 307.811 112.356C306.823 112.454 305.943 111.714 305.845 110.703C305.747 109.692 306.47 108.793 307.458 108.695C308.447 108.597 309.327 109.337 309.424 110.348Z" fill="#263238"/>
<path d="M300.102 135.242C295.893 135.302 286.401 134.096 282.768 127.417C282.768 127.417 282.774 131.35 287.435 134.635C291.425 137.447 300.257 137.962 300.257 137.962L300.102 135.242Z" fill="#9A4A4D"/>
<path d="M366.336 144.06C366.034 143.775 365.695 143.517 365.31 143.276C364.394 142.701 363.352 142.321 362.266 142.269C362.167 142.264 362.222 142.445 362.293 142.464C363.568 142.794 364.824 143.431 365.758 144.371C367.125 145.747 367.576 147.577 367.897 149.441C367.908 149.505 367.97 149.588 368.016 149.543C368.03 149.53 368.033 149.509 368.036 149.49C368.205 148.295 368.128 146.857 367.578 145.761C367.238 145.083 366.838 144.534 366.336 144.06Z" fill="#9A4A4D"/>
<path d="M371.286 131.479C371.049 130.962 370.705 130.295 369.96 130.237L369.831 128.005C369.76 127.206 369.624 126.392 369.22 125.649C369.016 125.284 368.717 124.936 368.305 124.742C367.938 124.492 367.255 124.636 366.999 124.987C366.805 125.2 366.658 125.429 366.527 125.664C366.547 125.369 366.571 125.074 366.566 124.775C366.588 123.917 366.261 123.017 365.674 122.383C365.386 122.058 365.026 121.763 364.562 121.654C364.088 121.534 363.559 121.811 363.332 122.188C362.849 122.854 362.547 123.604 362.335 124.384C361.327 124.209 360.512 124.917 359.993 125.615C359.44 126.402 359.17 127.325 358.961 128.228C358.55 130.044 358.339 131.903 358.339 133.759C358.407 131.904 358.686 130.063 359.16 128.276C359.39 127.387 359.659 126.49 360.193 125.759C360.369 125.509 360.585 125.284 360.826 125.096C360.951 124.999 361.074 124.914 361.224 124.861C361.384 124.804 361.552 124.771 361.719 124.743C362.049 124.687 362.393 124.674 362.662 124.904C362.898 125.105 363.027 125.409 363.097 125.704C363.116 125.784 363.131 125.865 363.142 125.947C363.224 126.491 363.193 127.064 363.121 127.626C362.915 128.747 362.773 129.929 362.731 131.081C362.68 132.24 362.673 133.401 362.751 134.558L363.057 138.016L362.858 134.553C362.816 133.4 362.858 132.244 362.944 131.095C363.025 129.936 363.193 128.821 363.439 127.674C363.53 127.094 363.584 126.501 363.513 125.896C363.459 125.36 363.217 124.699 362.625 124.407C362.835 123.685 363.138 122.971 363.583 122.377C363.801 122.051 364.142 121.897 364.493 121.976C364.845 122.061 365.162 122.313 365.415 122.609C365.945 123.218 366.218 123.971 366.19 124.783C366.193 125.19 366.166 125.597 366.121 126.002C366.076 126.401 366 126.796 365.958 127.196C365.873 128.011 365.908 128.837 365.931 129.656C365.953 130.484 365.991 131.31 366.035 132.137C366.133 133.763 366.237 135.392 366.481 137.003C366.308 135.384 366.276 133.756 366.25 132.13C366.243 131.418 366.241 130.706 366.249 129.995C366.254 129.579 366.262 129.163 366.274 128.748C366.28 128.54 366.288 128.333 366.296 128.125C366.3 128.021 366.303 127.917 366.31 127.814C366.316 127.733 366.338 127.657 366.34 127.574C366.343 127.458 366.354 127.341 366.373 127.227C366.432 126.865 366.58 126.512 366.733 126.18C366.882 125.859 367.062 125.549 367.297 125.284C367.753 124.703 368.546 125.221 368.878 125.844C369.384 126.792 369.436 127.826 369.538 128.872C369.593 129.435 369.579 129.998 369.587 130.562C369.595 131.144 369.594 131.725 369.604 132.307C369.625 133.47 369.671 134.633 369.776 135.792C369.794 135.988 369.827 136.186 369.835 136.382C369.764 134.434 369.874 132.488 370.006 130.547C370.178 130.582 370.396 130.71 370.533 130.848C370.715 131.055 370.886 131.325 371 131.598C371.23 132.158 371.306 132.78 371.329 133.404C371.337 134.662 371.429 135.947 371.501 137.202L372.014 144.781L371.736 137.186C371.679 135.912 371.604 134.669 371.612 133.394C371.598 132.756 371.531 132.098 371.286 131.479Z" fill="#9A4A4D"/>
<path d="M357.761 137.156C356.902 134.464 354.962 133.693 354.031 134.472C353.1 135.251 354.378 138.41 354.531 140.63C354.685 142.85 354.842 153.365 359.931 154.586L360.074 142.616C359.209 142.082 358.427 139.241 357.761 137.156Z" fill="#B16668"/>
<path d="M360.074 142.616C359.502 142.194 359.237 141.498 358.945 140.876C358.671 140.232 358.434 139.574 358.205 138.914C357.749 137.605 357.472 136.182 356.517 135.194C356.066 134.71 355.449 134.326 354.815 134.349C354.514 134.359 354.191 134.501 354.039 134.72C353.883 134.952 353.868 135.303 353.878 135.63C353.964 136.979 354.411 138.326 354.637 139.715C354.877 142.534 354.912 145.292 355.535 148.014C355.834 149.364 356.254 150.699 356.921 151.906C357.56 153.106 358.556 154.217 359.93 154.586C358.539 154.289 357.452 153.206 356.739 152.01C356.029 150.789 355.585 149.438 355.257 148.078C354.583 145.358 354.489 142.504 354.214 139.783C354.019 138.418 353.591 137.082 353.521 135.639C353.522 135.282 353.522 134.89 353.758 134.531C354.021 134.18 354.417 134.048 354.802 134.03C355.585 134.022 356.246 134.478 356.724 135.002C358.595 137.277 358.232 140.457 360.074 142.616Z" fill="#9A4A4D"/>
<defs>
<linearGradient id="paint0_linear_241_15027" x1="50.1441" y1="269.62" x2="50.1441" y2="345.216" gradientUnits="userSpaceOnUse">
<stop stop-color="#FF4825"/>
<stop offset="1" stop-color="#FF6EAE"/>
</linearGradient>
<linearGradient id="paint1_linear_241_15027" x1="41.2993" y1="298.764" x2="41.2993" y2="347.094" gradientUnits="userSpaceOnUse">
<stop stop-color="#FF4825"/>
<stop offset="1" stop-color="#FF6EAE"/>
</linearGradient>
<linearGradient id="paint2_linear_241_15027" x1="449.371" y1="269.62" x2="449.371" y2="345.216" gradientUnits="userSpaceOnUse">
<stop stop-color="#FF4825"/>
<stop offset="1" stop-color="#FF6EAE"/>
</linearGradient>
<linearGradient id="paint3_linear_241_15027" x1="458.216" y1="298.764" x2="458.216" y2="347.094" gradientUnits="userSpaceOnUse">
<stop stop-color="#FF4825"/>
<stop offset="1" stop-color="#FF6EAE"/>
</linearGradient>
<linearGradient id="paint4_linear_241_15027" x1="68.2849" y1="99.349" x2="68.2849" y2="136.276" gradientUnits="userSpaceOnUse">
<stop stop-color="#FF4825"/>
<stop offset="1" stop-color="#FF6EAE"/>
</linearGradient>
<linearGradient id="paint5_linear_241_15027" x1="145.671" y1="102.258" x2="145.671" y2="145.913" gradientUnits="userSpaceOnUse">
<stop stop-color="#FF4825"/>
<stop offset="1" stop-color="#FF6EAE"/>
</linearGradient>
<linearGradient id="paint6_linear_241_15027" x1="444.272" y1="108.666" x2="444.272" y2="159.362" gradientUnits="userSpaceOnUse">
<stop stop-color="#FF4825"/>
<stop offset="1" stop-color="#FF6EAE"/>
</linearGradient>
<linearGradient id="paint7_linear_241_15027" x1="341.513" y1="112.722" x2="341.513" y2="197.117" gradientUnits="userSpaceOnUse">
<stop stop-color="#FF4825"/>
<stop offset="1" stop-color="#FF6EAE"/>
</linearGradient>
<linearGradient id="paint8_linear_241_15027" x1="169.523" y1="144.161" x2="169.523" y2="185.598" gradientUnits="userSpaceOnUse">
<stop stop-color="#FF4825"/>
<stop offset="1" stop-color="#FF6EAE"/>
</linearGradient>
<linearGradient id="paint9_linear_241_15027" x1="196.844" y1="141.568" x2="196.844" y2="226.92" gradientUnits="userSpaceOnUse">
<stop stop-color="#FF4825"/>
<stop offset="1" stop-color="#FF6EAE"/>
</linearGradient>
<linearGradient id="paint10_linear_241_15027" x1="230.576" y1="123.786" x2="230.576" y2="171.205" gradientUnits="userSpaceOnUse">
<stop stop-color="#FF4825"/>
<stop offset="1" stop-color="#FF6EAE"/>
</linearGradient>
<linearGradient id="paint11_linear_241_15027" x1="295.058" y1="139.685" x2="295.058" y2="214.465" gradientUnits="userSpaceOnUse">
<stop stop-color="#FF4825"/>
<stop offset="1" stop-color="#FF6EAE"/>
</linearGradient>
</defs>
</svg>
